<svg id="Livello_1" data-name="Livello 1" xmlns="http://www.w3.org/2000/svg" viewBox="0 0 142.93 201.38"><defs><style>.cls-1,.cls-13{fill:#fefefe;}.cls-1{stroke:#c9c8c7;stroke-miterlimit:10;}.cls-2{fill:#e1b7b7;}.cls-3{fill:#8c4e4e;}.cls-4{fill:#c97d7d;}.cls-5{fill:#c16b6b;}.cls-6{fill:#5e3434;}.cls-7{fill:#fcfbfb;}.cls-8{fill:#c26c6c;}.cls-9{fill:#c26b6b;}.cls-10{fill:#6b3c3c;}.cls-11{fill:#e4bdbd;}.cls-12{fill:#b06262;}.cls-14{fill:#703e3e;}.cls-15{fill:#fdfcfc;}.cls-16{fill:#5f3535;}.cls-17{fill:#fdfbfb;}.cls-18{fill:#fdfbfc;}.cls-19{fill:#fcf9f9;}.cls-20{fill:#fbf8f8;}.cls-21{fill:#fcfafa;}.cls-22{fill:#653838;}.cls-23{fill:#fbf7f8;}.cls-24{fill:#633737;}.cls-25{fill:#fcf8f8;}.cls-26{fill:#fcfaf9;}.cls-27{fill:#7c4545;}.cls-28{fill:#deb1b1;}.cls-29{fill:#623636;}.cls-30{fill:#c06b6b;}.cls-31{fill:#faf5f6;}.cls-32{fill:#e3baba;}.cls-33{fill:#fbf7f7;}.cls-34{fill:#975454;}.cls-35{fill:#faf5f5;}.cls-36{fill:#f9f2f2;}.cls-37{fill:#f8f0ef;}.cls-38{fill:#f8efef;}.cls-39{fill:#faf3f4;}.cls-40{fill:#f8f1f1;}.cls-41{fill:#b26363;}.cls-42{fill:#864a4a;}.cls-43{fill:#744141;}.cls-44{fill:#744140;}.cls-45{fill:#774242;}.cls-46{fill:#784243;}.cls-47{fill:#784242;}.cls-48{fill:#794343;}.cls-49{fill:#784342;}.cls-50{fill:#faf4f4;}.cls-51{fill:#532d2d;}.cls-52{fill:#f8f2f2;}.cls-53{fill:#854a49;}.cls-54{fill:#e0b5b5;}.cls-55{fill:#e0b3b4;}.cls-56{fill:#5b3232;}.cls-57{fill:#7d4545;}.cls-58{fill:#a05859;}.cls-59{fill:#5f3434;}.cls-60{fill:#663838;}.cls-61{fill:#e2b9b9;}.cls-62{fill:#e2baba;}.cls-63{fill:#e1b8b8;}.cls-64{fill:#e6c3c3;}.cls-65{fill:#e2b8b8;}.cls-66{fill:#c26b6c;}</style></defs><title>Tavola disegno 6 copia 4</title><path class="cls-1" d="M6.3,192.23c0-.8-.06-1.6-.06-2.4q0-86.94,0-173.88c0-2.3,1.32-2.84,4.18-2.84H127.49c3.2,0,3.2,0,3.2,3.26q0,86.47,0,172.94c0,1-.08,1.91-.12,2.87-.64.49-1.39.27-2.09.27q-60,0-120.06,0A3.8,3.8,0,0,1,6.3,192.23Z"/><path class="cls-2" d="M121.45,25.2a4.8,4.8,0,0,1,.67,2.66c0,13.74.15,27.49-.12,41.23-.07,3.72.18,7.42.13,11.13,0,2.66-.74,5.32,0,8a1.14,1.14,0,0,1-.54,1.33c-.92.7-.52,1.91-.25,2.89a15.66,15.66,0,0,1,0,7.54,20.17,20.17,0,0,0,0,7.83c.26,1.35,1.05,2.66-.08,4,0,0-.08.11-.07.15,1.12,2.38-.72,4.66-.22,7a1.14,1.14,0,0,0,.14.45c1.05,1.38,1.05,1.38-.76,1.77a3,3,0,0,0-2.33,2.79c0,.65.51.58.94.64,2.22.33,2.95,1.47,2.28,3.65a4.36,4.36,0,0,0,0,2.7,4.87,4.87,0,0,1-.21,3.82,3.08,3.08,0,0,0,.12,2.84,2.78,2.78,0,0,1-1,3.8c-.86.63-1.25.44-1.45-.56a2.29,2.29,0,0,0-.48-1,1,1,0,0,0-1.47-.06c-.44.35-.33.76,0,1.14a3.5,3.5,0,0,1,.54.62c1,1.94,1,1.94,3,1.88-.07,1.61-1.6,3.11-.44,4.78a11.25,11.25,0,0,1,1.94,4.19,5.24,5.24,0,0,1,.27,1.07q0,13.52-.06,27c-.58.31-1.08,0-1.53-.27-5.53-3.21-11.24-6.08-16.74-9.35-1.46-1.13-3.28-1.64-4.78-2.7-.44-.27-.91-.5-1.38-.73-.72-.38-1.37-.88-2.12-1.21l-.39-.2c-1.06-.48-1.93-1.33-3.11-1.57a2,2,0,0,1-.41-.14,5.18,5.18,0,0,0-1.21-.48c-2.13-1.13-4.18-2.39-6.24-3.64-2.75-2.24-4.63-4.89-4.22-8.67a19,19,0,0,1,2.7-3.3c5-5.26,9.89-10.59,14.8-15.91,1.82-2,3.79-3.82,5.49-5.91,1.22-1.5,1.13-1.81-.51-3a1.52,1.52,0,0,1-.65-1.72,4.74,4.74,0,0,0-.48-2.72c-.22-.49-.5-1.09-1.16-1s-.54.73-.69,1.19c-.31,1,0,2.12-.94,2.87a56.65,56.65,0,0,1-8.91-2.27c-1.25-.36-1.29-1-.15-2,2.66-2.21,5.48-4.22,8.2-6.35a10.93,10.93,0,0,1,3.37-2.31c1.25.05,1.27,1.18,1.7,1.95.23.41.31,1.08.91,1s.7-.75.83-1.27a2.88,2.88,0,0,0,.09-1.14,5.77,5.77,0,0,1,1-4.89c.89-1.14.32-2.74-.4-4a5.54,5.54,0,0,0-1.74-2,7.86,7.86,0,0,1-1.09-1.45c-1.27-1.31-2.87-2.2-4.19-3.44-.41-.39-1.21-.76-.52-1.56a30,30,0,0,1,6.2,0,13.27,13.27,0,0,0,6.17-.47c.5-.16,1.22-.25,1.14-1s-.76-.69-1.3-.76c-2.66-.35-5.33-.54-8-1.11-1.78-.54-1.93-.82-.55-2.17s1.36-3.13,0-4.69c-.4-.47-1.13-.82-.61-1.64.94-.73,2.14-.8,3.21-1.21,4.24-1.63,7.36-4.32,7.76-9.06A34.49,34.49,0,0,0,111,58.61a7.59,7.59,0,0,1-.21-1.13,5,5,0,0,0-1.43-3.69c-.52-1.13-1.53-1.94-2-3.09-.06-.38.06-.77,0-1.15-.2-1.39.34-2.09,1.79-2a1.48,1.48,0,0,0,1.35-.48c.46-.63,1-1.37.7-2.11s-1.15-.41-1.76-.41c-2.31,0-4.61,0-6.92,0a2.1,2.1,0,0,0-2.31,1.42c-1,.53-1.75-.1-2.55-.52a7.63,7.63,0,0,0-6.94-.8c-2.26-.23-4.49.22-6.73.29a.41.41,0,0,1-.16,0c-2.16-1-4.16-1.32-5.48,1.29-.7.1-1.4.38-2.08,0a1.57,1.57,0,0,0-1.84-1.7.89.89,0,0,1-.32,0c-3.33-1.16-5.23.77-6.93,3.18a3.19,3.19,0,0,0-.58,2.32c.06.55.31,1.24-.55,1.48-.75-.6-1.39-.09-2.06.21a14.4,14.4,0,0,1-1.73.81c-1.25-.55-2.43-1.25-3.65-1.87-.74-.37-1.25-.91-1-1.84s1.09-1.08,2-1c2.06.24,2.27.07,3-1.82.35-.89,0-1.22-.79-1.34-1.19-.18-2.39-.38-3.59-.48S55,45.57,54.5,47.27A13,13,0,0,0,54.26,52a1.77,1.77,0,0,0,1.06,1.37,5.78,5.78,0,0,1,1.79,1.14.78.78,0,0,1-.45,1c-2,1-3.82,2.49-5.83,3.59-1.2-.23-1.15-1.2-1.17-2.06-.05-2.59,0-5.17,0-7.76,0-3.19-.77-4.09-3.85-4.71a2.92,2.92,0,0,0-.32-.06c-1.06-.09-2.25-.91-3.16-.05a6.56,6.56,0,0,0-2.24,4.29c-.06.71,0,1.43-.07,2.14a2.66,2.66,0,0,1-1.2,2.21c-.89.6-1.1,2-.28,2.54C40.26,56.74,40.09,58.39,40,60c0,1.33.57,1.72,1.8,1.69s1.57-.53,1.55-1.62a16.58,16.58,0,0,1,.07-2.64c.12-.84.48-1.51,1.44-1.49s1.3.72,1.38,1.55c.11,1.26,0,2.53.09,3.79-.07,1-.92,1.32-1.58,1.75a140.11,140.11,0,0,0-13.26,10,24.58,24.58,0,0,0-1.78,1.71c-1.64,1.68-1.58,3.38.26,4.9,2,1.66,4.53,1.82,7,2.21a50,50,0,0,1,5.19.63c.18,1-.29,2.13.67,2.95A9.36,9.36,0,0,1,43,87.71a6.06,6.06,0,0,1-.55,3.47,7.63,7.63,0,0,0-2,3.75c.16,3.07-1.45,5.56-2.75,8.13-.7,1.38-1.06,2.63.3,3.86.75.68.41,1.53,0,2.28-.76,1.4-1.57,2.77-2.38,4.14s-.88,2.35.28,3.4a1.6,1.6,0,0,1,.23,2.23c-.62,1-1.28,2-1.9,3.08a2.23,2.23,0,0,0-.16,2.48,2.27,2.27,0,0,1-.19,2.61c-.81,1.31-1.67,2.58-2.47,3.89-.71,1.16-.92,2.22.15,3.26a1.33,1.33,0,0,1,.38,1.5,24.35,24.35,0,0,1-2.48,3.57c-3.49,4.24-8.46,6.16-13.24,8.36a1,1,0,0,1-1.09,0c0-1,0-2,0-3q0-58.47,0-116.95a7.22,7.22,0,0,1,.35-2.58,4.15,4.15,0,0,1,2.36-.55l101.83,0C120.28,24.73,121,24.43,121.45,25.2Z"/><path class="cls-3" d="M15.19,147.76c5.12-2.21,10.32-4.3,14.13-8.66a1.47,1.47,0,0,1,2.17.08c10,8.18,18.71,17.42,25.4,28.5a108.26,108.26,0,0,1,6.94,12.89c.12,1.22-.79.94-1.44.95-4.11,0-8.21,0-12.32,0H40.22c-1-.28-.9-1.18-1.05-1.88-.93-4.13-2-8.24-3-12.35-.44-1.79-.72-2-2.5-1.63-3.33.72-6.71,1.18-10.07,1.73-2.64.43-2.89.75-2.39,3.33.57,2.91,1.42,5.77,2,8.68.14.71.49,1.52-.34,2.1-1.1,0-2.21-.05-3.3,0a1.56,1.56,0,0,1-1.87-1.39c-1.39-6.43-3.24-12.78-2.8-19.5.28-4.21-.14-8.45.18-12.67Z"/><path class="cls-4" d="M63.32,180.05c-2.07-3.78-4-7.67-6.28-11.32a126.32,126.32,0,0,0-11-15.12c-4.51-5.21-9.81-9.54-14.85-14.18a1.75,1.75,0,0,0-1.91-.34l2.36-3.29c.77-.25,1.22.29,1.71.71a143.77,143.77,0,0,0,12.84,9.58,27.36,27.36,0,0,0,3.11,1.73C53.19,150,57,152.35,61,154.34c2.11,1.05,4.22,2.11,6.38,3.06a70.83,70.83,0,0,1,7.16,3.33,1.61,1.61,0,0,1,.67,1.87c-1.36,6.13-2.6,12.28-4.28,18.34a1.19,1.19,0,0,1-.28.4l-6.58.09C63.73,181,63.76,180.41,63.32,180.05Z"/><path class="cls-5" d="M80.21,151.37c-.24,3.68,1.47,6.39,4.25,8.57,1.94,3.82,3.65,7.75,5.59,11.57,1.21,2.94,2.74,5.72,4.13,8.57.7,1.44,2.13.66,3.26.79,2.89,0,5.79-.07,8.68,0,.61-.05,1.21,0,1.82,0,.82-.07,1.64,0,2.46,0,3-.11,6,0,9,0a2.06,2.06,0,0,1,1.79.58c-.33.43-.81.27-1.22.27h-30c-.41,0-.89.17-1.21-.29.85-.76,1.87-.35,2.78-.41-1.63-2.45-3.66-4.66-4.91-7.06.64,1.69,1.5,3.62,2.17,5.63.2.6.56,1.24,0,1.84-3.41.14-6.83.65-10.24,0l.16-.2a6.17,6.17,0,0,1,2.92-.28c.89,0,1.47-.28,1.63-1.24.41-2.44.77-4.89,1.12-7.34a2.15,2.15,0,0,0-.3-1.59c-1.79-2.43-3.3-5.07-5.43-7.23a2.14,2.14,0,0,1-.81-1.27,1.34,1.34,0,0,1,.22-.47c1-2.4.6-5,1.09-7.44.21-1,0-2.21.88-3.07Z"/><path class="cls-6" d="M121.16,181.42l-10.85-.1c-.86-.41-1.16-1.28-1.64-2-1.52-2.28-3-4.56-4.59-6.81a3.94,3.94,0,0,1-.79-1.61c-.07-.51.14-.76.65-.39l18.12,10C122,181.05,121.66,181.29,121.16,181.42Z"/><path class="cls-7" d="M121.45,25.2a4.12,4.12,0,0,0-2.1-.29q-50.55,0-101.11,0a13.82,13.82,0,0,0-2.76.36c.61-.88,1.54-.71,2.4-.71H120.75v-.32H16.53v-.34H120C120.81,23.89,122.11,23.49,121.45,25.2Z"/><path class="cls-8" d="M63.32,180.05c.65.24.69.8.7,1.37-.44.51-1,.27-1.54.27q-21.43,0-42.86,0a10.58,10.58,0,0,1-3.83-.32c-.08-1-.36-2-.44-3.43,0,1.17.49,2-.23,2.8-.48-.3-.32-.78-.32-1.19q0-15.18,0-30.36c0-.41-.17-.9.3-1.2,0,4.34.21,8.68,0,13-.31,5.59,1.41,10.79,2.53,16.12a1.27,1.27,0,0,0,.06.15c.45,1.28,0,3.09,1.05,3.84s2.87.19,4.34.27a2.77,2.77,0,0,1,2-.54q6.41,0,12.82,0a2.85,2.85,0,0,1,2,.53c7.45,0,14.89,0,22.34,0C63.28,181.39,63.87,181.22,63.32,180.05Z"/><path class="cls-8" d="M70.61,181.34c.18-3,1.3-5.74,1.87-8.64.64-3.27,1.48-6.5,2.2-9.75.15-.7.5-1.52-.45-2a3.14,3.14,0,0,1,3.66,1.26l0,0C76.64,166,76,169.92,75,173.74c-.69,2.53-.93,5.19-2.09,7.59Z"/><path class="cls-4" d="M72.91,181.33c.39-3.76,1.7-7.32,2.42-11,.46-2.35,1.05-4.68,1.53-7,.13-.62.31-1,1-1.07.21.33.71.46.66,1a1.63,1.63,0,0,1,.27,1.54c-.69,3.36-1.21,6.75-2.18,10-.51,1.61-.78,3.27-1.14,4.92-.14.63-.18,1.32-.89,1.64Z"/><path class="cls-9" d="M74.58,181.34c.71-2.15.79-4.45,1.63-6.57.16,0,.37-.06.44.09.94,2.06,2,4.09,1.94,6.46l-.1.1C77.18,181.47,75.87,181.8,74.58,181.34Z"/><path class="cls-10" d="M15.13,180.73v-3.56l.22,0c.27,1.18.54,2.37.83,3.55.08.36.09.65-.38.68Z"/><path class="cls-11" d="M121.72,123.32a.8.8,0,0,1-1.59,0,.85.85,0,0,1,.89-.94C121.58,122.37,121.55,123,121.72,123.32Z"/><path class="cls-6" d="M111.14,57.23a33.29,33.29,0,0,1,1.08,12.86,10.32,10.32,0,0,1-5.83,8.58,26.06,26.06,0,0,1-5.7,2.07,1,1,0,0,1-.77.14,2.64,2.64,0,0,1,.27-3.75c1.16-.26,1.44-1,1.21-2.1a10,10,0,0,0-6.16-7.4c-6.6-2.89-13.3-2.79-20.09-.72A52.61,52.61,0,0,0,54.71,78.16a6.78,6.78,0,0,1-1.49,1,1.47,1.47,0,0,0-1.11,1.12c-.64.9-1.4,1.22-2.34.42A1.49,1.49,0,0,0,48,80.58c-.34.18-.81.35-1.11.18-1.64-.93-2,.11-2.44,1.37s-1.13,1.29-2.26.56a38,38,0,0,1-9.92-1.25,6.8,6.8,0,0,1-3.48-2.37c-1.22-1.6-1.16-3,.26-4.33a132.76,132.76,0,0,1,16.75-13,3.35,3.35,0,0,0,.35-.32c0-.3.19-.39.44-.41a6.56,6.56,0,0,1,1.86.53,1.44,1.44,0,0,0,2.12-.76c.41-.58,1-1.11.6-1.94-.3-.63.26-.72.6-.93l5.42-3.31c1-.52,1.7.1,2.24.78a2.34,2.34,0,0,1,.19,2.51c-.37.8-1.16.68-1.88.65-1,0-1.93-.61-2.87,0-.78.87-.79,2.08-1.38,3a61.78,61.78,0,0,1-6.86,4.79c-5,3.41-10.1,6.79-15.15,10.19a3.62,3.62,0,0,0-.52.41c-.27.26-.68.53-.35,1s.71.16,1,0c1.68-1,3.33-2.13,5-3.24,4.46-3,8.94-6,13.42-9,1.5-1,3-2,4.5-3a5.11,5.11,0,0,1,3.22-1h.92a7.88,7.88,0,0,0,1.09,0c.69-.13,1-.67,1.38-1.19.89-.87,1.09-2.11,1.67-3.15,1.65-1.31,2.92-1.44,3.87-.4a3.94,3.94,0,0,1,.34.92c.81,3.14.81,3.2,4,3.45,1.16.09,2.35.73,3.52,0,.41-.81,1.56-1.47.48-2.55a17.17,17.17,0,0,0-1.79-.19c-2.74-.36-3.29-1-3.36-3.78.07-1,.73-1.39,1.54-1.71,2.28-.93,4.59-1.77,6.88-2.68,1.83-.72,2.35-.31,2.38,1.7,0,2.52,0,5,0,7.55,0,.68-.25,1.6.62,1.86s1.83.52,2.53-.43c.32-3,.06-6.09.15-9.13a6.6,6.6,0,0,1,.28-2.57c.87-1.15,2.13-1,3.32-.93.81,0,.9.66,1,1.28.12.86-.18,1.77.32,2.58.88,1,2.15,1.28,3.24,1.9a5.13,5.13,0,0,1,1.51,1,2.46,2.46,0,0,1,.34,2.63c-.37.91-1.23.74-2,.68l-.32-.05c-2.6-.38-2.68-.32-3.37,2.49a29,29,0,0,0,4.67.66c1.34.15,2.86-1.15,3.49-2.8a9.61,9.61,0,0,0,.32-5,2.32,2.32,0,0,0-1.4-1.71,27.37,27.37,0,0,1-2.62-1.37c-.67-.44-1.24-1-.66-1.89a1.84,1.84,0,0,1,1.42-.31A30.52,30.52,0,0,1,102,51a2.6,2.6,0,0,1,1.25,1.27,44.74,44.74,0,0,1,.1,8.34c0,.41-.31.87.27,1.13,1.14-.12,2.38.52,3.37-.5.4-2-.14-4,.33-5.95.12-.26.29-.49.6-.48A5.52,5.52,0,0,1,111.14,57.23Z"/><path class="cls-8" d="M46.17,146.38A66.22,66.22,0,0,1,38,140.73c-2.11-1.66-4.25-3.28-6.37-4.92,0-.46.14-.85-.38-1.26-1.26-1-1.19-2.21-.35-3.49s1.82-2.87,2.74-4.3c.43-.68.71-1.26.05-2a2.15,2.15,0,0,1,.06-2.75c.73-1.1,1.42-2.21,2.13-3.33.4-.63.48-1.13-.29-1.65-1.36-.91-1.29-2.18-.56-3.46.84-1.48,1.74-2.92,2.58-4.4.47-.83.82-1.61-.31-2.37s-1-1.79-.48-2.82a23.66,23.66,0,0,1,1.63-3.23c1.2-1.8,1.35-3.86,1.7-5.89.47.34.4.85.47,1.33.21,1.52.59,1.7,2.06,1.13,1-.41,1.91-1.33,3.16-1.14a3,3,0,0,1,.39,2.05,11.65,11.65,0,0,0,21.45,6.33c1.54-2.27,3-4.64,5.21-6.33a24.82,24.82,0,0,1,5.19-3.3c3.05.44,6,1.56,9,2a22.4,22.4,0,0,1,4.38.72c.63.85-.19.82-.62,1s-1.33.15-1.44.88.55,1.33,1.18,1.63a5.75,5.75,0,0,0,4.29.64c.91-.28,1-.79.36-1.44a4.85,4.85,0,0,0-2.14-1.18c-.44-.13-1.12-.2-1-.84.08-.48.69-.44,1.12-.51a4.17,4.17,0,0,1,.5,0q2.76-.06,5.52,0a10.25,10.25,0,0,0,3.35-.49l.94,1.32c-.27.56-.81.89-1.17,1.37s-.52.75-.29,1.21.77.52,1.29.49a3.08,3.08,0,0,0,1.92-1.15c1.47,2.29,1.41,3.8-.31,5.85a1.69,1.69,0,0,0-.24,1.68,6.6,6.6,0,0,1-.16,4c-.19.48-.47.94-1,.93s-.76-.44-1-.9c-.52-.88-.3-2.21-1.57-2.64-.54-1.45.15-2.17,1.5-2.51a105.64,105.64,0,0,0-14.32,1.53c.44,1.12.87,2.28-.24,3.38a.85.85,0,0,1-.52-.93c.06-1.34-.61-1.74-1.82-1.51-2.64.09-5,1.27-7.4,2.09a68,68,0,0,0-12.72,6.16,4.92,4.92,0,0,1-1.48.71c-2.29-.5-4.66-.67-6.9-1.27a13.16,13.16,0,0,0-13.91,4.07c-4.13,4.48-4.39,9.75-2.12,15.2.49,1.19.81,2.53,1.91,3.41,1,1.65,2.82,2.63,3.43,4.54A12.23,12.23,0,0,0,46.17,146.38Z"/><path class="cls-12" d="M42.81,140.1c-1.8-1.51-2.38-3.69-3-5.78-1.62-5.71-.36-10.85,4.15-14.75a13.61,13.61,0,0,1,13.49-2.92c2.1.63,4.4.61,6.52,1.33a88.17,88.17,0,0,0,16.92,4.11,6.64,6.64,0,0,0,2.62-.17c1.36-.19,2.75-.08,4.11-.37.5.62.54,1.14-.42,1.19a11.6,11.6,0,0,1-2.11.05c4.32-.8,8.69,0,13-.61a13,13,0,0,1,4.51,1.07c1.88.93,2.09,1.52.82,3-1.71,2-3.5,3.93-5.3,5.85q-7.51,8.07-15.05,16.11c-1,1-1.93,2.09-2.9,3.14l-.08-.09a39.07,39.07,0,0,1-20.79-1,44.21,44.21,0,0,1-10-4.67,28.35,28.35,0,0,1-5.65-4.76A3.48,3.48,0,0,0,42.81,140.1Z"/><path class="cls-8" d="M100,80.68l.71.06c.05.15.06.35.16.45,2.69,2.58,2.61,4.49-.33,6.91l1.15.44c-.88.85-1.83.46-2.76.15-.5-.17-.9-.53-.71-1.12s.75-.62,1.13-.57c-.64-.29-1.46.15-2.26.15-5.16,0-10.33.21-15.48-.07-9.33-.52-18.66-.11-28-.27a14.47,14.47,0,0,0-3.39.48c-1.53.34-3.14-.13-4.76,0-.91.07-2-1.23-2.9-2-1.55-.64-1.09-1.6-.4-2.59,1.3.49,1.83-.06,2.12-1.34.4-1.8.58-1.83,2.31-1a1.17,1.17,0,0,0,1.23-.1c.91-.86,1.61-.63,2.33.22,1,1.13,1.31-.23,1.93-.51a2.24,2.24,0,0,1,.75-.9,62.31,62.31,0,0,1,12.93-8.94c5.67-2.74,11.54-5,17.84-5.16,5.73-.17,11.41.74,15.8,5.08A9.38,9.38,0,0,1,102,75.61c.17,1.2-.18,2-1.6,1.71-.77-.24-.9-.92-1-1.56a8.29,8.29,0,0,0-5.7-6.47,26,26,0,0,0-15.85-.86A51.37,51.37,0,0,0,56.26,79.71a5.83,5.83,0,0,0-1.75,1.91c1.32.51,2.67.19,4,.22,1.9,0,3.8.07,5.7,0,11-.45,21.91-.64,32.87-.68A20.15,20.15,0,0,0,100,80.68Z"/><path class="cls-3" d="M83.51,122.23c-1,.73-2.14.45-3.16.3-5-.76-9.87-2.08-14.76-3.32C65,119,64.15,118.88,64,118a75.92,75.92,0,0,1,20.57-9.13c.34-.1.64-.14.87.19-1.07,1.5-.11,2.75.52,4,.14.29.33.62.72.53s.34-.38.43-.64c.15-.46.22-1,.68-1.25a3.48,3.48,0,0,0-.27-3.58,75.27,75.27,0,0,1,16.74-1.69c-1.33,1-3.48.76-3.3,2.92q-5.7,4.4-11.41,8.8c-.3.23-.79.34-.75.77.06.59.69.46,1.05.57,2.82.84,5.65,1.62,8.47,2.42q.15.1.11.21t-.08.12a1.2,1.2,0,0,1-1.21.66c-4.09,0-8.18,0-12.28-.32.69,0,1.39,0,2.08,0s1.08-.29.49-1c-1.07-.56-.94-1.76-1.39-2.65-.15-.29-.22-.69-.58-.72s-.57.42-.71.76C84.31,120.06,84.67,121.44,83.51,122.23Z"/><path class="cls-6" d="M42.55,85.3a2.83,2.83,0,0,1,2.58,1.39c.52.91,1.4.77,1.8-.1.51-1.1,1-.88,1.42-.11.6,1,1.28,1,2,.23a1.73,1.73,0,0,1,1.51-.42c8.91,0,17.82-.18,26.72.12,7.14.24,14.28,0,21.42.26a1.15,1.15,0,0,1-.11.29c-.37.49-1.5.08-1.42.83s1.17.49,1.77.76a3.69,3.69,0,0,0,1.46,0l7.34.94c.38,0,.77.07,1.14.15.79.17,1.77.19,1.78,1.32s-.93,1.11-1.63,1.33a14.16,14.16,0,0,1-5,.59c-2.63-.15-5.26-.2-7.89-.29a1.86,1.86,0,0,1-1.69.45c-2-.26-4-.16-5.92-.41C79.52,91.33,69.26,90.19,59,88.79a17.22,17.22,0,0,0-3.12-.14c-4.06-.36-8.14-.13-12.21-.27a2,2,0,0,1-1.12-.49Z"/><path class="cls-12" d="M43.54,88c4.18,0,8.36-.3,12.53.26,5.28,1,10.3,2.92,15.43,4.47a39.66,39.66,0,0,1,5.34,1.62c.41.19,1,.15,1,.85L73.25,98.5a34,34,0,0,1-5.89.49c-.34,0-.67.07-1,0a3.4,3.4,0,0,0-3.73.49,2.81,2.81,0,0,0-2.19-1.74,23.29,23.29,0,0,1-5.22-1.94,6.55,6.55,0,0,1-1.36-.89,1.89,1.89,0,0,0-2.38-.28c-1.43-.42-2.5.49-3.69,1-.61.26-1.1,1-1.91.53-1.07.53-2.13,1.07-3.2,1.58-1.7.8-2.42.35-2.44-1.51,0-.49,0-1,0-1.46a4.57,4.57,0,0,1,2-3.58,6.37,6.37,0,0,1,4.3-2.8C45.45,88.49,44.34,89.29,43.54,88Z"/><path class="cls-3" d="M77.88,95.19C74,94,70.12,92.8,66.27,91.55c-3.4-1.1-6.88-1.93-10.19-3.3a26.55,26.55,0,0,1,6.12.46c4.12.49,8.24,1,12.35,1.54,5,.63,10.07,1.31,15.12,1.86,2.56.28,5.14.31,7.71.46,1.05,1.52,2.78,2.25,4.07,3.49a5,5,0,0,1,1.16,1.14c-.21,1.07-1.08.95-1.81,1-2.47,0-4.94,0-7.4,0-.51-.39-1.17.08-1.68-.3C87,97.64,82.43,96.38,77.88,95.19Z"/><path class="cls-13" d="M46.41,61.24l-.3.23c-.64-1.25-.19-2.58-.29-3.87-.06-.73-.13-1.35-1.07-1.3s-.91.62-.91,1.28c0,1.15,0,2.31,0,3.46,0,.86-.31,1.11-1.15,1.16-3.18.17-3.16.2-3.19-2.92,0-1.29.46-2.72-1.6-3.23-.77-.19-.22-1.69-.32-2.58-.08-.66.34-.87.91-.85.74,0,.91-.42.92-1.05a11.59,11.59,0,0,0,.08-1.8c-.37-2.46,1.26-4.09,2.4-5.92a.89.89,0,0,1,1-.41A36.35,36.35,0,0,1,48,44.53c1.52.56,2,2.12,2.06,3.63.08,3,0,6,0,9.06,0,.7-.26,1.66,1,1.65,2,.93-.14,1.35-.25,2C49.46,62,47.91,61.22,46.41,61.24Z"/><path class="cls-13" d="M54.37,58.44c0-.56,0-1,.78-.79a17.62,17.62,0,0,0,2.1.32c.69.08,1.67.65,2-.24s.41-2.33-1.15-2.75c-.31-.08-.61-.22-.91-.33-3.59-1.29-4.06-2.33-3.3-6.76C54.16,46,55.53,45,56.7,43.82a1.87,1.87,0,0,1,1.71-.21c1.38.3,2.8.44,4.2.66.31,0,.86,0,.84.32-.06,1.23-.94,2.18-1.31,3.32-.22.67-.86.51-1.41.4s-1.07-.21-1.61-.29S58.2,48,58,48.65s-.18,1,.44,1.36c1.32.72,2.81,1.16,3.91,2.27,1.27.54.93,1.74,1.12,2.72A5.59,5.59,0,0,1,63,57.56a5.64,5.64,0,0,1-1.78,3.29c-.45.37-1,.64-1.24,1.23a1.37,1.37,0,0,1-1.31.07,4.57,4.57,0,0,0-2.61-.82c-1.31.15-2-.32-1.72-1.76C54.47,59.2,54.25,58.82,54.37,58.44Z"/><path class="cls-13" d="M92.14,49a.94.94,0,0,0,.62,1.31,5.67,5.67,0,0,1,1.32.67c1,.8,2.88.52,3.09,2.44.29,2.53.55,5-1.23,7.18A3.49,3.49,0,0,1,91.83,62a26.38,26.38,0,0,0-4.3-.55c.08-.35.13-.66.23-1,1-3,1-2.95,4.19-2.48.51.07,1.47.66,1.61-.35.12-.85.56-2-.78-2.53-1.5-.65-2.92-1.48-4.37-2.23A30.54,30.54,0,0,1,88.33,47a4.3,4.3,0,0,1,2.43-2.62,1.66,1.66,0,0,1,1.91-.75c1.53.34,3.1.46,4.66.68.52.07.69.29.29.73a5.89,5.89,0,0,1-.74,2.16c-.46,1.33-1.52,1.32-2.64,1.16C93.45,48.28,92.61,48,92.14,49Z"/><path class="cls-13" d="M26.36,47.66a18.73,18.73,0,0,1,2.41-3.88.91.91,0,0,1,1-.3,52.79,52.79,0,0,0,6.65.9c.79.11.93.45.57,1.1-.48.86-1,1.71-1.46,2.57a1,1,0,0,1-1.4.51A8.67,8.67,0,0,0,32,48.3c-.88-.09-1.35.21-1.37,1.16s.18,1.52,1.25,1.46a9.33,9.33,0,0,0,1.31,0c1.71-.35,2.3.14,2.14,2-.12,1.41-.54,1.72-1.84,1.68-2.85-.07-2.85,0-2.85,2.86q0,.33,0,.66c0,4.05,0,4.05-4,4.05-.35-3.43,0-6.87-.17-10.3A18.86,18.86,0,0,0,26.36,47.66Z"/><path class="cls-14" d="M89.72,171.52c-2.11-3.53-3.52-7.41-5.45-11a.41.41,0,0,1,.19-.56l6.24,3.7a3.15,3.15,0,0,0,1,.54h0a17.37,17.37,0,0,0,3.59,1.7h0c.78.43,1.36,1.22,2.34,1.27l1.3.66c2.44,2.05,3.7,5,5.55,7.49,1,1.36,1.83,2.86,2.82,4.24.37.51.83,1.06.5,1.79l-1.59,0a7.22,7.22,0,0,1-2.52-3c-.9-2.21-2.89-3-4.91-3.77-.61-.83-1.77-.5-2.48-1.14,0-.72.75-.54,1-.92,0-.23-.19-.24-.35-.25-2-.17-3.92.34-5.91,0A1.61,1.61,0,0,1,89.72,171.52Z"/><path class="cls-13" d="M74.94,61.62c0,.93-.7.64-1.18.59-1.78-.2-3.55-.47-5.32-.63a1.23,1.23,0,0,1-1.2-1.07c-.33-1.2-.66-2.4-1-3.6-.23-.93-.86-1.74-.73-2.77s-.29-2,.52-2.83c.11-.24.32-.48.31-.72a6.66,6.66,0,0,1,4.13-6.77c1.92-.66,4.08.08,6,.67.62.19-.21,1-.31,1.53-.77,2.42-1,2.57-3.3,2.41s-2.48,0-2.5,2.28c0,.55,0,1.1,0,1.65.19.89-.6,1.71-.16,2.61.34,2.9.42,3,3.3,3.15a3.24,3.24,0,0,1,2,.45A9.43,9.43,0,0,0,74.94,61.62Z"/><path class="cls-15" d="M107.61,54.93l0,6.87a9.45,9.45,0,0,1-3.4.2c-.85,0-.89-.64-.89-1.28,0-2.09,0-4.18,0-6.27.05-1.6-.31-3.17-.18-4.77.08-1-.44-1.54-1.48-1.54a6.21,6.21,0,0,1-2-.15c-.94-.76-.47-1.35.24-1.9-.06-1.59.62-2.19,2.28-2.12,2.91.13,5.83.09,8.74,0,.92,0,1,.28.92,1-.25,2.06-1.1,2.92-3.14,3-.72,0-1.2.1-.9,1a3.42,3.42,0,0,1-.28,1.92,3.15,3.15,0,0,1,.53,2A3.08,3.08,0,0,1,107.61,54.93Z"/><path class="cls-13" d="M84.52,49.31l-.06,12.52a.74.74,0,0,1-.28.16c-3.83.36-3.79.36-3.85-3.46-.05-3.38.34-6.78-.45-10.11-.34-.55-1-.63-1.47-.92-.7-.41-.91-.89-.12-1.44,1.54-3.44,1.73-2.93,5.62-1.42,1.61.24.83,1.51,1,2.36A3.43,3.43,0,0,1,84.52,49.31Z"/><path class="cls-12" d="M107.86,181.34c-2.47-4.18-5.22-8.17-8-12.15-.31-.44-.59-.91-.89-1.36a36.84,36.84,0,0,1,4.94,2.68c-.86.13-.25.52-.1.75,2,3.12,4.07,6.22,6.11,9.34a7.49,7.49,0,0,1,.37.73Z"/><path class="cls-16" d="M78.3,46c-.47.57-.52,1,.34,1.21.51.13,1.09.08,1.52.47.39.72-.14,1-.65,1.2q-4.6,1.45-9,3.34a.74.74,0,0,1-.48,0,5.56,5.56,0,0,1-.07-.65c0-4.48.44-3.87,3.74-3.49.9.1,1.31-.07,1.58-.83a2.42,2.42,0,0,1,1-1.27C76.9,46.29,77.61,45.13,78.3,46Z"/><path class="cls-17" d="M99.1,38.11c-2,0-3.24-1.14-3.21-2.94a3,3,0,0,1,3.16-3c2.19,0,3.26,1,3.25,3S101.42,38.12,99.1,38.11Z"/><path class="cls-18" d="M36.37,32.14c1.93,0,3,1.16,2.9,3.15a2.83,2.83,0,0,1-3.17,2.94A2.89,2.89,0,0,1,33,35.05C33,33.28,34.36,32.1,36.37,32.14Z"/><path class="cls-17" d="M52.31,38.05c-.81,0-1.31.14-1.65,0-.76-.39-1.33-.67-2.19,0-.52.4-1.28.06-1.13-.93a12.68,12.68,0,0,0,0-3.93c0-.28-.07-.72.17-.72a11.77,11.77,0,0,1,3.37.2c.93.27,1,1.65.63,2.12C50.56,36.06,51.37,36.84,52.31,38.05Z"/><path class="cls-17" d="M76.84,38c-1.06.12-2.11.21-2.83-1.38-.06,1.28-.57,1.57-1.38,1.42-1.12-.2-.35-1-.38-1.42-.08-1.14,0-2.3,0-3.45,0-.78.26-1.15,1.08-.88a1.9,1.9,0,0,0,.48.09c2.62.15,3.07.87,2.06,3.34C76.07,36.56,77.36,36.9,76.84,38Z"/><path class="cls-17" d="M90.41,35.28a2.44,2.44,0,0,1,0-.49c.16-.76-.48-1.93.45-2.2s2.27-.72,3.12.16a2,2,0,0,1,.07,2.82c-.42.47,0,.79.18,1.17s1,.68.52,1.19a1.32,1.32,0,0,1-1.56,0c-.6-.41-.93-.78-1.57,0-.27.34-1.21.23-1.21-.72q0-1,0-2Z"/><path class="cls-19" d="M45.83,34.75c0,2.86-.52,3.39-3,3.39a1.85,1.85,0,0,1-2.07-1.85c-.14-1.13.15-2.28-.11-3.43-.12-.55.44-.69.91-.66s.89.32.75,1a4.53,4.53,0,0,0,.11,2.75c.15.35.32.76.81.68s.58-.46.59-.87c0-.66,0-1.32,0-2s0-1.32,1-1.33,1,.66,1,1.34C45.83,34.09,45.83,34.42,45.83,34.75Z"/><path class="cls-17" d="M57.93,34c.08.12.13.27.21.29,1.37.42,2.3,1.16,1.77,2.75S58,38,56.81,38.07a.89.89,0,0,1-1-.69,1.11,1.11,0,0,1,.39-1c.36-.36.7-.13,1,.11s.57.35.9,0c-.07-.65-.68-.55-1.08-.74A1.61,1.61,0,0,1,56,34.05c.06-.72.2-1.42,1-1.71a3,3,0,0,1,2.38,0,.62.62,0,0,1,.25.86c-.12.28-.2.67-.63.63S58.27,33.64,57.93,34Z"/><path class="cls-20" d="M108.87,32.15c.93.59,2,.06,3,.38.38,1.37.26,1.49-.91,1.42a1,1,0,0,1,1.23,1.21c0,1-.7,1.2-1.58,1.06.84.13,1.91.14,1.28,1.5-.89.62-1.89.28-2.84.34-.44,0-.77-.18-.74-.65.11-1.75-.38-3.54.3-5.27C108.67,32,108.77,32,108.87,32.15Z"/><path class="cls-15" d="M63.22,34.12c.49.29,1.47-.12,1.48,1s-1.2.43-1.51,1c0,.12,0,.27.1.3.59.27,1.78-.34,1.64,1s-1.21.52-1.86.65c-1.35.28-1.92-.3-1.72-1.67a10.63,10.63,0,0,0,0-1.47c0-2.39,0-2.37,2.25-2.52.64,0,1.29-.18,1.34.69s-.67.65-1.18.69C63.55,33.79,63.32,33.76,63.22,34.12Z"/><path class="cls-8" d="M98.37,122.26l0-.34a10.83,10.83,0,0,0,.67-3.3c.08-.54.2-1.11.84-1.29s1.14.24,1.46.79a4.78,4.78,0,0,1,.81,3.73,1.21,1.21,0,0,0,.52,1.39C101.17,123.11,99.65,123.21,98.37,122.26Z"/><path class="cls-7" d="M66.27,35.11c.13-2.21,1.75-3.49,3.7-2.9.56.17,1,.41.82,1.16-.18.59-.47.76-1.09.51-.81-.31-1.34.21-1.79.82s-.08.87.16,1.21c.4.55.91,1,1.67.62.41-.19.82-.45,1,.23a1,1,0,0,1-.63,1.31A2.77,2.77,0,0,1,66.27,35.11Z"/><path class="cls-17" d="M78.48,32.16c.47.4,1,.2,1.57.27s1.33-.3,1.39.66-.92.47-1.35.84c.44.39,1.37.13,1.38,1.08,0,1.27-1.33.41-1.7,1.18.27.41.77.17,1.12.32a.85.85,0,0,1,.57.89.59.59,0,0,1-.75.64c-.95-.17-2.11.59-2.82-.63A23.53,23.53,0,0,1,77.71,33C77.69,32.52,77.87,32.1,78.48,32.16Z"/><path class="cls-21" d="M28.34,32.37c.81,1,1.77.56,2.88.06.52-.23,1.42,0,.65,1.05s-1.8,2.35-1.42,4c.16.68-.46.58-.88.58s-1-.11-.79-.72c.54-1.57-.52-2.59-1.2-3.73S27,32.43,28.34,32.37Z"/><path class="cls-22" d="M84.52,47c-.42-.73.56-1.83-.61-2.36a14,14,0,0,1,6.86-.24l-2,2.27A4.38,4.38,0,0,1,84.52,47Z"/><path class="cls-21" d="M84.47,32.45c.44,0,.88,0,1.31,0,.71.07.87.83.52,1-1.42.76-.69,2-.87,3-.12.68,0,1.58-1,1.52s-.77-.88-.88-1.51c-.18-1,.55-2.27-.86-3-.36-.2-.19-1,.51-1C83.59,32.41,84,32.45,84.47,32.45Z"/><path class="cls-23" d="M103.62,35.18c0-.66,0-1.31,0-2,0-.89.73-.89,1.27-.92.7,0,.46.53.44,1,0,.65,0,1.31,0,2s.2,1.46,1.17,1.42c.64,0,.72.35.71.83s-.35.62-.78.62a10.15,10.15,0,0,0-1.31,0c-1.12.15-1.64-.26-1.5-1.44a12.06,12.06,0,0,0,0-1.47Z"/><path class="cls-24" d="M66,51.3l-.11,2.95c-.89.47-1.55,1.93-2.85.67-.22-.88,0-1.9-.72-2.64.72-1.13,2-1.36,3.1-1.83S65.85,51,66,51.3Z"/><path class="cls-2" d="M78.48,32.16c-.82.38-.23,1.05-.31,1.58-.17,1.22.29,2.48-.27,3.67-.5-.05.3,2.17-1.06.61.06-.93-1.31-1.23-1-2.28.34,0,1,.82.85-.36-.06-.48-.1-1-.13-1.44-.07-1.66.38-2.15,2-2.15a8.23,8.23,0,0,1,2.92.36Z"/><path class="cls-12" d="M105.29,100.43a2.25,2.25,0,0,1-3.22,1.4,1.08,1.08,0,0,1-.43-1.66,3.15,3.15,0,0,1,1.91-1.66C104.2,99.09,105.09,99.44,105.29,100.43Z"/><path class="cls-25" d="M114.84,128.08c.06-.47-.09-1,.49-1.14s.75.22.9.68.25.86.81.89c.4,0,1.15-.54,1,.38a1.72,1.72,0,0,1-1.3,1.63c-.58.1-1.26.14-1.51-.6A17.59,17.59,0,0,1,114.84,128.08Z"/><path class="cls-26" d="M110,127.17c.86.3,1.74.57,1.85,1.64a1.08,1.08,0,0,1-1.24,1.21c-.85-.08-1.92-.43-2.06-1.33A1.55,1.55,0,0,1,110,127.17Z"/><path class="cls-27" d="M107.61,54.93v-2c.79-.25,1.27.58,2,.56,1.24.94,1.28,2.38,1.53,3.72C110.33,55.91,108.63,55.93,107.61,54.93Z"/><path class="cls-28" d="M111.85,37.72c.16-1.31-.88-1.24-1.88-1.4.8-.4,1.89,0,1.86-1.24s-1-.82-1.84-1.11c1-.24,2.15-.07,1.85-1.44.08-.32.15-.68.59-.64s.43.31.43.6a7.53,7.53,0,0,1-.06,1.64,4.81,4.81,0,0,0,0,3.46c.06.12.19.43-.16.5C112.67,37.35,111.85,38.44,111.85,37.72Z"/><path class="cls-17" d="M113.42,137.46c-.21.75-.18,1.68-1.28,1.61s-1.14-.87-1-1.55-.33-1.68,1-1.7S113.19,136.75,113.42,137.46Z"/><path class="cls-29" d="M99.93,46.07l-.59,1.57c-1.2,1-2.08.78-2.66-.66a5,5,0,0,1,.94-1.92C98.37,45.46,99.35,45.31,99.93,46.07Z"/><path class="cls-30" d="M43.54,88c1,.64,2.2,0,3.46.44a18.27,18.27,0,0,0-4.83,2.8c-.08-1.14,1-2.14.4-3.33Z"/><path class="cls-31" d="M117.47,134c0,.54.09,1.23-.64,1.12-1-.15-1.13-1.34-1.77-2-.27-.26.39-.89.9-.89C117.07,132.26,117.4,133.07,117.47,134Z"/><path class="cls-32" d="M26.36,47.66c.51.5.29,1.14.29,1.71,0,4.27,0,8.54,0,12.81-.53-.49-.32-1.13-.32-1.71C26.35,56.2,26.36,51.93,26.36,47.66Z"/><path class="cls-33" d="M115.62,134.81c0,.38-.14.59-.37.6-.77,0-1.21-.61-1.8-.94-.4-.23-.28-.79-.2-1.23a.43.43,0,0,1,.63-.33C114.69,133.38,114.68,134.56,115.62,134.81Z"/><path class="cls-33" d="M117.17,138c-.11.36.18,1.09-.49,1-.89-.18-.95-1.11-1-1.84,0-.4.17-1,.7-.88C117.2,136.43,117.12,137.26,117.17,138Z"/><path class="cls-14" d="M109.62,53.51c-.87.55-1.37-.24-2-.56l-.07-2C108.72,51.39,109,52.6,109.62,53.51Z"/><path class="cls-34" d="M95.34,165.88a3.78,3.78,0,0,1-3.59-1.7C93.27,164.06,94.2,165.18,95.34,165.88Z"/><path class="cls-35" d="M112.46,142.19c.45,0,.73.27.71.71,0,.59-.43.83-1,.83s-.91-.21-.83-.74S112,142.34,112.46,142.19Z"/><path class="cls-33" d="M109.22,140.53c0,.46-.07.88-.68.86s-.63-.48-.64-.91-.06-.95.56-1S109.21,140,109.22,140.53Z"/><path class="cls-35" d="M113.86,117.7c0-.5.18-.91.64-.9.67,0,.7.56.7,1.07s-.13.78-.65.7S113.9,118.06,113.86,117.7Z"/><path class="cls-34" d="M97.69,167.16c-1.28.5-1.76-.47-2.34-1.27A5.11,5.11,0,0,1,97.69,167.16Z"/><path class="cls-36" d="M110.5,133.12c-.07.35-.26.6-.63.57a.51.51,0,0,1-.5-.65.61.61,0,0,1,.72-.48A.47.47,0,0,1,110.5,133.12Z"/><path class="cls-37" d="M120.17,126.93c.39,0,.57.17.56.48a.6.6,0,0,1-.56.66c-.33,0-.45-.28-.5-.53C119.57,127.11,119.88,127,120.17,126.93Z"/><path class="cls-36" d="M109.94,122.5c-.48.05-.64-.17-.68-.45s0-.69.47-.7.45.24.47.55A.69.69,0,0,1,109.94,122.5Z"/><path class="cls-38" d="M114.84,122.35c.25.05.3.31.3.6s-.15.56-.47.55-.52-.36-.47-.71S114.4,122.29,114.84,122.35Z"/><path class="cls-39" d="M106.2,139.6a.52.52,0,0,1-.56.47c-.36,0-.67-.1-.62-.55s.33-.39.62-.39A.5.5,0,0,1,106.2,139.6Z"/><path class="cls-40" d="M110,120.07a.55.55,0,0,1-.51.51c-.35.05-.66-.06-.72-.43s.2-.47.49-.5A.62.62,0,0,1,110,120.07Z"/><path class="cls-28" d="M108.87,32.15h-.15l-.15,0c.82-.69,1.73-.14,2.61,0Z"/><path class="cls-34" d="M91.75,164.18c-.63.37-.93.1-1-.54A.92.92,0,0,1,91.75,164.18Z"/><path class="cls-12" d="M39.91,181.36H23.06c-.29-3-1.32-5.84-1.9-8.78-.22-1.12-.48-2.24-.72-3.35-.28-1.3.51-1.8,1.59-2,3.27-.59,6.54-1.14,9.81-1.72q1.29-.23,2.56-.54c1-.25,1.84.07,2.07,1.07,1.18,5,2.29,10,3.42,15A1.86,1.86,0,0,1,39.91,181.36Z"/><path class="cls-3" d="M42.81,140.1c1.41.44,2.3,1.61,3.36,2.51a40.47,40.47,0,0,0,12.08,6.79c5.44,2.11,11.07,2.41,16.79,2.27a19.75,19.75,0,0,0,3.88-.55c.43-.1.85-.28,1.21.16a35.53,35.53,0,0,0-.93,6.27c-.14,1.25-.25,2.5-.36,3.75a.88.88,0,0,1-1,.9,9,9,0,0,0-3.66-1.27c-2.38-1-4.78-2-7.14-3.14a135.16,135.16,0,0,1-18-9.75,9.39,9.39,0,0,1-3-3.65C45.39,142.69,43.66,141.74,42.81,140.1Z"/><path class="cls-41" d="M46.17,144.39a19.71,19.71,0,0,1,3,3.65c-1.2-.18-2-1.07-3-1.67A1.24,1.24,0,0,1,46.17,144.39Z"/><path class="cls-6" d="M78.58,181.31c-.92-2.14-1.28-4.48-2.38-6.55.82-3.85,1.78-7.67,2.32-11.57.93,0,1.23.81,1.67,1.41,1.3,1.76,2.53,3.58,3.87,5.3a3.62,3.62,0,0,1,.71,2.94c-.39,2.53-.9,5-1.25,7.58-.11.82-.44,1-1.16,1C81.1,181.32,79.84,181.33,78.58,181.31Z"/><path class="cls-42" d="M99,174.43a6.31,6.31,0,0,1,5.43,4.47c.35,1,1.63,1.31,1.84,2.43H97a5,5,0,0,1-1.86-2,38.72,38.72,0,0,0-2.39-3.52,3.33,3.33,0,0,1-.73-2c-.08-1.34.31-1.72,1.59-1.36A35.56,35.56,0,0,1,99,174.43Z"/><path class="cls-43" d="M99,174.43a25.64,25.64,0,0,1-5.67-1.79c-.66-.31-.9,0-.93.64a3.83,3.83,0,0,0,.87,2.54c1.29,1.8,2.49,3.68,3.72,5.52-1.85.34-3.1,0-3.81-2.12-.91-2.65-2.65-5-3.46-7.69.06-.25.16-.72.41-.54.79.58,2.71,1.31,3.64,1a9.06,9.06,0,0,1,2.92-.21c.57,0,1.51-.4,1.56.62s-1,.45-1.59.84C97.47,173.67,98.73,173.15,99,174.43Z"/><path class="cls-44" d="M88.73,181.41c-.39-3-2.06-5.49-2.58-8.51l6.19,8.5H88.73Z"/><path class="cls-45" d="M53.75,81.65A45.67,45.67,0,0,1,68.1,71.43a45.34,45.34,0,0,1,13.42-4.11,23,23,0,0,1,14.57,2.74,7.49,7.49,0,0,1,3.59,5.43,11.93,11.93,0,0,0,.67,1.83,3,3,0,0,0-.37,3.35,2.7,2.7,0,0,1-2.45,1c-2.14,0-4.29,0-6.43,0-7.41,0-14.82.5-22.24.38-1.63,0-3.26.39-4.92.23-2.81-.28-5.64,0-8.45-.13C54.89,82.12,54.16,82.4,53.75,81.65Z"/><path class="cls-46" d="M57.77,62.17C55.35,62,53.68,63.62,52,64.82c-4.33,3.06-8.82,5.86-13.18,8.86-2.29,1.58-4.63,3.08-6.93,4.64-.63.43-1.23.84-1.83,0s0-1.25.65-1.67q6.7-4.49,13.38-9c3-2.05,6-4.14,9.07-6.21C54.76,61.13,56.37,60.93,57.77,62.17Z"/><path class="cls-47" d="M70,52.26a10.61,10.61,0,0,1,3.41-1.68,34.53,34.53,0,0,1,6-2,.9.9,0,0,0,.79-.89c.57.41.26,1,.27,1.51,0,3.62.11,7.25,0,10.87-.06,1.59.5,2,1.93,1.82.7-.09,1.42-.07,2.13-.1-1.22.76-2.54.36-3.81.27-.74-.05-.49-.88-.49-1.38,0-3-.07-5.94,0-8.91,0-1.15-.34-1.5-1.36-1.11-2.64,1-5.26,2.06-7.89,3.08-.57.22-.65.69-.68,1.2A5.83,5.83,0,0,1,70,52.26Z"/><path class="cls-48" d="M96.68,47a2,2,0,0,0,2.66.66c1,0,2,.13,2.94.06s1.3.27,1.29,1.28c-.06,3.72,0,7.43-.06,11.15,0,1.39.25,2.05,1.76,1.8a20.22,20.22,0,0,1,2.28-.13c-1.37.86-2.88.22-4.31.39-.36-1.94,0-3.9-.12-5.85-.09-1.35.21-2.71-.16-4.05a8.32,8.32,0,0,0-4.13-2c-2.24-.41-4.34-1.52-6.7-1.27-.18-1.1.15-1.44,1.33-1.16S96,48.75,96.68,47Z"/><path class="cls-49" d="M84.52,47l4.21-.33a23.29,23.29,0,0,0-.32,6.27c-.67-.87-.29-1.88-.3-2.81s-.12-1.35-1.21-1.19a13,13,0,0,0-2.37.38Z"/><path class="cls-27" d="M63.07,54.92c1.19.81,1.79-.92,2.85-.67a11.82,11.82,0,0,1,.32,2.65c-1.29-.85-2.13.47-3.2.66Z"/><path class="cls-50" d="M57.77,62.17l-4.64-.68a10.74,10.74,0,0,1,1.25-3c.26,1.7.71,3.11,3,2.56a1.58,1.58,0,0,1,1.36,1.15Z"/><path class="cls-40" d="M46.41,61.24c1.45-.69,3,.09,4.47-.34-.39,1.39-1.16,1.84-2.52,1.12C47.75,61.7,47,61.71,46.41,61.24Z"/><path class="cls-51" d="M103,52.28c.62,1.24.23,2.56.27,3.84.07,2,0,4,0,6.06a.79.79,0,0,1-.66-1C103.42,58.21,102.72,55.23,103,52.28Z"/><path class="cls-52" d="M74.94,61.62c-.43-1.14-.69-2.24.6-3,.62-.23.87,0,.59.58A9.25,9.25,0,0,1,74.94,61.62Z"/><path class="cls-50" d="M60,62.08c-.56-1.39.68-1,1.24-1.23A3.23,3.23,0,0,1,60,62.08Z"/><path class="cls-53" d="M52.82,79.06a1,1,0,0,1-.75.9C51.77,79.21,52.2,79.06,52.82,79.06Z"/><path class="cls-3" d="M67,98.5a20.06,20.06,0,0,0,4.59-.28,1.53,1.53,0,0,1,1.69.28c-2.41,1.76-3.84,4.34-5.49,6.72-4.86,7-15.8,6.71-20.15-.62a13.74,13.74,0,0,1-1.74-8.41c1.34-.66,2.67-1.34,4-2,.57-.26,1.24-.57,1.59.36a.84.84,0,0,1,.23.76,8.64,8.64,0,0,0,2.35,7.87,6.3,6.3,0,0,0,6.46,2.58c3.11-.89,5.41-2.66,6-6.09A2.92,2.92,0,0,1,67,98.5Z"/><path class="cls-12" d="M91.71,97.85c.57,0,1.19-.21,1.68.3H92.14c.88.76,1.9.49,2.58,1.12s1.82.94,1.53,2.07-1.51,1-2.23,1c-1.59-.06-3.27-.2-4.48-1.55-.44-.5-1-1-.68-1.7a1.8,1.8,0,0,1,1.64-.91C90.92,98.13,91.39,98.28,91.71,97.85Z"/><path class="cls-54" d="M87.8,111.72c-.1.53-.23,1.06-.29,1.6s0,1-.72,1.07a1.06,1.06,0,0,1-1.1-.79,15.37,15.37,0,0,0-1-2.22c-.73-1.15-.45-1.87.76-2.33C87.71,108.48,87.71,108.48,87.8,111.72Z"/><path class="cls-3" d="M54.61,125.24a26.59,26.59,0,0,1,19.32,8.46,8.4,8.4,0,0,1,.88,10.75,10.74,10.74,0,0,1-6.63,3.92,19.13,19.13,0,0,1-10-.4c-6.47-2.06-12.12-5.3-14-12.51A8.21,8.21,0,0,1,52,125.24C52.85,125.21,53.73,125.24,54.61,125.24Z"/><path class="cls-55" d="M83.51,122.23c.3-1.27.61-2.54.92-3.81.12-.51.4-1,.94-1s.8.47,1,.94c.38,1.08.75,2.17,1.12,3.25-.05.84-.69.67-1.2.68C85.34,122.29,84.42,122.25,83.51,122.23Z"/><path class="cls-6" d="M78.54,84c1.48,0,3-.09,4.44,0,5.21.2,10.41-.47,15.62-.31.81,0,1.28-.46,1.91-.88.45,1,1.14,1.84.28,3-.28-1.1-.92-1.39-2-1.39-6.75,0-13.5-.08-20.24-.14-.12-.06-.16-.12-.12-.17S78.5,84,78.54,84Z"/><path class="cls-56" d="M53.75,81.65c1.13.63,2.37.24,3.55.34,2.22.18,4.46-.35,6.66.28-3.26,0-6.52,0-9.78,0C53.89,82.31,52.53,82.72,53.75,81.65Z"/><path class="cls-57" d="M78.54,84a1.15,1.15,0,0,0,0,.26H75.91q-.19-.09-.12-.19c0-.06.08-.09.12-.09Z"/><path class="cls-58" d="M75.91,84a1.21,1.21,0,0,0,0,.28H73.64V84Z"/><path class="cls-15" d="M53.79,103.56c-1.68-1.93-3-4-2.7-6.73.09-.75.26-1.49.4-2.23.5-1.05,1.16-1.28,2-.38.47.49,1.28.59,1.55,1.33A3.17,3.17,0,0,1,54.79,97a3.88,3.88,0,0,0,1.89,4.59,4,4,0,0,0,4.93-.85c.37-.4.55-1,1.08-1.2.67-1.71,1.42-1.85,3.68-.67a.82.82,0,0,1,.15.62c-1.13,5.2-7.51,7.4-10.48,5.39-.52-.53-.8-1.44-1.83-1.21A.91.91,0,0,1,53.79,103.56Z"/><path class="cls-59" d="M62.69,99.52c-.62,2.6-4,3.59-6,2.54-2.55-1.32-3.22-4-1.62-6.51,2.4.65,4.65,1.74,7.08,2.3C63.08,98.05,62.5,99,62.69,99.52Z"/><path class="cls-60" d="M53.79,103.56a.84.84,0,0,1,.28-.05,2.66,2.66,0,0,1,2,1c4.4,1.87,8.83-.57,10.34-5.68l.6-.35c.1,3.47-1.66,5.66-4.67,7.16s-5.38.57-7.81-1A1.29,1.29,0,0,1,53.79,103.56Z"/><path class="cls-61" d="M43.85,50.37c0-.38,0-.77,0-1.15s.05-.89.67-.91,1.17.06,1.24.77,0,1.64,0,2.46-.36,1.08-1.12,1.08-.84-.51-.83-1.1c0-.38,0-.77,0-1.15Z"/><path class="cls-62" d="M99.09,36.74a1.63,1.63,0,0,1-1.38-1.57A1.2,1.2,0,0,1,99,33.82c.8,0,1.57.32,1.6,1.26S99.95,36.49,99.09,36.74Z"/><path class="cls-63" d="M35.69,36.56a1.36,1.36,0,0,1-1-1.37,1.32,1.32,0,0,1,1.48-1.39,1.3,1.3,0,0,1,1.38,1.47C37.52,36.23,36.84,36.51,35.69,36.56Z"/><path class="cls-62" d="M49.41,33.69c.09.1.25.19.3.33a.36.36,0,0,1-.27.49c-.21.06-.28-.11-.29-.28S49.11,33.8,49.41,33.69Z"/><path class="cls-64" d="M74.55,34.22c-.14.13-.23.29-.35.31-.32,0-.3-.21-.24-.39a.4.4,0,0,1,.31-.23C74.36,33.91,74.44,34.09,74.55,34.22Z"/><path class="cls-65" d="M92.42,34.65c-.09-.08-.23-.14-.29-.26a.33.33,0,0,1,.19-.49c.09,0,.28.1.34.21S92.66,34.49,92.42,34.65Z"/><path class="cls-66" d="M86.18,81c-3.67,0-6.29-2.29-6.32-5.54a5.64,5.64,0,0,1,5.22-5.93c4-.21,7.09,2.15,7.19,5.25A5.92,5.92,0,0,1,86.18,81Z"/><path class="cls-29" d="M100.07,48h2.45c.46,0,.75.2.73.68s.23.83-.21,1-.68,0-1-.38C101.65,48.77,100.72,49,100.07,48Z"/><path class="cls-12" d="M63.9,146.73c-6.88-.2-12.5-2.91-16.47-8.61-1.5-2.16-2.19-4.6-1-7.3a6.17,6.17,0,0,1,4.72-3.47,20.86,20.86,0,0,1,12.37,1.76,23.68,23.68,0,0,1,7.38,4.43c1.76,1.72,3.38,3.52,3.33,6.3s-1.55,4.35-3.71,5.55A12.35,12.35,0,0,1,63.9,146.73Z"/><path class="cls-38" d="M56,104.53a3.48,3.48,0,0,1-2-1C55.38,102.58,55.65,103.67,56,104.53Z"/><path class="cls-12" d="M86.19,71.82c2.42.19,4,1.6,3.89,3.42a4.06,4.06,0,0,1-4.3,3.69c-2.08-.17-4-2.1-3.89-3.85C82.06,73,83.81,71.63,86.19,71.82Z"/></svg>