<?xml version="1.0" encoding="utf-8"?>
<!-- Generator: Adobe Illustrator 21.1.0, SVG Export Plug-In . SVG Version: 6.00 Build 0)  -->
<svg version="1.1" id="Livello_1" xmlns="http://www.w3.org/2000/svg" xmlns:xlink="http://www.w3.org/1999/xlink" x="0px" y="0px"
	 viewBox="0 0 142.9 201.4" style="enable-background:new 0 0 142.9 201.4;" xml:space="preserve">
<style type="text/css">
	.st0{fill:#FEFEFE;stroke:#C9C8C7;stroke-miterlimit:10;}
	.st1{fill:#E1B7B7;}
	.st2{fill:#8C4E4E;}
	.st3{fill:#C97D7D;}
	.st4{fill:#C16B6B;}
	.st5{fill:#5E3434;}
	.st6{fill:#FCFBFB;}
	.st7{fill:#C26C6C;}
	.st8{fill:#C26B6B;}
	.st9{fill:#6B3C3C;}
	.st10{fill:#E4BDBD;}
	.st11{fill:#B06262;}
	.st12{fill:#FEFEFE;}
	.st13{fill:#703E3E;}
	.st14{fill:#FDFCFC;}
	.st15{fill:#5F3535;}
	.st16{fill:#FDFBFB;}
	.st17{fill:#FDFBFC;}
	.st18{fill:#FCF9F9;}
	.st19{fill:#FBF8F8;}
	.st20{fill:#FCFAFA;}
	.st21{fill:#653838;}
	.st22{fill:#FBF7F8;}
	.st23{fill:#633737;}
	.st24{fill:#FCF8F8;}
	.st25{fill:#FCFAF9;}
	.st26{fill:#7C4545;}
	.st27{fill:#DEB1B1;}
	.st28{fill:#623636;}
	.st29{fill:#C06B6B;}
	.st30{fill:#FAF5F6;}
	.st31{fill:#E3BABA;}
	.st32{fill:#FBF7F7;}
	.st33{fill:#975454;}
	.st34{fill:#FAF5F5;}
	.st35{fill:#F9F2F2;}
	.st36{fill:#F8F0EF;}
	.st37{fill:#F8EFEF;}
	.st38{fill:#FAF3F4;}
	.st39{fill:#F8F1F1;}
	.st40{fill:#B26363;}
	.st41{fill:#864A4A;}
	.st42{fill:#744141;}
	.st43{fill:#744140;}
	.st44{fill:#774242;}
	.st45{fill:#784243;}
	.st46{fill:#784242;}
	.st47{fill:#794343;}
	.st48{fill:#784342;}
	.st49{fill:#FAF4F4;}
	.st50{fill:#532D2D;}
	.st51{fill:#F8F2F2;}
	.st52{fill:#854A49;}
	.st53{fill:#E0B5B5;}
	.st54{fill:#E0B3B4;}
	.st55{fill:#5B3232;}
	.st56{fill:#7D4545;}
	.st57{fill:#A05859;}
	.st58{fill:#5F3434;}
	.st59{fill:#663838;}
	.st60{fill:#E2B9B9;}
	.st61{fill:#E2BABA;}
	.st62{fill:#E1B8B8;}
	.st63{fill:#E6C3C3;}
	.st64{fill:#E2B8B8;}
	.st65{fill:#C26B6C;}
</style>
<title>Tavola disegno 6 copia 4</title>
<path class="st0" d="M6.3,192.2c0-0.8-0.1-1.6-0.1-2.4c0-58,0-115.9,0-173.9c0-2.3,1.3-2.8,4.2-2.8h117.1c3.2,0,3.2,0,3.2,3.3
	c0,57.6,0,115.3,0,172.9c0,1-0.1,1.9-0.1,2.9c-0.6,0.5-1.4,0.3-2.1,0.3c-40,0-80,0-120.1,0C7.7,192.6,7,192.5,6.3,192.2z"/>
<path class="st1" d="M121.4,25.2c0.5,0.8,0.7,1.7,0.7,2.7c0,13.7,0.2,27.5-0.1,41.2c-0.1,3.7,0.2,7.4,0.1,11.1c0,2.7-0.7,5.3,0,8
	c0.2,0.5-0.1,1.1-0.5,1.3c-0.9,0.7-0.5,1.9-0.2,2.9c0.6,2.5,0.6,5.1,0,7.5c-0.5,2.6-0.5,5.2,0,7.8c0.3,1.3,1.1,2.7-0.1,4
	c0,0-0.1,0.1-0.1,0.2c1.1,2.4-0.7,4.7-0.2,7c0,0.2,0.1,0.3,0.1,0.4c1.1,1.4,1.1,1.4-0.8,1.8c-1.3,0.3-2.3,1.4-2.3,2.8
	c0,0.7,0.5,0.6,0.9,0.6c2.2,0.3,2.9,1.5,2.3,3.7c-0.3,0.9-0.3,1.8,0,2.7c0.5,1.2,0.4,2.6-0.2,3.8c-0.4,0.9-0.4,2,0.1,2.8
	c0.8,1.3,0.3,3-1,3.8c-0.9,0.6-1.2,0.4-1.4-0.6c-0.1-0.4-0.2-0.7-0.5-1c-0.4-0.4-1-0.5-1.4-0.1c0,0,0,0-0.1,0.1
	c-0.4,0.4-0.3,0.8,0,1.1c0.2,0.2,0.4,0.4,0.5,0.6c1,1.9,1,1.9,3,1.9c-0.1,1.6-1.6,3.1-0.4,4.8c0.9,1.2,1.6,2.7,1.9,4.2
	c0.1,0.3,0.2,0.7,0.3,1.1c0,9,0,18-0.1,27c-0.6,0.3-1.1,0-1.5-0.3c-5.5-3.2-11.2-6.1-16.7-9.4c-1.5-1.1-3.3-1.6-4.8-2.7
	c-0.4-0.3-0.9-0.5-1.4-0.7c-0.7-0.4-1.4-0.9-2.1-1.2l-0.4-0.2c-1.1-0.5-1.9-1.3-3.1-1.6c-0.1,0-0.3-0.1-0.4-0.1
	c-0.4-0.2-0.8-0.4-1.2-0.5c-2.1-1.1-4.2-2.4-6.2-3.6c-2.8-2.2-4.6-4.9-4.2-8.7c0.8-1.2,1.7-2.3,2.7-3.3c5-5.3,9.9-10.6,14.8-15.9
	c1.8-2,3.8-3.8,5.5-5.9c1.2-1.5,1.1-1.8-0.5-3c-0.6-0.4-0.8-1.1-0.7-1.7c0.1-0.9-0.1-1.9-0.5-2.7c-0.2-0.5-0.5-1.1-1.2-1
	s-0.5,0.7-0.7,1.2c-0.3,1,0,2.1-0.9,2.9c-3-0.5-6-1.3-8.9-2.3c-1.2-0.4-1.3-1-0.2-2c2.7-2.2,5.5-4.2,8.2-6.3c1-1,2.1-1.8,3.4-2.3
	c1.2,0.1,1.3,1.2,1.7,1.9c0.2,0.4,0.3,1.1,0.9,1s0.7-0.8,0.8-1.3c0.1-0.4,0.1-0.8,0.1-1.1c-0.4-1.7-0.1-3.5,1-4.9
	c0.9-1.1,0.3-2.7-0.4-4c-0.4-0.8-1-1.5-1.7-2c-0.4-0.4-0.8-0.9-1.1-1.4c-1.3-1.3-2.9-2.2-4.2-3.4c-0.4-0.4-1.2-0.8-0.5-1.6
	c2.1-0.2,4.1-0.2,6.2,0c2.1,0.3,4.2,0.2,6.2-0.5c0.5-0.2,1.2-0.2,1.1-1s-0.8-0.7-1.3-0.8c-2.7-0.3-5.3-0.5-8-1.1
	c-1.8-0.5-1.9-0.8-0.6-2.2s1.4-3.1,0-4.7c-0.4-0.5-1.1-0.8-0.6-1.6c0.9-0.7,2.1-0.8,3.2-1.2c4.2-1.6,7.4-4.3,7.8-9.1
	c0.5-3.9,0.3-7.8-0.5-11.6c-0.1-0.4-0.2-0.7-0.2-1.1c0.1-1.4-0.5-2.7-1.4-3.7c-0.5-1.1-1.5-1.9-2-3.1c-0.1-0.4,0.1-0.8,0-1.2
	c-0.2-1.4,0.3-2.1,1.8-2c0.5,0.1,1-0.1,1.3-0.5c0.5-0.6,1-1.4,0.7-2.1s-1.2-0.4-1.8-0.4c-2.3,0-4.6,0-6.9,0c-1-0.2-2,0.4-2.3,1.4
	c-1,0.5-1.8-0.1-2.6-0.5c-2-1.4-4.6-1.7-6.9-0.8c-2.3-0.2-4.5,0.2-6.7,0.3c-0.1,0-0.1,0-0.2,0c-2.2-1-4.2-1.3-5.5,1.3
	c-0.7,0.1-1.4,0.4-2.1,0c0.1-0.9-0.5-1.6-1.4-1.7c-0.1,0-0.3,0-0.4,0c-0.1,0-0.2,0-0.3,0c-3.3-1.2-5.2,0.8-6.9,3.2
	c-0.5,0.7-0.7,1.5-0.6,2.3c0.1,0.5,0.3,1.2-0.6,1.5c-0.8-0.6-1.4-0.1-2.1,0.2c-0.6,0.3-1.1,0.6-1.7,0.8c-1.2-0.5-2.4-1.2-3.7-1.9
	c-0.7-0.4-1.2-0.9-1-1.8s1.1-1.1,2-1c2.1,0.2,2.3,0.1,3-1.8c0.3-0.9,0-1.2-0.8-1.3c-1.2-0.2-2.4-0.4-3.6-0.5s-3.2,1.4-3.7,3.1
	c-0.4,1.5-0.5,3.2-0.2,4.7c0.1,0.6,0.5,1.1,1.1,1.4c0.7,0.3,1.3,0.7,1.8,1.1c0.1,0.4-0.1,0.8-0.5,1c-2,1-3.8,2.5-5.8,3.6
	c-1.2-0.2-1.2-1.2-1.2-2.1c0-2.6,0-5.2,0-7.8c0-3.2-0.8-4.1-3.8-4.7c-0.1,0-0.2,0-0.3-0.1c-1.1-0.1-2.2-0.9-3.2,0
	c-1.3,1.1-2.1,2.6-2.2,4.3c-0.1,0.7,0,1.4-0.1,2.1c0,0.9-0.5,1.7-1.2,2.2c-0.9,0.6-1.1,2-0.3,2.5c1.7,1.1,1.5,2.8,1.5,4.4
	c0,1.3,0.6,1.7,1.8,1.7s1.6-0.5,1.5-1.6c0-0.9,0-1.8,0.1-2.6c0.1-0.8,0.5-1.5,1.4-1.5s1.3,0.7,1.4,1.5c0.1,1.3,0,2.5,0.1,3.8
	c-0.1,1-0.9,1.3-1.6,1.8c-4.6,3.1-9,6.4-13.3,10c-0.6,0.5-1.2,1.1-1.8,1.7c-1.6,1.7-1.6,3.4,0.3,4.9c2,1.7,4.5,1.8,7,2.2
	c1.7,0.1,3.5,0.3,5.2,0.6c0.2,1-0.3,2.1,0.7,2.9c0.1,0.8,0.2,1.5,0.2,2.3c0.2,1.2,0,2.4-0.5,3.5c-1,1-1.7,2.3-2,3.8
	c0.2,3.1-1.5,5.6-2.8,8.1c-0.7,1.4-1.1,2.6,0.3,3.9c0.8,0.7,0.4,1.5,0,2.3c-0.8,1.4-1.6,2.8-2.4,4.1s-0.9,2.3,0.3,3.4
	c0.7,0.6,0.8,1.5,0.2,2.2c-0.6,1-1.3,2-1.9,3.1c-0.6,0.7-0.6,1.7-0.2,2.5c0.5,0.8,0.4,1.9-0.2,2.6c-0.8,1.3-1.7,2.6-2.5,3.9
	c-0.7,1.2-0.9,2.2,0.1,3.3c0.4,0.4,0.6,1,0.4,1.5c-0.7,1.3-1.5,2.5-2.5,3.6c-3.5,4.2-8.5,6.2-13.2,8.4c-0.3,0.2-0.8,0.2-1.1,0
	c0-1,0-2,0-3c0-39,0-78,0-116.9c0-0.9,0.1-1.7,0.4-2.6c0.7-0.4,1.5-0.6,2.4-0.5h101.8C120.3,24.7,121,24.4,121.4,25.2z"/>
<path class="st2" d="M15.2,147.8c5.1-2.2,10.3-4.3,14.1-8.7c0.6-0.6,1.5-0.6,2.1,0c0,0,0.1,0.1,0.1,0.1c10,8.2,18.7,17.4,25.4,28.5
	c2.6,4.1,4.9,8.4,6.9,12.9c0.1,1.2-0.8,0.9-1.4,0.9c-4.1,0-8.2,0-12.3,0h-9.8c-1-0.3-0.9-1.2-1-1.9c-0.9-4.1-2-8.2-3-12.4
	c-0.4-1.8-0.7-2-2.5-1.6c-3.3,0.7-6.7,1.2-10.1,1.7c-2.6,0.4-2.9,0.8-2.4,3.3c0.6,2.9,1.4,5.8,2,8.7c0.1,0.7,0.5,1.5-0.3,2.1
	c-1.1,0-2.2-0.1-3.3,0c-0.8,0.2-1.7-0.4-1.8-1.2c0-0.1,0-0.1,0-0.2c-1.4-6.4-3.2-12.8-2.8-19.5c0.3-4.2-0.1-8.4,0.2-12.7L15.2,147.8
	z"/>
<path class="st3" d="M63.3,180c-2.1-3.8-4-7.7-6.3-11.3c-3.3-5.3-7-10.4-11-15.1c-4.5-5.2-9.8-9.5-14.9-14.2
	c-0.5-0.5-1.3-0.6-1.9-0.3l2.4-3.3c0.8-0.2,1.2,0.3,1.7,0.7c4.1,3.4,8.4,6.6,12.8,9.6c1,0.6,2,1.2,3.1,1.7c3.9,2.2,7.7,4.5,11.7,6.5
	c2.1,1.1,4.2,2.1,6.4,3.1c2.4,1,4.8,2.1,7.2,3.3c0.6,0.4,0.9,1.2,0.7,1.9c-1.4,6.1-2.6,12.3-4.3,18.3c-0.1,0.2-0.2,0.3-0.3,0.4
	l-6.6,0.1C63.7,181,63.8,180.4,63.3,180z"/>
<path class="st4" d="M80.2,151.4c-0.2,3.7,1.5,6.4,4.2,8.6c1.9,3.8,3.7,7.8,5.6,11.6c1.2,2.9,2.7,5.7,4.1,8.6
	c0.7,1.4,2.1,0.7,3.3,0.8c2.9,0,5.8-0.1,8.7,0c0.6-0.1,1.2,0,1.8,0c0.8-0.1,1.6,0,2.5,0c3-0.1,6,0,9,0c0.7-0.1,1.3,0.1,1.8,0.6
	c-0.3,0.4-0.8,0.3-1.2,0.3H90c-0.4,0-0.9,0.2-1.2-0.3c0.8-0.8,1.9-0.4,2.8-0.4c-1.6-2.4-3.7-4.7-4.9-7.1c0.6,1.7,1.5,3.6,2.2,5.6
	c0.2,0.6,0.6,1.2,0,1.8c-3.4,0.1-6.8,0.6-10.2,0l0.2-0.2c0.9-0.3,1.9-0.4,2.9-0.3c0.9,0,1.5-0.3,1.6-1.2c0.4-2.4,0.8-4.9,1.1-7.3
	c0.1-0.5,0-1.1-0.3-1.6c-1.8-2.4-3.3-5.1-5.4-7.2c-0.4-0.3-0.7-0.8-0.8-1.3c0-0.2,0.1-0.3,0.2-0.5c1-2.4,0.6-5,1.1-7.4
	c0.2-1,0-2.2,0.9-3.1L80.2,151.4z"/>
<path class="st5" d="M121.2,181.4l-10.8-0.1c-0.9-0.4-1.2-1.3-1.6-2c-1.5-2.3-3-4.6-4.6-6.8c-0.4-0.5-0.7-1-0.8-1.6
	c-0.1-0.5,0.1-0.8,0.7-0.4l18.1,10C122,181,121.7,181.3,121.2,181.4z"/>
<path class="st6" d="M121.4,25.2c-0.7-0.3-1.4-0.4-2.1-0.3c-33.7,0-67.4,0-101.1,0c-0.9,0-1.9,0.1-2.8,0.4c0.6-0.9,1.5-0.7,2.4-0.7
	h102.9v-0.3H16.5v-0.3H120C120.8,23.9,122.1,23.5,121.4,25.2z"/>
<path class="st7" d="M63.3,180c0.7,0.2,0.7,0.8,0.7,1.4c-0.4,0.5-1,0.3-1.5,0.3c-14.3,0-28.6,0-42.9,0c-1.3,0.1-2.6,0-3.8-0.3
	c-0.1-1-0.4-2-0.4-3.4c0,1.2,0.5,2-0.2,2.8c-0.5-0.3-0.3-0.8-0.3-1.2c0-10.1,0-20.2,0-30.4c0-0.4-0.2-0.9,0.3-1.2
	c0,4.3,0.2,8.7,0,13c-0.3,5.6,1.4,10.8,2.5,16.1c0,0.1,0,0.1,0.1,0.1c0.5,1.3,0,3.1,1,3.8s2.9,0.2,4.3,0.3c0.6-0.4,1.3-0.6,2-0.5
	c4.3,0,8.5,0,12.8,0c0.7-0.1,1.4,0.1,2,0.5c7.5,0,14.9,0,22.3,0C63.3,181.4,63.9,181.2,63.3,180z"/>
<path class="st7" d="M70.6,181.3c0.2-3,1.3-5.7,1.9-8.6c0.6-3.3,1.5-6.5,2.2-9.8c0.2-0.7,0.5-1.5-0.4-2c1.4-0.5,2.9,0,3.7,1.3l0,0
	c-1.3,3.8-1.9,7.7-2.9,11.5c-0.7,2.5-0.9,5.2-2.1,7.6L70.6,181.3z"/>
<path class="st3" d="M72.9,181.3c0.4-3.8,1.7-7.3,2.4-11c0.5-2.4,1.1-4.7,1.5-7c0.1-0.6,0.3-1,1-1.1c0.2,0.3,0.7,0.5,0.7,1
	c0.3,0.4,0.4,1,0.3,1.5c-0.7,3.4-1.2,6.8-2.2,10c-0.5,1.6-0.8,3.3-1.1,4.9c-0.1,0.6-0.2,1.3-0.9,1.6L72.9,181.3z"/>
<path class="st8" d="M74.6,181.3c0.7-2.1,0.8-4.4,1.6-6.6c0.2,0,0.4-0.1,0.4,0.1c0.9,2.1,2,4.1,1.9,6.5l-0.1,0.1
	C77.2,181.5,75.9,181.8,74.6,181.3z"/>
<path class="st9" d="M15.1,180.7v-3.6h0.2c0.3,1.2,0.5,2.4,0.8,3.6c0.1,0.4,0.1,0.6-0.4,0.7L15.1,180.7z"/>
<path class="st10" d="M121.7,123.3c0,0.4-0.4,0.8-0.9,0.7c-0.4,0-0.7-0.3-0.7-0.7c-0.1-0.5,0.3-0.9,0.8-0.9c0,0,0.1,0,0.1,0
	C121.6,122.4,121.6,123,121.7,123.3z"/>
<path class="st5" d="M111.1,57.2c1.2,4.2,1.6,8.5,1.1,12.9c-0.3,3.7-2.5,7-5.8,8.6c-1.8,0.9-3.7,1.6-5.7,2.1
	c-0.2,0.1-0.5,0.2-0.8,0.1c-1-1.1-0.9-2.8,0.2-3.7c0,0,0,0,0,0c1.2-0.3,1.4-1,1.2-2.1c-0.7-3.4-3-6.1-6.2-7.4
	c-6.6-2.9-13.3-2.8-20.1-0.7c-7.6,2.2-14.6,6-20.4,11.3c-0.5,0.4-1,0.7-1.5,1c-0.6,0.1-1,0.6-1.1,1.1c-0.6,0.9-1.4,1.2-2.3,0.4
	c-0.5-0.4-1.2-0.5-1.8-0.1c-0.3,0.2-0.8,0.3-1.1,0.2c-1.6-0.9-2,0.1-2.4,1.4s-1.1,1.3-2.3,0.6c-3.3,0-6.7-0.4-9.9-1.2
	c-1.4-0.4-2.6-1.2-3.5-2.4c-1.2-1.6-1.2-3,0.3-4.3c5.2-4.8,10.8-9.1,16.7-13c0.1-0.1,0.2-0.2,0.3-0.3c0-0.3,0.2-0.4,0.4-0.4
	c0.6,0.1,1.3,0.3,1.9,0.5c0.7,0.4,1.6,0.2,2-0.5c0.1-0.1,0.1-0.2,0.1-0.3c0.4-0.6,1-1.1,0.6-1.9c-0.3-0.6,0.3-0.7,0.6-0.9l5.4-3.3
	c1-0.5,1.7,0.1,2.2,0.8c0.5,0.7,0.6,1.7,0.2,2.5c-0.4,0.8-1.2,0.7-1.9,0.7c-1,0-1.9-0.6-2.9,0c-0.8,0.9-0.8,2.1-1.4,3
	c-2.2,1.7-4.5,3.4-6.9,4.8c-5,3.4-10.1,6.8-15.1,10.2c-0.2,0.1-0.4,0.3-0.5,0.4c-0.3,0.3-0.7,0.5-0.4,1s0.7,0.2,1,0
	c1.7-1,3.3-2.1,5-3.2c4.5-3,8.9-6,13.4-9c1.5-1,3-2,4.5-3c0.9-0.7,2.1-1,3.2-1h0.9c0.4,0,0.7,0,1.1,0c0.7-0.1,1-0.7,1.4-1.2
	c0.9-0.9,1.1-2.1,1.7-3.2c1.7-1.3,2.9-1.4,3.9-0.4c0.2,0.3,0.3,0.6,0.3,0.9c0.8,3.1,0.8,3.2,4,3.5c1.2,0.1,2.3,0.7,3.5,0
	c0.4-0.8,1.6-1.5,0.5-2.5c-0.6-0.1-1.2-0.2-1.8-0.2c-2.7-0.4-3.3-1-3.4-3.8c0.1-1,0.7-1.4,1.5-1.7c2.3-0.9,4.6-1.8,6.9-2.7
	c1.8-0.7,2.3-0.3,2.4,1.7c0,2.5,0,5,0,7.5c0,0.7-0.2,1.6,0.6,1.9s1.8,0.5,2.5-0.4c0.3-3,0.1-6.1,0.2-9.1c-0.1-0.9,0-1.7,0.3-2.6
	c0.9-1.2,2.1-1,3.3-0.9c0.8,0,0.9,0.7,1,1.3c0.1,0.9-0.2,1.8,0.3,2.6c0.9,1,2.2,1.3,3.2,1.9c0.6,0.2,1.1,0.6,1.5,1
	c0.6,0.7,0.7,1.8,0.3,2.6c-0.4,0.9-1.2,0.7-2,0.7l-0.3,0c-2.6-0.4-2.7-0.3-3.4,2.5c1.5,0.3,3.1,0.6,4.7,0.7c1.3,0.2,2.9-1.2,3.5-2.8
	c0.5-1.6,0.7-3.3,0.3-5c-0.1-0.8-0.7-1.4-1.4-1.7c-0.9-0.4-1.8-0.9-2.6-1.4c-0.7-0.4-1.2-1-0.7-1.9c0.4-0.3,0.9-0.4,1.4-0.3
	c2.9,0.4,5.8,1.2,8.5,2.4c0.6,0.3,1,0.7,1.2,1.3c0.3,2.8,0.3,5.6,0.1,8.3c0,0.4-0.3,0.9,0.3,1.1c1.1-0.1,2.4,0.5,3.4-0.5
	c0.4-2-0.1-4,0.3-6c0.1-0.3,0.3-0.5,0.6-0.5C109.3,55.2,110.4,56,111.1,57.2z"/>
<path class="st7" d="M46.2,146.4c-2.9-1.7-5.6-3.6-8.2-5.7c-2.1-1.7-4.2-3.3-6.4-4.9c0-0.5,0.1-0.9-0.4-1.3c-1.3-1-1.2-2.2-0.4-3.5
	s1.8-2.9,2.7-4.3c0.4-0.7,0.7-1.3,0-2c-0.6-0.8-0.6-2,0.1-2.8c0.7-1.1,1.4-2.2,2.1-3.3c0.4-0.6,0.5-1.1-0.3-1.7
	c-1.4-0.9-1.3-2.2-0.6-3.5c0.8-1.5,1.7-2.9,2.6-4.4c0.5-0.8,0.8-1.6-0.3-2.4s-1-1.8-0.5-2.8c0.5-1.1,1-2.2,1.6-3.2
	c1.2-1.8,1.3-3.9,1.7-5.9c0.5,0.3,0.4,0.8,0.5,1.3c0.2,1.5,0.6,1.7,2.1,1.1c1-0.4,1.9-1.3,3.2-1.1c0.4,0.6,0.5,1.3,0.4,2.1
	c0,6.4,5.2,11.7,11.6,11.7c4,0,7.7-2,9.8-5.4c1.5-2.3,3-4.6,5.2-6.3c1.6-1.3,3.3-2.4,5.2-3.3c3.1,0.4,6,1.6,9,2
	c1.5,0.1,2.9,0.3,4.4,0.7c0.6,0.8-0.2,0.8-0.6,1s-1.3,0.2-1.4,0.9s0.6,1.3,1.2,1.6c1.3,0.8,2.8,1,4.3,0.6c0.9-0.3,1-0.8,0.4-1.4
	c-0.6-0.6-1.3-1-2.1-1.2c-0.4-0.1-1.1-0.2-1-0.8c0.1-0.5,0.7-0.4,1.1-0.5c0.2,0,0.3,0,0.5,0c1.8,0,3.7,0,5.5,0
	c1.1,0,2.3-0.1,3.3-0.5l0.9,1.3c-0.3,0.6-0.8,0.9-1.2,1.4s-0.5,0.8-0.3,1.2s0.8,0.5,1.3,0.5c0.8-0.1,1.4-0.5,1.9-1.2
	c1.5,2.3,1.4,3.8-0.3,5.8c-0.4,0.5-0.5,1.1-0.2,1.7c0.4,1.3,0.3,2.7-0.2,4c-0.2,0.5-0.5,0.9-1,0.9s-0.8-0.4-1-0.9
	c-0.5-0.9-0.3-2.2-1.6-2.6c-0.5-1.4,0.2-2.2,1.5-2.5c-4.8,0.2-9.6,0.7-14.3,1.5c0.4,1.1,0.9,2.3-0.2,3.4c-0.4-0.1-0.6-0.5-0.5-0.9
	c0.1-1.3-0.6-1.7-1.8-1.5c-2.6,0.1-5,1.3-7.4,2.1c-4.4,1.6-8.7,3.7-12.7,6.2c-0.5,0.3-1,0.6-1.5,0.7c-2.3-0.5-4.7-0.7-6.9-1.3
	c-5-1.5-10.5,0.1-13.9,4.1c-4.1,4.5-4.4,9.8-2.1,15.2c0.5,1.2,0.8,2.5,1.9,3.4c1,1.6,2.8,2.6,3.4,4.5
	C46.3,145,46.2,145.7,46.2,146.4z"/>
<path class="st11" d="M42.8,140.1c-1.8-1.5-2.4-3.7-3-5.8c-1.6-5.7-0.4-10.8,4.2-14.8c3.6-3.4,8.8-4.5,13.5-2.9
	c2.1,0.6,4.4,0.6,6.5,1.3c5.5,1.9,11.2,3.3,16.9,4.1c0.9,0.1,1.8,0.1,2.6-0.2c1.4-0.2,2.8-0.1,4.1-0.4c0.5,0.6,0.5,1.1-0.4,1.2
	c-0.7,0.1-1.4,0.1-2.1,0.1c4.3-0.8,8.7,0,13-0.6c1.6,0.1,3.1,0.4,4.5,1.1c1.9,0.9,2.1,1.5,0.8,3c-1.7,2-3.5,3.9-5.3,5.9
	c-5,5.4-10,10.8-15.1,16.1c-1,1-1.9,2.1-2.9,3.1l-0.1-0.1c-6.9,1.6-14.1,1.2-20.8-1c-3.5-1.1-6.9-2.7-10-4.7c-2.1-1.3-4-2.9-5.7-4.8
	C43.4,140.5,43.1,140.3,42.8,140.1z"/>
<path class="st7" d="M100,80.7l0.7,0.1c0.1,0.2,0.1,0.3,0.2,0.4c2.7,2.6,2.6,4.5-0.3,6.9l1.2,0.4c-0.9,0.8-1.8,0.5-2.8,0.2
	c-0.5-0.2-0.9-0.5-0.7-1.1s0.8-0.6,1.1-0.6c-0.6-0.3-1.5,0.2-2.3,0.2c-5.2,0-10.3,0.2-15.5-0.1c-9.3-0.5-18.7-0.1-28-0.3
	c-1.1,0-2.3,0.2-3.4,0.5c-1.5,0.3-3.1-0.1-4.8,0c-0.9,0.1-2-1.2-2.9-2c-1.5-0.6-1.1-1.6-0.4-2.6c1.3,0.5,1.8-0.1,2.1-1.3
	c0.4-1.8,0.6-1.8,2.3-1c0.4,0.2,0.9,0.2,1.2-0.1c0.9-0.9,1.6-0.6,2.3,0.2c1,1.1,1.3-0.2,1.9-0.5c0.2-0.4,0.4-0.7,0.8-0.9
	c3.9-3.5,8.3-6.5,12.9-8.9c5.7-2.7,11.5-5,17.8-5.2c5.7-0.2,11.4,0.7,15.8,5.1c1.5,1.5,2.4,3.5,2.6,5.6c0.2,1.2-0.2,2-1.6,1.7
	c-0.8-0.2-0.9-0.9-1-1.6c-0.5-3.1-2.7-5.5-5.7-6.5c-5.1-1.9-10.6-2.2-15.8-0.9c-8,2-15.4,5.8-21.6,11.3c-0.7,0.5-1.3,1.2-1.8,1.9
	c1.3,0.5,2.7,0.2,4,0.2c1.9,0,3.8,0.1,5.7,0c11-0.4,21.9-0.6,32.9-0.7C98.1,81.1,99,80.9,100,80.7z"/>
<path class="st2" d="M83.5,122.2c-1,0.7-2.1,0.4-3.2,0.3c-5-0.8-9.9-2.1-14.8-3.3c-0.6-0.2-1.4-0.3-1.6-1.2c6.4-4,13.3-7.1,20.6-9.1
	c0.3-0.1,0.6-0.1,0.9,0.2c-1.1,1.5-0.1,2.8,0.5,4c0.1,0.3,0.3,0.6,0.7,0.5s0.3-0.4,0.4-0.6c0.2-0.5,0.2-1,0.7-1.2
	c0.6-1.2,0.5-2.5-0.3-3.6c5.5-1.2,11.1-1.8,16.7-1.7c-1.3,1-3.5,0.8-3.3,2.9c-3.8,2.9-7.6,5.9-11.4,8.8c-0.3,0.2-0.8,0.3-0.8,0.8
	c0.1,0.6,0.7,0.5,1.1,0.6c2.8,0.8,5.7,1.6,8.5,2.4c0.1,0.1,0.1,0.1,0.1,0.2s-0.1,0.1-0.1,0.1c-0.2,0.5-0.7,0.7-1.2,0.7
	c-4.1,0-8.2,0-12.3-0.3c0.7,0,1.4,0,2.1,0s1.1-0.3,0.5-1c-1.1-0.6-0.9-1.8-1.4-2.7c-0.2-0.3-0.2-0.7-0.6-0.7s-0.6,0.4-0.7,0.8
	C84.3,120.1,84.7,121.4,83.5,122.2z"/>
<path class="st5" d="M42.5,85.3c1.1-0.1,2,0.5,2.6,1.4c0.5,0.9,1.4,0.8,1.8-0.1c0.5-1.1,1-0.9,1.4-0.1c0.6,1,1.3,1,2,0.2
	c0.4-0.4,1-0.5,1.5-0.4c8.9,0,17.8-0.2,26.7,0.1c7.1,0.2,14.3,0,21.4,0.3c0,0.1-0.1,0.2-0.1,0.3c-0.4,0.5-1.5,0.1-1.4,0.8
	s1.2,0.5,1.8,0.8c0.5,0.1,1,0.1,1.5,0l7.3,0.9c0.4,0,0.8,0.1,1.1,0.2c0.8,0.2,1.8,0.2,1.8,1.3s-0.9,1.1-1.6,1.3
	c-1.6,0.5-3.3,0.7-5,0.6c-2.6-0.2-5.3-0.2-7.9-0.3C97,93,96.4,93.2,95.7,93c-2-0.3-4-0.2-5.9-0.4c-10.3-1.3-20.6-2.4-30.8-3.8
	c-1-0.1-2.1-0.2-3.1-0.1c-4.1-0.4-8.1-0.1-12.2-0.3c-0.4,0-0.8-0.2-1.1-0.5L42.5,85.3z"/>
<path class="st11" d="M43.5,88c4.2,0,8.4-0.3,12.5,0.3c5.3,1,10.3,2.9,15.4,4.5c1.8,0.4,3.6,1,5.3,1.6c0.4,0.2,1,0.2,1,0.8l-4.6,3.3
	c-1.9,0.3-3.9,0.5-5.9,0.5c-0.3,0-0.7,0.1-1,0c-1.2-0.6-2.7-0.4-3.7,0.5c-0.4-0.9-1.2-1.6-2.2-1.7c-1.8-0.4-3.6-1.1-5.2-1.9
	c-0.5-0.2-0.9-0.5-1.4-0.9c-0.6-0.6-1.6-0.8-2.4-0.3c-1.4-0.4-2.5,0.5-3.7,1c-0.6,0.3-1.1,1-1.9,0.5c-1.1,0.5-2.1,1.1-3.2,1.6
	c-1.7,0.8-2.4,0.3-2.4-1.5c0-0.5,0-1,0-1.5c0.1-1.4,0.8-2.8,2-3.6c1-1.5,2.5-2.5,4.3-2.8C45.5,88.5,44.3,89.3,43.5,88z"/>
<path class="st2" d="M77.9,95.2c-3.9-1.2-7.8-2.4-11.6-3.6c-3.4-1.1-6.9-1.9-10.2-3.3c2.1-0.1,4.1,0.1,6.1,0.5
	c4.1,0.5,8.2,1,12.3,1.5c5,0.6,10.1,1.3,15.1,1.9c2.6,0.3,5.1,0.3,7.7,0.5c1.1,1.5,2.8,2.2,4.1,3.5c0.4,0.3,0.8,0.7,1.2,1.1
	c-0.2,1.1-1.1,0.9-1.8,1c-2.5,0-4.9,0-7.4,0c-0.5-0.4-1.2,0.1-1.7-0.3C87,97.6,82.4,96.4,77.9,95.2z"/>
<path class="st12" d="M46.4,61.2l-0.3,0.2c-0.6-1.2-0.2-2.6-0.3-3.9c-0.1-0.7-0.1-1.3-1.1-1.3s-0.9,0.6-0.9,1.3c0,1.2,0,2.3,0,3.5
	c0,0.9-0.3,1.1-1.2,1.2c-3.2,0.2-3.2,0.2-3.2-2.9c0-1.3,0.5-2.7-1.6-3.2c-0.8-0.2-0.2-1.7-0.3-2.6c-0.1-0.7,0.3-0.9,0.9-0.8
	c0.7,0,0.9-0.4,0.9-1c0.1-0.6,0.1-1.2,0.1-1.8c-0.4-2.5,1.3-4.1,2.4-5.9c0.2-0.3,0.6-0.5,1-0.4c1.7,0.2,3.4,0.6,5.1,1.1
	c1.5,0.6,2,2.1,2.1,3.6c0.1,3,0,6,0,9.1c0,0.7-0.3,1.7,1,1.7c2,0.9-0.1,1.3-0.2,2C49.5,62,47.9,61.2,46.4,61.2z"/>
<path class="st12" d="M54.4,58.4c0-0.6,0-1,0.8-0.8c0.7,0.1,1.4,0.3,2.1,0.3c0.7,0.1,1.7,0.7,2-0.2s0.4-2.3-1.2-2.8
	c-0.3-0.1-0.6-0.2-0.9-0.3c-3.6-1.3-4.1-2.3-3.3-6.8c0.3-1.9,1.6-2.9,2.8-4.1c0.5-0.3,1.1-0.4,1.7-0.2c1.4,0.3,2.8,0.4,4.2,0.7
	c0.3,0,0.9,0,0.8,0.3c-0.1,1.2-0.9,2.2-1.3,3.3c-0.2,0.7-0.9,0.5-1.4,0.4s-1.1-0.2-1.6-0.3s-0.9,0-1.1,0.6s-0.2,1,0.4,1.4
	c1.3,0.7,2.8,1.2,3.9,2.3c1.3,0.5,0.9,1.7,1.1,2.7c0,0.9-0.1,1.8-0.5,2.6c-0.2,1.3-0.8,2.4-1.8,3.3c-0.5,0.4-1,0.6-1.2,1.2
	c-0.4,0.2-0.9,0.3-1.3,0.1c-0.8-0.5-1.7-0.8-2.6-0.8c-1.3,0.2-2-0.3-1.7-1.8C54.5,59.2,54.2,58.8,54.4,58.4z"/>
<path class="st12" d="M92.1,49c-0.2,0.5,0,1,0.5,1.3c0.1,0,0.1,0,0.2,0.1c0.5,0.2,0.9,0.4,1.3,0.7c1,0.8,2.9,0.5,3.1,2.4
	c0.3,2.5,0.6,5-1.2,7.2c-0.9,1.4-2.6,1.9-4.1,1.4c-1.4-0.3-2.9-0.5-4.3-0.5c0.1-0.3,0.1-0.7,0.2-1c1-3,1-3,4.2-2.5
	c0.5,0.1,1.5,0.7,1.6-0.3c0.1-0.8,0.6-2-0.8-2.5c-1.5-0.7-2.9-1.5-4.4-2.2c-0.2-1.9-0.2-3.9-0.1-5.9c0.4-1.2,1.3-2.1,2.4-2.6
	c0.4-0.7,1.2-1,1.9-0.8c1.5,0.3,3.1,0.5,4.7,0.7c0.5,0.1,0.7,0.3,0.3,0.7c-0.1,0.8-0.4,1.5-0.7,2.2c-0.5,1.3-1.5,1.3-2.6,1.2
	C93.4,48.3,92.6,48,92.1,49z"/>
<path class="st12" d="M26.4,47.7c0.6-1.4,1.5-2.7,2.4-3.9c0.2-0.3,0.6-0.4,1-0.3c2.2,0.4,4.4,0.7,6.7,0.9c0.8,0.1,0.9,0.5,0.6,1.1
	c-0.5,0.9-1,1.7-1.5,2.6c-0.2,0.5-0.8,0.8-1.3,0.6c0,0-0.1,0-0.1,0c-0.7-0.2-1.4-0.3-2.1-0.3c-0.9-0.1-1.4,0.2-1.4,1.2
	s0.2,1.5,1.2,1.5c0.4,0,0.9,0,1.3,0c1.7-0.3,2.3,0.1,2.1,2c-0.1,1.4-0.5,1.7-1.8,1.7c-2.9-0.1-2.9,0-2.9,2.9c0,0.2,0,0.4,0,0.7
	c0,4,0,4-4,4c-0.4-3.4,0-6.9-0.2-10.3C26.6,50.5,26.6,49.1,26.4,47.7z"/>
<path class="st13" d="M89.7,171.5c-2.1-3.5-3.5-7.4-5.4-11c-0.1-0.2,0-0.4,0.2-0.6c0,0,0,0,0,0l6.2,3.7c0.3,0.2,0.6,0.4,1,0.5l0,0
	c1.1,0.7,2.3,1.3,3.6,1.7l0,0c0.8,0.4,1.4,1.2,2.3,1.3l1.3,0.7c2.4,2.1,3.7,5,5.6,7.5c1,1.4,1.8,2.9,2.8,4.2
	c0.4,0.5,0.8,1.1,0.5,1.8h-1.6c-1.1-0.7-2-1.8-2.5-3c-0.9-2.2-2.9-3-4.9-3.8c-0.6-0.8-1.8-0.5-2.5-1.1c0-0.7,0.8-0.5,1-0.9
	c0-0.2-0.2-0.2-0.3-0.2c-2-0.2-3.9,0.3-5.9,0C90.5,172.3,90,172,89.7,171.5z"/>
<path class="st12" d="M74.9,61.6c0,0.9-0.7,0.6-1.2,0.6c-1.8-0.2-3.6-0.5-5.3-0.6c-0.6,0-1.1-0.5-1.2-1.1c-0.3-1.2-0.7-2.4-1-3.6
	c-0.2-0.9-0.9-1.7-0.7-2.8s-0.3-2,0.5-2.8c0.1-0.2,0.3-0.5,0.3-0.7c-0.3-2.9,1.4-5.7,4.1-6.8c1.9-0.7,4.1,0.1,6,0.7
	c0.6,0.2-0.2,1-0.3,1.5c-0.8,2.4-1,2.6-3.3,2.4s-2.5,0-2.5,2.3c0,0.5,0,1.1,0,1.7c0.2,0.9-0.6,1.7-0.2,2.6c0.3,2.9,0.4,3,3.3,3.2
	c0.7-0.1,1.4,0.1,2,0.5C75.1,59.5,75,60.6,74.9,61.6z"/>
<path class="st14" d="M107.6,54.9v6.9c-1.1,0.3-2.3,0.3-3.4,0.2c-0.8,0-0.9-0.6-0.9-1.3c0-2.1,0-4.2,0-6.3c0.1-1.6-0.3-3.2-0.2-4.8
	c0.1-1-0.4-1.5-1.5-1.5c-0.7,0.1-1.3,0-2-0.2c-0.9-0.8-0.5-1.3,0.2-1.9c-0.1-1.6,0.6-2.2,2.3-2.1c2.9,0.1,5.8,0.1,8.7,0
	c0.9,0,1,0.3,0.9,1c-0.2,2.1-1.1,2.9-3.1,3c-0.7,0-1.2,0.1-0.9,1c0.1,0.7,0,1.3-0.3,1.9c0.4,0.6,0.6,1.3,0.5,2
	C108.1,53.6,108,54.3,107.6,54.9z"/>
<path class="st12" d="M84.5,49.3l-0.1,12.5c-0.1,0.1-0.2,0.1-0.3,0.2c-3.8,0.4-3.8,0.4-3.8-3.5c-0.1-3.4,0.3-6.8-0.4-10.1
	c-0.3-0.5-1-0.6-1.5-0.9c-0.7-0.4-0.9-0.9-0.1-1.4c1.5-3.4,1.7-2.9,5.6-1.4c1.6,0.2,0.8,1.5,1,2.4C85.1,47.8,84.9,48.6,84.5,49.3z"
	/>
<path class="st11" d="M107.9,181.3c-2.5-4.2-5.2-8.2-8-12.1c-0.3-0.4-0.6-0.9-0.9-1.4c1.7,0.8,3.4,1.7,4.9,2.7
	c-0.9,0.1-0.2,0.5-0.1,0.8c2,3.1,4.1,6.2,6.1,9.3c0.1,0.2,0.3,0.5,0.4,0.7L107.9,181.3z"/>
<path class="st15" d="M78.3,46c-0.5,0.6-0.5,1,0.3,1.2c0.5,0.1,1.1,0.1,1.5,0.5c0.4,0.7-0.1,1-0.7,1.2c-3.1,1-6.1,2.1-9,3.3
	c-0.2,0.1-0.3,0.1-0.5,0c0-0.2-0.1-0.4-0.1-0.7c0-4.5,0.4-3.9,3.7-3.5c0.9,0.1,1.3-0.1,1.6-0.8c0.2-0.5,0.5-1,1-1.3
	C76.9,46.3,77.6,45.1,78.3,46z"/>
<path class="st16" d="M99.1,38.1c-2,0-3.2-1.1-3.2-2.9c0-1.7,1.3-3,3-3c0.1,0,0.1,0,0.2,0c2.2,0,3.3,1,3.2,3S101.4,38.1,99.1,38.1z"
	/>
<path class="st17" d="M36.4,32.1c1.9,0,3,1.2,2.9,3.2c0.1,1.6-1.1,2.9-2.7,3c-0.2,0-0.3,0-0.5,0c-1.6,0.1-3-1.1-3.1-2.7
	c0-0.2,0-0.4,0-0.5C33,33.3,34.4,32.1,36.4,32.1z"/>
<path class="st16" d="M52.3,38c-0.8,0-1.3,0.1-1.7,0c-0.8-0.4-1.3-0.7-2.2,0c-0.5,0.4-1.3,0.1-1.1-0.9c0.2-1.3,0.2-2.6,0-3.9
	c0-0.3-0.1-0.7,0.2-0.7c1.1-0.1,2.3,0,3.4,0.2c0.9,0.3,1,1.7,0.6,2.1C50.6,36.1,51.4,36.8,52.3,38z"/>
<path class="st16" d="M76.8,38c-1.1,0.1-2.1,0.2-2.8-1.4c-0.1,1.3-0.6,1.6-1.4,1.4c-1.1-0.2-0.3-1-0.4-1.4c-0.1-1.1,0-2.3,0-3.5
	c0-0.8,0.3-1.2,1.1-0.9c0.2,0.1,0.3,0.1,0.5,0.1c2.6,0.2,3.1,0.9,2.1,3.3C76.1,36.6,77.4,36.9,76.8,38z"/>
<path class="st16" d="M90.4,35.3c0-0.2,0-0.3,0-0.5c0.2-0.8-0.5-1.9,0.4-2.2s2.3-0.7,3.1,0.2c0.8,0.8,0.8,2,0.1,2.8
	c-0.4,0.5,0,0.8,0.2,1.2s1,0.7,0.5,1.2c-0.5,0.3-1.1,0.3-1.6,0c-0.6-0.4-0.9-0.8-1.6,0c-0.3,0.3-1.2,0.2-1.2-0.7
	C90.4,36.5,90.4,35.9,90.4,35.3L90.4,35.3z"/>
<path class="st18" d="M45.8,34.7c0,2.9-0.5,3.4-3,3.4c-1,0.1-1.9-0.6-2.1-1.6c0-0.1,0-0.2,0-0.2c-0.1-1.1,0.2-2.3-0.1-3.4
	c-0.1-0.5,0.4-0.7,0.9-0.7s0.9,0.3,0.8,1c-0.2,0.9-0.2,1.9,0.1,2.8c0.2,0.3,0.3,0.8,0.8,0.7s0.6-0.5,0.6-0.9c0-0.7,0-1.3,0-2
	s0-1.3,1-1.3s1,0.7,1,1.3C45.8,34.1,45.8,34.4,45.8,34.7z"/>
<path class="st16" d="M57.9,34c0.1,0.1,0.1,0.3,0.2,0.3c1.4,0.4,2.3,1.2,1.8,2.8s-1.9,1-3.1,1c-0.5,0.1-0.9-0.2-1-0.7
	c-0.1-0.4,0.1-0.8,0.4-1c0.4-0.4,0.7-0.1,1,0.1s0.6,0.3,0.9,0c-0.1-0.7-0.7-0.5-1.1-0.7c-0.7-0.3-1.1-1-1-1.7c0.1-0.7,0.2-1.4,1-1.7
	c0.8-0.3,1.6-0.3,2.4,0c0.3,0.2,0.4,0.5,0.3,0.8c0,0,0,0,0,0c-0.1,0.3-0.2,0.7-0.6,0.6S58.3,33.6,57.9,34z"/>
<path class="st19" d="M108.9,32.1c0.9,0.6,2,0.1,3,0.4c0.4,1.4,0.3,1.5-0.9,1.4c0.5-0.1,1.1,0.2,1.2,0.7c0,0.2,0,0.3,0,0.5
	c0,1-0.7,1.2-1.6,1.1c0.8,0.1,1.9,0.1,1.3,1.5c-0.9,0.6-1.9,0.3-2.8,0.3c-0.4,0-0.8-0.2-0.7-0.7c0.1-1.8-0.4-3.5,0.3-5.3
	C108.7,32,108.8,32,108.9,32.1z"/>
<path class="st14" d="M63.2,34.1c0.5,0.3,1.5-0.1,1.5,1s-1.2,0.4-1.5,1c0,0.1,0,0.3,0.1,0.3c0.6,0.3,1.8-0.3,1.6,1s-1.2,0.5-1.9,0.7
	c-1.3,0.3-1.9-0.3-1.7-1.7c0-0.5,0-1,0-1.5c0-2.4,0-2.4,2.2-2.5c0.6,0,1.3-0.2,1.3,0.7s-0.7,0.7-1.2,0.7
	C63.5,33.8,63.3,33.8,63.2,34.1z"/>
<path class="st7" d="M98.4,122.3v-0.3c0.4-1.1,0.6-2.2,0.7-3.3c0.1-0.5,0.2-1.1,0.8-1.3s1.1,0.2,1.5,0.8c0.8,1.1,1.1,2.4,0.8,3.7
	c-0.2,0.5,0,1.1,0.5,1.4C101.2,123.1,99.7,123.2,98.4,122.3z"/>
<path class="st6" d="M66.3,35.1c0.1-2.2,1.8-3.5,3.7-2.9c0.6,0.2,1,0.4,0.8,1.2c-0.2,0.6-0.5,0.8-1.1,0.5c-0.8-0.3-1.3,0.2-1.8,0.8
	s-0.1,0.9,0.2,1.2c0.4,0.5,0.9,1,1.7,0.6c0.4-0.2,0.8-0.5,1,0.2c0.2,0.5-0.1,1.1-0.6,1.3c0,0,0,0-0.1,0c-1.4,0.6-3,0-3.6-1.4
	C66.3,36.2,66.2,35.6,66.3,35.1z"/>
<path class="st16" d="M78.5,32.2c0.5,0.4,1,0.2,1.6,0.3s1.3-0.3,1.4,0.7s-0.9,0.5-1.3,0.8c0.4,0.4,1.4,0.1,1.4,1.1
	c0,1.3-1.3,0.4-1.7,1.2c0.3,0.4,0.8,0.2,1.1,0.3c0.4,0.1,0.6,0.5,0.6,0.9c0,0.3-0.2,0.6-0.5,0.7c-0.1,0-0.2,0-0.2,0
	c-0.9-0.2-2.1,0.6-2.8-0.6c-0.2-1.5-0.3-2.9-0.2-4.4C77.7,32.5,77.9,32.1,78.5,32.2z"/>
<path class="st20" d="M28.3,32.4c0.8,1,1.8,0.6,2.9,0.1c0.5-0.2,1.4,0,0.6,1s-1.8,2.3-1.4,4c0.2,0.7-0.5,0.6-0.9,0.6s-1-0.1-0.8-0.7
	c0.5-1.6-0.5-2.6-1.2-3.7S27,32.4,28.3,32.4z"/>
<path class="st21" d="M84.5,47c-0.4-0.7,0.6-1.8-0.6-2.4c2.2-0.6,4.6-0.7,6.9-0.2l-2,2.3C87.5,47.5,85.9,47.6,84.5,47z"/>
<path class="st20" d="M84.5,32.4c0.4,0,0.9,0,1.3,0c0.7,0.1,0.9,0.8,0.5,1c-1.4,0.8-0.7,2-0.9,3c-0.1,0.7,0,1.6-1,1.5
	s-0.8-0.9-0.9-1.5c-0.2-1,0.6-2.3-0.9-3c-0.4-0.2-0.2-1,0.5-1C83.6,32.4,84,32.4,84.5,32.4z"/>
<path class="st22" d="M103.6,35.2c0-0.7,0-1.3,0-2c0-0.9,0.7-0.9,1.3-0.9c0.7,0,0.5,0.5,0.4,1c0,0.7,0,1.3,0,2s0.2,1.5,1.2,1.4
	c0.6,0,0.7,0.3,0.7,0.8s-0.3,0.6-0.8,0.6c-0.4,0-0.9,0-1.3,0c-1.1,0.2-1.6-0.3-1.5-1.4C103.6,36.2,103.6,35.7,103.6,35.2L103.6,35.2
	z"/>
<path class="st23" d="M66,51.3l-0.1,3c-0.9,0.5-1.6,1.9-2.8,0.7c-0.2-0.9,0-1.9-0.7-2.6c0.7-1.1,2-1.4,3.1-1.8S65.8,51,66,51.3z"/>
<path class="st1" d="M78.5,32.2c-0.8,0.4-0.2,1-0.3,1.6c-0.2,1.2,0.3,2.5-0.3,3.7c-0.5,0,0.3,2.2-1.1,0.6c0.1-0.9-1.3-1.2-1-2.3
	c0.3,0,1,0.8,0.8-0.4c-0.1-0.5-0.1-1-0.1-1.4c-0.1-1.7,0.4-2.1,2-2.1c1-0.1,2,0.1,2.9,0.4L78.5,32.2z"/>
<path class="st11" d="M105.3,100.4c-0.3,1.2-1.6,1.9-2.8,1.6c-0.2,0-0.3-0.1-0.5-0.2c-0.5-0.2-0.8-0.9-0.6-1.4
	c0-0.1,0.1-0.2,0.1-0.2c0.4-0.8,1.1-1.4,1.9-1.7C104.2,99.1,105.1,99.4,105.3,100.4z"/>
<path class="st24" d="M114.8,128.1c0.1-0.5-0.1-1,0.5-1.1s0.8,0.2,0.9,0.7s0.2,0.9,0.8,0.9c0.4,0,1.2-0.5,1,0.4
	c0,0.8-0.5,1.4-1.3,1.6c-0.6,0.1-1.3,0.1-1.5-0.6C115.1,129.3,114.9,128.7,114.8,128.1z"/>
<path class="st25" d="M110,127.2c0.9,0.3,1.7,0.6,1.8,1.6c0.1,0.6-0.3,1.1-0.9,1.2c-0.1,0-0.2,0-0.3,0c-0.8-0.1-1.9-0.4-2.1-1.3
	C108.6,127.9,109.2,127.2,110,127.2z"/>
<path class="st26" d="M107.6,54.9v-2c0.8-0.2,1.3,0.6,2,0.6c1.2,0.9,1.3,2.4,1.5,3.7C110.3,55.9,108.6,55.9,107.6,54.9z"/>
<path class="st27" d="M111.8,37.7c0.2-1.3-0.9-1.2-1.9-1.4c0.8-0.4,1.9,0,1.9-1.2s-1-0.8-1.8-1.1c1-0.2,2.2-0.1,1.8-1.4
	c0.1-0.3,0.2-0.7,0.6-0.6s0.4,0.3,0.4,0.6c0,0.5,0,1.1-0.1,1.6c-0.4,1.1-0.4,2.3,0,3.5c0.1,0.1,0.2,0.4-0.2,0.5
	C112.7,37.3,111.8,38.4,111.8,37.7z"/>
<path class="st16" d="M113.4,137.5c-0.2,0.8-0.2,1.7-1.3,1.6s-1.1-0.9-1-1.6s-0.3-1.7,1-1.7S113.2,136.7,113.4,137.5z"/>
<path class="st28" d="M99.9,46.1l-0.6,1.6c-1.2,1-2.1,0.8-2.7-0.7c0.2-0.7,0.5-1.4,0.9-1.9C98.4,45.5,99.3,45.3,99.9,46.1z"/>
<path class="st29" d="M43.5,88c1,0.6,2.2,0,3.5,0.4c-1.7,0.7-3.4,1.6-4.8,2.8c-0.1-1.1,1-2.1,0.4-3.3L43.5,88z"/>
<path class="st30" d="M117.5,134c0,0.5,0.1,1.2-0.6,1.1c-1-0.1-1.1-1.3-1.8-2c-0.3-0.3,0.4-0.9,0.9-0.9
	C117.1,132.3,117.4,133.1,117.5,134z"/>
<path class="st31" d="M26.4,47.7c0.5,0.5,0.3,1.1,0.3,1.7c0,4.3,0,8.5,0,12.8c-0.5-0.5-0.3-1.1-0.3-1.7
	C26.4,56.2,26.4,51.9,26.4,47.7z"/>
<path class="st32" d="M115.6,134.8c0,0.4-0.1,0.6-0.4,0.6c-0.8,0-1.2-0.6-1.8-0.9c-0.4-0.2-0.3-0.8-0.2-1.2c0-0.2,0.2-0.4,0.5-0.4
	c0.1,0,0.1,0,0.2,0C114.7,133.4,114.7,134.6,115.6,134.8z"/>
<path class="st32" d="M117.2,138c-0.1,0.4,0.2,1.1-0.5,1c-0.9-0.2-0.9-1.1-1-1.8c0-0.4,0.2-1,0.7-0.9
	C117.2,136.4,117.1,137.3,117.2,138z"/>
<path class="st13" d="M109.6,53.5c-0.9,0.5-1.4-0.2-2-0.6l-0.1-2C108.7,51.4,109,52.6,109.6,53.5z"/>
<path class="st33" d="M95.3,165.9c-1.4,0.2-2.8-0.5-3.6-1.7C93.3,164.1,94.2,165.2,95.3,165.9z"/>
<path class="st34" d="M112.5,142.2c0.4,0,0.7,0.3,0.7,0.7c0,0.6-0.4,0.8-1,0.8s-0.9-0.2-0.8-0.7S112,142.3,112.5,142.2z"/>
<path class="st32" d="M109.2,140.5c0,0.5-0.1,0.9-0.7,0.9s-0.6-0.5-0.6-0.9s-0.1-0.9,0.6-1S109.2,140,109.2,140.5z"/>
<path class="st34" d="M113.9,117.7c0-0.5,0.2-0.9,0.6-0.9c0.7,0,0.7,0.6,0.7,1.1s-0.1,0.8-0.7,0.7S113.9,118.1,113.9,117.7z"/>
<path class="st33" d="M97.7,167.2c-1.3,0.5-1.8-0.5-2.3-1.3C96.2,166.1,97,166.5,97.7,167.2z"/>
<path class="st35" d="M110.5,133.1c-0.1,0.4-0.3,0.6-0.6,0.6c-0.3,0-0.5-0.2-0.5-0.5c0-0.1,0-0.1,0-0.1c0.1-0.3,0.4-0.5,0.7-0.5
	c0,0,0,0,0,0C110.3,132.6,110.5,132.8,110.5,133.1C110.5,133.1,110.5,133.1,110.5,133.1z"/>
<path class="st36" d="M120.2,126.9c0.4,0,0.6,0.2,0.6,0.5c0,0.3-0.2,0.6-0.5,0.7c0,0,0,0,0,0c-0.3,0-0.4-0.3-0.5-0.5
	C119.6,127.1,119.9,127,120.2,126.9z"/>
<path class="st35" d="M109.9,122.5c-0.5,0.1-0.6-0.2-0.7-0.4s0-0.7,0.5-0.7s0.4,0.2,0.5,0.6C110.2,122.1,110.1,122.4,109.9,122.5z"
	/>
<path class="st37" d="M114.8,122.3c0.2,0.1,0.3,0.3,0.3,0.6s-0.2,0.6-0.5,0.6s-0.5-0.4-0.5-0.7S114.4,122.3,114.8,122.3z"/>
<path class="st38" d="M106.2,139.6c0,0.3-0.3,0.5-0.6,0.5c-0.4,0-0.7-0.1-0.6-0.6s0.3-0.4,0.6-0.4
	C105.9,139.1,106.2,139.3,106.2,139.6C106.2,139.6,106.2,139.6,106.2,139.6z"/>
<path class="st39" d="M110,120.1c0,0.3-0.2,0.5-0.5,0.5c-0.3,0.1-0.7-0.1-0.7-0.4s0.2-0.5,0.5-0.5
	C109.6,119.6,109.9,119.8,110,120.1z"/>
<path class="st27" d="M108.9,32.1h-0.2h-0.2c0.8-0.7,1.7-0.1,2.6,0H108.9z"/>
<path class="st33" d="M91.8,164.2c-0.6,0.4-0.9,0.1-1-0.5C91.2,163.6,91.6,163.8,91.8,164.2z"/>
<path class="st11" d="M39.9,181.4H23.1c-0.3-3-1.3-5.8-1.9-8.8c-0.2-1.1-0.5-2.2-0.7-3.4c-0.3-1.3,0.5-1.8,1.6-2
	c3.3-0.6,6.5-1.1,9.8-1.7c0.9-0.2,1.7-0.3,2.6-0.5c1-0.2,1.8,0.1,2.1,1.1c1.2,5,2.3,10,3.4,15C39.9,181.1,39.9,181.3,39.9,181.4z"/>
<path class="st2" d="M42.8,140.1c1.4,0.4,2.3,1.6,3.4,2.5c3.6,2.9,7.7,5.2,12.1,6.8c5.4,2.1,11.1,2.4,16.8,2.3
	c1.3-0.1,2.6-0.2,3.9-0.6c0.4-0.1,0.8-0.3,1.2,0.2c-0.5,2.1-0.8,4.2-0.9,6.3c-0.1,1.2-0.2,2.5-0.4,3.8c0,0.5-0.4,0.9-0.9,0.9
	c0,0-0.1,0-0.1,0c-1.1-0.7-2.4-1.1-3.7-1.3c-2.4-1-4.8-2-7.1-3.1c-6.2-2.8-12.3-6-18-9.8c-1.3-0.9-2.3-2.2-3-3.6
	C45.4,142.7,43.7,141.7,42.8,140.1z"/>
<path class="st40" d="M46.2,144.4c1.1,1.1,2.1,2.3,3,3.6c-1.2-0.2-2-1.1-3-1.7c-0.5-0.4-0.7-1.2-0.2-1.7
	C46,144.5,46.1,144.5,46.2,144.4z"/>
<path class="st5" d="M78.6,181.3c-0.9-2.1-1.3-4.5-2.4-6.6c0.8-3.9,1.8-7.7,2.3-11.6c0.9,0,1.2,0.8,1.7,1.4c1.3,1.8,2.5,3.6,3.9,5.3
	c0.7,0.8,0.9,1.9,0.7,2.9c-0.4,2.5-0.9,5-1.2,7.6c-0.1,0.8-0.4,1-1.2,1C81.1,181.3,79.8,181.3,78.6,181.3z"/>
<path class="st41" d="M99,174.4c2.5,0.2,4.7,2,5.4,4.5c0.3,1,1.6,1.3,1.8,2.4H97c-0.8-0.5-1.4-1.2-1.9-2c-0.7-1.2-1.5-2.4-2.4-3.5
	c-0.5-0.6-0.7-1.3-0.7-2c-0.1-1.3,0.3-1.7,1.6-1.4C95.5,173,97.3,173.6,99,174.4z"/>
<path class="st42" d="M99,174.4c-2-0.4-3.9-1-5.7-1.8c-0.7-0.3-0.9,0-0.9,0.6c0,0.9,0.3,1.8,0.9,2.5c1.3,1.8,2.5,3.7,3.7,5.5
	c-1.8,0.3-3.1,0-3.8-2.1c-0.9-2.6-2.7-5-3.5-7.7c0.1-0.2,0.2-0.7,0.4-0.5c0.8,0.6,2.7,1.3,3.6,1c1-0.2,1.9-0.3,2.9-0.2
	c0.6,0,1.5-0.4,1.6,0.6s-1,0.4-1.6,0.8C97.5,173.7,98.7,173.1,99,174.4z"/>
<path class="st43" d="M88.7,181.4c-0.4-3-2.1-5.5-2.6-8.5l6.2,8.5L88.7,181.4L88.7,181.4z"/>
<path class="st44" d="M53.8,81.6c4.1-4.3,8.9-7.8,14.3-10.2c4.2-2.1,8.8-3.4,13.4-4.1c5-0.7,10.1,0.2,14.6,2.7
	c2,1.2,3.3,3.2,3.6,5.4c0.2,0.6,0.4,1.2,0.7,1.8c-0.8,0.9-0.9,2.3-0.4,3.3c-0.6,0.7-1.5,1.1-2.4,1c-2.1,0-4.3,0-6.4,0
	c-7.4,0-14.8,0.5-22.2,0.4c-1.6,0-3.3,0.4-4.9,0.2c-2.8-0.3-5.6,0-8.5-0.1C54.9,82.1,54.2,82.4,53.8,81.6z"/>
<path class="st45" d="M57.8,62.2c-2.4-0.2-4.1,1.5-5.8,2.7c-4.3,3.1-8.8,5.9-13.2,8.9c-2.3,1.6-4.6,3.1-6.9,4.6
	c-0.6,0.4-1.2,0.8-1.8,0s0-1.2,0.6-1.7c4.5-3,8.9-6,13.4-9c3-2.1,6-4.1,9.1-6.2C54.8,61.1,56.4,60.9,57.8,62.2z"/>
<path class="st46" d="M70,52.3c1-0.8,2.2-1.3,3.4-1.7c1.9-0.8,3.9-1.5,6-2c0.4-0.1,0.8-0.4,0.8-0.9c0.6,0.4,0.3,1,0.3,1.5
	c0,3.6,0.1,7.2,0,10.9c-0.1,1.6,0.5,2,1.9,1.8c0.7-0.1,1.4-0.1,2.1-0.1c-1.2,0.8-2.5,0.4-3.8,0.3c-0.7,0-0.5-0.9-0.5-1.4
	c0-3-0.1-5.9,0-8.9c0-1.2-0.3-1.5-1.4-1.1c-2.6,1-5.3,2.1-7.9,3.1c-0.6,0.2-0.7,0.7-0.7,1.2C70,54.1,69.9,53.2,70,52.3z"/>
<path class="st47" d="M96.7,47c0.6,0.9,1.7,1.2,2.7,0.7c1,0,2,0.1,2.9,0.1s1.3,0.3,1.3,1.3c-0.1,3.7,0,7.4-0.1,11.2
	c0,1.4,0.2,2,1.8,1.8c0.8-0.1,1.5-0.1,2.3-0.1c-1.4,0.9-2.9,0.2-4.3,0.4c-0.4-1.9,0-3.9-0.1-5.8c-0.1-1.3,0.2-2.7-0.2-4
	c-1.2-1-2.6-1.7-4.1-2c-2.2-0.4-4.3-1.5-6.7-1.3c-0.2-1.1,0.2-1.4,1.3-1.2S96,48.7,96.7,47z"/>
<path class="st48" d="M84.5,47l4.2-0.3c-0.4,2.1-0.5,4.2-0.3,6.3c-0.7-0.9-0.3-1.9-0.3-2.8s-0.1-1.3-1.2-1.2
	c-0.8,0.1-1.6,0.2-2.4,0.4L84.5,47z"/>
<path class="st26" d="M63.1,54.9c1.2,0.8,1.8-0.9,2.8-0.7c0.2,0.9,0.3,1.8,0.3,2.7c-1.3-0.8-2.1,0.5-3.2,0.7L63.1,54.9z"/>
<path class="st49" d="M57.8,62.2l-4.6-0.7c0.3-1.1,0.7-2.1,1.2-3c0.3,1.7,0.7,3.1,3,2.6c0.6,0.1,1.2,0.5,1.4,1.2L57.8,62.2z"/>
<path class="st39" d="M46.4,61.2c1.5-0.7,3,0.1,4.5-0.3c-0.4,1.4-1.2,1.8-2.5,1.1C47.8,61.7,47,61.7,46.4,61.2z"/>
<path class="st50" d="M103,52.3c0.6,1.2,0.2,2.6,0.3,3.8c0.1,2,0,4,0,6.1c-0.4-0.1-0.7-0.5-0.7-0.9c0,0,0-0.1,0-0.1
	C103.4,58.2,102.7,55.2,103,52.3z"/>
<path class="st51" d="M74.9,61.6c-0.4-1.1-0.7-2.2,0.6-3c0.6-0.2,0.9,0,0.6,0.6C75.9,60.1,75.5,60.9,74.9,61.6z"/>
<path class="st49" d="M60,62.1c-0.6-1.4,0.7-1,1.2-1.2C60.9,61.4,60.5,61.8,60,62.1z"/>
<path class="st52" d="M52.8,79.1c0,0.4-0.3,0.8-0.8,0.9C51.8,79.2,52.2,79.1,52.8,79.1z"/>
<path class="st2" d="M67,98.5c1.5,0.1,3.1,0,4.6-0.3c0.6-0.3,1.2-0.1,1.7,0.3c-2.4,1.8-3.8,4.3-5.5,6.7c-4.9,7-15.8,6.7-20.2-0.6
	c-1.5-2.5-2.1-5.5-1.7-8.4c1.3-0.7,2.7-1.3,4-2c0.6-0.3,1.2-0.6,1.6,0.4c0.2,0.2,0.3,0.5,0.2,0.8c-0.6,2.9,0.3,5.8,2.3,7.9
	c1.4,2.1,4,3.1,6.5,2.6c3.1-0.9,5.4-2.7,6-6.1C66.6,99.3,66.8,98.9,67,98.5z"/>
<path class="st11" d="M91.7,97.8c0.6,0,1.2-0.2,1.7,0.3h-1.2c0.9,0.8,1.9,0.5,2.6,1.1s1.8,0.9,1.5,2.1s-1.5,1-2.2,1
	c-1.6-0.1-3.3-0.2-4.5-1.6c-0.4-0.5-1-1-0.7-1.7c0.3-0.6,1-0.9,1.6-0.9C90.9,98.1,91.4,98.3,91.7,97.8z"/>
<path class="st53" d="M87.8,111.7c-0.1,0.5-0.2,1.1-0.3,1.6s0,1-0.7,1.1c-0.5,0-1-0.3-1.1-0.8c-0.3-0.8-0.6-1.5-1-2.2
	c-0.7-1.2-0.4-1.9,0.8-2.3C87.7,108.5,87.7,108.5,87.8,111.7z"/>
<path class="st2" d="M54.6,125.2c7.3,0,14.3,3.1,19.3,8.5c2.9,2.9,3.2,7.4,0.9,10.8c-1.6,2.1-4,3.5-6.6,3.9c-3.3,0.8-6.8,0.6-10-0.4
	c-6.5-2.1-12.1-5.3-14-12.5c-1.1-4.4,1.6-8.9,5.9-10c0.6-0.2,1.2-0.2,1.9-0.2C52.8,125.2,53.7,125.2,54.6,125.2z"/>
<path class="st54" d="M83.5,122.2c0.3-1.3,0.6-2.5,0.9-3.8c0.1-0.5,0.4-1,0.9-1s0.8,0.5,1,0.9c0.4,1.1,0.8,2.2,1.1,3.2
	c-0.1,0.8-0.7,0.7-1.2,0.7C85.3,122.3,84.4,122.2,83.5,122.2z"/>
<path class="st5" d="M78.5,84c1.5,0,3-0.1,4.4,0c5.2,0.2,10.4-0.5,15.6-0.3c0.8,0,1.3-0.5,1.9-0.9c0.4,1,1.1,1.8,0.3,3
	c-0.3-1.1-0.9-1.4-2-1.4c-6.8,0-13.5-0.1-20.2-0.1c-0.1-0.1-0.2-0.1-0.1-0.2S78.5,84,78.5,84z"/>
<path class="st55" d="M53.8,81.6c1.1,0.6,2.4,0.2,3.5,0.3c2.2,0.2,4.5-0.3,6.7,0.3c-3.3,0-6.5,0-9.8,0
	C53.9,82.3,52.5,82.7,53.8,81.6z"/>
<path class="st56" d="M78.5,84c0,0.1,0,0.2,0,0.3h-2.6c-0.1-0.1-0.2-0.1-0.1-0.2c0-0.1,0.1-0.1,0.1-0.1L78.5,84z"/>
<path class="st57" d="M75.9,84c0,0.1,0,0.2,0,0.3h-2.3V84H75.9z"/>
<path class="st14" d="M53.8,103.6c-1.7-1.9-3-4-2.7-6.7c0.1-0.8,0.3-1.5,0.4-2.2c0.5-1.1,1.2-1.3,2-0.4c0.5,0.5,1.3,0.6,1.5,1.3
	c0,0.5-0.1,1-0.2,1.5c-0.6,1.8,0.2,3.7,1.9,4.6c1.6,0.9,3.7,0.6,4.9-0.8c0.4-0.4,0.5-1,1.1-1.2c0.7-1.7,1.4-1.8,3.7-0.7
	c0.1,0.2,0.2,0.4,0.2,0.6c-1.1,5.2-7.5,7.4-10.5,5.4c-0.5-0.5-0.8-1.4-1.8-1.2C54.1,103.7,53.9,103.6,53.8,103.6z"/>
<path class="st58" d="M62.7,99.5c-0.6,2.6-4,3.6-6,2.5c-2.5-1.3-3.2-4-1.6-6.5c2.4,0.7,4.7,1.7,7.1,2.3C63.1,98,62.5,99,62.7,99.5z"
	/>
<path class="st59" d="M53.8,103.6c0.1,0,0.2,0,0.3-0.1c0.8,0,1.5,0.4,2,1c4.4,1.9,8.8-0.6,10.3-5.7l0.6-0.3c0.1,3.5-1.7,5.7-4.7,7.2
	s-5.4,0.6-7.8-1C54.1,104.4,53.8,104,53.8,103.6z"/>
<path class="st60" d="M43.8,50.4c0-0.4,0-0.8,0-1.2s0-0.9,0.7-0.9s1.2,0.1,1.2,0.8s0,1.6,0,2.5s-0.4,1.1-1.1,1.1s-0.8-0.5-0.8-1.1
	C43.8,51.1,43.8,50.7,43.8,50.4L43.8,50.4z"/>
<path class="st61" d="M99.1,36.7c-0.8-0.1-1.4-0.8-1.4-1.6c-0.1-0.7,0.4-1.3,1-1.3c0.1,0,0.2,0,0.3,0c0.8,0,1.6,0.3,1.6,1.3
	S99.9,36.5,99.1,36.7z"/>
<path class="st62" d="M35.7,36.6c-0.6-0.2-1-0.7-1-1.4c0-0.7,0.5-1.4,1.2-1.4c0.1,0,0.2,0,0.2,0c0.7-0.1,1.3,0.5,1.4,1.2
	c0,0.1,0,0.2,0,0.3C37.5,36.2,36.8,36.5,35.7,36.6z"/>
<path class="st61" d="M49.4,33.7c0.1,0.1,0.2,0.2,0.3,0.3c0.1,0.2,0,0.4-0.2,0.5c0,0,0,0-0.1,0c-0.2,0.1-0.3-0.1-0.3-0.3
	S49.1,33.8,49.4,33.7z"/>
<path class="st63" d="M74.6,34.2c-0.1,0.1-0.2,0.3-0.3,0.3c-0.3,0-0.3-0.2-0.2-0.4c0.1-0.1,0.2-0.2,0.3-0.2
	C74.4,33.9,74.4,34.1,74.6,34.2z"/>
<path class="st64" d="M92.4,34.6c-0.1-0.1-0.2-0.1-0.3-0.3c-0.1-0.2,0-0.4,0.1-0.5c0,0,0.1,0,0.1,0c0.1,0,0.3,0.1,0.3,0.2
	S92.7,34.5,92.4,34.6z"/>
<path class="st65" d="M86.2,81c-3.7,0-6.3-2.3-6.3-5.5c-0.2-3.1,2.2-5.7,5.2-5.9c4-0.2,7.1,2.2,7.2,5.2c0.2,3.3-2.3,6-5.6,6.2
	C86.5,81,86.3,81,86.2,81z"/>
<path class="st28" d="M100.1,48h2.4c0.5,0,0.8,0.2,0.7,0.7s0.2,0.8-0.2,1s-0.7,0-1-0.4C101.7,48.8,100.7,49,100.1,48z"/>
<path class="st11" d="M63.9,146.7c-6.9-0.2-12.5-2.9-16.5-8.6c-1.5-2.2-2.2-4.6-1-7.3c0.9-1.9,2.7-3.2,4.7-3.5
	c4.2-0.7,8.5-0.1,12.4,1.8c2.7,1,5.2,2.5,7.4,4.4c1.8,1.7,3.4,3.5,3.3,6.3s-1.6,4.4-3.7,5.6C68.5,146.4,66.2,146.9,63.9,146.7z"/>
<path class="st37" d="M56,104.5c-0.8-0.1-1.5-0.5-2-1C55.4,102.6,55.7,103.7,56,104.5z"/>
<path class="st11" d="M86.2,71.8c2.4,0.2,4,1.6,3.9,3.4c-0.2,2.2-2.1,3.8-4.3,3.7c-2.1-0.2-4-2.1-3.9-3.8
	C82.1,73,83.8,71.6,86.2,71.8z"/>
</svg>
