<svg id="Livello_1" data-name="Livello 1" xmlns="http://www.w3.org/2000/svg" viewBox="0 0 142.93 201.38"><defs><style>.cls-1,.cls-11{fill:#fefefe;}.cls-1{stroke:#c9c8c7;stroke-miterlimit:10;}.cls-2{fill:#e1b7b7;}.cls-3{fill:#774242;}.cls-4{fill:#5e3434;}.cls-5{fill:#c26b6c;}.cls-6{fill:#dfb1b1;}.cls-7{fill:#ddaeae;}.cls-8{fill:#c26c6c;}.cls-9{fill:#b06262;}.cls-10{fill:#9c5757;}.cls-12{fill:#c16b6b;}.cls-13{fill:#fefdfd;}.cls-14{fill:#fdfdfd;}.cls-15{fill:#b26363;}.cls-16{fill:#fdfbfb;}.cls-17{fill:#fdfcfc;}.cls-18{fill:#fcf9f9;}.cls-19{fill:#fdfbfc;}.cls-20{fill:#fcfafa;}.cls-21{fill:#fcfbfb;}.cls-22{fill:#b16262;}.cls-23{fill:#fcf9fa;}.cls-24{fill:#e0b5b5;}.cls-25{fill:#dfb2b2;}.cls-26{fill:#deaeae;}.cls-27{fill:#a15a5a;}.cls-28{fill:#e0b3b3;}.cls-29{fill:#bb6969;}.cls-30{fill:#c16b6c;}.cls-31{fill:#8c4d4d;}.cls-32{fill:#8d4e4e;}.cls-33{fill:#ab5f5f;}.cls-34{fill:#814747;}.cls-35{fill:#593131;}.cls-36{fill:#8c4e4e;}.cls-37{fill:#643838;}.cls-38{fill:#653838;}.cls-39{fill:#aa5f5f;}.cls-40{fill:#9d5757;}.cls-41{fill:#844949;}.cls-42{fill:#7f4646;}.cls-43{fill:#ac605f;}.cls-44{fill:#935151;}.cls-45{fill:#e9cbcb;}.cls-46{fill:#e2b9b9;}.cls-47{fill:#e8c8c8;}.cls-48{fill:#dcaaaa;}.cls-49{fill:#764141;}.cls-50{fill:#5f3434;}.cls-51{fill:#8b4d4d;}</style></defs><title>Tavola disegno 6 copia 3</title><path class="cls-1" d="M9.3,192.64c0-.8-.06-1.6-.06-2.4q0-86.94,0-173.88c0-2.3,1.32-2.84,4.18-2.84H130.49c3.2,0,3.2,0,3.2,3.26q0,86.47,0,172.94c0,1-.08,1.91-.12,2.87-.64.49-1.39.27-2.09.27q-60,0-120.06,0A3.8,3.8,0,0,1,9.3,192.64Z"/><path class="cls-2" d="M17.61,26.08a1.8,1.8,0,0,1,2.09-1.64h101c.7,0,1.44-.22,2.09.26a2.61,2.61,0,0,1-1.61.18q-49.9,0-99.8,0c-.49,0-1,.18-1.23,0,34.35,0,68.93,0,103.51,0,.94.33,1.09,1.16,1.22,2a8.53,8.53,0,0,1,0,1.32q0,48.74,0,97.48c0,4.36,0,8.73,0,13.09a2.7,2.7,0,0,1-.17,1.61c-.56-.67-.7-3.49-.41-6.53-.07,1.54-.07,3.07-.07,4.61,0,.55.1,1.18-.78,1.1-1.26-.75-2-3.07-1.66-5a13.74,13.74,0,0,1,.69-2.21,5.49,5.49,0,0,0-.6-5.37,3.25,3.25,0,0,1-.4-3.41,5.46,5.46,0,0,0-.43-5.23,4.27,4.27,0,0,1-.44-3.8,6.74,6.74,0,0,0-.25-5,5.34,5.34,0,0,1-.26-4,4.88,4.88,0,0,0-.85-4.39A8.65,8.65,0,0,1,117.82,98a5.64,5.64,0,0,0-3-3.74,4.07,4.07,0,0,1-2.19-4.67c.25-1.17-.76-1.92-.81-3a8.73,8.73,0,0,1-.15-1.93c.12-1.58.15-3.21,1.61-4.29a19.51,19.51,0,0,1,3.12-.14,5.87,5.87,0,0,0,4.74-2.24,2.3,2.3,0,0,0,.74-2.66A14.23,14.23,0,0,0,118.08,69,39.25,39.25,0,0,0,113,64.34c-.66-.52-1.56-.9-1.62-1.94a1.77,1.77,0,0,1,.28-.77c.78-1,.7-1.75-.66-2.17-.61-.19-.86-.82-1.07-1.4-.38-1-.66-2.1-1-3.15a1.77,1.77,0,0,1,.41-2,3.29,3.29,0,0,0,.88-3.49c-.94-4.45-.38-3.77-4.94-4.31-1-.12-2.09,0-3.14-.05a2.68,2.68,0,0,0-3.15,2.13c-.25.72.15.9.68,1,1.32.21,1.69,1.1,1.66,2.27-.05,1.76.23,3.52-.2,5.26-.49.64-.88.09-1.24-.14-1.6-1-3.26-2-4.9-2.94-.26-.16-.53-.31-.8-.45l-.63-.3c-1.15-.66-2.64-.73-3.47-2-.19-.77.12-1.17.9-1.19a13.32,13.32,0,0,1,1.64.15,3,3,0,0,0,3.29-2.32c.16-.66-.24-.75-.7-.83-1.84-.33-3.68-.64-5.54-.86a1.85,1.85,0,0,0-1.89,1c-.6.9-.91,2-1.92,2.63-2,0-3.84-.9-5.79-1.22-.86-.31-1.78-.4-2.62-.79a3.86,3.86,0,0,0-5.26-.71,12.09,12.09,0,0,1-2.77-.23,1.85,1.85,0,0,1-1.14-.92c-.16-.07.42-.47-.25-.4-3.06.34-6.13.09-9.19.15-.62,0-1.12-.47-1.83-.33.35.19.81,0,.91.48A4.21,4.21,0,0,1,57.22,47c-1.08.91-2.5.94-3.74,1.45a.88.88,0,0,1-.47-.1,1.58,1.58,0,0,1-.32-1.08c-.05-1.61-.93-2.27-3.16-2.37-.79,0-2.37,1.41-2.54,2.29-.13.66.38.72.77.86.92.31,1.59.78,1.43,1.9a1.83,1.83,0,0,1-.73.64c-1.2.54-2.19,1.52-3.56,1.71-2-.06-2.1-.15-2.21-2.15a34.3,34.3,0,0,1,0-3.79c.08-1.35-.49-1.93-1.81-1.9a16.34,16.34,0,0,1-1.81,0c-.6-.05.05.36-.16.47-.47,1.8-.2,3.63-.29,5.44-.08,1.62-.48,2.06-1.9,2.1s-2.23-.53-2.36-2.1c-.08-1,0-2-.05-3a2.59,2.59,0,0,0-2.82-2.16,2.82,2.82,0,0,0-2.11,2,.78.78,0,0,0,.38.85C31,48.8,31,50,31,51.25c0,3.2,0,6.4,0,9.6a1.93,1.93,0,0,0,2.91,1.78c.52-.25.47-.69.45-1.13a35,35,0,0,1,0-4c.11-1.63.83-2.1,2.7-2.14,1.64,0,1.52,1.09,1.55,2.13,0,1.43,0,2.87.07,4.3A2.63,2.63,0,0,0,40,64.77a17.9,17.9,0,0,0,7.37,5.93,7.71,7.71,0,0,1,1.87,1c-.18,2,1.12,3.68,1.22,5.62a7.25,7.25,0,0,1,.26,3.83,4.48,4.48,0,0,0-.47,5.28c-.51,1.11-1.63,1.41-2.58,1.91-1.71.89-3.45,1.7-5.22,2.47-.34.15-.75.25-.89.81.83.52,1.87.45,2.75.86,1.11.49,1.07,1.06,0,1.52-2.27,1-4.46,2.19-6.76,3.13-1.44.59-3,.08-4.41.51a9.53,9.53,0,0,0-4.93,2.92A19.36,19.36,0,0,0,26.14,104c-.24.82-.08,1.69-.3,2.52-.49,1.78,0,3.52.29,5.24.46,2.72.93,5.44,1.38,8.16.23,1.33.38,2.68.68,4,.44,2.26.74,4.54,1.21,6.8.15.69.2,1.44.92,1.84a122.37,122.37,0,0,0,12.36,3.65c3.82.86,7.62,1.78,11.43,2.69C58.55,140,63,141,67.47,142a13.06,13.06,0,0,1,1.74.52,8.62,8.62,0,0,1,3.45,5,3.48,3.48,0,0,1-1.19,2.55c-7.58,3-15.12,6.2-22.75,9.12a10.09,10.09,0,0,0-1.64.78,45.28,45.28,0,0,0-16.28,11.87c-2.41,2.65-4.58,5.51-6.83,8.29a5,5,0,0,1-1.4,1.38,1.88,1.88,0,0,1-.69.15H19.28c-.93,0-1.57-.34-1.66-1.35a4.4,4.4,0,0,0,.13-1.8q0-75.3,0-150.61A4,4,0,0,0,17.61,26.08Z"/><path class="cls-3" d="M125.11,141.09c.35.44.2,1,.2,1.44q0,18.38,0,36.76c0,.47.19,1-.23,1.41a1.12,1.12,0,0,1-.36-.48c-.3-4.85,0-9.7-.14-14.55a18,18,0,0,0-.11-3.77c-1.73-.78-3.59-.37-5.38-.61-5.25-.71-10.55-1-15.81-1.69a5.9,5.9,0,0,0-1,0c-1.56.06-2,.6-1.3,2,1.93,3.85,3.69,7.79,5.67,11.61.33.64.69,1.26,1,1.9A5,5,0,0,1,105,181.8H58.13c-.8.07-1-.27-.58-.94a13.12,13.12,0,0,1,1.93-2.24c2.93-2.65,5.65-5.52,8.32-8.43a5.28,5.28,0,0,0,1.4-1.15c3.86-3.87,7.75-7.73,11.56-11.65a8.84,8.84,0,0,1,3-2.25c12.08-4.76,24.07-9.74,36.17-14.47A8.53,8.53,0,0,1,123,140C123.84,140.15,124.4,140.77,125.11,141.09Z"/><path class="cls-4" d="M105.5,181.59a2.76,2.76,0,0,1,.27-.58c2.68-3.36,2.58-4,.49-7.76s-4-8-6-12c-.65-1.35-.08-2.21,1.42-2.1,3.88.29,7.75.78,11.63,1.07,3.34.25,6.63,1,10,.85a1.29,1.29,0,0,1,1.4.7,4.07,4.07,0,0,1,.16,2c.08,5.52-.12,11,.1,16.57l.1.45c0,.46-.37.67-.66.94a4.68,4.68,0,0,1-2.12.15q-7.6,0-15.21,0C106.56,181.78,106,182,105.5,181.59Z"/><path class="cls-5" d="M105.5,181.59l18.92,0c-.4.59-1,.32-1.52.32q-49.66,0-99.33,0c-.57,0-1.22.28-1.7-.3l.41-.32c4-.45,8.09-.14,12.13-.2,4.3.13,8.6,0,12.9.07a2.06,2.06,0,0,0,2.23-1.51,64.4,64.4,0,0,1,9-15.95,73.88,73.88,0,0,1,10.92-11.48c.37-.32.8-.9,1.39-.25-.8,3.2-1.21,6.41-4.35,8.64-6.51,4.61-10.41,11.09-12.21,18.84-.36,1.54-.23,1.64,1.41,1.72.59,0,1.23-.1,1.72.39Z"/><path class="cls-6" d="M17.61,26.08c.51.51.3,1.15.3,1.73q0,75.37,0,150.74c0,.58.21,1.23-.29,1.74,0-.44,0-.88,0-1.33q0-75.94,0-151.89C17.58,26.74,17.6,26.41,17.61,26.08Z"/><path class="cls-7" d="M123.73,24.74v.32H19.35a3,3,0,0,1,2-.31h99.32l2.16,0Z"/><path class="cls-8" d="M123,139.19l0,1.08c-5.68,1.43-10.9,4.05-16.32,6.18-7.39,2.9-14.73,5.94-22.14,8.79-2.52,1-4,3-5.8,4.76-3.41,3.31-6.72,6.73-10.07,10.09-.2.2-.37.63-.79.27s-.13-.73,0-1.1c2.3-7.44,6-14.17,10.24-20.67a5.68,5.68,0,0,1,2.74-1.07c7.73-1.8,15.37-3.92,23.1-5.72a2.5,2.5,0,0,0,1.88-1.22c.89-1.84,2.21-3.43,3.05-5.29s1.95-3.45,2.68-5.31a12.85,12.85,0,0,0,.51-8.73,2.69,2.69,0,0,1-.06-2.09c1.89-2.83,4-5.49,6.06-8.22a5.16,5.16,0,0,0,1.2-3.48c-.06-1.32,0-2.64,0-4,0-.29.1-1.14-.67-.44-.26,2,.31,4.1-.37,6.09q-3.09,4.12-6.2,8.23c-.34.45-.66.9-1.33.69-1-.66-2-1.27-2-2.66.79-6,1.52-12,2.44-18,.38-2.49-.35-4.69-1.17-6.92-.33-.9-1.15-1.11-2-1.26-1.92-.15-3.87-.23-5.44-1.59-2,.53-3.93-.55-5.92-.54a1,1,0,0,1-.62-.22c-1.8-1.58-4-1.4-6.13-1.31-6.08.23-12.14,0-18.21-.33a126.12,126.12,0,0,0-19.34.89c-.76.08-1.43.66-2.24.37-.86-.72-2.06-1.35-.63-2.64.24-.22-.1-.47-.19-.71-.46-1.14,0-1.65,1.18-1.65A2.28,2.28,0,0,1,52,80.67a139.55,139.55,0,0,1,18.1-2,59.39,59.39,0,0,1,9.58.55,135,135,0,0,0,14.55.57A1.84,1.84,0,0,0,96.12,79c.29-.5.82-1,1.35-.79,1.62.61,3.59.2,4.94,1.55a1.88,1.88,0,0,0,2.11.39c.92-.25,2-.67,2.73.37.21.72-.38.92-.8,1.26a3,3,0,0,0-1,3.53q.85,1.92,2.43.53c.39-.34.61-1,1.32-.75.58,1.82,1.21,2.17,3,1.64.34.54.32,1.25.93,1.68a1,1,0,0,1,.27,1.06c-.7,2.25-.16,3.4,1.9,4.53a5.66,5.66,0,0,1,3.12,4.22,5,5,0,0,0,1.05,2.34c1.13,1.57,1.79,3.32,1,5.26a4,4,0,0,0,.2,3.32,6.87,6.87,0,0,1,.24,5.89,2.87,2.87,0,0,0,.36,2.83,5.85,5.85,0,0,1,.5,6.24,1.9,1.9,0,0,0,.23,2.26,5.6,5.6,0,0,1,.88,6.18A7.54,7.54,0,0,0,123,139.19Z"/><path class="cls-9" d="M121.41,78.15c-.84,2-2.68,2.4-4.54,2.6a29.47,29.47,0,0,1-3.43,0,3.09,3.09,0,0,1-2.23-.81c-2.53-2.68-5.78-4.22-9.13-5.54a77.44,77.44,0,0,0-13.77-4.16c-2.93-.56-5.92-.63-8.88-.9a85.36,85.36,0,0,0-16.34.4,40.4,40.4,0,0,0-11.76,2.6c-1,.42-1.55-.07-2.23-.49-3.7-1.5-7.21-3.27-9.3-6.94-.38-1.07.21-1.58,1.1-1.91a2.83,2.83,0,0,0,2.67-3.08,1.16,1.16,0,0,1,0-2A29.26,29.26,0,0,1,48.15,55c.89-.54,1,.39,1,.95.12,1.6,0,3.2.05,4.8a2,2,0,0,0,3.11,1.83c.6-.31.61-.86.61-1.42,0-1.93,0-3.86,0-5.79s.3-2.33,2.26-2.86c1.17-.31,2.35-.63,3.53-.87.75-.15,1.53-.35,2.16.35.57,1.33.24,2.73.32,4.1.12,2-.23,4.08.24,6.1a2.22,2.22,0,0,0,2.61.33c.86-.34.45-1.27.46-1.94,0-2.38,0-4.75,0-7.13,0-2,.54-2.53,2.54-2.68a29.23,29.23,0,0,1,4,0c1.84.11,2.29.63,2.37,2.47.1,2.37-.21,4.74.16,7.1a3.92,3.92,0,0,0,4.15,2.08,11,11,0,0,1,2.31,0,1.25,1.25,0,0,0,1.42-.84c.75-1.64.67-1.82-1.13-2a7.93,7.93,0,0,1-2.08-.53,1.51,1.51,0,0,1-1-1.19,30.33,30.33,0,0,1,0-5.25,1,1,0,0,1,1.23-1A48.4,48.4,0,0,1,85.37,53a1.36,1.36,0,0,1,.7.67c.57,1.55.26,3.16.3,4.75.09,3,1,3.94,4,4a21.71,21.71,0,0,1,2.64.11,1.33,1.33,0,0,0,1.51-.75c.29-.59.87-1.23.61-1.81s-1.09-.2-1.67-.24a7.18,7.18,0,0,1-2.73-.58c-1.24-.78-1.13-2-.79-3.09s1.52-1,2.41-.88a19.84,19.84,0,0,1,7.82,2.93,1.93,1.93,0,0,1,.78,1.73c.23,3,.23,3,3.19,2.9.1,0,.23,0,.29-.12,1.09-1.61,1.09-1.61,2.72-.5l.39.26C113.74,66.23,119.45,70.55,121.41,78.15Z"/><path class="cls-10" d="M112.44,119.27a1.44,1.44,0,0,0,0,1.4c1.61,4.46.38,8.53-1.79,12.45-.45.81-1,1.58-1.48,2.37-.66,1.06-1.77,1.14-2.84,1.29a.81.81,0,0,1-1-.75c.42-1.58,1.17-3.08.73-4.82a4.25,4.25,0,0,0-2.76-3.24,6.66,6.66,0,0,0-2.08-.54c-5.12-.12-9.54,1.47-12.9,5.49a4.63,4.63,0,0,0-1,4.49c.16.56.44,1.18-.2,1.67-2.24.57-4.39-.24-6.53-.56-10.09-1.5-20.19-2.95-30.26-4.6-3.7-.6-7.45-.89-11.12-1.66a10,10,0,0,0-3.29.19,40,40,0,0,1-5.75.5.94.94,0,0,1-.94-.91c-.4-2.71-.89-5.4-1.34-8.1-.45-1.09,0-1.63,1.08-1.92a7.09,7.09,0,0,1,5,.21c2.87,1.26,5.76,2.33,8.26,4.42a6.21,6.21,0,0,0,7.12,1,7.23,7.23,0,0,1,6.2-.47A5,5,0,0,0,60,126.8a17.69,17.69,0,0,1,7.65-1.94,3.17,3.17,0,0,0,2.71-1.6,4.34,4.34,0,0,1,4.46-2.17c2.91.19,5.83.41,8.76.41a5.17,5.17,0,0,0,4.52-1.86,3.43,3.43,0,0,1,1.15-.94,4,4,0,0,1,1.34-.25c3.38-.73,6.92-.47,10.51-1.54-.81-.88-1.46-.46-2-.4-1.62.18-3.24.62-4.82-.19,0-1,.84-1.06,1.46-1.32a16.32,16.32,0,0,1,11.47-.43,9.41,9.41,0,0,0,2,1c-.1,1.24,1.36,1.36,1.67,2.32A11.68,11.68,0,0,1,112.44,119.27Z"/><path class="cls-8" d="M107.45,114.94a29.53,29.53,0,0,0-7-.65,14.6,14.6,0,0,0-6.3,2c-1.18,1.35-2.86.86-4.32,1.15-6.65.53-13.32.87-20,1.41-9.12.75-18.3,1-27.33,2.65a5.86,5.86,0,0,1-3.38-.42c-1.74-.7-3.52-1.32-5.22-2.1a5.68,5.68,0,0,0-5.51.41,10.55,10.55,0,0,1-1,.52l-.28.07a83.94,83.94,0,0,1-1.6-8.83c-.26-1.59-.8-3.21,0-4.83a.88.88,0,0,1,.23.24c.41.6-.13,1.71.58,1.93s1.48-.59,2.19-1a16.1,16.1,0,0,0,5.68-4.45c.35-.48.81-1.09,1.48-.73s.27,1,.15,1.5c-.7,3-.12,4.56,2.46,6.29,2.24,1.5,4.62,2.81,6.79,4.43,1.09.81,1.76.55,2.27-.66.43-1,1-2,1.46-3,.34-.71.15-1.16-.62-1.36a25.83,25.83,0,0,1-2.54-.74c-1.25-.47-1.35-1-.26-1.8,1.58-1.11,3.22-2.13,4.87-3.12a2,2,0,0,0,1.16-2.26,5.5,5.5,0,0,1,.18-3.26,1.16,1.16,0,0,1,.45-.32,78,78,0,0,1,10.54-.11,1.63,1.63,0,0,1,.51.14c.76.55.32,1.06-.1,1.51a22.77,22.77,0,0,1-2,2.18c-2.23,1.88-3.44,4.42-4.71,6.93-.68,1.34-.59,1.53.94,1.83,2.8.56,5.72.72,8.22,2.33a.71.71,0,0,0,1.13-.23,1,1,0,0,1,1.75-.31c1,.85,2-.15,3,0a3.78,3.78,0,0,1,.43,2.38c0,1.64.11,1.7,1.72,1.28a1.74,1.74,0,0,0,1.11-.52c-.86-1.31-2.62-1.75-3.33-3.22,1.18-2.28,2.28-2.6,4.16-1a6.7,6.7,0,0,0,3.74,1.58c2.63.27,5.28.36,7.91.67A3.28,3.28,0,0,0,89,113c3-1.58,6.1-3.13,9-4.92,2.23-1.38,3.55-3.74,5.22-5.71.55-.64.22-1-.55-1a8.5,8.5,0,0,0-2.83.87c-.86.36-1.68.87-2.68.53a2.45,2.45,0,0,1-.37-1.57,6.6,6.6,0,0,0-1.88-3.94c-.2-.73.41-.81.83-.93,1.29-.37,1-.95.31-1.67a9.68,9.68,0,0,1-1.3-1.66c-.3-.46-.58-1,0-1.44,2.67-1.46,5.41-2.37,8.5-1.35a5.28,5.28,0,0,0,3.54-.37c.5-.19,1-.58,1.55-.39a9.36,9.36,0,0,1,2.08,6.75c-.66,5.62-1.51,11.22-2.18,16.85A2.81,2.81,0,0,1,107.45,114.94Z"/><path class="cls-3" d="M30.12,132.95c2-.84,4.16-.68,6.24-1.06,3-.56,6,.43,8.92.8,5.65.71,11.27,1.65,16.9,2.51,6.06.93,12.11,2,18.19,2.81a40.66,40.66,0,0,0,6.85.83.66.66,0,0,1,1,.06c2.65,2.67,6,3.05,9.31,2.13,2.78-.77,5.48-2.11,7.1-4.82a.66.66,0,0,1,.84-.35c.05.6.39.7.9.53l2.76-.9c-.64,2.23-2.3,3.91-3.26,6-.26.55-1,.6-1.6.74q-12,3-24,5.95a5.77,5.77,0,0,0-2,.71c-1.35-.7-2.85-.6-4.29-.87-.58-.11-1.21,0-1.68-.5-.4-2-2-3.13-3-4.68-1.79-1.08-3.87-1.12-5.83-1.58-3.14-.74-6.29-1.44-9.46-2A202.59,202.59,0,0,1,30.12,132.95Z"/><path class="cls-3" d="M70.66,152.11c-1.77.68-2.88,2.22-4.17,3.45a65.1,65.1,0,0,0-16.43,24.13,2.59,2.59,0,0,1-3,2c-4.08-.16-8.18-.07-12.26-.09a1,1,0,0,1-.29-.91,29.13,29.13,0,0,0,.19-5.45,4.91,4.91,0,0,1,2.39-4.4c3.59-2.47,7.11-5,10.64-7.57a10.77,10.77,0,0,0,.89-.74c.48-.43.54-.7-.14-1.08s-1.87-.45-1.75-1.73c3.66-1.76,7.5-3.11,11.26-4.63,4.43-1.79,8.88-3.53,13.32-5.3C71.57,151.15,71.45,151.58,70.66,152.11Z"/><path class="cls-4" d="M50.09,86.45c2.78-1.39,5.85-1.17,8.81-1.44a91.51,91.51,0,0,1,14.84-.21c6.12.43,12.22.34,18.34.22,1.38,0,3-.12,4,1.43.05.09.21.21.25.19,1.67-.88,3,1.3,4.73.5a4.62,4.62,0,0,1,1.8,0c.35,1.21-.72,1.2-1.33,1.4-2.84.9-5.69,1.76-8.61,2.39A96.42,96.42,0,0,1,79.19,93a3.16,3.16,0,0,1-.53.11,14,14,0,0,0-2.62.53c-3-.24-5.91.49-8.88.24a40.26,40.26,0,0,0-7.1.22,3.14,3.14,0,0,1-.55-.11,11.55,11.55,0,0,0-3.33-.11,73,73,0,0,1-9.26-.36c-1-.09-1.84-.68-2.83-.75s-1.83-.33-2.73-.57-.9-.76-.15-1.19c.95-.54,1.95-1,2.94-1.47A43.77,43.77,0,0,0,50.09,86.45Z"/><path class="cls-4" d="M112.16,86.74c-.11.47.05,1.19-.9.8-1.14-.46-2.83-.35-2.17-2.41a8.84,8.84,0,0,0-1.93-4.36c-1-1.07-2.17-.42-3.12,0-.72.35-1,.29-1.49-.28-.74-.86-1.53-1.7-2.92-1.21-.42.15-.91-.23-1.33-.53-.87-.64-1.78-.4-1.93.56-.17,1.13-1,1-1.51,1-4.49-.07-9-.09-13.46-.43-3.3-.25-6.6-.76-9.91-.74A102.28,102.28,0,0,0,54.32,80.8c-1.29.23-2.58.43-3.86.65L50,77.17c-.32-3.11-.16-3.36,2.73-4.23a65.84,65.84,0,0,1,17.3-2.55,83.45,83.45,0,0,1,18,1A63.26,63.26,0,0,1,106.85,78c.53.29,1,.63,1.54,1,2.07,1.42,3.7,3.11,3.67,5.85Z"/><path class="cls-4" d="M70.66,152.11l.66-2.32,1-2.31c1.66-.22,3.26.44,4.91.34.67,0,1,.42,1.06,1-1.4,2.43-2.7,4.93-4.21,7.29-2.28,3.57-3.61,7.53-5.12,11.43-.36.92-.7,1.85-1,2.78a43.11,43.11,0,0,1-6.42,6.9c-1.48,1.36-2.8,2.86-4.14,4.34h-.16c-4.12.14-4.18.12-3-3.77,2.23-7.58,6.34-13.84,13-18.25a3.76,3.76,0,0,0,1.63-2.18C69.37,155.62,70,153.88,70.66,152.11Z"/><path class="cls-8" d="M89.22,118.95A6.28,6.28,0,0,1,83.16,122c-3-.17-6-.41-9.06-.45-1.26,0-2.36.18-2.9,1.35-1,2.13-2.87,2.56-4.85,2.61a11,11,0,0,0-5.82,1.56c-2.21,1.44-4.32,1-6.43.27a4.18,4.18,0,0,0-3.6.35c-3.45,2-6.68,1.19-9.38-1.25s-6-3.11-9.13-4.36c-1.18-.47-2.57.27-3.82.64-.47.14-.24.78-.31,1.2a12,12,0,0,1-.68-4l.1-.07a3.82,3.82,0,0,0,2.58-.19,4.48,4.48,0,0,1,3.85.1c.6.28,1.29.38,1.86.71,3.57,2.05,7.3,2,11.23,1.26,6-1.16,12.18-1.22,18.29-1.7,7-.55,14.1-.92,21.13-1.55C87.22,118.43,88.3,118.17,89.22,118.95Z"/><path class="cls-10" d="M51.73,98.69A16.43,16.43,0,0,0,52,102.3c.27.82-.24,1.28-.94,1.7-1.93,1.14-3.81,2.35-5.71,3.54a5.23,5.23,0,0,0-.59.56c1.48.43,2.76.85,4.07,1.15.77.18,1.11.4.7,1.2-.8,1.57-1.6,3.15-2.36,4.74-.29.6-.65.7-1.17.36-3.09-2-6.34-3.81-9.21-6.1-1.51-1.21-2.61-3.17-1.47-5.43a8.12,8.12,0,0,0,.42-1.36c-.46-.39-.72,0-.87.19-1.84,3-4.95,4.29-7.78,6-.85.5-1.62.51-1.55-.86,0-.55,0-1.1,0-1.66.21-.86-.27-1.82.35-2.63,1.32.31,2.52,1.12,4,.86s2.75-1.09,2.73-2-1.23-1.73-2.76-2c-.65-.11-1.32.28-1.93-.16a8.9,8.9,0,0,1,5-3,2.64,2.64,0,0,1,2.84.78,2.38,2.38,0,0,0,2.45.47c1.36-.44,2.8-.59,4.16-1a3,3,0,0,1,1.36-.13,39.13,39.13,0,0,0,5.89.44C50.35,97.88,51.24,97.79,51.73,98.69Z"/><path class="cls-11" d="M44.42,60c-.3,1.25-1.26,2.1-1.91,3.14a.8.8,0,0,1-1.37.06c-.89-.3-2,0-2.64-1-.77-1.69-.15-3.46-.34-5.19-.07-.6.24-1.46-.93-1.19-.89.2-2.32-.58-2.35,1.21s0,3.31.08,5c0,.78,0,1.17-1,1.2-3.46.09-3.46.14-3.46-3.34,0-3.2,0-6.41,0-9.61,0-1-.27-1.73-1.33-1.93-.84-.16-1-.53-.47-1.22a4.6,4.6,0,0,0,.26-.42c1.55-2.38,2.78-2.67,5.28-1.29.54.3.57.76.57,1.27,0,1.33,0,2.65,0,4,0,1.52,1,1.22,1.95,1.29s1.42-.24,1.37-1.29c-.07-1.49,0-3,0-4.47,0-.61-.08-1.25.66-1.54a4.08,4.08,0,0,1,2.86-.26c.84.09,1.12.75,1.11,1.56,0,2.57,0,5.13.15,7.69a6.79,6.79,0,0,1-.11,1.74c-.44,1.17.15,2.34,0,3.52C42.8,59.8,44,59.54,44.42,60Z"/><path class="cls-4" d="M46.75,159.72A4.72,4.72,0,0,0,49,161.14c.88.14,1.32.55.32,1.35-2.65,2.13-5.43,4.07-8.25,6a56.56,56.56,0,0,0-5.23,4,3.18,3.18,0,0,0-.71,2.45,34.15,34.15,0,0,1-.35,6.74l-11.32,0c-.42,0-.89.1-1.22-.3,3.49-3.87,6.44-8.21,10.15-11.91A43.52,43.52,0,0,1,46.75,159.72Z"/><path class="cls-11" d="M100.78,56c0-1.93,0-3.87,0-5.8,0-1.11-.34-1.67-1.52-1.59s-1.5-.26-.89-1.53c1-2,2.07-3,4.5-2.48a32.46,32.46,0,0,0,5.75.41,1.13,1.13,0,0,1,1.16.95,22.24,22.24,0,0,1,1,4.84,2.25,2.25,0,0,1-1,2.28,1.65,1.65,0,0,0-.5.42c-.49.74,1.15,5.44,2,5.76,1.87.69,1.87.7.77,2.42-.21.32-.43.64-.64,1-.4,1-1.21.94-2,.72a23.28,23.28,0,0,1-2.23-.82l0,0a16.84,16.84,0,0,1-1.67-3.5,12.42,12.42,0,0,0-.2-1.46,2.63,2.63,0,0,1,0,1.35,15.67,15.67,0,0,1-.66,4.1c-1.26,0-2.81.51-3.68-.18s-.23-2.36-.34-3.59c-.08-.91-.58-1.8-.24-2.75A1.3,1.3,0,0,1,100.78,56Z"/><path class="cls-12" d="M112.07,84.8c-.62-2.94-2.58-4.84-5.08-6.22a62.18,62.18,0,0,0-21.38-7.1,90.2,90.2,0,0,0-17.19-.54,62.83,62.83,0,0,0-15.31,2.37c-2.93.89-2.93.88-3.08,3.86-.49-1.1-.09-2.48-1.38-3.39-.74-.52.93-1.12.43-1.94,2.22.51,4.06-.88,6.11-1.25,3-.54,6-1.06,9.08-1.48S70.09,69,73,68.62a34.78,34.78,0,0,1,8.06.3,70.35,70.35,0,0,1,9,1.19A84.27,84.27,0,0,1,99.77,73a43.59,43.59,0,0,1,6.77,2.93c1.78,1.06,3.63,2,5,3.66a4.93,4.93,0,0,0,1.94,1.14A6.11,6.11,0,0,0,112.07,84.8Z"/><path class="cls-13" d="M90.88,58.85c1.64.56,3.36.28,5.09.44a15,15,0,0,1-1.21,3.26.85.85,0,0,1-1.15.61,14.13,14.13,0,0,0-4.09-.26c-2.36-.08-3.52-1.19-3.57-3.54,0-1.81,0-3.62-.06-5.43a5.34,5.34,0,0,1-.46-2.35c.08-1.09-.3-2.25.44-3.24C88.1,44,88.1,44,92.88,44.9c.7.13,1.4.28,2.11.36,2,.23,1.88.26,1.06,2-1,2-2.34,2.52-4.39,2-.52-.14-1.53-.65-1.46.71s.68,1.73,1.88,1.58c.59-.07,1.15.26,1.75.1l.43.38A3,3,0,0,1,94.65,54c0,1-.39,1.58-1.51,1.39a4.12,4.12,0,0,0-1.31,0c-.59.1-1.55-.41-1.68.47s-.48,1.94.28,2.79C90.51,58.79,90.73,58.79,90.88,58.85Z"/><path class="cls-11" d="M60.71,62.84l-.06-10.89a2.5,2.5,0,0,1-.44-1.6.94.94,0,0,0-1-1.21c-.44,0-.88,0-1.32-.07-1.52-.19-1.72-.66-.92-2a6.83,6.83,0,0,1,.74-2.32,1,1,0,0,1,.73-.35c3.09-.05,6.18-.07,9.28,0a1,1,0,0,1,.59.29c.33.22.8.23,1,.66-.2,2.61-.7,3.27-3.07,3.86a1.29,1.29,0,0,0-1,1.08,20.41,20.41,0,0,0-.37,5.39c0,2.09,0,4.17,0,6.26,0,.58.07,1.17-.75,1.13A10.46,10.46,0,0,1,60.71,62.84Z"/><path class="cls-14" d="M78.61,58.86a13.37,13.37,0,0,0,4,.4,14.31,14.31,0,0,1-1,3.38.63.63,0,0,1-.88.49,7,7,0,0,0-3.1-.21,4,4,0,0,1-4.27-2c-.5-1.27-.13-2.59-.19-3.89-.11-2.24.18-4.51-.36-6.73a2.23,2.23,0,0,0-.54-1.33c-1.67-1.52-1.65-1.83.05-3.29a1.51,1.51,0,0,1,2.06-1,22.26,22.26,0,0,0,2.52.66c.81.14.58.6.44,1.07a9.58,9.58,0,0,1,.28,5.3c-.3,2.13-.06,4.25-.16,6.38C77.41,58.88,78.17,58.65,78.61,58.86Z"/><path class="cls-11" d="M49,50c-.09-1.15-.87-1.54-1.85-1.68s-1.26-.55-.59-1.4a12.92,12.92,0,0,0,1.13-1.61,1.49,1.49,0,0,1,2-.8l.31.1c3.05.72,3.05.72,3,3.71a5.54,5.54,0,0,1,.44,4,56.33,56.33,0,0,0-.26,9c0,1.39-.4,1.76-1.76,1.71-2.59-.1-2.67,0-2.57-2.65.11-2.81-.3-5.58-.33-8.37A3.12,3.12,0,0,1,49,50Z"/><path class="cls-12" d="M107.16,62.49a11.26,11.26,0,0,1,2.36.45,1.8,1.8,0,0,0,1.9-.34c3.63,2.86,7.33,5.65,9.69,9.78a8.5,8.5,0,0,1,1.29,4.53c0,.69-.2,1.2-1,1.24a3,3,0,0,1-1.4-2.41A6.94,6.94,0,0,0,118.19,72C115.16,68.05,111.26,65.16,107.16,62.49Z"/><path class="cls-15" d="M72.32,45.63a1.13,1.13,0,0,1-.34.88c-.65.84-1.31,1.68.56,1.82,1,.07.76.91.76,1.54q0,5.51.06,11c-.37,0-.65-.12-.57-.59.41-2.36,0-4.74.2-7.1.09-1.36-.45-1.94-1.79-1.91s-3,0-4.48,0c-1.1,0-1.82.46-1.73,1.83.19,3-.19,6.07.2,9.1.07.57-.14.95-.63.93-1.28,0-2.62.45-3.84-.32,4,.19,4,.19,4-3.78,0-3.08,0-6.15,0-9.23,0-.75.08-1.38,1-1.19,1.86.37,2.69-.53,3-2.23a1.77,1.77,0,0,1,.64-1.11C70.32,45.41,71.37,45.09,72.32,45.63Z"/><path class="cls-12" d="M49,50c0,3.75.08,7.5,0,11.25,0,1.25.26,1.75,1.62,1.67,2.8-.15,2.36.32,2.38-2.36,0-4.08,0-8.16,0-12.25a1,1,0,0,1,.29-.08.81.81,0,0,1,.3.38c.69,2.23.69,2.24,3,1.51a14.89,14.89,0,0,1,2.4-.47c.61-.08,1.22-.09,1.52.61v1.68c-2.29,0-4.39,1-6.6,1.42-.77.16-.64.93-.65,1.53,0,2.27,0,4.53,0,6.8,0,1.1-.25,1.59-1.47,1.55-3.85-.11-3.13.42-3.19-3.12,0-1.6,0-3.2,0-4.89-1.46.86-2.9,1.62-4.24,2.52-1.62,1.09-1.59,1.14-.1,2.27-2.25-.49-2.6-1.29-2-4.52,2.18-.26,3.88-1.55,5.58-2.74.76-.54.16-1.67.42-2.49C48.54,50,48.79,50,49,50Z"/><path class="cls-9" d="M85.87,48.33v3.26c-2.65.08-5.14-.76-7.7-1.24a.85.85,0,0,1-.71-1c0-.87-.34-1.93.13-2.57.61-.83,1.55.3,2.38.12C82,47.07,83.88,48,85.87,48.33Z"/><path class="cls-4" d="M27.89,100.4a4.24,4.24,0,0,1,4.31.65c1.28.9,1.25,2.14,0,3.08a5.12,5.12,0,0,1-6.31-.46A9.89,9.89,0,0,1,27.89,100.4Z"/><path class="cls-16" d="M96.91,33.1a3.9,3.9,0,0,1,4-1.22,3.1,3.1,0,0,1,2.17,3.85,3.14,3.14,0,0,1-3.89,2.1,17.21,17.21,0,0,1-2-.84,5.24,5.24,0,0,1-.4-.36,4.59,4.59,0,0,1-.36-2.87A1,1,0,0,1,96.91,33.1Z"/><path class="cls-16" d="M33.51,34.84c-.38-1.57,1.29-3,3.07-3.12a3.14,3.14,0,1,1-3.07,3.12Z"/><path class="cls-12" d="M80,46.93c-.21.06-.47.24-.62.17-1.79-.85-1.73.22-1.78,1.52S78.2,50,79,50.14a37.75,37.75,0,0,1,6.84,1.45v2.33c-1.25-1.23-3-.72-4.45-1.28a5.14,5.14,0,0,0-.81-.09c-3-.62-3-.63-3,2.38a18.75,18.75,0,0,1,0,2.3,1.46,1.46,0,0,0,1,1.63c-.95.2-1.37,0-1.34-1.15.08-3.79.06-7.58.07-11.37A5.05,5.05,0,0,1,80,46.93Z"/><path class="cls-17" d="M49.35,38c-.53-.18-1.35.37-1.57-.61.35-1.35,0-2.73.16-4.09,0-.53-.22-1.1.22-1.57.69.56,1.48.11,2.22.23,1.59.27,2.24,1.37,1.5,2.8-.29.56-.6,1,0,1.59.39.4,1.24,1.08.41,1.52s-1.89.53-2.22-.83C49.17,36.86,49.89,37.88,49.35,38Z"/><path class="cls-18" d="M77.24,37.94c-1-.12-2-.1-2.56-1.32,0,1-.43,1.5-1.32,1.3s-.45-.93-.44-1.48a16.26,16.26,0,0,0,0-3c-.2-1.16.07-1.63,1.29-1.49a20.48,20.48,0,0,0,2.13,0c1.29.28,1.22,1.43,1.06,2.21a3.74,3.74,0,0,0,.26,3C77.81,37.5,77.66,37.84,77.24,37.94Z"/><path class="cls-8" d="M42.45,98c-1.6.41-3.2.79-4.78,1.23a2,2,0,0,1-2.08-.6,3.24,3.24,0,0,0-2.73-1.28c.18-.11.38-.32.55-.3,3.37.45,6.1-1.26,8.94-2.62.83-.4,1.69-.77,2.58-1.17l-.83-.5a5.4,5.4,0,0,1,2.68.27c.11.92-.68,1-1.22,1.25-1.49.75-3.15,1.18-4.46,2.26C41.34,97.34,42.58,97,42.45,98Z"/><path class="cls-19" d="M95.49,36.7c-.09.37.65,1-.1,1.07s-2,.23-2.28-1.24c-.23.83-.5,1.45-1.39,1.28s-.48-1-.52-1.46c-.09-1.15,0-2.32-.12-3.46-.13-.92.31-1.09,1-1.07s1.64.14,2.45.21c1.46.62,1.25,1.86.83,2.89A1.77,1.77,0,0,0,95.49,36.7Z"/><path class="cls-12" d="M90.88,58.85c-.52.07-1,.15-1-.64a18.49,18.49,0,0,0,0-2c-.06-.83.34-1,1.08-1,3.11-.11,3.11-.14,3.29-3.25a.58.58,0,0,1,.6.29c0,1.19.67,1.73,1.75,2.05a11.41,11.41,0,0,1,4.18,1.92c0,1.81.08,3.62,0,5.42,0,.91.23,1.31,1.19,1.23s1.86,0,2.79-.05q.15.12.11.24t-.09.13h-.33c-1.21,0-2.67.34-3.56-.21-1-.65-.43-2.25-.38-3.4.06-1.56-1.26-1.34-2-1.76a14.63,14.63,0,0,0-6.25-2.23c-.65,0-1.67-.42-1.93.38S89.82,58.06,90.88,58.85Z"/><path class="cls-16" d="M45.38,37.65c-2.7,1-4.1-.05-4-2.85,0-.71,0-1.43,0-2.14,0-.47,0-.94.72-.76.47.12.94.19.78,1a10.17,10.17,0,0,0-.08,2.29,1,1,0,0,0,.85,1.08c.63.09.83-.51.92-1a4.65,4.65,0,0,0,.08-2C44.37,32,45,31.74,46,31.71c.61,1.29-.1,2.71.38,4L46.06,37C46,37.42,45.67,37.49,45.38,37.65Z"/><path class="cls-20" d="M58.27,33.51c1.52.82,3,1.3,2.17,3.18a2.45,2.45,0,0,1-3.73.75.74.74,0,0,1-.21-.89.8.8,0,0,1,.76-.52c.42,0,.78.47,1.32.11,0-.62-.57-.7-1-.82-1.07-.33-1-1.24-1-2a1.65,1.65,0,0,1,1.29-1.53,2.47,2.47,0,0,1,2.2.4c.5.34.23.84-.2,1A7.17,7.17,0,0,1,58.27,33.51Z"/><path class="cls-21" d="M71.44,33.68a.54.54,0,0,1-.71,0,1.16,1.16,0,0,0-1.63.15,1.37,1.37,0,0,0-.34,1.66,1.25,1.25,0,0,0,1.49.74c.5-.12,1-.36,1.09.45a1,1,0,0,1-.81,1.24,3,3,0,0,1-3.23-1.11,3.13,3.13,0,0,1,.15-4A2.94,2.94,0,0,1,70.88,32C71.89,32.36,71.22,33.15,71.44,33.68Z"/><path class="cls-9" d="M48.41,50.27c.75,2,.51,2.85-1.38,3.78a23.86,23.86,0,0,0-3.46,1.9c-.62.45-1,.31-1.17-.45L42.53,54c.42-1.25,1.6-1.54,2.62-2Z"/><path class="cls-22" d="M60.65,50.26c-1.25-.66-2.41.17-3.62.21,0,0-.1,0-.15.07-4,1.42-3.47.66-3.5-2.31A9.35,9.35,0,0,1,57,47c-.63,1.63.33,1.67,1.53,1.64S61.17,48.13,60.65,50.26Z"/><path class="cls-19" d="M78.63,32c.82,0,1.65-.08,2.47,0,.39,0,1-.49,1.15.41s-.31,1-1,.94c-.21,0-.44,0-.55.28s.32.38.57.37c.53,0,.83.09.79.7s-.16.85-.79.72c-.37-.07-.68.07-.66.5s.33.4.61.4c.64,0,1.07.18,1,.94-.11,1-.82.51-1.24.42-.82-.17-1.93.59-2.44-.68A5.49,5.49,0,0,1,78.63,32Z"/><path class="cls-23" d="M63.72,33.54c.43.66.95.37,1.32.55a.91.91,0,0,1,.5,1c0,.38-.34.49-.74.4s-1-.05-1,.53.6.34.94.35c1.19,0,.7,1,.47,1.25-.73.7-1.72,0-2.61.23-.46.14-.59-.52-.59-1a18.18,18.18,0,0,0,0-2.47c-.26-1.75.12-2.76,2.19-2.5.55.07,1.19-.11,1.31.55s-.37,1-1,1A3.72,3.72,0,0,0,63.72,33.54Z"/><path class="cls-17" d="M109.21,31.72a4.3,4.3,0,0,0,2.23.27c.43,0,1-.34,1,.54,0,.65-.35.84-.92.84a3.75,3.75,0,0,0-.72.16c.42.75,1.09.39,1.59.54a.86.86,0,0,1,.25,1.17c-.4.53-.46.76,0,1.34.63.74.17,1.41-.85,1.44-2.89.1-3,.1-2.85-2.83C109.06,34,108.38,32.83,109.21,31.72Z"/><path class="cls-21" d="M33.06,32c-.38.63-.62,1.12-.94,1.55a4.93,4.93,0,0,0-1.26,3.62c.07.55-.27.8-.81.76s-.76-.23-.63-.73c.43-1.61-.58-2.69-1.35-3.88-.23-.37-.77-.81-.3-1.3s1.16-.17,1.5.12c.64.55,1,.94,1.74.05C31.41,31.72,32.24,32,33.06,32Z"/><path class="cls-18" d="M104.49,34.74c0-.66,0-1.33,0-2s.13-.83.83-.81.89.15.84.81,0,1.44,0,2.15,0,1.59,1.17,1.45c.54-.06.64.25.55.72s-.06.75-.58.85c-2.18.41-2.78-.09-2.79-2.36Q104.49,35.16,104.49,34.74Z"/><path class="cls-16" d="M85.09,32a13.72,13.72,0,0,1,1.49,0c.7.08.87.84.5,1-1.62.85-1,2.3-1.12,3.52-.07.52.45,1.32-.62,1.35s-.74-.74-.79-1.31c-.1-1.3.34-2.71-1.23-3.61-.59-.34-.32-1,.46-1.08a11.87,11.87,0,0,1,1.31,0Z"/><path class="cls-24" d="M109.21,31.72c0,1.71,0,3.41-.08,5.12,0,.65.07,1.08.89.9.32-.07.71.09,1,0,.52-.25,1.39.78,1.59-.4s-.63-.93-1.29-1a.42.42,0,0,1-.44-.39c0-.34.22-.56.51-.5,1.34.29,1.08-.62,1.06-1.36.5-.62.23-1.46.56-2.44a9.21,9.21,0,0,1,.29,6c-.38,1.64-2.57.34-3.89.77a.81.81,0,0,1-1.05-.74c0-.43.46-.9.44-1.35-.05-1.18.35-2.39-.34-3.53C107.92,31.95,108.8,32,109.21,31.72Z"/><path class="cls-25" d="M45.14,52l-2.62,2c0-2.42-.14-4.85,0-7.26.07-1.57-.41-2.27-2-2a11.2,11.2,0,0,1-1.65,0c0-.05-.06-.13,0-.15.91-1.14,2.1-.4,3.15-.39a1.09,1.09,0,0,1,1.22,1.22c-.06,1.42,0,2.85,0,4.27S43.17,52.29,45.14,52Z"/><path class="cls-25" d="M78.63,32q0,2.48-.05,5a1.31,1.31,0,0,0-.66.87c-.16.5-.42.37-.67,0a.63.63,0,0,0,0-.87c-.62-.77-1.07-1.45-.3-2.55.51-.72.07-1.78-.62-2.5A1.93,1.93,0,0,1,78.63,32Z"/><path class="cls-26" d="M68.33,44.64l-10.59,0c-.65-.87-.73.65-1.28.28-.18-.94,0-1.39,1.18-1.22A64,64,0,0,0,68,43.89c.52,0,1.27-.47,1.42.21C69.67,45.09,68.45,43.89,68.33,44.64Z"/><path class="cls-27" d="M54.05,139.18c1.56-.26,3,.46,4.45.71,3.11.52,6.18,1.28,9.27,1.88a2,2,0,0,1,1.57,1C64.21,141.72,59.1,140.61,54.05,139.18Z"/><path class="cls-15" d="M100.78,56.24c-1.7-.63-3.38-1.35-5.12-1.85-1.4-.4-1.39-1.09-.81-2.12A21.45,21.45,0,0,1,100.78,56,.3.3,0,0,1,100.78,56.24Z"/><path class="cls-28" d="M95.49,36.7c-.66-.47-1.13-.85-.5-1.82a2.22,2.22,0,0,0-.47-2.83c.72-.37,1.48-1,1.64.53,0,.2.49.34.75.52l-.09.61c-.09,1-.55,2.07.34,3q0,.16.08.31c-1.15.35-.86-1-1.53-1.31C95.27,36,96.17,36.51,95.49,36.7Z"/><path class="cls-29" d="M93.83,51.6a4.34,4.34,0,0,1-3.44.21c-.87-.2-.55-1.2-.18-1.9Z"/><path class="cls-30" d="M38.5,62.25a6.14,6.14,0,0,1,2.64,1,2,2,0,0,0-1.35,1.69C38.78,64.3,37.51,63.82,38.5,62.25Z"/><path class="cls-2" d="M48.17,31.71c-.38,1.87.3,3.82-.38,5.67C48,35.5,47.29,33.55,48.17,31.71Z"/><path class="cls-2" d="M46.42,35.73c-.62-1.29,0-2.7-.38-4C46.9,33,46.24,34.4,46.42,35.73Z"/><path class="cls-2" d="M45.38,37.65l.68-.66C46.67,38.07,45.7,37.52,45.38,37.65Z"/><path class="cls-2" d="M49.35,38c.2-1.16.2-1.16.71-1C49.66,37.23,49.85,37.86,49.35,38Z"/><path class="cls-31" d="M107.45,114.94c.5-4,1.1-7.93,1.48-11.91.29-3,1.45-6,.8-9.09a32.37,32.37,0,0,0-1.62-4.49c-.23-.17-.48-.33-.28-.67,1.57-.09,2.27.61,3,2.12,1.72,3.78.62,7.48.22,11.21s-1,7.71-1.55,11.57c-.09.65-.22,1.3-.33,1.94C108.42,115.76,107.57,116.24,107.45,114.94Z"/><path class="cls-32" d="M112.44,119.27a1.61,1.61,0,0,1-1.65-1.33c1.48-1.09,2.27-2.74,3.39-4.12s2.38-3,3.56-4.51a.69.69,0,0,0,.51-.75,46.19,46.19,0,0,0-.14-6.19c1-.62,1.65-.57,1.65.83,0,1.82,0,3.64,0,5.45s-1.7,2.88-2.59,4.29C115.75,115.16,114,117.17,112.44,119.27Z"/><path class="cls-33" d="M107.83,88.78l.28.67a5.6,5.6,0,0,1-5.23,1.12,7.76,7.76,0,0,0-6.61.74,5.67,5.67,0,0,1-1.73.44.4.4,0,0,1-.4.12c-.5-.39-1.25-.56-1.22-1.41,2.85-.8,5.7-1.58,8.53-2.42.5-.15,1.3-.05,1.36-.93C104.16,88.64,106.07,88.49,107.83,88.78Z"/><path class="cls-22" d="M107.16,80.77c1.72,1,2.29,2.23,1.93,4.36a4.88,4.88,0,0,0-.58.56c-.63.84-1.24,1.82-2.49,1.08s-1.28-2.56-1-3.72C105.34,81.72,106.42,81.49,107.16,80.77Z"/><path class="cls-34" d="M118.1,102.37c.68,2.28.23,4.6.23,6.89,0,.36-.37.26-.59,0C118.48,107,117.87,104.67,118.1,102.37Z"/><path class="cls-35" d="M97.84,82.72H91.51v-.2h6.28Z"/><path class="cls-12" d="M104.82,63.21l0-.36c.21-1.43-.37-2.92.32-4.32.38-.17.49.19.7.36a9.27,9.27,0,0,1,1.37,3.64l-1.81-1.08C104.86,62,105.47,62.79,104.82,63.21Z"/><path class="cls-36" d="M89.22,118.95c-6,.25-12.07.73-18.1,1.27-1.92.17-3.85.21-5.77.34a195.61,195.61,0,0,0-22.62,2.3,6.68,6.68,0,0,1-3.9-.42,46.72,46.72,0,0,1-4.73-1.94,4.92,4.92,0,0,0-5.15.09c-1,.53-1.38.16-1.7-.69A5.64,5.64,0,0,1,33,118.12c2.49,1,5,2,7.52,3,1.1.42,2.19-.08,3.23-.25a141.62,141.62,0,0,1,14.7-1.6c6.84-.4,13.67-1.07,20.5-1.58,3.66-.27,7.34-.44,11-.66a1.87,1.87,0,0,1,.65,1.93Z"/><path class="cls-37" d="M105.49,135.86c-1.6,2.87-4.31,4.29-7.21,5.42a9.14,9.14,0,0,1-6.37.06,17.19,17.19,0,0,1-3.64-1.42c-.51-.3,0-1.42-1-1.08-1.59-3.74,0-6.36,3-8.46,3.61-2.55,7.53-4.14,12-3.17C106.44,128.13,107.95,132.3,105.49,135.86Z"/><path class="cls-38" d="M90.57,118.93a4.47,4.47,0,0,1-.65-1.93,22.19,22.19,0,0,0,4.27-.71,19.91,19.91,0,0,0,6.06-.51c.56-.15,1.14-.28,1.22.57.06.62.07,1.14-.8,1.33-2.53.56-5.13.44-7.67.92C92.2,118.75,91.39,118.82,90.57,118.93Z"/><path class="cls-10" d="M94.21,91.74h.34a6.55,6.55,0,0,0,1.81,2.64c1.33,1.47,1.27,1.74-.63,2.3-.31.09-.66,0-.86.37-.1,1-1.09.9-1.68,1.28s-1.3.56-1.91.94a16.64,16.64,0,0,0-3.57,1.42c-2.29.78-3.89,2.55-6,4.05,2.34.24,4.42.93,6.54.08,1.8.29,3.28-.69,4.88-1.21a12.34,12.34,0,0,0,2.48-.83c.5-.16,1-.53,1.54-.1,1.49-.55,3-1.11,4.48-1.64a2.66,2.66,0,0,1,1.1-.27c.53.06,1.24.14,1.51.49s-.37.81-.64,1.18c-2.55,3.56-5.47,6.69-9.68,8.36a10.79,10.79,0,0,0-2.59,1.45c-2.89,2.22-6.13,1.46-9.32,1.25-.54,0-1.09-.18-1.63-.18-2,0-4-.31-5.39-1.87-1-1.12-1.8-1.19-2.74,0-.26.32-.78.41-1,.87h0c-1.18.93-2.35,1.44-3.62.11-.51-.53-.68.12-.74.4-.27,1.17-.91,1-1.63.49-2.43-1.63-5.28-1.78-8-2.29s-2.45-.38-1.34-2.78a31.09,31.09,0,0,1,6.74-8.88c.27-.26.63-.48.61-.93.25-.15.45,0,.65.11.33.32.76.67,1.16.32,1.51-1.33,3.4-1.13,5.18-1.37a2.4,2.4,0,0,1,1.37.31c1.36,1.14,1.42,1.65.47,3.66,1.11-1.47,2.53-2.65,3.58-4.17.36-.42.61-1,1.27-1,3.91-.07,7.6-1.26,11.3-2.35C90.32,93.32,92.23,92.44,94.21,91.74Z"/><path class="cls-39" d="M42.45,98l-.35-.34c-.52-.49-1.73,0-1.77-.9s1.2-.92,1.83-1.37c1.41-1,3.32-1.11,4.63-2.37,3.2.12,6.39.48,9.59.36,1.08.4,2.26-.14,3.34.32h0C61,95.18,62.52,96.39,63,98.36l-11.26,0c-1.32-1.33-2.95-1.23-4.62-1-1.23.14-2.42.77-3.71.37Z"/><path class="cls-10" d="M27.87,113.89c0-.72,0-1.43,0-2.14a1.7,1.7,0,0,1,1-1.74c.29-.15.6-.29.87-.47,3-1.95,3-2,5.57.42a5.16,5.16,0,0,1,.47.46c.56.66,1.87.78,1.87,1.68a25.13,25.13,0,0,1-.67,4.52c-.09.48-.47.65-1,.56a23.15,23.15,0,0,0-7.2,0c-.73.11-.87-.23-.87-.81C27.87,115.54,27.87,114.71,27.87,113.89Z"/><path class="cls-21" d="M91.28,99c1-1.09,2.47-1.16,3.58-2,1.84.71,1.92,2.46,2.3,4a6.83,6.83,0,0,1,0,1.64c-1.41.33-2.6,1.38-4.14,1.31C93.66,101.91,92.73,100.37,91.28,99Z"/><path class="cls-3" d="M63,98.36c-1-1.6-2.62-2.79-3.35-4.61A35.7,35.7,0,0,1,67,93.44c-.17.87-.91.63-1.45.71a14.6,14.6,0,0,0-2.61.17c.68,1,1.46,1.86,2.1,2.79.25.39.88.76.55,1.24-.45.65-1.23.57-1.94.37l-.36-.31Z"/><path class="cls-40" d="M71.31,112.31,75,115c.71.51.56.75-.21,1.05-3.29,1.31-3.52,1.18-3.52-2.27,0-.5,0-1,0-1.49Z"/><path class="cls-41" d="M43.46,97.72c1.25.12,2.31-.57,3.47-.84,1.48-.35,2.82.11,4.21.22.8.06.53.81.65,1.3a2.42,2.42,0,0,0-.06.29c-1.3-.6-2.68-.24-4-.3A15.65,15.65,0,0,1,43.46,97.72Z"/><path class="cls-42" d="M94.21,91.74c-.48,1.23-1.77,1.09-2.69,1.46A52.94,52.94,0,0,1,77.8,96.74c-.35,0-.79.31-.84-.35.39-1.13-.77-1.91-.67-3,.6-.86,1.5-.66,2.34-.66.11.1.19.25.36.22s0-.16,0-.25c1.65-.67,3.43-.25,5.15-.68C87,91.31,90,91,92.93,90.45,93.33,90.9,94,91.13,94.21,91.74Z"/><path class="cls-39" d="M76.29,93.41c.25,1,2.15,1.6.67,3l-1,1a23.14,23.14,0,0,1-4.34.66l-1.32-.33a40.83,40.83,0,0,1-5.63-.35c-.64-1.25-1.87-2.09-2.44-3.5,1.61-.44,3.27.24,4.79-.43a73.66,73.66,0,0,0,7.52-.35A2.6,2.6,0,0,1,76.29,93.41Z"/><path class="cls-3" d="M59.7,93.75c-1.11-.15-2.27.24-3.34-.32C57.48,93.53,58.64,93,59.7,93.75Z"/><path class="cls-43" d="M78.93,92.71c.25.11.71-.16.75.3,0,.16-.32.49-.5.5-.5,0-.53-.39-.55-.77Z"/><path class="cls-44" d="M69.79,75.49c-.83,0-1.66.06-2.48,0a3.7,3.7,0,0,0-3.39,1.21c-.69.78-1.6,1.62-2.61.16a1.28,1.28,0,0,0-1.53-.23c-.93.33-1.91.55-2.81.93a1,1,0,0,1-1.45-.61.88.88,0,0,1,.61-1.3q2.49-.85,5-1.64c.17-.05.52,0,.59.13.95,1.69,1.74.46,2.32-.23,1-1.24,2.4-.76,3.53-.63,1.71.2,3.4.19,5.1.25a9.93,9.93,0,0,1,1.46.22.87.87,0,0,1,.84,1c-.05.69-.5.76-1,.76H69.79Z"/><path class="cls-4" d="M42.2,101c.22,0,.44,0,.66,0,1.73.13,3.3,1.16,3.22,2.27-.12,1.69-1.44,2.13-2.83,2.51a5.39,5.39,0,0,1-3.2-.38c-.88-.29-1.82-1-1.8-1.94a2.55,2.55,0,0,1,1.7-2A4.61,4.61,0,0,1,42.2,101Z"/><path class="cls-2" d="M105.09,50.4c.2-.53-.28-1.38.59-1.34s.38.88.55,1.35a.73.73,0,0,1-.65,1.06C104.76,51.46,105.42,50.67,105.09,50.4Z"/><path class="cls-45" d="M105.83,58.89l-.7-.36c0-.41,0-.83,0-1.64A3.7,3.7,0,0,1,105.83,58.89Z"/><path class="cls-46" d="M101.23,35.32c0,.51-.49,1-1.27,1a1.3,1.3,0,0,1-1.42-1.43,1.28,1.28,0,0,1,1.36-1.48C100.8,33.41,101.2,34,101.23,35.32Z"/><path class="cls-2" d="M97.16,36.68c-1.17-.87-.63-1.93-.34-3A6.47,6.47,0,0,0,97.16,36.68Z"/><path class="cls-46" d="M36.91,33.37a1.28,1.28,0,0,1,1.2,1.4,1.41,1.41,0,0,1-1.41,1.51,1.37,1.37,0,0,1-1.47-1.44A1.43,1.43,0,0,1,36.91,33.37Z"/><path class="cls-47" d="M50,34.29c-.23,0-.49,0-.43-.33A.72.72,0,0,1,50,33.5c.22-.09.42.06.42.33A.41.41,0,0,1,50,34.29Z"/><path class="cls-48" d="M74.79,34.25c-.06-.21-.16-.36-.12-.47s.2-.18.31-.27c.06.12.18.26.16.36S74.94,34.09,74.79,34.25Z"/><path class="cls-46" d="M93.1,33.49c.25,0,.39.11.34.29a.54.54,0,0,1-.28.34c-.2.07-.29-.11-.26-.28A1.17,1.17,0,0,1,93.1,33.49Z"/><path class="cls-10" d="M90.22,138.85a3,3,0,0,1-1.43-4c2-4.17,10.52-7.36,14.08-5.36a3,3,0,0,1,1.75,3.47,6.94,6.94,0,0,1-3.78,4.91C97.38,139.07,93.91,140.06,90.22,138.85Z"/><path class="cls-49" d="M90.22,138.85a41.43,41.43,0,0,0,10.62-1,12.12,12.12,0,0,1-7.85,2C91.93,139.79,90.9,139.86,90.22,138.85Z"/><path class="cls-50" d="M91.28,99c2.45,1.37,2.85,2.51,1.75,5-1.53.64-2.95,1.88-4.8,1-1.47-.85-1.76-2.9-.65-4.61A6.7,6.7,0,0,1,91.28,99Z"/><path class="cls-21" d="M87.58,100.38a5.48,5.48,0,0,0,.65,4.61c-.31.69-1,.64-1.53.66a21.18,21.18,0,0,1-5.92-.8C83.25,103.35,84.86,101.06,87.58,100.38Z"/><path class="cls-12" d="M71.64,98c1.33-1,2.83-.85,4.34-.66-1.06,2-3,3.36-4.48,5.62C71.47,101,73.56,99.55,71.64,98Z"/><path class="cls-51" d="M64.69,97.37c1.93-.71,3.77-.06,5.63.35-.54.57-1.25.33-1.88.31a3.54,3.54,0,0,0-2.71,1c-.87.87-1.5.74-2-.29a3.84,3.84,0,0,1,1.69-.4C65.52,97.7,64.78,97.78,64.69,97.37Z"/></svg>