<?xml version="1.0" encoding="utf-8"?>
<!DOCTYPE svg>
<!-- Generator: Adobe Illustrator 21.1.0, SVG Export Plug-In . SVG Version: 6.00 Build 0)  -->
<svg version="1.1" id="Livello_1" xmlns="http://www.w3.org/2000/svg" xmlns:xlink="http://www.w3.org/1999/xlink" x="0px" y="0px"
	 viewBox="0 0 142.9 201.4" style="enable-background:new 0 0 142.9 201.4;" xml:space="preserve">
<style type="text/css">
	.st0{fill:#FEFEFE;stroke:#C9C8C7;stroke-miterlimit:10;}
	.st1{fill:#E1B7B7;}
	.st2{fill:#774242;}
	.st3{fill:#5E3434;}
	.st4{fill:#C26B6C;}
	.st5{fill:#DFB1B1;}
	.st6{fill:#DDAEAE;}
	.st7{fill:#C26C6C;}
	.st8{fill:#B06262;}
	.st9{fill:#9C5757;}
	.st10{fill:#FEFEFE;}
	.st11{fill:#C16B6B;}
	.st12{fill:#FEFDFD;}
	.st13{fill:#FDFDFD;}
	.st14{fill:#B26363;}
	.st15{fill:#FDFBFB;}
	.st16{fill:#FDFCFC;}
	.st17{fill:#FCF9F9;}
	.st18{fill:#FDFBFC;}
	.st19{fill:#FCFAFA;}
	.st20{fill:#FCFBFB;}
	.st21{fill:#B16262;}
	.st22{fill:#FCF9FA;}
	.st23{fill:#E0B5B5;}
	.st24{fill:#DFB2B2;}
	.st25{fill:#DEAEAE;}
	.st26{fill:#A15A5A;}
	.st27{fill:#E0B3B3;}
	.st28{fill:#BB6969;}
	.st29{fill:#C16B6C;}
	.st30{fill:#8C4D4D;}
	.st31{fill:#8D4E4E;}
	.st32{fill:#AB5F5F;}
	.st33{fill:#814747;}
	.st34{fill:#593131;}
	.st35{fill:#8C4E4E;}
	.st36{fill:#643838;}
	.st37{fill:#653838;}
	.st38{fill:#AA5F5F;}
	.st39{fill:#9D5757;}
	.st40{fill:#844949;}
	.st41{fill:#7F4646;}
	.st42{fill:#AC605F;}
	.st43{fill:#935151;}
	.st44{fill:#E9CBCB;}
	.st45{fill:#E2B9B9;}
	.st46{fill:#E8C8C8;}
	.st47{fill:#DCAAAA;}
	.st48{fill:#764141;}
	.st49{fill:#5F3434;}
	.st50{fill:#8B4D4D;}
</style>
<title>Tavola disegno 6 copia 3</title>
<path class="st0" d="M9.3,192.6c0-0.8-0.1-1.6-0.1-2.4c0-58,0-115.9,0-173.9c0-2.3,1.3-2.8,4.2-2.8h117.1c3.2,0,3.2,0,3.2,3.3
	c0,57.6,0,115.3,0,172.9c0,1-0.1,1.9-0.1,2.9c-0.6,0.5-1.4,0.3-2.1,0.3c-40,0-80,0-120.1,0C10.7,193,10,192.9,9.3,192.6z"/>
<path class="st1" d="M17.6,26.1c0.1-1,0.9-1.7,1.9-1.7c0.1,0,0.1,0,0.2,0h101c0.7,0,1.4-0.2,2.1,0.3c-0.5,0.2-1.1,0.3-1.6,0.2
	c-33.3,0-66.5,0-99.8,0c-0.5,0-1,0.2-1.2,0c34.3,0,68.9,0,103.5,0c0.9,0.3,1.1,1.2,1.2,2c0,0.4,0,0.9,0,1.3c0,32.5,0,65,0,97.5
	c0,4.4,0,8.7,0,13.1c0.1,0.5,0.1,1.1-0.2,1.6c-0.6-0.7-0.7-3.5-0.4-6.5c-0.1,1.5-0.1,3.1-0.1,4.6c0,0.6,0.1,1.2-0.8,1.1
	c-1.3-0.8-2-3.1-1.7-5c0.2-0.8,0.4-1.5,0.7-2.2c0.8-1.8,0.5-3.8-0.6-5.4c-0.8-1-0.9-2.3-0.4-3.4c0.8-1.7,0.6-3.7-0.4-5.2
	c-0.7-1.1-0.9-2.5-0.4-3.8c0.6-1.6,0.5-3.4-0.2-5c-0.6-1.2-0.7-2.7-0.3-4c0.4-1.5,0.1-3.2-0.8-4.4c-0.7-0.9-1.2-2-1.4-3.1
	c-0.4-1.6-1.5-3-3-3.7c-1.7-0.8-2.7-2.8-2.2-4.7c0.2-1.2-0.8-1.9-0.8-3c-0.1-0.6-0.2-1.3-0.2-1.9c0.1-1.6,0.2-3.2,1.6-4.3
	c1-0.1,2.1-0.2,3.1-0.1c1.8,0,3.6-0.8,4.7-2.2c0.8-0.6,1.1-1.7,0.7-2.7c-0.7-2.4-2-4.6-3.8-6.3c-1.6-1.7-3.3-3.3-5.1-4.7
	c-0.7-0.5-1.6-0.9-1.6-1.9c0-0.3,0.1-0.5,0.3-0.8c0.8-1,0.7-1.8-0.7-2.2c-0.6-0.2-0.9-0.8-1.1-1.4c-0.4-1-0.7-2.1-1-3.2
	c-0.3-0.7-0.1-1.5,0.4-2c1-0.9,1.3-2.3,0.9-3.5c-0.9-4.5-0.4-3.8-4.9-4.3c-1-0.1-2.1,0-3.1,0c-1.5-0.3-2.9,0.7-3.1,2.1c0,0,0,0,0,0
	c-0.2,0.7,0.2,0.9,0.7,1c1.3,0.2,1.7,1.1,1.7,2.3c-0.1,1.8,0.2,3.5-0.2,5.3c-0.5,0.6-0.9,0.1-1.2-0.1c-1.6-1-3.3-2-4.9-2.9
	c-0.3-0.2-0.5-0.3-0.8-0.5l-0.6-0.3c-1.2-0.7-2.6-0.7-3.5-2c-0.2-0.8,0.1-1.2,0.9-1.2c0.5,0,1.1,0.1,1.6,0.2c1.5,0.2,3-0.8,3.3-2.3
	c0.2-0.7-0.2-0.8-0.7-0.8c-1.8-0.3-3.7-0.6-5.5-0.9c-0.8-0.1-1.5,0.3-1.9,1c-0.6,0.9-0.9,2-1.9,2.6c-2,0-3.8-0.9-5.8-1.2
	c-0.9-0.3-1.8-0.4-2.6-0.8c-1.3-1.6-3.6-1.9-5.3-0.7c-0.9,0-1.9,0-2.8-0.2c-0.5-0.1-0.9-0.5-1.1-0.9c-0.2-0.1,0.4-0.5-0.2-0.4
	c-3.1,0.3-6.1,0.1-9.2,0.2c-0.6,0-1.1-0.5-1.8-0.3c0.3,0.2,0.8,0,0.9,0.5c0,0.9-0.2,1.8-0.7,2.5c-1.1,0.9-2.5,0.9-3.7,1.5
	c-0.2,0-0.3,0-0.5-0.1c-0.2-0.3-0.3-0.7-0.3-1.1c0-1.6-0.9-2.3-3.2-2.4c-0.8,0-2.4,1.4-2.5,2.3c-0.1,0.7,0.4,0.7,0.8,0.9
	c0.9,0.3,1.6,0.8,1.4,1.9c-0.2,0.3-0.4,0.5-0.7,0.6c-1.2,0.5-2.2,1.5-3.6,1.7c-2-0.1-2.1-0.2-2.2-2.2c-0.1-1.3-0.1-2.5,0-3.8
	c0.1-1.3-0.5-1.9-1.8-1.9c-0.6,0-1.2,0-1.8,0c-0.6,0,0,0.4-0.2,0.5c-0.5,1.8-0.2,3.6-0.3,5.4c-0.1,1.6-0.5,2.1-1.9,2.1
	s-2.2-0.5-2.4-2.1c-0.1-1,0-2,0-3c-0.2-1.4-1.5-2.3-2.8-2.2c-1,0.2-1.8,1-2.1,2c-0.1,0.3,0.1,0.7,0.4,0.8C31,48.8,31,50,31,51.2
	c0,3.2,0,6.4,0,9.6c-0.1,1.1,0.7,2,1.8,2c0.4,0,0.8-0.1,1.1-0.3c0.5-0.2,0.5-0.7,0.5-1.1c-0.1-1.3-0.1-2.7,0-4
	c0.1-1.6,0.8-2.1,2.7-2.1c1.6,0,1.5,1.1,1.5,2.1c0,1.4,0,2.9,0.1,4.3c-0.3,1.2,0.2,2.4,1.3,3c1.9,2.6,4.4,4.6,7.4,5.9
	c0.7,0.2,1.3,0.6,1.9,1c-0.2,2,1.1,3.7,1.2,5.6c0.4,1.2,0.5,2.6,0.3,3.8c-1.3,1.5-1.5,3.6-0.5,5.3c-0.5,1.1-1.6,1.4-2.6,1.9
	c-1.7,0.9-3.5,1.7-5.2,2.5c-0.3,0.2-0.8,0.2-0.9,0.8c0.8,0.5,1.9,0.4,2.8,0.9c1.1,0.5,1.1,1.1,0,1.5c-2.3,1-4.5,2.2-6.8,3.1
	c-1.4,0.6-3,0.1-4.4,0.5c-1.9,0.4-3.6,1.5-4.9,2.9c-0.8,1.1-1.5,2.2-2.1,3.4c-0.2,0.8-0.1,1.7-0.3,2.5c-0.5,1.8,0,3.5,0.3,5.2
	c0.5,2.7,0.9,5.4,1.4,8.2c0.2,1.3,0.4,2.7,0.7,4c0.4,2.3,0.7,4.5,1.2,6.8c0.1,0.7,0.2,1.4,0.9,1.8c4.1,1.4,8.2,2.7,12.4,3.6
	c3.8,0.9,7.6,1.8,11.4,2.7c4.4,1.1,8.9,2.1,13.4,3.1c0.6,0.1,1.2,0.3,1.7,0.5c1.7,1.2,2.9,3,3.4,5c0,1-0.5,1.9-1.2,2.6
	c-7.6,3-15.1,6.2-22.8,9.1c-0.6,0.2-1.1,0.5-1.6,0.8c-6.2,2.7-11.8,6.7-16.3,11.9c-2.4,2.6-4.6,5.5-6.8,8.3c-0.4,0.5-0.8,1-1.4,1.4
	c-0.2,0.1-0.5,0.1-0.7,0.1h-2.6c-0.9,0-1.6-0.3-1.7-1.4c0.2-0.6,0.2-1.2,0.1-1.8c0-50.2,0-100.4,0-150.6
	C17.8,27.3,17.8,26.7,17.6,26.1z"/>
<path class="st2" d="M125.1,141.1c0.3,0.4,0.2,1,0.2,1.4c0,12.3,0,24.5,0,36.8c0,0.5,0.2,1-0.2,1.4c-0.2-0.1-0.3-0.3-0.4-0.5
	c-0.3-4.9,0-9.7-0.1-14.6c0.1-1.3,0.1-2.5-0.1-3.8c-1.7-0.8-3.6-0.4-5.4-0.6c-5.2-0.7-10.6-1-15.8-1.7c-0.3,0-0.7,0-1,0
	c-1.6,0.1-2,0.6-1.3,2c1.9,3.9,3.7,7.8,5.7,11.6c0.3,0.6,0.7,1.3,1,1.9c1.1,2.5,0,5.5-2.5,6.6c-0.1,0-0.1,0-0.2,0.1H58.1
	c-0.8,0.1-1-0.3-0.6-0.9c0.6-0.8,1.2-1.6,1.9-2.2c2.9-2.6,5.6-5.5,8.3-8.4c0.5-0.3,1-0.7,1.4-1.1c3.9-3.9,7.8-7.7,11.6-11.6
	c0.8-1,1.9-1.7,3-2.2c12.1-4.8,24.1-9.7,36.2-14.5c1-0.4,2-0.6,3.1-0.7C123.8,140.1,124.4,140.8,125.1,141.1z"/>
<path class="st3" d="M105.5,181.6c0.1-0.2,0.2-0.4,0.3-0.6c2.7-3.4,2.6-4,0.5-7.8s-4-8-6-12c-0.7-1.4-0.1-2.2,1.4-2.1
	c3.9,0.3,7.8,0.8,11.6,1.1c3.3,0.2,6.6,1,10,0.9c0.6-0.1,1.1,0.2,1.4,0.7c0.2,0.6,0.3,1.3,0.2,2c0.1,5.5-0.1,11,0.1,16.6l0.1,0.4
	c0,0.5-0.4,0.7-0.7,0.9c-0.7,0.2-1.4,0.3-2.1,0.1c-5.1,0-10.1,0-15.2,0C106.6,181.8,106,182,105.5,181.6z"/>
<path class="st4" d="M105.5,181.6h18.9c-0.4,0.6-1,0.3-1.5,0.3c-33.1,0-66.2,0-99.3,0c-0.6,0-1.2,0.3-1.7-0.3l0.4-0.3
	c4-0.4,8.1-0.1,12.1-0.2c4.3,0.1,8.6,0,12.9,0.1c1,0.1,2-0.5,2.2-1.5c2.2-5.7,5.3-11.1,9-15.9c3.2-4.2,6.9-8.1,10.9-11.5
	c0.4-0.3,0.8-0.9,1.4-0.2c-0.8,3.2-1.2,6.4-4.3,8.6c-6.5,4.6-10.4,11.1-12.2,18.8c-0.4,1.5-0.2,1.6,1.4,1.7c0.6,0,1.2-0.1,1.7,0.4
	L105.5,181.6z"/>
<path class="st5" d="M17.6,26.1c0.5,0.5,0.3,1.1,0.3,1.7c0,50.2,0,100.5,0,150.7c0,0.6,0.2,1.2-0.3,1.7c0-0.4,0-0.9,0-1.3
	c0-50.6,0-101.3,0-151.9C17.6,26.7,17.6,26.4,17.6,26.1z"/>
<path class="st6" d="M123.7,24.7v0.3H19.4c0.6-0.3,1.3-0.4,2-0.3h99.3h2.2L123.7,24.7z"/>
<path class="st7" d="M123,139.2v1.1c-5.7,1.4-10.9,4.1-16.3,6.2c-7.4,2.9-14.7,5.9-22.1,8.8c-2.5,1-4,3-5.8,4.8
	c-3.4,3.3-6.7,6.7-10.1,10.1c-0.2,0.2-0.4,0.6-0.8,0.3s-0.1-0.7,0-1.1c2.3-7.4,6-14.2,10.2-20.7c0.8-0.6,1.7-1,2.7-1.1
	c7.7-1.8,15.4-3.9,23.1-5.7c0.8-0.1,1.5-0.5,1.9-1.2c0.9-1.8,2.2-3.4,3.1-5.3s1.9-3.4,2.7-5.3c1.2-2.8,1.4-5.8,0.5-8.7
	c-0.3-0.7-0.3-1.4-0.1-2.1c1.9-2.8,4-5.5,6.1-8.2c0.8-1,1.2-2.2,1.2-3.5c-0.1-1.3,0-2.6,0-4c0-0.3,0.1-1.1-0.7-0.4
	c-0.3,2,0.3,4.1-0.4,6.1c-2.1,2.7-4.1,5.5-6.2,8.2c-0.3,0.4-0.7,0.9-1.3,0.7c-1-0.7-2-1.3-2-2.7c0.8-6,1.5-12,2.4-18
	c0.4-2.5-0.3-4.7-1.2-6.9c-0.3-0.9-1.2-1.1-2-1.3c-1.9-0.2-3.9-0.2-5.4-1.6c-2,0.5-3.9-0.6-5.9-0.5c-0.2,0-0.4-0.1-0.6-0.2
	c-1.8-1.6-4-1.4-6.1-1.3c-6.1,0.2-12.1,0-18.2-0.3c-6.5-0.2-12.9,0.1-19.3,0.9c-0.8,0.1-1.4,0.7-2.2,0.4c-0.9-0.7-2.1-1.3-0.6-2.6
	c0.2-0.2-0.1-0.5-0.2-0.7c-0.5-1.1,0-1.7,1.2-1.7c0.4-0.5,1-0.7,1.6-0.8c6-1.1,12-1.7,18.1-2c3.2-0.1,6.4,0.1,9.6,0.6
	c4.8,0.5,9.7,0.6,14.6,0.6c0.7,0.1,1.5-0.2,1.9-0.8c0.3-0.5,0.8-1,1.3-0.8c1.6,0.6,3.6,0.2,4.9,1.6c0.6,0.6,1.4,0.7,2.1,0.4
	c0.9-0.2,2-0.7,2.7,0.4c0.2,0.7-0.4,0.9-0.8,1.3c-1.1,0.8-1.5,2.3-1,3.5c0.6,1.3,1.4,1.5,2.4,0.5c0.4-0.3,0.6-1,1.3-0.8
	c0.6,1.8,1.2,2.2,3,1.6c0.3,0.5,0.3,1.2,0.9,1.7c0.3,0.3,0.4,0.7,0.3,1.1c-0.7,2.2-0.2,3.4,1.9,4.5c1.7,0.8,2.8,2.4,3.1,4.2
	c0.1,0.9,0.5,1.7,1.1,2.3c1.1,1.6,1.8,3.3,1,5.3c-0.4,1.1-0.3,2.3,0.2,3.3c1,1.8,1,4,0.2,5.9c-0.4,0.9-0.3,2,0.4,2.8
	c1.4,1.8,1.6,4.2,0.5,6.2c-0.4,0.7-0.3,1.6,0.2,2.3c1.5,1.7,1.9,4.1,0.9,6.2C121.9,134.7,121.9,137.1,123,139.2z"/>
<path class="st8" d="M121.4,78.1c-0.8,2-2.7,2.4-4.5,2.6c-1.1,0.1-2.3,0.1-3.4,0c-0.8,0-1.6-0.3-2.2-0.8c-2.5-2.7-5.8-4.2-9.1-5.5
	c-4.5-1.8-9.1-3.2-13.8-4.2c-2.9-0.6-5.9-0.6-8.9-0.9C74,69,68.5,69.1,63.1,69.7c-4,0.3-8,1.2-11.8,2.6c-1,0.4-1.5-0.1-2.2-0.5
	c-3.7-1.5-7.2-3.3-9.3-6.9c-0.4-1.1,0.2-1.6,1.1-1.9c1.6-0.1,2.8-1.4,2.7-3c0,0,0-0.1,0-0.1c-0.6-0.3-0.7-1-0.4-1.6
	c0.1-0.2,0.2-0.3,0.4-0.4c1.4-1.1,3-2.1,4.6-2.9c0.9-0.5,1,0.4,1,1c0.1,1.6,0,3.2,0,4.8c-0.1,1.1,0.7,2.1,1.8,2.2
	c0.5,0,0.9-0.1,1.3-0.3c0.6-0.3,0.6-0.9,0.6-1.4c0-1.9,0-3.9,0-5.8s0.3-2.3,2.3-2.9c1.2-0.3,2.3-0.6,3.5-0.9
	c0.8-0.2,1.5-0.3,2.2,0.3c0.6,1.3,0.2,2.7,0.3,4.1c0.1,2-0.2,4.1,0.2,6.1c0.7,0.7,1.8,0.8,2.6,0.3c0.9-0.3,0.4-1.3,0.5-1.9
	c0-2.4,0-4.8,0-7.1c0-2,0.5-2.5,2.5-2.7c1.3-0.1,2.7-0.1,4,0c1.8,0.1,2.3,0.6,2.4,2.5c0.1,2.4-0.2,4.7,0.2,7.1
	c0.8,1.5,2.5,2.4,4.2,2.1c0.8-0.1,1.5-0.1,2.3,0c0.6,0.1,1.2-0.2,1.4-0.8c0.8-1.6,0.7-1.8-1.1-2c-0.7-0.1-1.4-0.3-2.1-0.5
	c-0.5-0.2-0.9-0.6-1-1.2c-0.2-1.7-0.2-3.5,0-5.2c0-0.6,0.4-1,1-1c0.1,0,0.2,0,0.3,0c2.3,0.3,4.6,0.8,6.9,1.4
	c0.3,0.1,0.6,0.4,0.7,0.7c0.6,1.5,0.3,3.2,0.3,4.8c0.1,3,1,3.9,4,4c0.9,0,1.8,0,2.6,0.1c0.6,0.1,1.2-0.2,1.5-0.8
	c0.3-0.6,0.9-1.2,0.6-1.8s-1.1-0.2-1.7-0.2c-0.9,0-1.9-0.2-2.7-0.6c-1.2-0.8-1.1-2-0.8-3.1s1.5-1,2.4-0.9c2.8,0.4,5.5,1.4,7.8,2.9
	c0.5,0.4,0.8,1.1,0.8,1.7c0.2,3,0.2,3,3.2,2.9c0.1,0,0.2,0,0.3-0.1c1.1-1.6,1.1-1.6,2.7-0.5l0.4,0.3
	C113.7,66.2,119.4,70.5,121.4,78.1z"/>
<path class="st9" d="M112.4,119.3c-0.2,0.4-0.2,1,0,1.4c1.6,4.5,0.4,8.5-1.8,12.4c-0.4,0.8-1,1.6-1.5,2.4c-0.7,1.1-1.8,1.1-2.8,1.3
	c-0.4,0.1-0.9-0.2-1-0.6c0-0.1,0-0.1,0-0.2c0.4-1.6,1.2-3.1,0.7-4.8c-0.3-1.5-1.3-2.7-2.8-3.2c-0.7-0.3-1.4-0.5-2.1-0.5
	c-5.1-0.1-9.5,1.5-12.9,5.5c-1.1,1.2-1.5,2.9-1,4.5c0.2,0.6,0.4,1.2-0.2,1.7c-2.2,0.6-4.4-0.2-6.5-0.6c-10.1-1.5-20.2-2.9-30.3-4.6
	c-3.7-0.6-7.5-0.9-11.1-1.7c-1.1-0.1-2.2-0.1-3.3,0.2c-1.9,0.3-3.8,0.5-5.8,0.5c-0.5,0-0.9-0.4-0.9-0.9c-0.4-2.7-0.9-5.4-1.3-8.1
	c-0.5-1.1,0-1.6,1.1-1.9c1.6-0.5,3.4-0.5,5,0.2c2.9,1.3,5.8,2.3,8.3,4.4c1.9,1.8,4.8,2.2,7.1,1c1.9-1.1,4.2-1.3,6.2-0.5
	c1.5,0.6,3.1,0.4,4.4-0.4c2.4-1.2,5-1.9,7.7-1.9c1.1,0,2.2-0.6,2.7-1.6c0.9-1.6,2.7-2.5,4.5-2.2c2.9,0.2,5.8,0.4,8.8,0.4
	c1.7,0.2,3.4-0.5,4.5-1.9c0.3-0.4,0.7-0.7,1.2-0.9c0.4-0.2,0.9-0.2,1.3-0.2c3.4-0.7,6.9-0.5,10.5-1.5c-0.8-0.9-1.5-0.5-2-0.4
	c-1.6,0.2-3.2,0.6-4.8-0.2c0-1,0.8-1.1,1.5-1.3c3.6-1.5,7.7-1.7,11.5-0.4c0.6,0.4,1.3,0.7,2,1c-0.1,1.2,1.4,1.4,1.7,2.3
	C111.4,118.3,112,118.8,112.4,119.3z"/>
<path class="st7" d="M107.4,114.9c-2.3-0.5-4.6-0.7-7-0.7c-2.2,0.2-4.4,0.9-6.3,2c-1.2,1.3-2.9,0.9-4.3,1.2
	c-6.7,0.5-13.3,0.9-20,1.4c-9.1,0.8-18.3,1-27.3,2.7c-1.1,0.2-2.3,0.1-3.4-0.4c-1.7-0.7-3.5-1.3-5.2-2.1c-1.8-0.8-3.9-0.7-5.5,0.4
	c-0.3,0.2-0.7,0.4-1,0.5l-0.3,0.1c-0.7-2.9-1.2-5.9-1.6-8.8c-0.3-1.6-0.8-3.2,0-4.8c0.1,0.1,0.2,0.1,0.2,0.2
	c0.4,0.6-0.1,1.7,0.6,1.9s1.5-0.6,2.2-1c2.2-1,4.1-2.6,5.7-4.4c0.3-0.5,0.8-1.1,1.5-0.7s0.3,1,0.2,1.5c-0.7,3-0.1,4.6,2.5,6.3
	c2.2,1.5,4.6,2.8,6.8,4.4c1.1,0.8,1.8,0.6,2.3-0.7c0.4-1,1-2,1.5-3c0.3-0.7,0.2-1.2-0.6-1.4c-0.9-0.2-1.7-0.5-2.5-0.7
	c-1.2-0.5-1.3-1-0.3-1.8c1.6-1.1,3.2-2.1,4.9-3.1c0.9-0.4,1.4-1.3,1.2-2.3c-0.3-1.1-0.2-2.2,0.2-3.3c0.1-0.1,0.3-0.3,0.5-0.3
	c3.5-0.3,7-0.3,10.5-0.1c0.2,0,0.3,0.1,0.5,0.1c0.8,0.6,0.3,1.1-0.1,1.5c-0.6,0.8-1.3,1.5-2,2.2c-2.2,1.9-3.4,4.4-4.7,6.9
	c-0.7,1.3-0.6,1.5,0.9,1.8c2.8,0.6,5.7,0.7,8.2,2.3c0.3,0.3,0.7,0.2,1,0c0.1-0.1,0.1-0.1,0.1-0.2c0.2-0.5,0.7-0.8,1.3-0.7
	c0.2,0.1,0.4,0.2,0.5,0.3c1,0.8,2-0.2,3,0c0.4,0.7,0.6,1.6,0.4,2.4c0,1.6,0.1,1.7,1.7,1.3c0.4,0,0.8-0.2,1.1-0.5
	c-0.9-1.3-2.6-1.8-3.3-3.2c1.2-2.3,2.3-2.6,4.2-1c1.1,0.9,2.4,1.5,3.7,1.6c2.6,0.3,5.3,0.4,7.9,0.7c0.7,0.1,1.4-0.1,1.9-0.4
	c3-1.6,6.1-3.1,9-4.9c2.2-1.4,3.6-3.7,5.2-5.7c0.6-0.6,0.2-1-0.6-1c-1,0.1-1.9,0.4-2.8,0.9c-0.9,0.4-1.7,0.9-2.7,0.5
	c-0.3-0.5-0.4-1-0.4-1.6c-0.2-1.5-0.8-2.9-1.9-3.9c-0.2-0.7,0.4-0.8,0.8-0.9c1.3-0.4,1-0.9,0.3-1.7c-0.5-0.5-0.9-1.1-1.3-1.7
	c-0.3-0.5-0.6-1,0-1.4c2.7-1.5,5.4-2.4,8.5-1.3c1.2,0.3,2.4,0.2,3.5-0.4c0.5-0.2,1-0.6,1.6-0.4c1.5,1.9,2.3,4.3,2.1,6.8
	c-0.7,5.6-1.5,11.2-2.2,16.8C108.2,113.8,107.9,114.4,107.4,114.9z"/>
<path class="st2" d="M30.1,132.9c2-0.8,4.2-0.7,6.2-1.1c3-0.6,6,0.4,8.9,0.8c5.7,0.7,11.3,1.6,16.9,2.5c6.1,0.9,12.1,2,18.2,2.8
	c2.3,0.5,4.5,0.7,6.8,0.8c0.3-0.3,0.7-0.3,0.9,0c0,0,0,0,0.1,0.1c2.7,2.7,6,3.1,9.3,2.1c2.8-0.8,5.5-2.1,7.1-4.8
	c0.1-0.3,0.5-0.5,0.8-0.4c0.1,0.6,0.4,0.7,0.9,0.5l2.8-0.9c-0.6,2.2-2.3,3.9-3.3,6c-0.3,0.6-1,0.6-1.6,0.7c-8,2-16,4-24,5.9
	c-0.7,0.1-1.4,0.4-2,0.7c-1.3-0.7-2.8-0.6-4.3-0.9c-0.6-0.1-1.2,0-1.7-0.5c-0.4-2-2-3.1-3-4.7c-1.8-1.1-3.9-1.1-5.8-1.6
	c-3.1-0.7-6.3-1.4-9.5-2C45.9,137.6,37.9,135.5,30.1,132.9z"/>
<path class="st2" d="M70.7,152.1c-1.8,0.7-2.9,2.2-4.2,3.4c-7.2,6.7-12.9,14.9-16.4,24.1c-0.3,1.4-1.6,2.3-3,2
	c-4.1-0.2-8.2-0.1-12.3-0.1c-0.2-0.2-0.4-0.6-0.3-0.9c0.2-1.8,0.3-3.6,0.2-5.4c-0.1-1.8,0.8-3.5,2.4-4.4c3.6-2.5,7.1-5,10.6-7.6
	c0.3-0.2,0.6-0.5,0.9-0.7c0.5-0.4,0.5-0.7-0.1-1.1s-1.9-0.4-1.8-1.7c3.7-1.8,7.5-3.1,11.3-4.6c4.4-1.8,8.9-3.5,13.3-5.3
	C71.6,151.1,71.4,151.6,70.7,152.1z"/>
<path class="st3" d="M50.1,86.4c2.8-1.4,5.8-1.2,8.8-1.4c4.9-0.5,9.9-0.5,14.8-0.2c6.1,0.4,12.2,0.3,18.3,0.2c1.4,0,3-0.1,4,1.4
	c0.1,0.1,0.2,0.2,0.2,0.2c1.7-0.9,3,1.3,4.7,0.5c0.6-0.1,1.2-0.1,1.8,0c0.3,1.2-0.7,1.2-1.3,1.4c-2.8,0.9-5.7,1.8-8.6,2.4
	c-4.5,1-9.1,1.7-13.7,2.1c-0.2,0.1-0.4,0.1-0.5,0.1c-0.9,0.1-1.8,0.3-2.6,0.5c-3-0.2-5.9,0.5-8.9,0.2c-2.4-0.1-4.7-0.1-7.1,0.2
	c-0.2,0-0.4-0.1-0.5-0.1c-1.1-0.2-2.2-0.2-3.3-0.1c-3.1,0.1-6.2,0-9.3-0.4c-1-0.1-1.8-0.7-2.8-0.8s-1.8-0.3-2.7-0.6
	s-0.9-0.8-0.2-1.2c1-0.5,2-1,2.9-1.5C46.2,88.7,48.2,87.6,50.1,86.4z"/>
<path class="st3" d="M112.2,86.7c-0.1,0.5,0.1,1.2-0.9,0.8c-1.1-0.5-2.8-0.3-2.2-2.4c-0.2-1.6-0.9-3.1-1.9-4.4c-1-1.1-2.2-0.4-3.1,0
	c-0.7,0.3-1,0.3-1.5-0.3c-0.7-0.9-1.5-1.7-2.9-1.2c-0.4,0.2-0.9-0.2-1.3-0.5c-0.9-0.6-1.8-0.4-1.9,0.6c-0.2,1.1-1,1-1.5,1
	c-4.5-0.1-9-0.1-13.5-0.4c-3.3-0.2-6.6-0.8-9.9-0.7c-5.8,0.1-11.5,0.6-17.2,1.7c-1.3,0.2-2.6,0.4-3.9,0.7L50,77.2
	c-0.3-3.1-0.2-3.4,2.7-4.2c5.6-1.6,11.4-2.5,17.3-2.6c6-0.3,12.1,0,18,1c6.6,1.2,12.9,3.4,18.8,6.6c0.5,0.3,1,0.6,1.5,1
	c2.1,1.4,3.7,3.1,3.7,5.8L112.2,86.7z"/>
<path class="st3" d="M70.7,152.1l0.7-2.3l1-2.3c1.7-0.2,3.3,0.4,4.9,0.3c0.7,0,1,0.4,1.1,1c-1.4,2.4-2.7,4.9-4.2,7.3
	c-2.3,3.6-3.6,7.5-5.1,11.4c-0.4,0.9-0.7,1.9-1,2.8c-1.9,2.5-4,4.8-6.4,6.9c-1.5,1.4-2.8,2.9-4.1,4.3h-0.2c-4.1,0.1-4.2,0.1-3-3.8
	c2.2-7.6,6.3-13.8,13-18.2c0.8-0.5,1.4-1.3,1.6-2.2C69.4,155.6,70,153.9,70.7,152.1z"/>
<path class="st7" d="M89.2,118.9c-1.2,2.1-3.6,3.3-6.1,3.1c-3-0.2-6-0.4-9.1-0.4c-1.3,0-2.4,0.2-2.9,1.3c-1,2.1-2.9,2.6-4.8,2.6
	c-2,0-4.1,0.5-5.8,1.6c-2.2,1.4-4.3,1-6.4,0.3c-1.2-0.4-2.5-0.3-3.6,0.3c-3.5,2-6.7,1.2-9.4-1.2s-6-3.1-9.1-4.4
	c-1.2-0.5-2.6,0.3-3.8,0.6c-0.5,0.1-0.2,0.8-0.3,1.2c-0.5-1.3-0.7-2.6-0.7-4l0.1-0.1c0.9,0.2,1.8,0.2,2.6-0.2
	c1.2-0.5,2.6-0.5,3.9,0.1c0.6,0.3,1.3,0.4,1.9,0.7c3.6,2.1,7.3,2,11.2,1.3c6-1.2,12.2-1.2,18.3-1.7c7-0.6,14.1-0.9,21.1-1.6
	C87.2,118.4,88.3,118.2,89.2,118.9z"/>
<path class="st9" d="M51.7,98.7c0,1.2,0,2.4,0.3,3.6c0.3,0.8-0.2,1.3-0.9,1.7c-1.9,1.1-3.8,2.3-5.7,3.5c-0.2,0.2-0.4,0.4-0.6,0.6
	c1.5,0.4,2.8,0.8,4.1,1.2c0.8,0.2,1.1,0.4,0.7,1.2c-0.8,1.6-1.6,3.2-2.4,4.7c-0.3,0.6-0.7,0.7-1.2,0.4c-3.1-2-6.3-3.8-9.2-6.1
	c-1.5-1.2-2.6-3.2-1.5-5.4c0.2-0.4,0.3-0.9,0.4-1.4c-0.5-0.4-0.7,0-0.9,0.2c-1.8,3-5,4.3-7.8,6c-0.9,0.5-1.6,0.5-1.5-0.9
	c0-0.6,0-1.1,0-1.7c0.2-0.9-0.3-1.8,0.4-2.6c1.3,0.3,2.5,1.1,4,0.9s2.8-1.1,2.7-2s-1.2-1.7-2.8-2c-0.6-0.1-1.3,0.3-1.9-0.2
	c1.3-1.5,3-2.6,5-3c1-0.3,2.1,0,2.8,0.8c0.7,0.6,1.6,0.8,2.5,0.5c1.4-0.4,2.8-0.6,4.2-1c0.4-0.1,0.9-0.2,1.4-0.1
	c1.9,0.3,3.9,0.4,5.9,0.4C50.3,97.9,51.2,97.8,51.7,98.7z"/>
<path class="st10" d="M44.4,60c-0.3,1.2-1.3,2.1-1.9,3.1c-0.2,0.4-0.7,0.5-1.1,0.3c-0.1-0.1-0.2-0.2-0.3-0.3c-0.9-0.3-2,0-2.6-1
	c-0.8-1.7-0.2-3.5-0.3-5.2c-0.1-0.6,0.2-1.5-0.9-1.2c-0.9,0.2-2.3-0.6-2.3,1.2s0,3.3,0.1,5c0,0.8,0,1.2-1,1.2
	c-3.5,0.1-3.5,0.1-3.5-3.3c0-3.2,0-6.4,0-9.6c0-1-0.3-1.7-1.3-1.9c-0.8-0.2-1-0.5-0.5-1.2c0.1-0.1,0.2-0.3,0.3-0.4
	c1.5-2.4,2.8-2.7,5.3-1.3c0.5,0.3,0.6,0.8,0.6,1.3c0,1.3,0,2.7,0,4c0,1.5,1,1.2,2,1.3s1.4-0.2,1.4-1.3c-0.1-1.5,0-3,0-4.5
	c0-0.6-0.1-1.2,0.7-1.5c0.9-0.4,1.9-0.5,2.9-0.3c0.8,0.1,1.1,0.8,1.1,1.6c0,2.6,0,5.1,0.2,7.7c0,0.6,0,1.2-0.1,1.7
	c-0.4,1.2,0.2,2.3,0,3.5C42.8,59.8,44,59.5,44.4,60z"/>
<path class="st3" d="M46.8,159.7c0.6,0.7,1.4,1.2,2.2,1.4c0.9,0.1,1.3,0.6,0.3,1.4c-2.7,2.1-5.4,4.1-8.2,6c-1.8,1.2-3.6,2.6-5.2,4
	c-0.6,0.7-0.8,1.6-0.7,2.4c0.1,2.3,0,4.5-0.3,6.7H23.5c-0.4,0-0.9,0.1-1.2-0.3c3.5-3.9,6.4-8.2,10.1-11.9
	C36.5,165.3,41.4,162,46.8,159.7z"/>
<path class="st10" d="M100.8,56c0-1.9,0-3.9,0-5.8c0-1.1-0.3-1.7-1.5-1.6s-1.5-0.3-0.9-1.5c1-2,2.1-3,4.5-2.5
	c1.9,0.3,3.8,0.4,5.8,0.4c0.6,0,1.1,0.4,1.2,1c0.5,1.6,0.8,3.2,1,4.8c0.2,0.9-0.2,1.8-1,2.3c-0.2,0.1-0.4,0.2-0.5,0.4
	c-0.5,0.7,1.2,5.4,2,5.8c1.9,0.7,1.9,0.7,0.8,2.4c-0.2,0.3-0.4,0.6-0.6,1c-0.4,1-1.2,0.9-2,0.7c-0.8-0.2-1.5-0.5-2.2-0.8l0,0
	c-0.7-1.1-1.2-2.3-1.7-3.5c0-0.5-0.1-1-0.2-1.5c0.1,0.4,0.1,0.9,0,1.3c0,1.4-0.3,2.8-0.7,4.1c-1.3,0-2.8,0.5-3.7-0.2
	s-0.2-2.4-0.3-3.6c-0.1-0.9-0.6-1.8-0.2-2.8C100.5,56.3,100.6,56.1,100.8,56z"/>
<path class="st11" d="M112.1,84.8c-0.6-2.9-2.6-4.8-5.1-6.2c-6.6-3.6-13.9-6.1-21.4-7.1c-5.7-0.7-11.5-0.9-17.2-0.5
	c-5.2,0.2-10.3,1-15.3,2.4c-2.9,0.9-2.9,0.9-3.1,3.9c-0.5-1.1-0.1-2.5-1.4-3.4c-0.7-0.5,0.9-1.1,0.4-1.9c2.2,0.5,4.1-0.9,6.1-1.2
	c3-0.5,6-1.1,9.1-1.5c3.1-0.4,5.8-0.1,8.7-0.5c2.7-0.2,5.4-0.1,8.1,0.3c3,0.2,6,0.6,9,1.2c3.3,0.8,6.5,1.7,9.7,2.9
	c2.3,0.8,4.6,1.8,6.8,2.9c1.8,1.1,3.6,2,5,3.7c0.6,0.5,1.2,0.9,1.9,1.1C112.5,81.9,112,83.3,112.1,84.8z"/>
<path class="st12" d="M90.9,58.8c1.6,0.6,3.4,0.3,5.1,0.4c-0.3,1.1-0.7,2.2-1.2,3.3c-0.1,0.5-0.6,0.8-1,0.7c0,0-0.1,0-0.1,0
	c-1.3-0.3-2.7-0.4-4.1-0.3c-2.4-0.1-3.5-1.2-3.6-3.5c0-1.8,0-3.6-0.1-5.4c-0.3-0.7-0.5-1.5-0.5-2.3c0.1-1.1-0.3-2.2,0.4-3.2
	c2.2-4.3,2.2-4.3,7-3.4c0.7,0.1,1.4,0.3,2.1,0.4c2,0.2,1.9,0.3,1.1,2c-1,2-2.3,2.5-4.4,2c-0.5-0.1-1.5-0.7-1.5,0.7s0.7,1.7,1.9,1.6
	c0.6-0.1,1.2,0.3,1.8,0.1l0.4,0.4c0.4,0.6,0.5,1.3,0.4,2c0,1-0.4,1.6-1.5,1.4c-0.4-0.1-0.9-0.1-1.3,0c-0.6,0.1-1.6-0.4-1.7,0.5
	s-0.5,1.9,0.3,2.8C90.5,58.8,90.7,58.8,90.9,58.8z"/>
<path class="st10" d="M60.7,62.8l-0.1-10.9c-0.3-0.5-0.5-1-0.4-1.6c0.2-0.5-0.1-1-0.6-1.2c-0.1,0-0.3,0-0.4,0c-0.4,0-0.9,0-1.3-0.1
	c-1.5-0.2-1.7-0.7-0.9-2c0.1-0.8,0.4-1.6,0.7-2.3c0.2-0.2,0.4-0.3,0.7-0.3c3.1,0,6.2-0.1,9.3,0c0.2,0,0.4,0.1,0.6,0.3
	c0.3,0.2,0.8,0.2,1,0.7c-0.2,2.6-0.7,3.3-3.1,3.9c-0.5,0.1-0.9,0.5-1,1.1c-0.4,1.8-0.5,3.6-0.4,5.4c0,2.1,0,4.2,0,6.3
	c0,0.6,0.1,1.2-0.8,1.1C63,63.2,61.8,63.1,60.7,62.8z"/>
<path class="st13" d="M78.6,58.9c1.3,0.3,2.7,0.5,4,0.4c-0.2,1.2-0.5,2.3-1,3.4c0,0.3-0.4,0.6-0.7,0.5c-0.1,0-0.1,0-0.2,0
	c-1-0.3-2.1-0.4-3.1-0.2c-1.7,0.3-3.4-0.5-4.3-2c-0.5-1.3-0.1-2.6-0.2-3.9c-0.1-2.2,0.2-4.5-0.4-6.7c0-0.5-0.2-1-0.5-1.3
	c-1.7-1.5-1.7-1.8,0.1-3.3c0.2-0.8,1-1.3,1.8-1.1c0.1,0,0.1,0,0.2,0.1c0.8,0.3,1.7,0.5,2.5,0.7c0.8,0.1,0.6,0.6,0.4,1.1
	c0.6,1.7,0.7,3.5,0.3,5.3c-0.3,2.1-0.1,4.2-0.2,6.4C77.4,58.9,78.2,58.6,78.6,58.9z"/>
<path class="st10" d="M49,50c-0.1-1.2-0.9-1.5-1.8-1.7s-1.3-0.5-0.6-1.4c0.4-0.5,0.8-1,1.1-1.6c0.3-0.8,1.2-1.1,1.9-0.8
	c0,0,0,0,0.1,0l0.3,0.1c3,0.7,3,0.7,3,3.7c0.6,1.2,0.8,2.7,0.4,4c-0.3,3-0.4,6-0.3,9c0,1.4-0.4,1.8-1.8,1.7c-2.6-0.1-2.7,0-2.6-2.7
	c0.1-2.8-0.3-5.6-0.3-8.4C48.4,51.3,48.6,50.6,49,50z"/>
<path class="st11" d="M107.2,62.5c0.8,0.1,1.6,0.2,2.4,0.5c0.6,0.3,1.4,0.1,1.9-0.3c3.6,2.9,7.3,5.6,9.7,9.8
	c0.8,1.4,1.3,2.9,1.3,4.5c0,0.7-0.2,1.2-1,1.2c-0.8-0.5-1.4-1.4-1.4-2.4c-0.2-1.4-0.8-2.7-1.8-3.7C115.2,68,111.3,65.2,107.2,62.5z"
	/>
<path class="st14" d="M72.3,45.6c0,0.3-0.1,0.7-0.3,0.9c-0.7,0.8-1.3,1.7,0.6,1.8c1,0.1,0.8,0.9,0.8,1.5c0,3.7,0,7.3,0.1,11
	c-0.4,0-0.7-0.1-0.6-0.6c0.4-2.4,0-4.7,0.2-7.1c0.1-1.4-0.4-1.9-1.8-1.9s-3,0-4.5,0c-1.1,0-1.8,0.5-1.7,1.8c0.2,3-0.2,6.1,0.2,9.1
	c0.1,0.6-0.1,1-0.6,0.9c-1.3,0-2.6,0.5-3.8-0.3c4,0.2,4,0.2,4-3.8c0-3.1,0-6.2,0-9.2c0-0.8,0.1-1.4,1-1.2c1.9,0.4,2.7-0.5,3-2.2
	c0.1-0.4,0.3-0.8,0.6-1.1C70.3,45.4,71.4,45.1,72.3,45.6z"/>
<path class="st11" d="M49,50c0,3.8,0.1,7.5,0,11.2c0,1.2,0.3,1.8,1.6,1.7c2.8-0.2,2.4,0.3,2.4-2.4c0-4.1,0-8.2,0-12.2
	c0.1,0,0.2-0.1,0.3-0.1c0.1,0.1,0.2,0.2,0.3,0.4c0.7,2.2,0.7,2.2,3,1.5c0.8-0.2,1.6-0.4,2.4-0.5c0.6-0.1,1.2-0.1,1.5,0.6v1.7
	c-2.3,0-4.4,1-6.6,1.4c-0.8,0.2-0.6,0.9-0.7,1.5c0,2.3,0,4.5,0,6.8c0,1.1-0.2,1.6-1.5,1.5c-3.8-0.1-3.1,0.4-3.2-3.1
	c0-1.6,0-3.2,0-4.9c-1.5,0.9-2.9,1.6-4.2,2.5c-1.6,1.1-1.6,1.1-0.1,2.3c-2.2-0.5-2.6-1.3-2-4.5c2.2-0.3,3.9-1.5,5.6-2.7
	c0.8-0.5,0.2-1.7,0.4-2.5C48.5,50,48.8,50,49,50z"/>
<path class="st8" d="M85.9,48.3v3.3c-2.7,0.1-5.1-0.8-7.7-1.2c-0.5-0.1-0.8-0.5-0.7-1c0,0,0,0,0,0c0-0.9-0.3-1.9,0.1-2.6
	c0.6-0.8,1.6,0.3,2.4,0.1C82,47.1,83.9,48,85.9,48.3z"/>
<path class="st3" d="M27.9,100.4c1.4-0.6,3.1-0.3,4.3,0.7c1.3,0.9,1.2,2.1,0,3.1c-2,1.3-4.6,1.1-6.3-0.5
	C26.3,102.5,27,101.3,27.9,100.4z"/>
<path class="st15" d="M96.9,33.1c1-1.1,2.5-1.6,4-1.2c1.7,0.4,2.6,2.1,2.2,3.8c0,0,0,0,0,0c-0.5,1.6-2.2,2.6-3.9,2.1
	c-0.7-0.2-1.4-0.5-2-0.8c-0.1-0.1-0.3-0.2-0.4-0.4c-0.4-0.9-0.6-1.9-0.4-2.9C96.5,33.5,96.7,33.2,96.9,33.1z"/>
<path class="st15" d="M33.5,34.8c-0.4-1.6,1.3-3,3.1-3.1c1.7,0,3.2,1.3,3.2,3.1c0,1.7-1.3,3.2-3.1,3.2C35,38,33.5,36.7,33.5,34.8
	C33.5,34.9,33.5,34.9,33.5,34.8z"/>
<path class="st11" d="M80,46.9c-0.2,0.1-0.5,0.2-0.6,0.2c-1.8-0.8-1.7,0.2-1.8,1.5s0.6,1.4,1.4,1.5c2.3,0.3,4.6,0.8,6.8,1.5v2.3
	c-1.2-1.2-3-0.7-4.4-1.3c-0.3-0.1-0.5-0.1-0.8-0.1c-3-0.6-3-0.6-3,2.4c0,0.8,0,1.5,0,2.3c-0.1,0.7,0.3,1.4,1,1.6
	c-0.9,0.2-1.4,0-1.3-1.2c0.1-3.8,0.1-7.6,0.1-11.4C78.2,46.3,79.2,46.5,80,46.9z"/>
<path class="st16" d="M49.3,38c-0.5-0.2-1.3,0.4-1.6-0.6c0.3-1.3,0-2.7,0.2-4.1c0-0.5-0.2-1.1,0.2-1.6c0.7,0.6,1.5,0.1,2.2,0.2
	c1.6,0.3,2.2,1.4,1.5,2.8c-0.3,0.6-0.6,1,0,1.6c0.4,0.4,1.2,1.1,0.4,1.5s-1.9,0.5-2.2-0.8C49.2,36.9,49.9,37.9,49.3,38z"/>
<path class="st17" d="M77.2,37.9c-1-0.1-2-0.1-2.6-1.3c0,1-0.4,1.5-1.3,1.3s-0.4-0.9-0.4-1.5c0.1-1,0.1-2,0-3
	c-0.2-1.2,0.1-1.6,1.3-1.5c0.7,0,1.4,0,2.1,0c1.3,0.3,1.2,1.4,1.1,2.2c-0.3,1-0.2,2.1,0.3,3C77.8,37.5,77.7,37.8,77.2,37.9z"/>
<path class="st7" d="M42.5,98c-1.6,0.4-3.2,0.8-4.8,1.2c-0.8,0.2-1.6,0-2.1-0.6c-0.6-0.8-1.7-1.3-2.7-1.3c0.2-0.1,0.4-0.3,0.5-0.3
	c3.4,0.4,6.1-1.3,8.9-2.6c0.8-0.4,1.7-0.8,2.6-1.2l-0.8-0.5c0.9-0.1,1.8,0,2.7,0.3c0.1,0.9-0.7,1-1.2,1.2c-1.5,0.8-3.2,1.2-4.5,2.3
	C41.3,97.3,42.6,97,42.5,98z"/>
<path class="st18" d="M95.5,36.7c-0.1,0.4,0.7,1-0.1,1.1s-2,0.2-2.3-1.2c-0.2,0.8-0.5,1.5-1.4,1.3s-0.5-1-0.5-1.5
	c-0.1-1.2,0-2.3-0.1-3.5c-0.1-0.9,0.3-1.1,1-1.1s1.6,0.1,2.4,0.2c1.5,0.6,1.2,1.9,0.8,2.9C95.1,35.5,95.1,36.2,95.5,36.7z"/>
<path class="st11" d="M90.9,58.8c-0.5,0.1-1,0.2-1-0.6c0-0.7,0-1.3,0-2c-0.1-0.8,0.3-1,1.1-1c3.1-0.1,3.1-0.1,3.3-3.2
	c0.2,0,0.5,0.1,0.6,0.3c0,1.2,0.7,1.7,1.8,2c1.5,0.3,2.9,1,4.2,1.9c0,1.8,0.1,3.6,0,5.4c0,0.9,0.2,1.3,1.2,1.2s1.9,0,2.8,0
	c0.1,0.1,0.1,0.2,0.1,0.2c0,0.1-0.1,0.1-0.1,0.1h-0.3c-1.2,0-2.7,0.3-3.6-0.2c-1-0.7-0.4-2.2-0.4-3.4c0.1-1.6-1.3-1.3-2-1.8
	c-1.9-1.2-4-2-6.2-2.2c-0.7,0-1.7-0.4-1.9,0.4S89.8,58.1,90.9,58.8z"/>
<path class="st15" d="M45.4,37.6c-2.7,1-4.1,0-4-2.8c0-0.7,0-1.4,0-2.1c0-0.5,0-0.9,0.7-0.8c0.5,0.1,0.9,0.2,0.8,1
	c-0.1,0.8-0.1,1.5-0.1,2.3c0,0.5,0.3,1,0.8,1.1c0.6,0.1,0.8-0.5,0.9-1c0.2-0.7,0.2-1.3,0.1-2C44.4,32,45,31.7,46,31.7
	c0.6,1.3-0.1,2.7,0.4,4L46.1,37C46,37.4,45.7,37.5,45.4,37.6z"/>
<path class="st19" d="M58.3,33.5c1.5,0.8,3,1.3,2.2,3.2c-0.6,1.2-2.1,1.7-3.3,1c-0.2-0.1-0.3-0.2-0.4-0.3c-0.3-0.2-0.4-0.6-0.2-0.9
	c0.1-0.3,0.4-0.5,0.8-0.5c0.4,0,0.8,0.5,1.3,0.1c0-0.6-0.6-0.7-1-0.8c-1.1-0.3-1-1.2-1-2c0-0.7,0.6-1.4,1.3-1.5
	c0.8-0.2,1.6-0.1,2.2,0.4c0.5,0.3,0.2,0.8-0.2,1C59.4,33.4,58.8,33.5,58.3,33.5z"/>
<path class="st20" d="M71.4,33.7c-0.2,0.2-0.5,0.2-0.7,0c-0.5-0.4-1.2-0.3-1.6,0.2c-0.5,0.4-0.6,1.1-0.3,1.7
	c0.2,0.6,0.9,0.9,1.5,0.7c0.5-0.1,1-0.4,1.1,0.5c0.1,0.5-0.2,1.1-0.7,1.2c0,0-0.1,0-0.1,0c-1.2,0.3-2.5-0.1-3.2-1.1
	c-0.9-1.2-0.9-2.9,0.2-4c0.8-1,2.2-1.3,3.4-0.8C71.9,32.4,71.2,33.1,71.4,33.7z"/>
<path class="st8" d="M48.4,50.3c0.8,2,0.5,2.8-1.4,3.8c-1.2,0.5-2.4,1.2-3.5,1.9c-0.6,0.5-1,0.3-1.2-0.5l0.1-1.5
	c0.4-1.2,1.6-1.5,2.6-2L48.4,50.3z"/>
<path class="st21" d="M60.7,50.3c-1.2-0.7-2.4,0.2-3.6,0.2c0,0-0.1,0-0.2,0.1c-4,1.4-3.5,0.7-3.5-2.3c1.1-0.7,2.3-1.1,3.6-1.2
	c-0.6,1.6,0.3,1.7,1.5,1.6S61.2,48.1,60.7,50.3z"/>
<path class="st18" d="M78.6,32c0.8,0,1.7-0.1,2.5,0c0.4,0,1-0.5,1.2,0.4c0.2,0.9-0.3,1-1,0.9c-0.2,0-0.4,0-0.6,0.3S81,34,81.3,34
	c0.5,0,0.8,0.1,0.8,0.7s-0.2,0.8-0.8,0.7c-0.4-0.1-0.7,0.1-0.7,0.5s0.3,0.4,0.6,0.4c0.6,0,1.1,0.2,1,0.9c-0.1,1-0.8,0.5-1.2,0.4
	c-0.8-0.2-1.9,0.6-2.4-0.7C77.8,35.4,77.8,33.6,78.6,32z"/>
<path class="st22" d="M63.7,33.5c0.4,0.7,0.9,0.4,1.3,0.5c0.4,0.2,0.6,0.6,0.5,1c0,0.4-0.3,0.5-0.7,0.4s-1,0-1,0.5s0.6,0.3,0.9,0.3
	c1.2,0,0.7,1,0.5,1.2c-0.7,0.7-1.7,0-2.6,0.2c-0.5,0.1-0.6-0.5-0.6-1c0.1-0.8,0.1-1.6,0-2.5c-0.3-1.8,0.1-2.8,2.2-2.5
	c0.6,0.1,1.2-0.1,1.3,0.5s-0.4,1-1,1C64.2,33.4,64,33.5,63.7,33.5z"/>
<path class="st16" d="M109.2,31.7c0.7,0.3,1.5,0.4,2.2,0.3c0.4,0,1-0.3,1,0.5c0,0.7-0.3,0.8-0.9,0.8c-0.2,0-0.5,0.1-0.7,0.2
	c0.4,0.8,1.1,0.4,1.6,0.5c0.4,0.3,0.5,0.8,0.2,1.2c-0.4,0.5-0.5,0.8,0,1.3c0.6,0.7,0.2,1.4-0.8,1.4c-2.9,0.1-3,0.1-2.8-2.8
	C109.1,34,108.4,32.8,109.2,31.7z"/>
<path class="st20" d="M33.1,32c-0.4,0.6-0.6,1.1-0.9,1.5c-0.9,1-1.3,2.3-1.3,3.6c0.1,0.5-0.3,0.8-0.8,0.8s-0.8-0.2-0.6-0.7
	c0.4-1.6-0.6-2.7-1.4-3.9c-0.2-0.4-0.8-0.8-0.3-1.3s1.2-0.2,1.5,0.1c0.6,0.5,1,0.9,1.7,0C31.4,31.7,32.2,32,33.1,32z"/>
<path class="st17" d="M104.5,34.7c0-0.7,0-1.3,0-2s0.1-0.8,0.8-0.8s0.9,0.1,0.8,0.8s0,1.4,0,2.2s0,1.6,1.2,1.5
	c0.5-0.1,0.6,0.2,0.6,0.7s-0.1,0.8-0.6,0.8c-2.2,0.4-2.8-0.1-2.8-2.4C104.5,35.3,104.5,35,104.5,34.7z"/>
<path class="st15" d="M85.1,32c0.5,0,1,0,1.5,0c0.7,0.1,0.9,0.8,0.5,1c-1.6,0.8-1,2.3-1.1,3.5c-0.1,0.5,0.4,1.3-0.6,1.3
	s-0.7-0.7-0.8-1.3c-0.1-1.3,0.3-2.7-1.2-3.6c-0.6-0.3-0.3-1,0.5-1.1c0.4,0,0.9,0,1.3,0L85.1,32z"/>
<path class="st23" d="M109.2,31.7c0,1.7,0,3.4-0.1,5.1c0,0.7,0.1,1.1,0.9,0.9c0.3-0.1,0.7,0.1,1,0c0.5-0.2,1.4,0.8,1.6-0.4
	s-0.6-0.9-1.3-1c-0.2,0-0.4-0.2-0.4-0.4c0-0.3,0.2-0.6,0.5-0.5c1.3,0.3,1.1-0.6,1.1-1.4c0.5-0.6,0.2-1.5,0.6-2.4
	c0.8,1.9,0.9,4,0.3,6c-0.4,1.6-2.6,0.3-3.9,0.8c-0.4,0.1-0.9-0.1-1-0.5c0-0.1,0-0.1,0-0.2c0-0.4,0.5-0.9,0.4-1.3
	c-0.1-1.2,0.3-2.4-0.3-3.5C107.9,31.9,108.8,32,109.2,31.7z"/>
<path class="st24" d="M45.1,52l-2.6,2c0-2.4-0.1-4.8,0-7.3c0.1-1.6-0.4-2.3-2-2c-0.5,0-1.1,0-1.7,0c0,0-0.1-0.1,0-0.2
	c0.9-1.1,2.1-0.4,3.2-0.4c0.6-0.1,1.1,0.3,1.2,0.9c0,0.1,0,0.2,0,0.3c-0.1,1.4,0,2.8,0,4.3S43.2,52.3,45.1,52z"/>
<path class="st24" d="M78.6,32c0,1.7,0,3.3-0.1,5c-0.3,0.2-0.6,0.5-0.7,0.9c-0.2,0.5-0.4,0.4-0.7,0c0.2-0.2,0.2-0.6,0-0.9
	c-0.6-0.8-1.1-1.5-0.3-2.5c0.5-0.7,0.1-1.8-0.6-2.5C77,31.5,78,31.5,78.6,32z"/>
<path class="st25" d="M68.3,44.6H57.7c-0.7-0.9-0.7,0.7-1.3,0.3c-0.2-0.9,0-1.4,1.2-1.2c3.4,0.3,6.9,0.4,10.4,0.2
	c0.5,0,1.3-0.5,1.4,0.2C69.7,45.1,68.4,43.9,68.3,44.6z"/>
<path class="st26" d="M54,139.2c1.6-0.3,3,0.5,4.5,0.7c3.1,0.5,6.2,1.3,9.3,1.9c0.7,0.1,1.2,0.4,1.6,1
	C64.2,141.7,59.1,140.6,54,139.2z"/>
<path class="st14" d="M100.8,56.2c-1.7-0.6-3.4-1.3-5.1-1.8c-1.4-0.4-1.4-1.1-0.8-2.1c2.2,0.9,4.2,2.2,5.9,3.7
	C100.8,56.1,100.8,56.2,100.8,56.2z"/>
<path class="st27" d="M95.5,36.7c-0.7-0.5-1.1-0.8-0.5-1.8c0.6-0.9,0.4-2.1-0.5-2.8c0.7-0.4,1.5-1,1.6,0.5c0,0.2,0.5,0.3,0.8,0.5
	l-0.1,0.6c-0.1,1-0.6,2.1,0.3,3c0,0.1,0,0.2,0.1,0.3c-1.2,0.3-0.9-1-1.5-1.3C95.3,36,96.2,36.5,95.5,36.7z"/>
<path class="st28" d="M93.8,51.6c-1.1,0.5-2.3,0.6-3.4,0.2c-0.9-0.2-0.6-1.2-0.2-1.9L93.8,51.6z"/>
<path class="st29" d="M38.5,62.2c0.9,0.1,1.8,0.5,2.6,1c-0.7,0.3-1.3,0.9-1.3,1.7C38.8,64.3,37.5,63.8,38.5,62.2z"/>
<path class="st1" d="M48.2,31.7c-0.4,1.9,0.3,3.8-0.4,5.7C48,35.5,47.3,33.5,48.2,31.7z"/>
<path class="st1" d="M46.4,35.7c-0.6-1.3,0-2.7-0.4-4C46.9,33,46.2,34.4,46.4,35.7z"/>
<path class="st1" d="M45.4,37.6l0.7-0.7C46.7,38.1,45.7,37.5,45.4,37.6z"/>
<path class="st1" d="M49.3,38c0.2-1.2,0.2-1.2,0.7-1C49.7,37.2,49.8,37.9,49.3,38z"/>
<path class="st30" d="M107.4,114.9c0.5-4,1.1-7.9,1.5-11.9c0.3-3,1.4-6,0.8-9.1c-0.4-1.5-1-3-1.6-4.5c-0.2-0.2-0.5-0.3-0.3-0.7
	c1.6-0.1,2.3,0.6,3,2.1c1.7,3.8,0.6,7.5,0.2,11.2s-1,7.7-1.6,11.6c-0.1,0.7-0.2,1.3-0.3,1.9C108.4,115.8,107.6,116.2,107.4,114.9z"
	/>
<path class="st31" d="M112.4,119.3c-0.8,0-1.5-0.5-1.7-1.3c1.5-1.1,2.3-2.7,3.4-4.1s2.4-3,3.6-4.5c0.3-0.1,0.6-0.4,0.5-0.8
	c0.1-2.1,0-4.1-0.1-6.2c1-0.6,1.7-0.6,1.7,0.8c0,1.8,0,3.6,0,5.4s-1.7,2.9-2.6,4.3C115.8,115.2,114,117.2,112.4,119.3z"/>
<path class="st32" d="M107.8,88.8l0.3,0.7c-1.4,1.2-3.4,1.7-5.2,1.1c-2.2-0.8-4.6-0.5-6.6,0.7c-0.5,0.2-1.1,0.4-1.7,0.4
	c-0.1,0.1-0.3,0.2-0.4,0.1c-0.5-0.4-1.2-0.6-1.2-1.4c2.8-0.8,5.7-1.6,8.5-2.4c0.5-0.2,1.3-0.1,1.4-0.9
	C104.2,88.6,106.1,88.5,107.8,88.8z"/>
<path class="st21" d="M107.2,80.8c1.7,1,2.3,2.2,1.9,4.4c-0.2,0.2-0.4,0.4-0.6,0.6c-0.6,0.8-1.2,1.8-2.5,1.1s-1.3-2.6-1-3.7
	C105.3,81.7,106.4,81.5,107.2,80.8z"/>
<path class="st33" d="M118.1,102.4c0.7,2.3,0.2,4.6,0.2,6.9c0,0.4-0.4,0.3-0.6,0C118.5,107,117.9,104.7,118.1,102.4z"/>
<path class="st34" d="M97.8,82.7h-6.3v-0.2h6.3L97.8,82.7z"/>
<path class="st11" d="M104.8,63.2v-0.4c0.2-1.4-0.4-2.9,0.3-4.3c0.4-0.2,0.5,0.2,0.7,0.4c0.7,1.1,1.2,2.3,1.4,3.6l-1.8-1.1
	C104.9,62,105.5,62.8,104.8,63.2z"/>
<path class="st35" d="M89.2,118.9c-6,0.2-12.1,0.7-18.1,1.3c-1.9,0.2-3.8,0.2-5.8,0.3c-7.6,0.3-15.1,1.1-22.6,2.3
	c-1.3,0.3-2.7,0.1-3.9-0.4c-1.6-0.6-3.2-1.2-4.7-1.9c-1.6-0.9-3.6-0.9-5.1,0.1c-1,0.5-1.4,0.2-1.7-0.7c1.4-1.7,3.7-2.3,5.7-1.8
	c2.5,1,5,2,7.5,3c1.1,0.4,2.2-0.1,3.2-0.2c4.9-0.8,9.8-1.3,14.7-1.6c6.8-0.4,13.7-1.1,20.5-1.6c3.7-0.3,7.3-0.4,11-0.7
	c0.6,0.5,0.8,1.2,0.7,1.9L89.2,118.9z"/>
<path class="st36" d="M105.5,135.9c-1.6,2.9-4.3,4.3-7.2,5.4c-2,0.8-4.3,0.8-6.4,0.1c-1.3-0.3-2.5-0.8-3.6-1.4c-0.5-0.3,0-1.4-1-1.1
	c-1.6-3.7,0-6.4,3-8.5c3.6-2.6,7.5-4.1,12-3.2C106.4,128.1,107.9,132.3,105.5,135.9z"/>
<path class="st37" d="M90.6,118.9c-0.4-0.6-0.6-1.2-0.7-1.9c1.4-0.1,2.9-0.3,4.3-0.7c2,0.1,4.1,0,6.1-0.5c0.6-0.2,1.1-0.3,1.2,0.6
	c0.1,0.6,0.1,1.1-0.8,1.3c-2.5,0.6-5.1,0.4-7.7,0.9C92.2,118.7,91.4,118.8,90.6,118.9z"/>
<path class="st9" d="M94.2,91.7h0.3c0.4,1,1,1.9,1.8,2.6c1.3,1.5,1.3,1.7-0.6,2.3c-0.3,0.1-0.7,0-0.9,0.4c-0.1,1-1.1,0.9-1.7,1.3
	s-1.3,0.6-1.9,0.9c-1.2,0.3-2.4,0.8-3.6,1.4c-2.3,0.8-3.9,2.6-6,4.1c2.3,0.2,4.4,0.9,6.5,0.1c1.8,0.3,3.3-0.7,4.9-1.2
	c0.9-0.2,1.7-0.5,2.5-0.8c0.5-0.2,1-0.5,1.5-0.1c1.5-0.6,3-1.1,4.5-1.6c0.3-0.2,0.7-0.3,1.1-0.3c0.5,0.1,1.2,0.1,1.5,0.5
	s-0.4,0.8-0.6,1.2c-2.6,3.6-5.5,6.7-9.7,8.4c-0.9,0.4-1.8,0.8-2.6,1.4c-2.9,2.2-6.1,1.5-9.3,1.2c-0.5,0-1.1-0.2-1.6-0.2
	c-2,0-4-0.3-5.4-1.9c-1-1.1-1.8-1.2-2.7,0c-0.3,0.3-0.8,0.4-1,0.9l0,0c-1.2,0.9-2.3,1.4-3.6,0.1c-0.5-0.5-0.7,0.1-0.7,0.4
	c-0.3,1.2-0.9,1-1.6,0.5c-2.4-1.6-5.3-1.8-8-2.3s-2.5-0.4-1.3-2.8c1.7-3.3,4-6.4,6.7-8.9c0.3-0.3,0.6-0.5,0.6-0.9
	c0.2-0.2,0.5,0,0.7,0.1c0.3,0.3,0.8,0.7,1.2,0.3c1.5-1.3,3.4-1.1,5.2-1.4c0.5,0,1,0.1,1.4,0.3c1.4,1.1,1.4,1.7,0.5,3.7
	c1.1-1.5,2.5-2.7,3.6-4.2c0.4-0.4,0.6-1,1.3-1c3.9-0.1,7.6-1.3,11.3-2.3C90.3,93.3,92.2,92.4,94.2,91.7z"/>
<path class="st38" d="M42.5,98l-0.3-0.3c-0.5-0.5-1.7,0-1.8-0.9s1.2-0.9,1.8-1.4c1.4-1,3.3-1.1,4.6-2.4c3.2,0.1,6.4,0.5,9.6,0.4
	c1.1,0.4,2.3-0.1,3.3,0.3l0,0c1.3,1.5,2.8,2.7,3.3,4.7H51.7c-1.3-1.3-3-1.2-4.6-1c-1.2,0.1-2.4,0.8-3.7,0.4L42.5,98z"/>
<path class="st9" d="M27.9,113.9c0-0.7,0-1.4,0-2.1c-0.1-0.7,0.3-1.4,1-1.7c0.3-0.2,0.6-0.3,0.9-0.5c3-1.9,3-2,5.6,0.4
	c0.2,0.1,0.3,0.3,0.5,0.5c0.6,0.7,1.9,0.8,1.9,1.7c-0.1,1.5-0.3,3-0.7,4.5c-0.1,0.5-0.5,0.7-1,0.6c-2.4-0.4-4.8-0.4-7.2,0
	c-0.7,0.1-0.9-0.2-0.9-0.8C27.9,115.5,27.9,114.7,27.9,113.9z"/>
<path class="st20" d="M91.3,99c1-1.1,2.5-1.2,3.6-2c1.8,0.7,1.9,2.5,2.3,4c0.1,0.5,0.1,1.1,0,1.6c-1.4,0.3-2.6,1.4-4.1,1.3
	C93.7,101.9,92.7,100.4,91.3,99z"/>
<path class="st2" d="M63,98.4c-1-1.6-2.6-2.8-3.3-4.6c2.4-0.4,4.9-0.5,7.3-0.3c-0.2,0.9-0.9,0.6-1.4,0.7c-0.9,0-1.7,0-2.6,0.2
	c0.7,1,1.5,1.9,2.1,2.8c0.2,0.4,0.9,0.8,0.6,1.2c-0.4,0.7-1.2,0.6-1.9,0.4l-0.4-0.3L63,98.4z"/>
<path class="st39" d="M71.3,112.3L75,115c0.7,0.5,0.6,0.8-0.2,1.1c-3.3,1.3-3.5,1.2-3.5-2.3C71.3,113.3,71.3,112.8,71.3,112.3
	L71.3,112.3z"/>
<path class="st40" d="M43.5,97.7c1.2,0.1,2.3-0.6,3.5-0.8c1.5-0.3,2.8,0.1,4.2,0.2c0.8,0.1,0.5,0.8,0.7,1.3c0,0.1,0,0.2-0.1,0.3
	c-1.3-0.6-2.7-0.2-4-0.3C46.3,98.4,44.8,98.1,43.5,97.7z"/>
<path class="st41" d="M94.2,91.7c-0.5,1.2-1.8,1.1-2.7,1.5c-4.4,1.8-9,3-13.7,3.5c-0.3,0-0.8,0.3-0.8-0.3c0.4-1.1-0.8-1.9-0.7-3
	c0.6-0.9,1.5-0.7,2.3-0.7c0.1,0.1,0.2,0.2,0.4,0.2s0-0.2,0-0.2c1.7-0.7,3.4-0.2,5.2-0.7c2.9-0.7,5.9-1,8.8-1.6
	C93.3,90.9,94,91.1,94.2,91.7z"/>
<path class="st38" d="M76.3,93.4c0.2,1,2.2,1.6,0.7,3l-1,1c-1.4,0.4-2.9,0.6-4.3,0.7l-1.3-0.3c-1.9,0-3.8-0.1-5.6-0.3
	c-0.6-1.2-1.9-2.1-2.4-3.5c1.6-0.4,3.3,0.2,4.8-0.4c2.5,0,5-0.1,7.5-0.3C75.1,93,75.8,93.1,76.3,93.4z"/>
<path class="st2" d="M59.7,93.7c-1.1-0.2-2.3,0.2-3.3-0.3C57.5,93.5,58.6,93,59.7,93.7z"/>
<path class="st42" d="M78.9,92.7c0.2,0.1,0.7-0.2,0.8,0.3c0,0.2-0.3,0.5-0.5,0.5c-0.5,0-0.5-0.4-0.6-0.8L78.9,92.7z"/>
<path class="st43" d="M69.8,75.5c-0.8,0-1.7,0.1-2.5,0c-1.3-0.2-2.5,0.2-3.4,1.2c-0.7,0.8-1.6,1.6-2.6,0.2c-0.4-0.4-1-0.5-1.5-0.2
	c-0.9,0.3-1.9,0.6-2.8,0.9c-0.5,0.3-1.1,0.1-1.4-0.4c0-0.1-0.1-0.1-0.1-0.2c-0.2-0.4-0.1-1,0.3-1.2c0.1,0,0.2-0.1,0.3-0.1
	c1.7-0.6,3.3-1.1,5-1.6c0.2-0.1,0.5,0,0.6,0.1c1,1.7,1.7,0.5,2.3-0.2c1-1.2,2.4-0.8,3.5-0.6c1.7,0.2,3.4,0.2,5.1,0.2
	c0.5,0,1,0.1,1.5,0.2c0.5,0,0.9,0.4,0.8,0.9c0,0,0,0.1,0,0.1c-0.1,0.7-0.5,0.8-1,0.8L69.8,75.5L69.8,75.5z"/>
<path class="st3" d="M42.2,101c0.2,0,0.4,0,0.7,0c1.7,0.1,3.3,1.2,3.2,2.3c-0.1,1.7-1.4,2.1-2.8,2.5c-1.1,0.2-2.2,0.1-3.2-0.4
	c-0.9-0.3-1.8-1-1.8-1.9c0.2-0.9,0.8-1.7,1.7-2C40.6,101.1,41.4,101,42.2,101z"/>
<path class="st1" d="M105.1,50.4c0.2-0.5-0.3-1.4,0.6-1.3s0.4,0.9,0.6,1.3c0.2,0.4,0,0.8-0.3,1c-0.1,0.1-0.2,0.1-0.3,0.1
	C104.8,51.5,105.4,50.7,105.1,50.4z"/>
<path class="st44" d="M105.8,58.9l-0.7-0.4c0-0.4,0-0.8,0-1.6C105.6,57.5,105.8,58.2,105.8,58.9z"/>
<path class="st45" d="M101.2,35.3c0,0.5-0.5,1-1.3,1c-0.7,0.1-1.4-0.5-1.4-1.2c0-0.1,0-0.2,0-0.3c-0.1-0.7,0.4-1.4,1.1-1.5
	c0.1,0,0.2,0,0.3,0C100.8,33.4,101.2,34,101.2,35.3z"/>
<path class="st1" d="M97.2,36.7c-1.2-0.9-0.6-1.9-0.3-3C96.7,34.7,96.8,35.7,97.2,36.7z"/>
<path class="st45" d="M36.9,33.4c0.7,0,1.2,0.6,1.2,1.4c0,0,0,0,0,0c0.1,0.8-0.5,1.5-1.3,1.5c0,0-0.1,0-0.1,0
	c-0.8,0.1-1.4-0.5-1.5-1.3c0-0.1,0-0.1,0-0.2c0-0.8,0.6-1.5,1.4-1.5C36.7,33.3,36.8,33.4,36.9,33.4z"/>
<path class="st46" d="M50,34.3c-0.2,0-0.5,0-0.4-0.3c0.1-0.2,0.2-0.4,0.4-0.5c0.2-0.1,0.4,0.1,0.4,0.3C50.4,34.1,50.3,34.3,50,34.3
	C50,34.3,50,34.3,50,34.3z"/>
<path class="st47" d="M74.8,34.2c-0.1-0.2-0.2-0.4-0.1-0.5s0.2-0.2,0.3-0.3c0.1,0.1,0.2,0.3,0.2,0.4S74.9,34.1,74.8,34.2z"/>
<path class="st45" d="M93.1,33.5c0.2,0,0.4,0.1,0.3,0.3c0,0.1-0.1,0.3-0.3,0.3c-0.2,0.1-0.3-0.1-0.3-0.3
	C92.9,33.7,93,33.6,93.1,33.5z"/>
<path class="st9" d="M90.2,138.8c-1.5-0.7-2.1-2.5-1.4-4c0,0,0,0,0,0c2-4.2,10.5-7.4,14.1-5.4c1.4,0.6,2.1,2,1.8,3.5
	c-0.4,2.1-1.8,4-3.8,4.9C97.4,139.1,93.9,140.1,90.2,138.8z"/>
<path class="st48" d="M90.2,138.8c3.6,0.1,7.1-0.2,10.6-1c-2.3,1.5-5.1,2.3-7.8,2C91.9,139.8,90.9,139.9,90.2,138.8z"/>
<path class="st49" d="M91.3,99c2.4,1.4,2.8,2.5,1.8,5c-1.5,0.6-2.9,1.9-4.8,1c-1.5-0.8-1.8-2.9-0.7-4.6C88.6,99.6,89.9,99.1,91.3,99
	z"/>
<path class="st20" d="M87.6,100.4c-0.5,1.6-0.2,3.2,0.7,4.6c-0.3,0.7-1,0.6-1.5,0.7c-2,0-4-0.3-5.9-0.8
	C83.2,103.3,84.9,101.1,87.6,100.4z"/>
<path class="st11" d="M71.6,98c1.3-1,2.8-0.8,4.3-0.7c-1.1,2-3,3.4-4.5,5.6C71.5,101,73.6,99.5,71.6,98z"/>
<path class="st50" d="M64.7,97.4c1.9-0.7,3.8-0.1,5.6,0.3c-0.5,0.6-1.2,0.3-1.9,0.3c-1-0.1-2,0.3-2.7,1c-0.9,0.9-1.5,0.7-2-0.3
	c0.5-0.3,1.1-0.4,1.7-0.4C65.5,97.7,64.8,97.8,64.7,97.4z"/>
</svg>
