<svg id="Livello_1" data-name="Livello 1" xmlns="http://www.w3.org/2000/svg" viewBox="0 0 142.93 201.38"><defs><style>.cls-1,.cls-21{fill:#fefefe;}.cls-1{stroke:#c9c8c7;stroke-miterlimit:10;}.cls-2{fill:#bbd5ec;}.cls-3{fill:#1b2b3a;}.cls-4{fill:#1a2836;}.cls-5{fill:#6591ba;}.cls-6{fill:#bad5ec;}.cls-7{fill:#88b1d7;}.cls-8{fill:#192834;}.cls-9{fill:#b3cfe9;}.cls-10{fill:#446889;}.cls-11{fill:#86afd5;}.cls-12{fill:#b8d3eb;}.cls-13{fill:#b9d3eb;}.cls-14{fill:#dbe8f5;}.cls-15{fill:#6591bb;}.cls-16{fill:#2b435a;}.cls-17{fill:#182632;}.cls-18{fill:#50799d;}.cls-19{fill:#3c5d7b;}.cls-20{fill:#34526d;}.cls-22{fill:#567fa6;}.cls-23{fill:#b7d2eb;}.cls-24{fill:#24394c;}.cls-25{fill:#517aa0;}.cls-26{fill:#628eb7;}.cls-27{fill:#fafbfc;}.cls-28{fill:#719dc7;}.cls-29{fill:#bad4ec;}.cls-30{fill:#f9fbfc;}.cls-31{fill:#fbfcfc;}.cls-32{fill:#2c445b;}.cls-33{fill:#f5f8fb;}.cls-34{fill:#f3f7fa;}.cls-35{fill:#fbfcfd;}.cls-36{fill:#b2cfe9;}.cls-37{fill:#517a9f;}.cls-38{fill:#527ba1;}.cls-39{fill:#385672;}.cls-40{fill:#f7f9fb;}.cls-41{fill:#f7fafc;}.cls-42{fill:#eef4f9;}.cls-43{fill:#7ba5cd;}.cls-44{fill:#f3f7fb;}.cls-45{fill:#f1f6fa;}.cls-46{fill:#ebf2f9;}.cls-47{fill:#eff5fa;}.cls-48{fill:#f7f9fc;}.cls-49{fill:#e1ecf6;}.cls-50{fill:#f0f5fa;}.cls-51{fill:#e6eff7;}.cls-52{fill:#86b0d6;}.cls-53{fill:#628fb8;}.cls-54{fill:#50789d;}.cls-55{fill:#5f8bb4;}.cls-56{fill:#f9fafc;}.cls-57{fill:#5f8cb5;}.cls-58{fill:#f2f6fa;}.cls-59{fill:#d8e3eb;}.cls-60{fill:#547ea4;}.cls-61{fill:#85aed5;}.cls-62{fill:#739fc8;}.cls-63{fill:#f6f8fa;}.cls-64{fill:#638fb9;}.cls-65{fill:#c0d8ed;}.cls-66{fill:#b7d2ea;}.cls-67{fill:#385874;}.cls-68{fill:#456786;}.cls-69{fill:#b2cee8;}.cls-70{fill:#b9d4eb;}.cls-71{fill:#c6dbef;}.cls-72{fill:#bdd6ec;}.cls-73{fill:#b5d1ea;}.cls-74{fill:#deeaf5;}.cls-75{fill:#fdfdfd;}</style></defs><title>Tavola disegno 6 copia 2</title><path class="cls-1" d="M8.3,189.41c0-.8-.06-1.6-.06-2.4q0-86.94,0-173.88c0-2.3,1.32-2.84,4.18-2.84H129.49c3.2,0,3.2,0,3.2,3.26q0,86.47,0,172.94c0,1-.08,1.91-.12,2.87-.64.49-1.39.27-2.09.27q-60,0-120.06,0A3.8,3.8,0,0,1,8.3,189.41Z"/><path class="cls-2" d="M16.67,165.35c0-5.67-.09-11.34,0-17,0-1.45.54-2.87,0-4.35a1.92,1.92,0,0,1,.22-1.43c1.29-2.19.69-4.21,0-6.49a8.46,8.46,0,0,1,.34-6.52,3.33,3.33,0,0,0-.2-3.81c-.81-1-.62-2.43.5-2.71,1.59-.4,1.11-1.45.86-2.31a16.55,16.55,0,0,1,0-8.19,18.32,18.32,0,0,0,0-7.19c-.29-1.5-1.09-2.89-.24-4.53.39-.75-.51-1.82-.11-2.71a3.94,3.94,0,0,0,.5-2.5c-.21-1.13.22-2.47-1.41-3-.29-.09-.26-.71-.11-1.08.23-.57.65-.16,1-.13,2.13.19,2.64-.2,3.24-2.17.26-.85.11-1-.78-1a2.54,2.54,0,0,1-2-4c.38-.56.65-1.08.22-1.64-1.2-1.58-.93-3.19-.13-4.78a2.57,2.57,0,0,0-.09-2.5c-1-2-.71-2.82.89-4.25,1-.88,1.43-.46,1.81.48.12.3.11.66.24,1a.81.81,0,0,0,1.12.43c.63-.26.35-.67.09-1.06a2.15,2.15,0,0,1-.37-.72c-.28-1.47-1-2.15-2.53-1.47a2.55,2.55,0,0,1-.88,0c.54-1.8,1.86-3.4.75-5.32-.64-1.12-1.63-2.08-1.5-3.54,0-.52-.67-.31-.8-.7-.51-1.06-.14-2.16-.14-3.24,0-10.54,0-21.08,0-31.62,0-1.48.18-2.7,1.51-3.53.52-.48,1.16-.28,1.74-.28H121.72c2.42,0,2.78.36,2.78,2.76q0,76,0,151.91c0,2-.35,2.4-2.41,2.4H102.84c-2.42-1-4.27-2.84-6.34-4.34-3.33-2.41-6.49-5-9.89-7.35a2.82,2.82,0,0,1-.36-.32,8.17,8.17,0,0,1-1.88-4.53c0-.31.34-.66-.1-.94a.78.78,0,0,1-.13-.4c.06-1.49.09-3,.25-4.48a1.84,1.84,0,0,1,.1-.76c.38-1.15,1.35-1.12,2.29-1.16,1.91-.07,3.84.19,5.72-.48,2.89-1,4.24-2.7,4.26-5.73a21.48,21.48,0,0,0-.17-5.23c-.06-1.17-.65-2.32-.19-3.52.55-.64,1.21-.37,1.83-.18a80.55,80.55,0,0,1,10.3,4.06,7.92,7.92,0,0,1,1.75,1.23,10.14,10.14,0,0,0,4.09,2.1c3.11.79,4.2.16,5.2-2.78.85-2.5,1.59-5,2.56-7.49s.74-3.39-1.39-4.8a9.16,9.16,0,0,0-5.87-1.75,2.51,2.51,0,0,0-2.58,1.85c-.8,2.52-1.64,5-2.5,7.52-.35,1-1,1.69-2.11,1.22a71.65,71.65,0,0,0-11.06-3.4,1.06,1.06,0,0,1-.41-.27.77.77,0,0,1,0-.75c.59-.5,1.25-.25,1.9-.19,1.78.18,2,0,2.35-1.69a8.79,8.79,0,0,1,.35-1.44c.16-2.35-.87-4.5-1.13-6.78,0-.22-.09-.43-.12-.65a2,2,0,0,1,1.12-2,9.4,9.4,0,0,0,2.06-1.78,8.46,8.46,0,0,0,2.89-5.61,19.65,19.65,0,0,0-.58-8.82,8.07,8.07,0,0,0-1.16-2.18,3.32,3.32,0,0,0-4.64-1.14c-.56.26-1,.89-1.79.44a1.83,1.83,0,0,1-.06-1.79c.89-.82,2.06-.64,3.12-.84.78-.14,1.6-.16,1.75-1.16a1.77,1.77,0,0,0-1.36-2A16,16,0,0,1,97.84,97,2.17,2.17,0,0,1,97,95.58c-.54-4.12-2.48-7.71-4.27-11.36a28.87,28.87,0,0,0-6.55-6.93,6.91,6.91,0,0,1-2.28-2.11.7.7,0,0,1,.11-.46c.47-.54,1.18-.53,1.78-.76,4-.85,7.92-1.69,11.25-4.15,3.87-2.88,6-6.65,5.71-11.61.49-.51-.26-.77-.25-1.18.48-1.4-.37-2.54-.77-3.76-.22-.68-.56-1.31-.78-2A26.87,26.87,0,0,1,100.8,47c-.07-2.77-.84-3.68-3.54-4.19a13.75,13.75,0,0,1-1.45-.29,2.31,2.31,0,0,0-3,1.23,2.9,2.9,0,0,1-1.21,1.31c-1.84-.08-3.68.35-5.51,0-1.26-3.1-4.14-2.33-6.53-2.71-.7-.11-1.43,0-2.14-.13C76,42,75.56,43,75.07,43.9c-.3.56.12.8.54,1A2,2,0,0,1,76.81,47a22.41,22.41,0,0,1-.15,4.42c-2.24,1-3.71,1.14-5.58.34a5.55,5.55,0,0,1,0-2.47,15.11,15.11,0,0,0-2.14-.05,1.83,1.83,0,0,1-1.95-2c-.07-1.66.33-2,2-1.8,2.21.31,3-.06,3.66-1.59.29-.68.13-1.1-.6-1.16-1.66-.12-3.27-.54-4.93-.61-1.5-.07-3.12,2-3.19,4.19-.09,2.86,0,5.72,0,8.58a5.85,5.85,0,0,1-.22,2.28c-.17.25-.52.46-.62.13-.43-1.38-1.26-1-2.14-.58-.39.18-.82.37-1.23,0a14.9,14.9,0,0,1-.05-2c0-1.62.32-3.3-1.09-4.63-.48-.45,0-1,.3-1.48.85-1.4.34-5.36-1.08-5.83A19.48,19.48,0,0,0,50.32,42c-1.17.08-1.34,1.77-.37,2.56a1.78,1.78,0,0,1,.67,1.58c-.07,2.42,0,4.84,0,7.26a2.33,2.33,0,0,1-1.06,2.26,2.4,2.4,0,0,0-.75.87c-.94,1.53-.71,2,1.08,2.09,2,.13,4,.64,6,.87.91.85,0,1.37-.41,1.91-1.56,1.85-3.5,3.31-5.16,5.08-6.46,6.91-13.09,13.67-19.93,20.21a12.94,12.94,0,0,0-4.37,8c-.05.25-.54,0-.42.28.06.12.44.19.57.44,1,4.12,1.94,8.26,2.8,12.41a9.78,9.78,0,0,1-.32,2.73c-.62,3.68-.54,7.33,1.58,10.59,1.42,2.2,2.83,4.47,5.48,5.49a1.59,1.59,0,0,1,.74.86,76.7,76.7,0,0,1,2.82,10c.4,4.14,1,8.27,1.4,12.41.12,1.12,1,1.36,1.86,1.53A61,61,0,0,1,49,152.91a27.8,27.8,0,0,1,3.9,1.09c.81,1.3-.85,1.18-1.08,1.88a20.43,20.43,0,0,0,4.46,4.73c4.1,3.59,7.7,7.68,11.79,11.26A13.91,13.91,0,0,1,70,173.7c.3.38.92.8.18,1.35-2.73.11-5.29-.8-7.91-1.32-1.61-.32-3.24-.59-4.83-1A3,3,0,0,0,55,173a1.62,1.62,0,0,1-1.45-.62c-4.18-3.82-8.43-7.57-12.52-11.47-3.06-2.92-3-3-7-1.48-4.26,1.65-8.59,3.12-12.85,4.79C19.67,164.47,18.36,165.64,16.67,165.35Z"/><path class="cls-3" d="M21.21,163.81c5.31-2,10.63-4,15.93-6,.93-.36,1.32.2,1.83.67l15.81,14.34c.3.2.69.22,1,.45,1.33,1,2.34,2.27,3.57,3.34.47.61,1.6.73,1.38,1.85-.77,0-1.54.1-2.31.1q-19.47,0-38.94,0c-.75,0-1.56.18-2.2-.43a4.1,4.1,0,0,1,.13-1.93c.71-2.25.9-4.61,1.44-6.9.24-1,.35-2,1.42-2.62S20.55,164.66,21.21,163.81Z"/><path class="cls-4" d="M86.66,166.49a2.38,2.38,0,0,1,.76.23q7.72,5.84,15.42,11.71a75.45,75.45,0,0,1-10.14,0c-1.32-1.21-1.69-3-2.62-4.42-.34-.77-.75-1.5-1.09-2.28a1.51,1.51,0,0,0-.95-1.55C87.61,168.92,86.33,168,86.66,166.49Z"/><path class="cls-5" d="M83,178.39l-3.67,0c-.42-.59,0-1.05.28-1.49a8,8,0,0,0,1.22-4.69c0-2.62,0-5.25-.06-7.88a6,6,0,0,1,.24-2.11,1,1,0,0,1,.34-.43,1.07,1.07,0,0,1,1.06.87c1.34,3.93,2.72,7.85,3.79,11.86a.88.88,0,0,1-.07.48C84.5,175.61,83.71,177,83,178.39Z"/><path class="cls-6" d="M59.16,176.76l-3.7-3.28c.41-1.15,1.33-.69,2-.55,4.46.87,8.9,1.89,13.36,2.78a3.33,3.33,0,0,1,1.63.88c.33.56,1,1,.58,1.81-2.11-.18-4.22.55-6.34,0-1.73-.46-3.53-.55-5.27-.95A6.1,6.1,0,0,1,59.16,176.76Z"/><path class="cls-7" d="M73.07,178.41l-.72-1.58c.69-.64,1.46-.25,2.19-.15,2.69.39,4.22-.83,4.29-3.57.08-3.06,0-6.13,0-9.19a4.05,4.05,0,0,1,.34-2.24,1.57,1.57,0,0,1,2.12.21c0,3.71,0,7.42,0,11.13,0,2.09-1,3.71-2,5.4Z"/><path class="cls-8" d="M21.21,163.81c.36.92-.09,1.84,0,2.76,0,.17-.19.5-.31.51-1.9.19-1.31,1.75-1.67,2.84-.75,2.25-.51,4.72-1.64,6.85-.24.46.23,1-.32,1.35-.66-.41-.62-1.09-.62-1.73,0-3.68,0-7.36,0-11Z"/><path class="cls-9" d="M18.59,21.67c-.06.37,0,1-.18,1.07-1.68.46-1.12,1.8-1.12,2.83q0,17.24,0,34.48c-.7-.18-.55-.8-.53-1.23.4-11.75.06-23.5.15-35.25C16.89,22.35,17.09,21.49,18.59,21.67Z"/><path class="cls-5" d="M90.35,173.8a22.61,22.61,0,0,1,2.35,4.6l-4.36,0a2.58,2.58,0,0,1-1-1.25,1.26,1.26,0,0,1,0-1.14C88.64,175.7,89.09,174.19,90.35,173.8Z"/><path class="cls-10" d="M87.31,176.13l.33,1.13c-1.17.27-2.64-.36-3.4,1.13H83c.4-2.63.85-3.13,2.93-3.22A1.22,1.22,0,0,1,87.31,176.13Z"/><path class="cls-11" d="M59.16,176.76c2.59.28,5.2.46,7.57,1.69h-6Z"/><path class="cls-12" d="M84.24,178.39c.28-1.61.85-2,2.32-1.5l1.08.37c.27.36.7.63.7,1.15Z"/><path class="cls-13" d="M19.76,89.87c-.1.46-.64.57-1.2.58s-.64-.53-.61-1,.07-1.22.82-1.17S19.7,89,19.76,89.87Z"/><path class="cls-14" d="M17.24,76.57c0,.21,0,.47-.31.47s-.3-.26-.3-.47,0-.47.3-.47S17.23,76.36,17.24,76.57Z"/><path class="cls-15" d="M49.13,153.34c-2.51-.54-5-1.07-7.54-1.63-.63-.14-1.3-.23-1.39-1.12-.43-4.18-.89-8.35-1.34-12.53a3.82,3.82,0,0,1,0-.65c.21-.07.46.2.47.18.24-3,1.51-5.74,2.19-8.63.27-1.14,0-1.47-1.09-1.57a14.73,14.73,0,0,0-4.29.14,2.87,2.87,0,0,0-1.33-.89,5,5,0,0,1-1.69-1c-4.18-3.92-5.69-8.81-5.23-14.39.09-1.1,1.09-2,.65-3.26,1.78-.56,3.23-1.87,5.15-2.11,3.14-.4,6-.13,8.26,2.46,1,1,2,2,3,3a6.6,6.6,0,0,0,2,1.49,4,4,0,0,1,2.64,4c.07,2,0,4,0,5.93s.11,1.9,1.87,1.7c.44-.05.88-.1,1.32-.13a1.75,1.75,0,0,0,1.84-1.85c.26-2.84.46-5.68.62-8.53.07-1.27.42-2.15,1.88-2.15,3.92.15,7.79.84,11.7,1.08a2.06,2.06,0,0,1,1.07.42c.84.95.91,2.2,1.26,3.33a4.12,4.12,0,0,0,2.95,3,31,31,0,0,0,6.6,1.33,3.59,3.59,0,0,1,1.43.79c1.69,1.35,3.66.83,5.56.86a1.2,1.2,0,0,1,.69,1.57c-2.2.82-4.47,1.43-6.71,2.14a63.65,63.65,0,0,0-6.44,2.45c-2.66-.64-4.57-2.51-6.64-4.11-.35-.27-.62-.63-1-.9a1,1,0,0,0-1.46.19c-.56.57-.22,1,.26,1.36,2,1.45,3.72,3.28,6,4.37.41.2.78.42.79,1a2.53,2.53,0,0,1-.48,1.21,11,11,0,0,0-1.6,6.93c.05,1.05.34,1.44,1.48,1.33,2.84-.27,5.55-.77,7.87-2.61a2.68,2.68,0,0,1,2.25-.84,4.92,4.92,0,0,0,3.76,1.66,40.59,40.59,0,0,1,6.84,1c1.29.59,1.7,1.94,2.53,2.93.27.32.42,1,1.07.4a14.55,14.55,0,0,1-.28,8.08c-1.08,2.81-3.63,3.51-6.27,3.84a19.44,19.44,0,0,1-4,0,1.53,1.53,0,0,0-1.75,1c-2.74-1.35-5.75-1.47-8.69-1.83-5.21-.63-10.41-1.39-15.61-2.12a12.15,12.15,0,0,1-10.74-12c-.13-3.3-.72-6.56-1-10.09a27.81,27.81,0,0,0-1.87,12.14,30.16,30.16,0,0,0,2.29,10.27A1.35,1.35,0,0,1,49.13,153.34Z"/><path class="cls-16" d="M41.83,108.66c-3.76-3.2-7.81-3.42-12-.62-.5.33-.87.66-1.27,0L25.84,95.1a.2.2,0,0,1-.07-.21q0-.11.07-.11c.06-3.48,1.73-6,4.26-8.35,4.9-4.59,9.51-9.49,14.22-14.28Q49.77,66.62,55.17,61c.38-.39.69-.85,1-1.27a.93.93,0,0,1,.52-.43,4.74,4.74,0,0,0,1.85-1.55c.35-.4.57-1,1.23-.95l.85-.44c2.21-1.13,2.22-1.12,2.72,1.09,1.82,2.42,4.6,1.62,7,2,.91.15,2.18-1.49,2-2.4-.11-.62-.64-.53-1-.55a12.21,12.21,0,0,1-3.45-.33c-.81-.28-1.53-.64-.7-1.63,1.48-.25,2.89-.42,4-1.78a1.58,1.58,0,0,1,2.55.33c.56.79.94.74,1.43,0,.33-.54.7-1.24,1.47-.43.46,1.74.18,3.51.22,5.26,0,1.06.34,1.64,1.53,1.64s1.5-.64,1.49-1.68a25.42,25.42,0,0,1,.07-3.47c.05-.43.12-.94.65-1s.88.39,1.06.84c.53,1.33.83,2.74,1.24,4.11a16.69,16.69,0,0,0,.94,1.46c.16.62-.39.8-.78,1.17a5.66,5.66,0,0,1,2.37-.25c.72,0,1.33.23,1.5,1S86.6,63,86,63.3c-.33.18-.74.17-1,.41,1.2,0,2.8-.75,3.42.86.49,1.28-.87,1.66-1.73,2.07a8.49,8.49,0,0,1,2.19,0,1.32,1.32,0,0,1,1.24,1.14c.1.65-.33,1-.82,1.3a11,11,0,0,1-2,.64A14.27,14.27,0,0,1,91,69.55c.66,0,1.4,0,1.57.89a1.41,1.41,0,0,1-1,1.57A23.54,23.54,0,0,1,86.32,74a2.12,2.12,0,0,0-.92.35c-.45.24-1.15-.05-1.41.63h0a2.53,2.53,0,0,1-2,.52c-4.63,0-9.26,0-13.89,0-1.06,0-2.07.24-3.11.28-4,.15-7.42,2.07-11,3.46-2.11.82-4.2,1.69-6.3,2.55-.64.27-1.19.38-1.13,1.45.07,1.29-1.44,1.26-2.31,1.8.79,0,1.53-.28,2.3-.2s1.48.31,1.64,1.13-.56,1.23-1.25,1.48c-.36.13-.75.17-1.12.27l-.52.2a7.73,7.73,0,0,1,.89-.27c3.28-1.19,6.85-1.3,10.07-2.71a3.53,3.53,0,0,1,1.31-.17A50.86,50.86,0,0,1,66,85.4c.69.09,1.32.27,1.41,1.12s-.45,1.3-1.2,1.54c-1.1.35-2.23.59-3.42.87.69.14,1.35,0,2,.16s1.07.36,1.2,1-.28,1.14-.84,1.46a10.73,10.73,0,0,1-2.07.68c.38.31.87.19,1.26.43a1.47,1.47,0,0,1,.85,1.15A1.26,1.26,0,0,1,64.21,95a15.65,15.65,0,0,1-3.13.82,13,13,0,0,1,2.32.28,1.26,1.26,0,0,1,.94,1.22,1.16,1.16,0,0,1-.8,1.14,14.19,14.19,0,0,1-2.57.72,2.19,2.19,0,0,0,.79.08c.88.11,1.71.4,1.83,1.37S62.76,102,62,102.21a7.63,7.63,0,0,1-2.43.55c.77.18,1.55.08,2.3.28a1.18,1.18,0,0,1,1,1,1.52,1.52,0,0,1-1.07,1.47c-1.71.32-3.27.78-3.44,2.92,0,.23-.37.39-.63.51a11.47,11.47,0,0,1-5.38-.19,19.46,19.46,0,0,0-9-.26A4.93,4.93,0,0,1,41.83,108.66Z"/><path class="cls-15" d="M45.52,87.56c.52-.18,1-.35,1.56-.55s.95-.47.83-1.06-.61-.69-1.15-.74c-1.23-.11-2.46.55-3.92,0a9.69,9.69,0,0,1,2.59-1.2c.62-.26,1.4-.62.62-1.4s-.1-.7.28-.85c5.14-2,10.1-4.36,15.35-6a26,26,0,0,1,2.73-.55c2.46.18,4.86.76,7.28,1.17C77.61,77.43,83,79.9,88.57,82A22.63,22.63,0,0,1,93,83.83c1.61,3.22,3.4,6.36,4.13,9.95.2,1,.1,2.1.84,3a5,5,0,0,0-4,2.54c-.48.21-1,.46-1.45,0-1.21-2.67-1.61-3-4.32-2.7-3.78.41-7.56.79-11.34,1.24a2.84,2.84,0,0,0-2.43,1.46,26,26,0,0,0-5.16,10,.85.85,0,0,1-.49.61c-1.15.39-2.27,0-3.41-.12-2-.15-3.92-.3-5.86-.6-.58-.09-1.22-.08-1.63-.62.63-.73,1.07-1.47-.14-2.26a15.12,15.12,0,0,1,3.54-1.1c.6-.18,1.43-.25,1.29-1.19s-.85-.69-1.45-.74c-.82-.07-1.63-.19-2.77-.32a17.12,17.12,0,0,1,4-1.3c.53-.16,1.17-.3,1.06-1s-.65-.87-1.24-.89a19.71,19.71,0,0,1-2.81-.17c.91-.91,2.14-.83,3.2-1.23.62-.23,1.62-.1,1.55-1.12s-1-.8-1.67-.88l-2.57-.31c1.28-.86,2.55-.86,3.69-1.23.62-.2,1.45-.19,1.33-1.11s-.88-.87-1.55-.91l-1.71-.09c.1-.83.7-.81,1.2-.93s1.19-.26,1.76-.44,1.26-.36,1.12-1.17-.75-.68-1.31-.73c-.91-.08-1.89.22-2.81-.46a21.56,21.56,0,0,1,4-1.17c.63-.21,1.58-.12,1.57-1.13s-1-.8-1.62-.88c-1.8-.22-3.63-.3-5.42-.64-3-.55-5.45,1.08-8.19,1.51-2,.32-4,.79-6,1.19C45.5,88,45.46,87.85,45.52,87.56Z"/><path class="cls-17" d="M57.83,108.62l11.2,1c1.41-.49,2.82,0,4.21.07s2.63.55,3.76.17.88-2.1,1.38-3.16c1.12-2.39,2.31-4.66,5.15-5.41a5.33,5.33,0,0,1,3.1-.11A5.71,5.71,0,0,1,90,103.34c.7.83,1.25.9,2.16.18,2-1.55,4.07-1.29,5.47.49.4.05.56-.29.81-.48a3.68,3.68,0,0,1,5.54.5,10.5,10.5,0,0,1,2.23,5.75,16.81,16.81,0,0,1-1,8.89,5.06,5.06,0,0,1-2.29,2.9,7.23,7.23,0,0,1,0-3.55,15.26,15.26,0,0,0,.64-9.35,8.6,8.6,0,0,0-.47-1.4c-.36-.82-.75-1.74-1.83-1.6s-1.34,1.13-1.31,2.13a4,4,0,0,1,0,.48,2.47,2.47,0,0,1-.41,1.38,3.06,3.06,0,0,1-.3.37c-.45.88-.86,1.22-1.81.36s-2.2-1.27-2.31-2.69c-.82,0-.79.57-.93.94a56.86,56.86,0,0,0-1.58,7.25A11.17,11.17,0,0,1,89.31,122a2.63,2.63,0,0,1-1.74.82c-2.65,1-4.88.16-6.89-1.6-1.65-1-2.22-2.73-2.61-4.41a2.62,2.62,0,0,0-2.7-2.29c-1.79-.16-3.65,0-5.34-.85-2.8-.61-5.68-.57-8.5-1-1.47-.22-3-.29-4.43-.43-3.44.47-6.84-.33-10.26-.42a4.34,4.34,0,0,1-2.37-.51l-2.65-2.65a2.44,2.44,0,0,1,1.92-.78c3.16-.37,6.31-.51,9.38.61C54.68,109.06,56.26,108.5,57.83,108.62Z"/><path class="cls-18" d="M49.13,153.34c-3.69-8.25-4-16.54-.18-24.94.17,1.49.29,3,.53,4.46.54,3.34.36,6.77,1.23,10.08a11.8,11.8,0,0,0,9.94,8.4c5.61.66,11.19,1.56,16.8,2.21,2.08.24,4.09.8,6.17,1,.71.07,1.14.34,1.08,1.12l0,.62c-.27,1.56-.46,3.12-2.15,4a2.89,2.89,0,0,1-2.51.28,4.34,4.34,0,0,0-2.2-.48c-4-.56-7.88-1.59-11.81-2.41-3.72-.78-7.43-1.62-11.13-2.47a2.56,2.56,0,0,1-1.75-.82Z"/><path class="cls-19" d="M75.06,128.53c3.48-2,7.4-2.74,11.11-4.12a8.33,8.33,0,0,1,2.12-.24,3.12,3.12,0,0,1,2.25-.44c1.27,1.07,2,2.59,3,3.84.81,1,1.62,2,3.11,1.79a2.46,2.46,0,0,0,2.48-2.51,3.9,3.9,0,0,1,.3-1.92.33.33,0,0,1,.43-.06c.44,2.52,1.41,5,1.34,7.56a4.22,4.22,0,0,1-1.63.15,3.24,3.24,0,0,0-2.83,1,9.92,9.92,0,0,0-5.92-.41c-1.29.16-2.65.12-3.75,1.19,1.31.05,2.59-.07,3.84.06.51.05,1.44-.24,1.29.88-1.71.67-3.48.25-5.23.33a5.92,5.92,0,0,0-3.7,1.1.66.66,0,0,1-.51.17,8.73,8.73,0,0,0-3.27,1.85c-2.35,1.85-5.22,1.5-7.87,2-.89.17-.88-.56-.94-1.19a12.39,12.39,0,0,1,2.36-9A3.27,3.27,0,0,1,75.06,128.53Z"/><path class="cls-20" d="M85.3,74.21c1.6-1,3.47-1.32,5.13-2.14.44-.22.88-.43,1.31-.66a.79.79,0,0,0,.49-.94c-.12-.5-.54-.48-.93-.49H86.39a7,7,0,0,1,2.25-1.08c.54-.09,1.32-.27,1.19-1.09S89.09,67,88.42,67c-1,0-2.08,0-3.28,0,.53-1,1.65-.43,2.19-1.11.32-.39,1.07-.49.88-1.21s-.8-.68-1.35-.65c-1.08.07-2.16.19-3.49.31a4.53,4.53,0,0,1,2.37-1.39c.55-.19,1-.48.84-1.19s-.6-.57-1.14-.66c-1.22-.2-2.43.6-3.68.11.31-1.06,1.8-.25,1.88-1.42.36-.47.84-.2,1.27-.19a3.59,3.59,0,0,0,1,0c.36-.08.54-.38.73-.65s.16-.24.24-.36c.62-.74,1.07-1.38-.36-1.76-1.1-.29-1.26-1.36-1.59-2.26a18.3,18.3,0,0,0-.61-2.06,2.29,2.29,0,0,1,.57-3,2.71,2.71,0,0,0,.67-2.45c0-.75-.28-1.55.43-2.16,1.84-.11,3.68-.62,5.52,0,.09,1.64-.2,3.27-.19,4.91,0,.66-.45,1-1,1.44-1.22.91-1.21,1.69,0,2.53a2.12,2.12,0,0,1,1,1.79c0,.82,0,1.65,0,2.47,0,.65-.36,1.53.87,1.53.93,0,1.77,0,1.88-1.28.08-1,.28-2.07.34-3.11,0-.88.47-1.46,1.43-1.46a1.55,1.55,0,0,1,1.72,1.43,11.9,11.9,0,0,1,.07,2.3,2.05,2.05,0,0,0,1.61,2.18,1.77,1.77,0,0,0,2.42-.68,1.58,1.58,0,0,1,1.15-.86c.67,1,.36,2.1.16,3.12a13.79,13.79,0,0,1-7.24,9.88A28.61,28.61,0,0,1,85.7,74.3Q85.44,74.51,85.3,74.21Z"/><path class="cls-7" d="M70.37,174.79a65.54,65.54,0,0,0-5.79-5.62Q58,162.85,51.51,156.53c-.25-.24-1.23-.52-.06-.89,3.48.12,6.8,1.19,10.2,1.81,4.81.87,9.57,2,14.37,3a2.68,2.68,0,0,1,1.89.88,5.61,5.61,0,0,1,.3,2.43c.08,2.63-.12,5.26.22,7.88.46,3.56-1.39,5.15-4.9,4.33-.54-.13-1.07-.25-1.6-.4S70.77,175.28,70.37,174.79Z"/><path class="cls-17" d="M83,136.75c.39-1.53,1.74-1.51,2.86-1.59,2.17-.14,4.35-.08,6.52-.1a2.13,2.13,0,0,1,1.5-.4c1.25-.06,2.39.05,2.48,1.69a45.6,45.6,0,0,1,10.91,3.24c1.45.65,1.85.24,2.24-1.08.73-2.47,1.62-4.9,2.45-7.34.39-.05.6.22.8.48a9,9,0,0,0,8.37,3.68c1.17-.09,1.18,0,1.38.77-1,3.24-2,6.49-3.09,9.72a2.06,2.06,0,0,1-2,1.25,9.2,9.2,0,0,1-7.2-2.29,12.86,12.86,0,0,0-3.5-2.09,59.4,59.4,0,0,0-10.11-3.6c-1,.12-1.91,1.42-3,.22a3.28,3.28,0,0,0-1.93-.84c-2.21-.45-4.46-.71-6.68-1.07A3.08,3.08,0,0,1,83,136.75Z"/><path class="cls-21" d="M56.77,59.73l-.57,0c-2.55.13-5-.85-7.54-.75-1,0-1.5-.52-.9-1.47s.6-2.29,2-2.59c.45-.09.32-.64.33-1,0-2.75,0-5.5.12-8.25,0-.86-.52-.87-1-1-1.1-.24-1.11-.71-.55-1.58,1.41-2.18,1.4-2.26,3.92-1.56a15.37,15.37,0,0,0,4.27.25,1.81,1.81,0,0,1,1.81,1.1A17.6,17.6,0,0,1,60,47.34c.2.81-.48,1.15-.89,1.64-.22.26-.82.62-.34.9,2.11,1.21,1.14,3.19,1.34,4.87-.15,1.68-1.55,2.62-2.38,3.89C57.46,59,57,59.3,56.77,59.73Z"/><path class="cls-21" d="M102.93,58.1c-.09.14-.16.28-.26.42-1.56,2.23-1.54,2.15-4.22,1.3a1.56,1.56,0,0,1-1.29-1.89c.06-.76,0-1.54,0-2.3s-.09-1.41-1.2-1.45-1.1.55-1.11,1.31A15.47,15.47,0,0,1,94.73,58c-.12.71.43,1.8-.42,2.06a8.9,8.9,0,0,1-3.12.05c-.58,0-.34-.58-.34-.92,0-1,0-2,0-3s.34-2.08-1.41-2.12c-.85,0-.39-1.11-.34-1.66s-.36-1.56.7-1.52,1-.58,1.09-1.34c.08-1.56-.39-3.2.65-4.63.05-.1.1-.2.16-.29,2.35-3.66,1.56-3,5.3-2.32s4.23,1.52,4.24,5.32c0,1.32,0,2.64.07,4a7.16,7.16,0,0,1,.39,2.54,4.63,4.63,0,0,0,.85,3C102.83,57.4,103.22,57.62,102.93,58.1Z"/><path class="cls-21" d="M86,44.92c0,.87,0,1.74.09,2.6.07,1.07,0,2.06-1.16,2.58-.65.29-.75.68-.44,1.42a20.77,20.77,0,0,1,.84,3.13c0,1,.14,1.85,1.3,2.27s.51,1.39.33,2.15h0c-1.26-.52-.35.67-.69.87A2,2,0,0,1,85,60c-.7-.63-1.3-1.45-2.43-1.22l-1.69-5.24a13.55,13.55,0,0,0-.42,5c0,1.16-.22,1.78-1.53,1.55a5.2,5.2,0,0,0-1.49,0c-.91.11-1.11-.3-1.09-1.13,0-2.14,0-4.29,0-6.43a.51.51,0,0,1,0-.71c0-1.65,0-3.3,0-5,0-1-.3-1.57-1.34-1.63-.37,0-.82.05-.94-.46-.2-.85,2.09-3.14,3-3a50.05,50.05,0,0,0,5.91.46c1.59,0,2.53.39,2.74,2A2.76,2.76,0,0,0,86,44.92Z"/><path class="cls-22" d="M90.6,123.84a3.49,3.49,0,0,1-2.31.33,1.78,1.78,0,0,0-.72-1.35,10.49,10.49,0,0,0,4.75-7.38,59.41,59.41,0,0,1,1.6-7.37c.18-.54.31-1.22.88-1.26s.85.71.91,1.19a1.69,1.69,0,0,0,1.37,1.47c.69.19.89.76,1.29,1.2.45-.23,0-1.23.89-1,.13.1.29.24.28.39-.23,2.45,1.41,4.2,2.36,6.19a15.65,15.65,0,0,1,1.34,2l-.32,3.31a5.07,5.07,0,0,1-2.16,1.92,1.3,1.3,0,0,0-.87,1.39l-.24-.05a4.37,4.37,0,0,0-2.21-.54c-.53,0-1.23.1-1.44-.52s.63-.68.85-1.27a5.69,5.69,0,0,0-3.33.25A19.15,19.15,0,0,1,90.6,123.84Z"/><path class="cls-21" d="M67.36,54.72c-.44.63-.35,1,.5,1.05,1.37.09,2.74.24,4.11.32,1,.06,1.49.34.88,1.4a6.4,6.4,0,0,0-.66,1.5c-.25.94-.82,1.16-1.72,1.06-1.59-.17-3.18-.27-4.78-.35-1.44-.08-1.86-1.16-2.32-2.21,0-3.69.1-7.38,0-11.06-.06-2,1.41-3.15,2.2-4.68.24-.46.93-.24,1.41-.18,1.75.2,3.46.6,5.23.67,1.53.06,1.72.51.91,1.8-1.52,2.43-1.51,2.4-4.32,1.89-.43-.08-1.36-.74-1.36.39,0,.88-.7,2.22,1,2.47,1,.14,2.33-.54,2.89.4.43.73.06,1.93,0,2.92-.06.78-.69.56-1.1.56C67.94,52.71,67.94,52.69,67.36,54.72Z"/><path class="cls-21" d="M33.86,46.83c.29,2.14-.4,4.63-.33,7.16,0,1,.26,1.54,1.39,1.45a9,9,0,0,1,1.45.26c3,.29,3.05.35,1.82,3.19-.31.71-.77,1-1.41.79A16.09,16.09,0,0,0,33,59.38c-2.22-.07-3.38-1.27-3.45-3.54-.09-2.86.49-5.69.32-8.55-.07-1.19.1-2.39-1.61-2.52-.49,0-.65-.42-.39-.85a8.8,8.8,0,0,1,1.53-2.32c1.3-1.09,2.59.25,3.91.36.85.07.5,1,.53,1.51C33.89,44.45,33.86,45.44,33.86,46.83Z"/><path class="cls-21" d="M109.89,49.6c0,1.65.08,3.31,0,5-.09,1.42.55,1.88,1.84,1.86.66,0,1.33.13,2,.07,1.62-.15,1.51.7,1.16,1.8-.48,1.51-1.14,2.53-3.06,2.13-1.17-.24-2.41-.1-3.61-.34a2.76,2.76,0,0,1-2.37-2.81q.07-4.87.09-9.75c0-.87.05-1.77-1.22-1.88a.72.72,0,0,1-.71-.77c0-1.13,2.12-2.87,3.28-2.68,2.66.44,2.66.44,2.66,3.09Q109.89,47.45,109.89,49.6Z"/><path class="cls-18" d="M93,83.83a15.17,15.17,0,0,1-4.59-1.43c-4.2-1.58-8.32-3.44-12.66-4.6-3.48-.93-7.07-1.49-10.61-2.22a3.56,3.56,0,0,1-.72-.33c6.52-.6,13.06-.18,19.6-.32,1.09.92,2.13,1.89,3.27,2.75A32.12,32.12,0,0,1,93,83.83Z"/><path class="cls-21" d="M41.51,52.12c0-1.87-.12-3.75,0-5.61.09-1-.21-1.44-1.08-1.63-1.22-.27-1.69-.79-.72-1.87.56-.63.69-1.88,1.76-1.75a24.71,24.71,0,0,1,4,1c.3.09.25.42.22.71-.49,5-.08,10.1-.21,15.15,0,1-.16,1.81-1.42,1.54-1-.22-2.74.6-2.6-1.64.12-2,0-4,0-5.94Z"/><path class="cls-23" d="M77.71,161.28c-6.2-1.14-12.33-2.63-18.52-3.79-2.58-.48-5.31-.66-7.75-1.85l1.66-1.29,23.26,5c.53.12,1.08.16,1.62.23a1.19,1.19,0,0,1,.21,1.51A.37.37,0,0,1,77.71,161.28Z"/><path class="cls-19" d="M36.16,127.54c.06-.57.44-.68.93-.67a34,34,0,0,1,4.42.24c.86.14.81.49.66,1.07q-1.28,4.73-2.58,9.46c0,.16,0,.55-.28.43s-.28-.42-.42-.65Z"/><path class="cls-16" d="M93.93,99.06c.8-2.12,2-2.81,4-2.32,1.15.36,2.28.75,3.44,1.06,1.32.35,1.45,1.33,1.36,2.42s-.7,1.56-1.87,1.53a24.44,24.44,0,0,0-3.26.31C95.65,102.68,93.94,101.29,93.93,99.06Z"/><path class="cls-24" d="M122.51,136.11c-.08-.64-.51-.37-.87-.34a10.18,10.18,0,0,1-7.34-1.88,10.44,10.44,0,0,1-2.34-2.71c.39-1.66,1.67-2.1,3.12-2.1a10,10,0,0,1,6.93,2.68C123.52,133.12,123.56,133.91,122.51,136.11Z"/><path class="cls-25" d="M93.93,99.06c.63,1.73,1.6,3.05,3.7,3q0,1,0,2c-2.4-1.64-3.79-1.57-5.93.47-.63.6-.87.47-1.36-.13-1-1.18-1.92-2.41-3.58-2.68-.14-.6.39-.66.68-.64a7.28,7.28,0,0,0,5.17-1.63A2.27,2.27,0,0,1,93.93,99.06Z"/><path class="cls-26" d="M88.43,170.15c.73.21.77.79.79,1.4-.71,1.55-2.48,1.94-3.11.52a43,43,0,0,1-3.5-10.78,1.22,1.22,0,0,1,.16-.64c.68-.87,1.18-.69,1.56.26h0a.69.69,0,0,1,.28.69c.49,1.64.7,3.4,2.08,4.64-.55.43-.19.87,0,1.28a3.81,3.81,0,0,1,.7,1.77C87.35,170.16,88,170,88.43,170.15Z"/><path class="cls-27" d="M104.27,31.93a3,3,0,0,1-6-.1,2.88,2.88,0,0,1,3-2.87A2.77,2.77,0,0,1,104.27,31.93Z"/><path class="cls-27" d="M40.86,32c0,2-.91,2.75-3.19,2.78A2.73,2.73,0,0,1,35,32.32c0-2.18,1.08-3.38,3.12-3.36C39.87,29,40.86,30.11,40.86,32Z"/><path class="cls-28" d="M70.37,174.79c.47.05,1-.13,1.35.33-.38.22-.83.4-.67,1-4.17-.55-8.22-1.72-12.35-2.45-1-.18-2.12-1-3.25-.19a1.1,1.1,0,0,1-.68-.67c.34-.55.6-.93,1.48-.73,4.26.94,8.54,1.75,12.82,2.6A12.76,12.76,0,0,0,70.37,174.79Z"/><path class="cls-29" d="M67.36,54.72c-.47-2.13.15-2.88,2.19-2.56a2.7,2.7,0,0,0,1.86,0c.48-.32.8-1.14,1.59-.22.33.39,1.32.7,1.7,0,.6-1.14,1.08-.51,1.64-.07q0,.35,0,.71c-.68,0-.59.69-.89,1a13.06,13.06,0,0,0-.86,1.2c-.67-.12-.79-.72-1.07-1.14-.76-1.16-1.88-1.35-2.48-.2C70.17,55.08,68.86,55,67.36,54.72Z"/><path class="cls-27" d="M94.06,33.15a4.81,4.81,0,0,1-.11.62c-.11.34.29,1-.54.89a.77.77,0,0,1-.78-.86c0-1.31,0-2.62,0-3.94,0-.16,0-.44.09-.46a4.91,4.91,0,0,1,3,.05,1.24,1.24,0,0,1,.64,1.9c-.72,1-.73,1.7.22,2.45.26.21.46.58.19.86s-.79.24-1.2,0C95,34.31,94.93,33.39,94.06,33.15Z"/><path class="cls-30" d="M53.81,34.34c-1.71.76-2-.72-2.73-1.24-.43.38-.25.79-.28,1.15s-.35.42-.69.43-.64,0-.63-.5c0-1.49,0-3,0-4.46,0-.15.07-.43.14-.44a6.55,6.55,0,0,1,3,.19,1.2,1.2,0,0,1,.67,1.78C52.26,32.47,52.78,33.36,53.81,34.34Z"/><path class="cls-31" d="M78.54,34.35c-1.66,1.16-1.69-.88-2.58-1.18-.38.11-.24.43-.26.67,0,.43-.17.74-.69.72s-.63-.36-.63-.78c0-1.1,0-2.19,0-3.29,0-.47-.12-1.14.57-1.16,1,0,2-.41,2.85.34.44.4.84,1.1.36,1.62C77,32.51,77.64,33.44,78.54,34.35Z"/><path class="cls-32" d="M96.63,133.48c.65-1.47,2.21-1.82,4.6-1-.58,1.17.08,3-1.06,3.58s-2.56-.08-3.87-.19A1.93,1.93,0,0,1,96.63,133.48Z"/><path class="cls-30" d="M47.47,31.36c0,.5,0,1,0,1.49-.09,1.4-.9,1.79-2.23,1.79s-2.27-.42-2.39-1.85a26.2,26.2,0,0,1,0-2.81c0-.35-.12-.88.48-.85a.81.81,0,0,1,.83.85c0,.72,0,1.43,0,2.15s0,1.21.93,1.24,1-.64,1-1.29a17.27,17.27,0,0,0,0-1.82c0-.66.24-1.16.9-1.12s.39.67.43,1.07S47.47,31,47.47,31.36Z"/><path class="cls-33" d="M64.83,32.89a7.12,7.12,0,0,1,1.57.65.72.72,0,0,1,0,1.25c-.85.57-2.9-.56-2.95-1.6,0-.49,0-1,0-1.49,0-2.53,0-2.53,2.52-2.47.31,0,.7-.2.76.32a.59.59,0,0,1-.53.7c-.44.09-1.18-.16-1.17.55s.67.42,1.09.47.55.14.58.46a.63.63,0,0,1-.39.67C65.95,32.57,65.58,32.65,64.83,32.89Z"/><path class="cls-30" d="M110.56,31.78q0-.25,0-.49a2.07,2.07,0,0,1,2.93-2.18.47.47,0,0,1,.35.48.59.59,0,0,1-.54.69c-.39.07-1-.13-1,.54s.55.4.89.51.54.22.55.53-.35.54-.67.57-1,0-1,.56c0,.42.54.43.93.46s.88.23.83.81c-.07.81-.67.35-1,.35C110.22,34.58,110.59,34.92,110.56,31.78Z"/><path class="cls-30" d="M59.48,30.48c.53.77,1.25.82,1.74,1.2a1.38,1.38,0,0,1,.68,1.54c-.23.69-.61,1.36-1.46,1.36s-1.57.31-2.17-.41a.63.63,0,0,1,0-.77c.25-.39.53-.22.83,0,.49.32,1,.32,1.21-.29s-.35-.72-.8-.8a1.47,1.47,0,0,1-1.29-2c.29-1.11,1.18-1.34,2.21-1.25.47,0,.92.16,1,.71s-.53.54-.95.59C60.18,30.31,60,30.37,59.48,30.48Z"/><path class="cls-27" d="M80.32,31.69c0-.16,0-.33,0-.49,0-.64-.15-1.78,0-1.84a8.66,8.66,0,0,1,2.55-.2.53.53,0,0,1,.57.63c0,.48-.31.47-.66.5s-1-.19-1,.46.6.48,1,.55a.58.58,0,0,1,.53.7c0,.44-.28.49-.67.47s-.87,0-.8.55c0,.33.47.44.81.38.72-.13.94.38.86.86s-.62.44-1.08.41C80.32,34.57,80.32,34.59,80.32,31.69Z"/><path class="cls-30" d="M71.62,30.3c-1.11-.06-1.83.31-1.88,1.43s.44,1.62,1.59,1.58c.52,0,1.4-.33,1.31.69s-.91.54-1.46.61a2.37,2.37,0,0,1-2.65-1.51,2.78,2.78,0,0,1,.34-2.94A2.58,2.58,0,0,1,71.58,29c.54.11,1.16.28,1.08,1C72.56,30.92,71.93,30.27,71.62,30.3Z"/><path class="cls-34" d="M105.93,31.76c0-.6,0-1.21,0-1.81a.84.84,0,0,1,.85-.85c.57-.05.73.39.75.87s0,1,0,1.48c0,.84-.24,1.75,1.1,2,.65.1.8.83.2,1.25a2.64,2.64,0,0,1-2.24.13c-.59-.16-.67-.81-.68-1.38s0-1.1,0-1.65Z"/><path class="cls-27" d="M29.15,29.46a.58.58,0,0,1,.73-.17c1.07.8,2.09,1.23,3.17,0,.07-.07.47,0,.59.15s0,.51-.16.71a4.54,4.54,0,0,0-1.29,3.61c.05.54-.25.81-.77.87-.82.09-.51-.55-.53-.9C30.75,32,30.77,32,29.15,29.46Z"/><path class="cls-35" d="M86,32.49c-.22-.84.51-2.06-1-2.35-.28-.05-.3-.43-.22-.71s.31-.21.53-.21q1.31,0,2.63,0c.63,0,.91.64.6.77-2.07.88-.84,2.62-1.17,3.94-.08.32.17.86-.51.76-.49-.07-1-.1-.92-.85C85.94,33.37,86,32.93,86,32.49Z"/><path class="cls-36" d="M84.33,160.91c-.36-.43-.74-.75-1.3-.3a1.32,1.32,0,0,1-1.7,1.28h0a5.16,5.16,0,0,1-2-.31l-.19-.17c-.39-.9-.47-1.57.88-1.2a3.53,3.53,0,0,0,4.12-2.56c.16-.45.07-1,.51-1.36a.56.56,0,0,1,.26.69c-.34.82-.83,1.57-.13,2.51C85.15,160,84.32,160.37,84.33,160.91Z"/><path class="cls-37" d="M94,139.39c.43,0,.91.45,1.27-.23s.88-.41,1.34-.06l.34,3.6L96.85,144c-1.46-1.24-2.1-2.9-3.22-4.19A.41.41,0,0,1,94,139.39Z"/><path class="cls-38" d="M96.63,133.48l-.34,2.35.07.53a2.05,2.05,0,0,0-2.46-1.28c0-1.23-.21-2.14-1.78-1.87a1.09,1.09,0,0,1-1.16-.45c1.77-.7,3.55-.1,5.32,0C96.78,132.72,96.53,133.22,96.63,133.48Z"/><path class="cls-39" d="M102.57,57.14a1.43,1.43,0,0,1-1.35-1.79c.14-1.25.08-2.52.11-3.77A12.49,12.49,0,0,1,103.08,56C103.19,56.41,103.54,57.09,102.57,57.14Z"/><path class="cls-33" d="M98.31,85c.32,0,.5,0,.51,0,.35.95,2.18-.7,2,1s-1.19,2.37-3,2.42c-.26,0-.61.07-.69-.26s.23-.56.55-.66a4,4,0,0,0,1.09-.32C100,86.35,98.77,85.8,98.31,85Z"/><path class="cls-40" d="M21.86,83.76a7.5,7.5,0,0,1,.59-1.19c.65-.88,1.38-.77,1.81.27a6.15,6.15,0,0,1,.32,1.43c.06.4.38.93-.24,1.12-.46.14-.61-.34-.81-.66C22.9,83.76,22.9,83.77,21.86,83.76Z"/><path class="cls-41" d="M30.87,84.12c-.29.48-.28,1.3-1,1.15s-1.67-.41-1.64-1.5a.86.86,0,0,1,1.13-.85C30.07,83,30.76,83.27,30.87,84.12Z"/><path class="cls-30" d="M28.54,75.23c0,.79-.18,1.37-1,1.3-1-.09-.85-1-1-1.61s.15-1.14.83-1.1C28.29,73.88,28.47,74.62,28.54,75.23Z"/><path class="cls-42" d="M56.77,59.73c-.19-.38-.22-.73.18-1s.72-.32.78-.56c.4-1.42,2.06-2,2.36-3.42a4.69,4.69,0,0,1-.3,2.09C58.91,57.93,58.16,59.16,56.77,59.73Z"/><path class="cls-43" d="M88.43,170.15c-.62.22-1.2.48-1.4-.55a16.38,16.38,0,0,0-.79-2.48c-.18-.49-.25-.86.45-.88a.6.6,0,0,1,0,.26Z"/><path class="cls-44" d="M23,77.59a9.22,9.22,0,0,1,1.35,1.94c.15.4-.51.67-1,.58-1-.2-.86-1.14-1-1.82C22.28,77.91,22.63,77.75,23,77.59Z"/><path class="cls-45" d="M24.77,77.38c.32.76,2,.22,1.55,1.61a.9.9,0,0,1-.41.4A3.6,3.6,0,0,1,24.77,77.38Z"/><path class="cls-40" d="M23.89,75.39c0,.29,0,.7-.32.68-.82,0-.59-.77-.74-1.25s0-.81.33-.74C23.82,74.21,23.65,75,23.89,75.39Z"/><path class="cls-46" d="M104.62,92.66c-.46-.07-.52-.49-.62-.83a.49.49,0,0,1,.48-.67c.45,0,.72.17.72.65S105.1,92.55,104.62,92.66Z"/><path class="cls-47" d="M27.56,69c.38,0,.67.16.59.59a.7.7,0,0,1-.75.52c-.31,0-.73-.1-.69-.53S27.15,69,27.56,69Z"/><path class="cls-34" d="M25.84,94.78a.48.48,0,0,1,0,.32c-.37.16-.69.89-1.16.15a.72.72,0,0,1,0-.9C25.34,93.79,25.5,94.53,25.84,94.78Z"/><path class="cls-48" d="M31.14,72.87a1.14,1.14,0,0,1,0-1.49C31.71,71.91,31.72,72.34,31.14,72.87Z"/><path class="cls-49" d="M104.91,86.76c-.14.09-.27.25-.36.23a.42.42,0,0,1-.25-.3c0-.23.13-.41.37-.33S104.82,86.59,104.91,86.76Z"/><path class="cls-18" d="M85.3,74.21l.4.1-1.7.63C84.07,74.05,84.81,74.34,85.3,74.21Z"/><path class="cls-50" d="M25.14,89.31c.14.18.29.29.3.41s-.15.2-.24.29c-.09-.1-.24-.19-.26-.31S25,89.48,25.14,89.31Z"/><path class="cls-36" d="M84.61,161.6l-.28-.69c.22,0,.49-.3.62.08S84.85,161.47,84.61,161.6Z"/><path class="cls-51" d="M19.82,85.05c0,.24-.11.37-.27.31A.49.49,0,0,1,19.3,85c0-.16.05-.32.24-.26S19.75,85,19.82,85.05Z"/><path class="cls-52" d="M81.33,161.89a2.88,2.88,0,0,0,1.7-1.28,5.7,5.7,0,0,0,.39,2.74c.85,2.49,1.67,5,2.53,7.47.72,2.09,1.67,2.3,3.27.73l1.14,2.25c-.85,1-1.33,2.46-3,2.34l-1.36-1Q84,169,82,162.76A1.3,1.3,0,0,0,81.33,161.89Z"/><path class="cls-53" d="M71.05,176.12c-.14-.57-.24-1.12.67-1,.76.13,1.52.22,2.27.39,2.85.65,4.32-.46,4-3.38-.43-3.63-.15-7.25-.25-10.87l.25-.05c.69-.75,1-.22,1.36.36h0q0,5.62,0,11.23c0,3.5-1.64,4.9-5.06,4.32l-1.95-.3Z"/><path class="cls-16" d="M44.48,111.32a98.5,98.5,0,0,1,12.63.93c-1-.06-1.29.35-1.34,1.35-.15,3.29-.44,6.57-.63,9.86,0,.72-.23,1.13-1,1.18s-1.53.19-2.29.27c-2.73.3-2.73.3-2.73-2.51,0-1.82,0-3.63,0-5.45,0-2.25-.58-3-2.7-3.71C45.47,112.92,45.14,111.95,44.48,111.32Z"/><path class="cls-18" d="M38.16,122.18c-.84-1.89-1.65-3.67-2.43-5.46-.59-1.35-1-2.65-3.08-1.85-1.09.43-2-.92-1.52-2.1,1.09-2.78,5.71-3.9,8-1.94a4.68,4.68,0,0,1,.36.35c.91.95,2.36,1.78,2.6,2.88s-1.34,2.1-2.11,3.13a6.68,6.68,0,0,0-.81,2.79A4.54,4.54,0,0,1,38.16,122.18Z"/><path class="cls-54" d="M70,113.67c2.42,0,4.8.47,7.2.62.55,0,.74.31.82.81a15.38,15.38,0,0,0,2.63,6.13c-2.94.24-5.61-.75-8.27-1.79-.82-.32-1.07-1.11-1.33-1.81A13,13,0,0,1,70,113.67Z"/><path class="cls-55" d="M75.06,128.53l-2,2c-2.73-1.21-4.81-3.33-7.16-5.08-.47-.35-1.18-.82-.41-1.41s1.24-1.85,2.28-.72c1.58,1.73,3.64,2.78,5.42,4.23A13.47,13.47,0,0,0,75.06,128.53Z"/><path class="cls-56" d="M94,139.39l-.37.4c-3-.4-5.95-.85-8.93-1.18-1.17-.13-1.8-.61-1.92-1.76a.24.24,0,0,0,.22-.1,91.6,91.6,0,0,1,10,1.41A1.07,1.07,0,0,1,94,139.39Z"/><path class="cls-57" d="M91.63,144.76c0-.65-.1-1.39.92-1.36.78,0,1.69-.28,1.82,1,.11,1.07.43,2.12.56,3.19a1.38,1.38,0,0,1-1.31,1.72c-1,.12-1.27-.48-1.36-1.38A27.72,27.72,0,0,1,91.63,144.76Z"/><path class="cls-58" d="M82.56,58.78l.69-.72c.28.92,2,.55,1.74,1.94l-1.34-.21C83.13,59.62,82.55,59.51,82.56,58.78Z"/><path class="cls-59" d="M30.33,92.12c.14.12.33.2.34.31a.45.45,0,0,1-.21.37c-.21.1-.45,0-.43-.25C30.05,92.41,30.21,92.29,30.33,92.12Z"/><path class="cls-60" d="M45.52,87.56l.33.31a1,1,0,0,1-1.06.24C44.81,87.63,45.22,87.65,45.52,87.56Z"/><path class="cls-54" d="M83.59,101.68c-3.34,1.15-4.59,3.93-5.28,7-.33,1.47-.67,2.07-2.42,1.73-2.25-.44-4.59-.39-6.87-.8a1.9,1.9,0,0,1,0-2c1.15-2.25,2.3-4.51,3.4-6.79A2.89,2.89,0,0,1,74,99.39c2.29,1.92,5.16.93,7.71,1.52C82.38,101.06,83.32,100.59,83.59,101.68Z"/><path class="cls-16" d="M83.59,101.68a32.4,32.4,0,0,0-7.14-.6A2.12,2.12,0,0,1,74,99.39a1.91,1.91,0,0,1,1.89-1.94c4.32-.49,8.64-1,13-1.36,2.78-.23,3.55.55,3.75,3.31a3.6,3.6,0,0,1-4,2c-.6-.07-1.3-.28-1.85.24A4.89,4.89,0,0,0,83.59,101.68Z"/><path class="cls-61" d="M90.4,111.87c0,3-.43,5.21-1.83,7.1-1.72,2.33-4.32,2.33-6.09,0-2.49-3.24-2.5-9.53,0-12.76,1.79-2.33,4.29-2.37,6.09,0A9.28,9.28,0,0,1,90.4,111.87Z"/><path class="cls-35" d="M101.63,116.55a21.92,21.92,0,0,0-1.23-2.13,5.93,5.93,0,0,1-1.14-4.78l0,0a1,1,0,0,0,.38-1.37.43.43,0,0,1,0-.25c.14-.3.09-.64.21-1a1.25,1.25,0,0,1,1.18-1,1.22,1.22,0,0,1,1.12.84,12.47,12.47,0,0,1,1.06,5.9,11,11,0,0,1-.29,2.6C102.78,116.06,102.75,117,101.63,116.55Z"/><path class="cls-61" d="M101.63,116.55c.75.1.81-.52.87-1,.32-2.62.54-5.25-.47-7.8-.22-.55-.27-1.34-1-1.4s-.81.77-1.12,1.26c-.09.14-.19.27-.28.4a2.2,2.2,0,0,1,1.4-2.93c1.37-.51,2,.71,2.38,1.73a14.75,14.75,0,0,1-.2,11.4C102.31,118.06,102.25,117,101.63,116.55Z"/><path class="cls-61" d="M99.66,108.3c.34.59.58,1.14-.38,1.37C99.68,109.29,99.55,108.77,99.66,108.3Z"/><path class="cls-62" d="M79.32,161.59c-.41-.27-.78-.71-1.36-.36q0-.8,0-1.6a2.33,2.33,0,0,1,2,.58C78.79,160.16,79.42,161.06,79.32,161.59Z"/><path class="cls-16" d="M90.6,123.84a8.12,8.12,0,0,1,5.77-1.93c.53,0,1.25-.16,1.4.52s-.62.63-1,.88l-.93.57c1.22,0,2,0,2.79,0s1,.29,1,1a18,18,0,0,0,0,1.81,2.53,2.53,0,0,1-1.82,2.94c-1.32.43-2.57.55-3.61-.66A22.21,22.21,0,0,1,90.6,123.84Z"/><path class="cls-63" d="M91,132.75a15.73,15.73,0,0,0,2.12,0c1.43-.18,1.73.38,1.19,1.6-.11.25-.24.48-.37.72H92.39c-2.11-.48-4.27,0-6.54-.32A6,6,0,0,1,91,132.75Z"/><path class="cls-58" d="M87,59.08c.08-1,.06-1.85-1.27-2.28-.85-.28-.7-1.34-.36-2.15.37,1.1.89,2,2.25,2.08.88,0,.78.55.37,1.09S87.33,58.66,87,59.08Z"/><path class="cls-58" d="M86.31,59.95c-1.42-.61.08-1.16,0-1.74.56,0,.18.77.65.87A1.25,1.25,0,0,1,86.31,59.95Z"/><path class="cls-64" d="M73.05,171.85l-5.43-1c-.52-.1-.79-.28-.64-.89s.46-.83,1.07-.69c1.71.39,3.43.76,5.14,1.16.48.12,1.25,0,1.11.87S73.44,171.71,73.05,171.85Z"/><path class="cls-65" d="M54.1,53.49c.31-.44-.44-1.59.54-1.46a2.18,2.18,0,0,1,1.8,2.4c0,.8-.06,1.4-1.12,1.34C53.67,55.66,54.28,54.42,54.1,53.49Z"/><path class="cls-66" d="M54.14,47.36c0-.72,0-1.53.83-1.56s.71.82.78,1.34a1.11,1.11,0,0,1-1,1.25C53.95,48.46,54.22,47.74,54.14,47.36Z"/><path class="cls-67" d="M94.94,46c1,.15,2,.39,2.17,1.11a9.08,9.08,0,0,1,0,3.57c-.1.58-1,.25-1.48.3s-.71-.36-.69-.85c0-.22,0-.44,0-.66C94.94,48.39,94.94,47.26,94.94,46Z"/><path class="cls-68" d="M82,46.83c.78,1.52-.35,2-1.36,2.62a2.16,2.16,0,0,1,0-2C81,47.09,81.2,46.31,82,46.83Z"/><path class="cls-69" d="M82,46.83c-.56,0-.86.48-1.33.65.14-.53-.33-1.31.42-1.55S81.8,46.41,82,46.83Z"/><path class="cls-17" d="M116.28,130.49a5.17,5.17,0,0,1,4.25,1.72c.53.54.86,1,.53,1.71a1.55,1.55,0,0,1-1.71.72,8.39,8.39,0,0,1-3.7-1.33c-.73-.53-1.71-1.12-1.37-2.23S115.71,130.72,116.28,130.49Z"/><path class="cls-70" d="M101.08,30.25c1.39.11,1.91.7,1.82,1.75s-.63,1.59-1.58,1.51a1.64,1.64,0,0,1-1.62-1.88C99.79,30.72,100.37,30.15,101.08,30.25Z"/><path class="cls-70" d="M37.95,30.28A1.58,1.58,0,0,1,39.62,32,1.46,1.46,0,0,1,38,33.51,1.39,1.39,0,0,1,36.49,32C36.49,31,36.92,30.34,37.95,30.28Z"/><path class="cls-71" d="M94.48,30.12c.31.18.69.38.64.83a.65.65,0,0,1-.73.52c-.57,0-.43-.52-.43-.88S94.07,30,94.48,30.12Z"/><path class="cls-72" d="M51.26,30.1c.35.16.71.35.64.81s-.23.65-.64.63-.47-.39-.46-.72S50.74,30.13,51.26,30.1Z"/><path class="cls-73" d="M76.65,30.92a.56.56,0,0,1-.58.54c-.37,0-.34-.34-.34-.6s.13-.54.45-.54S76.67,30.51,76.65,30.92Z"/><path class="cls-74" d="M82.34,110.31c-.18-.1-.53-.23-.52-.29.36-1.8.88-3.54,2.45-4.69a1.73,1.73,0,0,1,2.49.52,8.81,8.81,0,0,1,1.91,7.82C87.88,110.08,85,110.34,82.34,110.31Z"/><path class="cls-75" d="M82.34,110.31a6.58,6.58,0,0,1,5.1.19c1.22.52,1.29,1.92,1.23,3.17l0,.62a1.45,1.45,0,0,1-1.76,1.46c-1.32-.15-2.75.6-4-.48.22-.8,1-1.26,1.19-2.12C84.53,111.36,84.3,110.88,82.34,110.31Z"/><path class="cls-74" d="M82.92,115.26c1.53,0,3.05,0,4.58,0,.77,0,.73-.71,1.14-1a7.39,7.39,0,0,1-1.87,4.46c-1,1.2-1.85,1-2.83.23a6.12,6.12,0,0,1-1.81-2.9C81.82,115.32,82.38,115.26,82.92,115.26Z"/></svg>