<?xml version="1.0" encoding="utf-8"?>
<!-- Generator: Adobe Illustrator 21.1.0, SVG Export Plug-In . SVG Version: 6.00 Build 0)  -->
<svg version="1.1" id="Livello_1" xmlns="http://www.w3.org/2000/svg" xmlns:xlink="http://www.w3.org/1999/xlink" x="0px" y="0px"
	 viewBox="0 0 142.9 201.4" style="enable-background:new 0 0 142.9 201.4;" xml:space="preserve">
<style type="text/css">
	.st0{fill:#FEFEFE;stroke:#C9C8C7;stroke-miterlimit:10;}
	.st1{fill:#BBD5EC;}
	.st2{fill:#1B2B3A;}
	.st3{fill:#1A2836;}
	.st4{fill:#6591BA;}
	.st5{fill:#BAD5EC;}
	.st6{fill:#88B1D7;}
	.st7{fill:#192834;}
	.st8{fill:#B3CFE9;}
	.st9{fill:#446889;}
	.st10{fill:#86AFD5;}
	.st11{fill:#B8D3EB;}
	.st12{fill:#B9D3EB;}
	.st13{fill:#DBE8F5;}
	.st14{fill:#6591BB;}
	.st15{fill:#2B435A;}
	.st16{fill:#182632;}
	.st17{fill:#50799D;}
	.st18{fill:#3C5D7B;}
	.st19{fill:#34526D;}
	.st20{fill:#FEFEFE;}
	.st21{fill:#567FA6;}
	.st22{fill:#B7D2EB;}
	.st23{fill:#24394C;}
	.st24{fill:#517AA0;}
	.st25{fill:#628EB7;}
	.st26{fill:#FAFBFC;}
	.st27{fill:#719DC7;}
	.st28{fill:#BAD4EC;}
	.st29{fill:#F9FBFC;}
	.st30{fill:#FBFCFC;}
	.st31{fill:#2C445B;}
	.st32{fill:#F5F8FB;}
	.st33{fill:#F3F7FA;}
	.st34{fill:#FBFCFD;}
	.st35{fill:#B2CFE9;}
	.st36{fill:#517A9F;}
	.st37{fill:#527BA1;}
	.st38{fill:#385672;}
	.st39{fill:#F7F9FB;}
	.st40{fill:#F7FAFC;}
	.st41{fill:#EEF4F9;}
	.st42{fill:#7BA5CD;}
	.st43{fill:#F3F7FB;}
	.st44{fill:#F1F6FA;}
	.st45{fill:#EBF2F9;}
	.st46{fill:#EFF5FA;}
	.st47{fill:#F7F9FC;}
	.st48{fill:#E1ECF6;}
	.st49{fill:#F0F5FA;}
	.st50{fill:#E6EFF7;}
	.st51{fill:#86B0D6;}
	.st52{fill:#628FB8;}
	.st53{fill:#50789D;}
	.st54{fill:#5F8BB4;}
	.st55{fill:#F9FAFC;}
	.st56{fill:#5F8CB5;}
	.st57{fill:#F2F6FA;}
	.st58{fill:#D8E3EB;}
	.st59{fill:#547EA4;}
	.st60{fill:#85AED5;}
	.st61{fill:#739FC8;}
	.st62{fill:#F6F8FA;}
	.st63{fill:#638FB9;}
	.st64{fill:#C0D8ED;}
	.st65{fill:#B7D2EA;}
	.st66{fill:#385874;}
	.st67{fill:#456786;}
	.st68{fill:#B2CEE8;}
	.st69{fill:#B9D4EB;}
	.st70{fill:#C6DBEF;}
	.st71{fill:#BDD6EC;}
	.st72{fill:#B5D1EA;}
	.st73{fill:#DEEAF5;}
	.st74{fill:#FDFDFD;}
</style>
<title>Tavola disegno 6 copia 2</title>
<path class="st0" d="M8.3,189.4c0-0.8-0.1-1.6-0.1-2.4c0-58,0-115.9,0-173.9c0-2.3,1.3-2.8,4.2-2.8h117.1c3.2,0,3.2,0,3.2,3.3
	c0,57.6,0,115.3,0,172.9c0,1-0.1,1.9-0.1,2.9c-0.6,0.5-1.4,0.3-2.1,0.3c-40,0-80,0-120.1,0C9.7,189.8,9,189.7,8.3,189.4z"/>
<path class="st1" d="M16.7,165.3c0-5.7-0.1-11.3,0-17c0-1.4,0.5-2.9,0-4.4c-0.1-0.5,0-1,0.2-1.4c1.3-2.2,0.7-4.2,0-6.5
	c-0.8-2.1-0.6-4.5,0.3-6.5c0.7-1.2,0.7-2.7-0.2-3.8c-0.8-1-0.6-2.4,0.5-2.7c1.6-0.4,1.1-1.4,0.9-2.3c-0.7-2.7-0.7-5.5,0-8.2
	c0.5-2.4,0.5-4.8,0-7.2c-0.3-1.5-1.1-2.9-0.2-4.5c0.4-0.8-0.5-1.8-0.1-2.7c0.4-0.8,0.6-1.6,0.5-2.5c-0.2-1.1,0.2-2.5-1.4-3
	c-0.3-0.1-0.3-0.7-0.1-1.1c0.2-0.6,0.6-0.2,1-0.1c2.1,0.2,2.6-0.2,3.2-2.2c0.3-0.8,0.1-1-0.8-1c-1.4,0-2.5-1.2-2.5-2.6
	c0-0.5,0.2-1,0.5-1.4c0.4-0.6,0.6-1.1,0.2-1.6c-1.2-1.6-0.9-3.2-0.1-4.8c0.4-0.8,0.4-1.7-0.1-2.5c-1-2-0.7-2.8,0.9-4.2
	c1-0.9,1.4-0.5,1.8,0.5c0.1,0.3,0.1,0.7,0.2,1c0.2,0.4,0.6,0.6,1,0.5c0,0,0,0,0.1,0c0.6-0.3,0.4-0.7,0.1-1.1
	c-0.2-0.2-0.3-0.5-0.4-0.7c-0.3-1.5-1-2.2-2.5-1.5c-0.3,0.1-0.6,0.1-0.9,0c0.5-1.8,1.9-3.4,0.8-5.3c-0.6-1.1-1.6-2.1-1.5-3.5
	c0-0.5-0.7-0.3-0.8-0.7c-0.5-1.1-0.1-2.2-0.1-3.2c0-10.5,0-21.1,0-31.6c0-1.5,0.2-2.7,1.5-3.5c0.5-0.5,1.2-0.3,1.7-0.3h101.3
	c2.4,0,2.8,0.4,2.8,2.8c0,50.7,0,101.3,0,151.9c0,2-0.3,2.4-2.4,2.4h-19.2c-2.4-1-4.3-2.8-6.3-4.3c-3.3-2.4-6.5-5-9.9-7.4
	c-0.1-0.1-0.2-0.2-0.4-0.3c-1.1-1.3-1.7-2.9-1.9-4.5c0-0.3,0.3-0.7-0.1-0.9c-0.1-0.1-0.1-0.3-0.1-0.4c0.1-1.5,0.1-3,0.2-4.5
	c0-0.3,0-0.5,0.1-0.8c0.4-1.1,1.3-1.1,2.3-1.2c1.9-0.1,3.8,0.2,5.7-0.5c2.9-1,4.2-2.7,4.3-5.7c0.2-1.7,0.1-3.5-0.2-5.2
	c-0.1-1.2-0.7-2.3-0.2-3.5c0.6-0.6,1.2-0.4,1.8-0.2c3.5,1.1,7,2.5,10.3,4.1c0.6,0.3,1.2,0.7,1.8,1.2c1.2,1,2.6,1.7,4.1,2.1
	c3.1,0.8,4.2,0.2,5.2-2.8c0.8-2.5,1.6-5,2.6-7.5s0.7-3.4-1.4-4.8c-1.7-1.2-3.8-1.9-5.9-1.8c-1.2-0.1-2.3,0.7-2.6,1.9
	c-0.8,2.5-1.6,5-2.5,7.5c-0.3,1-1,1.7-2.1,1.2c-3.6-1.4-7.3-2.6-11.1-3.4c-0.2-0.1-0.3-0.1-0.4-0.3c-0.1-0.2-0.1-0.5,0-0.8
	c0.6-0.5,1.2-0.2,1.9-0.2c1.8,0.2,2,0,2.3-1.7c0.1-0.5,0.2-1,0.3-1.4c0.2-2.4-0.9-4.5-1.1-6.8c0-0.2-0.1-0.4-0.1-0.7
	c-0.1-0.8,0.4-1.6,1.1-2c0.8-0.5,1.5-1.1,2.1-1.8c1.7-1.4,2.7-3.4,2.9-5.6c0.5-2.9,0.3-6-0.6-8.8c-0.3-0.8-0.7-1.5-1.2-2.2
	c-0.9-1.6-3-2.1-4.5-1.2c0,0-0.1,0-0.1,0.1c-0.6,0.3-1,0.9-1.8,0.4c-0.3-0.5-0.4-1.2-0.1-1.8c0.9-0.8,2.1-0.6,3.1-0.8
	c0.8-0.1,1.6-0.2,1.8-1.2c0.1-0.9-0.5-1.8-1.4-2c-1.1-0.3-2.1-0.7-3.1-1.3c-0.5-0.3-0.8-0.9-0.8-1.4c-0.5-4.1-2.5-7.7-4.3-11.4
	c-1.8-2.7-4-5-6.6-6.9c-0.9-0.5-1.7-1.2-2.3-2.1c0-0.2,0-0.3,0.1-0.5c0.5-0.5,1.2-0.5,1.8-0.8c4-0.8,7.9-1.7,11.2-4.2
	c3.9-2.9,6-6.7,5.7-11.6c0.5-0.5-0.3-0.8-0.2-1.2c0.5-1.4-0.4-2.5-0.8-3.8c-0.2-0.7-0.6-1.3-0.8-2c-0.2-1.4-0.2-2.8-0.2-4.3
	c-0.1-2.8-0.8-3.7-3.5-4.2c-0.5-0.1-1-0.2-1.4-0.3c-1.2-0.5-2.5,0.1-3,1.2c-0.3,0.6-0.7,1-1.2,1.3c-1.8-0.1-3.7,0.3-5.5,0
	c-1.3-3.1-4.1-2.3-6.5-2.7c-0.7-0.1-1.4,0-2.1-0.1C76,42,75.6,43,75.1,43.9c-0.3,0.6,0.1,0.8,0.5,1c0.8,0.4,1.3,1.2,1.2,2.1
	c0.1,1.5,0,3-0.2,4.4c-2.2,1-3.7,1.1-5.6,0.3c-0.2-0.8-0.2-1.7,0-2.5c-0.7-0.1-1.4-0.1-2.1,0c-1,0.1-1.9-0.7-2-1.7
	c0-0.1,0-0.2,0-0.3c-0.1-1.7,0.3-2,2-1.8c2.2,0.3,3-0.1,3.7-1.6c0.3-0.7,0.1-1.1-0.6-1.2c-1.7-0.1-3.3-0.5-4.9-0.6
	c-1.5-0.1-3.1,2-3.2,4.2c-0.1,2.9,0,5.7,0,8.6c0.1,0.8,0,1.5-0.2,2.3c-0.2,0.2-0.5,0.5-0.6,0.1c-0.4-1.4-1.3-1-2.1-0.6
	c-0.4,0.2-0.8,0.4-1.2,0c-0.1-0.7-0.1-1.3,0-2c0-1.6,0.3-3.3-1.1-4.6c-0.5-0.5,0-1,0.3-1.5c0.8-1.4,0.3-5.4-1.1-5.8
	c-2.4-0.7-5-1-7.5-0.7c-1.2,0.1-1.3,1.8-0.4,2.6c0.5,0.4,0.7,1,0.7,1.6c-0.1,2.4,0,4.8,0,7.3c0.1,0.9-0.3,1.8-1.1,2.3
	c-0.3,0.2-0.6,0.5-0.8,0.9c-0.9,1.5-0.7,2,1.1,2.1c2,0.1,4,0.6,6,0.9c0.9,0.8,0,1.4-0.4,1.9c-1.6,1.8-3.5,3.3-5.2,5.1
	c-6.5,6.9-13.1,13.7-19.9,20.2c-2.4,2-3.9,4.9-4.4,8c0,0.2-0.5,0-0.4,0.3c0.1,0.1,0.4,0.2,0.6,0.4c1,4.1,1.9,8.3,2.8,12.4
	c0,0.9-0.1,1.8-0.3,2.7c-0.6,3.7-0.5,7.3,1.6,10.6c1.4,2.2,2.8,4.5,5.5,5.5c0.3,0.2,0.6,0.5,0.7,0.9c1.2,3.3,2.1,6.6,2.8,10
	c0.4,4.1,1,8.3,1.4,12.4c0.1,1.1,1,1.4,1.9,1.5c2.2,0.4,4.3,0.9,6.5,1.5c1.3,0.3,2.6,0.6,3.9,1.1c0.8,1.3-0.8,1.2-1.1,1.9
	c1.2,1.8,2.7,3.4,4.5,4.7c4.1,3.6,7.7,7.7,11.8,11.3c0.7,0.5,1.3,1.2,1.9,1.8c0.3,0.4,0.9,0.8,0.2,1.4c-2.7,0.1-5.3-0.8-7.9-1.3
	c-1.6-0.3-3.2-0.6-4.8-1c-0.8-0.3-1.7-0.2-2.4,0.3c-0.6,0.1-1.1-0.2-1.5-0.6c-4.2-3.8-8.4-7.6-12.5-11.5c-3.1-2.9-3-3-7-1.5
	c-4.3,1.6-8.6,3.1-12.9,4.8C19.7,164.5,18.4,165.6,16.7,165.3z"/>
<path class="st2" d="M21.2,163.8c5.3-2,10.6-4,15.9-6c0.9-0.4,1.3,0.2,1.8,0.7l15.8,14.3c0.3,0.2,0.7,0.2,1,0.4
	c1.3,1,2.3,2.3,3.6,3.3c0.5,0.6,1.6,0.7,1.4,1.9c-0.8,0-1.5,0.1-2.3,0.1c-13,0-26,0-38.9,0c-0.8,0-1.6,0.2-2.2-0.4
	c-0.1-0.6-0.1-1.3,0.1-1.9c0.7-2.2,0.9-4.6,1.4-6.9c0.2-1,0.4-2,1.4-2.6S20.5,164.7,21.2,163.8z"/>
<path class="st3" d="M86.7,166.5c0.3,0,0.5,0.1,0.8,0.2c5.1,3.9,10.3,7.8,15.4,11.7c-3.4,0.2-6.8,0.2-10.1,0c-1.3-1.2-1.7-3-2.6-4.4
	c-0.3-0.8-0.8-1.5-1.1-2.3c0.1-0.7-0.3-1.3-0.9-1.6C87.6,168.9,86.3,168,86.7,166.5z"/>
<path class="st4" d="M83,178.4h-3.7c-0.4-0.6,0-1.1,0.3-1.5c0.9-1.4,1.3-3,1.2-4.7c0-2.6,0-5.2-0.1-7.9c0-0.7,0-1.4,0.2-2.1
	c0.1-0.2,0.2-0.3,0.3-0.4c0.5,0,1,0.4,1.1,0.9c1.3,3.9,2.7,7.9,3.8,11.9c0,0.2,0,0.3-0.1,0.5C84.5,175.6,83.7,177,83,178.4z"/>
<path class="st5" d="M59.2,176.8l-3.7-3.3c0.4-1.1,1.3-0.7,2-0.6c4.5,0.9,8.9,1.9,13.4,2.8c0.6,0.1,1.2,0.4,1.6,0.9
	c0.3,0.6,1,1,0.6,1.8c-2.1-0.2-4.2,0.6-6.3,0c-1.7-0.5-3.5-0.6-5.3-0.9C60.6,177.4,59.9,177.1,59.2,176.8z"/>
<path class="st6" d="M73.1,178.4l-0.7-1.6c0.7-0.6,1.5-0.2,2.2-0.1c2.7,0.4,4.2-0.8,4.3-3.6c0.1-3.1,0-6.1,0-9.2
	c-0.1-0.8,0-1.5,0.3-2.2c0.7-0.5,1.6-0.4,2.1,0.2c0,3.7,0,7.4,0,11.1c0,2.1-1,3.7-2,5.4L73.1,178.4z"/>
<path class="st7" d="M21.2,163.8c0.4,0.9-0.1,1.8,0,2.8c0,0.2-0.2,0.5-0.3,0.5c-1.9,0.2-1.3,1.8-1.7,2.8c-0.8,2.2-0.5,4.7-1.6,6.9
	c-0.2,0.5,0.2,1-0.3,1.4c-0.7-0.4-0.6-1.1-0.6-1.7c0-3.7,0-7.4,0-11L21.2,163.8z"/>
<path class="st8" d="M18.6,21.7c-0.1,0.4,0,1-0.2,1.1c-1.7,0.5-1.1,1.8-1.1,2.8c0,11.5,0,23,0,34.5c-0.7-0.2-0.5-0.8-0.5-1.2
	c0.4-11.8,0.1-23.5,0.1-35.2C16.9,22.3,17.1,21.5,18.6,21.7z"/>
<path class="st4" d="M90.3,173.8c1,1.4,1.7,3,2.3,4.6h-4.4c-0.5-0.3-0.8-0.7-1-1.2c-0.2-0.4-0.2-0.8,0-1.1
	C88.6,175.7,89.1,174.2,90.3,173.8z"/>
<path class="st9" d="M87.3,176.1l0.3,1.1c-1.2,0.3-2.6-0.4-3.4,1.1H83c0.4-2.6,0.8-3.1,2.9-3.2C86.6,175.1,87.2,175.5,87.3,176.1z"
	/>
<path class="st10" d="M59.2,176.8c2.6,0.3,5.2,0.5,7.6,1.7h-6L59.2,176.8z"/>
<path class="st11" d="M84.2,178.4c0.3-1.6,0.8-2,2.3-1.5l1.1,0.4c0.3,0.4,0.7,0.6,0.7,1.1L84.2,178.4z"/>
<path class="st12" d="M19.8,89.9c-0.1,0.5-0.6,0.6-1.2,0.6s-0.6-0.5-0.6-1s0.1-1.2,0.8-1.2S19.7,89,19.8,89.9z"/>
<path class="st13" d="M17.2,76.6c0,0.2,0,0.5-0.3,0.5s-0.3-0.3-0.3-0.5s0-0.5,0.3-0.5S17.2,76.4,17.2,76.6z"/>
<path class="st14" d="M49.1,153.3c-2.5-0.5-5-1.1-7.5-1.6c-0.6-0.1-1.3-0.2-1.4-1.1c-0.4-4.2-0.9-8.4-1.3-12.5c0-0.2,0-0.4,0-0.6
	c0.2-0.1,0.5,0.2,0.5,0.2c0.2-3,1.5-5.7,2.2-8.6c0.3-1.1,0-1.5-1.1-1.6c-1.4-0.2-2.9-0.1-4.3,0.1c-0.3-0.4-0.8-0.7-1.3-0.9
	c-0.6-0.2-1.2-0.6-1.7-1c-4.2-3.9-5.7-8.8-5.2-14.4c0.1-1.1,1.1-2,0.6-3.3c1.8-0.6,3.2-1.9,5.1-2.1c3.1-0.4,6-0.1,8.3,2.5
	c1,1,2,2,3,3c0.6,0.6,1.2,1.1,2,1.5c1.7,0.6,2.7,2.2,2.6,4c0.1,2,0,4,0,5.9s0.1,1.9,1.9,1.7c0.4-0.1,0.9-0.1,1.3-0.1
	c1,0.1,1.8-0.7,1.8-1.7c0-0.1,0-0.1,0-0.2c0.3-2.8,0.5-5.7,0.6-8.5c0.1-1.3,0.4-2.2,1.9-2.2c3.9,0.2,7.8,0.8,11.7,1.1
	c0.4,0,0.8,0.2,1.1,0.4c0.8,0.9,0.9,2.2,1.3,3.3c0.4,1.5,1.5,2.6,2.9,3c2.1,0.7,4.4,1.1,6.6,1.3c0.5,0.1,1,0.4,1.4,0.8
	c1.7,1.3,3.7,0.8,5.6,0.9c0.6,0.2,0.9,0.9,0.7,1.5c0,0,0,0,0,0c-2.2,0.8-4.5,1.4-6.7,2.1c-2.2,0.7-4.3,1.5-6.4,2.4
	c-2.7-0.6-4.6-2.5-6.6-4.1c-0.3-0.3-0.6-0.6-1-0.9c-0.4-0.4-1.1-0.3-1.4,0.1c0,0,0,0-0.1,0.1c-0.6,0.6-0.2,1,0.3,1.4
	c2,1.4,3.7,3.3,6,4.4c0.4,0.2,0.8,0.4,0.8,1c-0.1,0.4-0.2,0.9-0.5,1.2c-1.3,2.1-1.8,4.5-1.6,6.9c0.1,1.1,0.3,1.4,1.5,1.3
	c2.8-0.3,5.6-0.8,7.9-2.6c0.6-0.6,1.4-0.9,2.2-0.8c1,1.1,2.3,1.7,3.8,1.7c2.3,0.1,4.6,0.5,6.8,1c1.3,0.6,1.7,1.9,2.5,2.9
	c0.3,0.3,0.4,1,1.1,0.4c0.7,2.7,0.6,5.5-0.3,8.1c-1.1,2.8-3.6,3.5-6.3,3.8c-1.3,0.1-2.7,0.1-4,0c-0.8-0.2-1.5,0.3-1.8,1
	c-2.7-1.4-5.8-1.5-8.7-1.8c-5.2-0.6-10.4-1.4-15.6-2.1c-6.1-0.7-10.7-5.9-10.7-12c-0.1-3.3-0.7-6.6-1-10.1c-1.5,3.9-2.2,8-1.9,12.1
	c0.2,3.5,0.9,7,2.3,10.3C49.3,152.4,49.3,152.9,49.1,153.3z"/>
<path class="st15" d="M41.8,108.7c-3.8-3.2-7.8-3.4-12-0.6c-0.5,0.3-0.9,0.7-1.3,0l-2.7-12.9c-0.1,0-0.1-0.1-0.1-0.2
	c0-0.1,0-0.1,0.1-0.1c0.1-3.5,1.7-6,4.3-8.3c4.9-4.6,9.5-9.5,14.2-14.3c3.6-3.7,7.2-7.4,10.8-11.2c0.4-0.4,0.7-0.8,1-1.3
	c0.1-0.2,0.3-0.4,0.5-0.4c0.7-0.3,1.4-0.9,1.8-1.5c0.3-0.4,0.6-1,1.2-1l0.8-0.4c2.2-1.1,2.2-1.1,2.7,1.1c1.8,2.4,4.6,1.6,7,2
	c0.9,0.2,2.2-1.5,2-2.4c-0.1-0.6-0.6-0.5-1-0.5c-1.2,0.1-2.3-0.1-3.4-0.3c-0.8-0.3-1.5-0.6-0.7-1.6c1.5-0.2,2.9-0.4,4-1.8
	c0.6-0.6,1.6-0.7,2.2-0.1c0.1,0.1,0.2,0.3,0.3,0.4c0.6,0.8,0.9,0.7,1.4,0c0.3-0.5,0.7-1.2,1.5-0.4c0.5,1.7,0.2,3.5,0.2,5.3
	c0,1.1,0.3,1.6,1.5,1.6s1.5-0.6,1.5-1.7c-0.1-1.2,0-2.3,0.1-3.5c0.1-0.4,0.1-0.9,0.7-1s0.9,0.4,1.1,0.8c0.5,1.3,0.8,2.7,1.2,4.1
	c0.3,0.5,0.6,1,0.9,1.5c0.2,0.6-0.4,0.8-0.8,1.2c0.8-0.3,1.6-0.3,2.4-0.2c0.7,0,1.3,0.2,1.5,1S86.6,63,86,63.3
	c-0.3,0.2-0.7,0.2-1,0.4c1.2,0,2.8-0.8,3.4,0.9c0.5,1.3-0.9,1.7-1.7,2.1c0.7-0.1,1.5-0.1,2.2,0c0.6,0,1.2,0.5,1.2,1.1
	c0.1,0.7-0.3,1-0.8,1.3c-0.6,0.3-1.3,0.5-2,0.6c1.2-0.2,2.5-0.3,3.7-0.2c0.7,0,1.4,0,1.6,0.9c0.1,0.7-0.3,1.4-1,1.6
	c-1.7,0.9-3.4,1.5-5.2,2c-0.3,0-0.6,0.2-0.9,0.3C85,74.6,84.2,74.3,84,75l0,0c-0.6,0.5-1.3,0.6-2,0.5c-4.6,0-9.3,0-13.9,0
	c-1.1,0-2.1,0.2-3.1,0.3c-4,0.2-7.4,2.1-11,3.5c-2.1,0.8-4.2,1.7-6.3,2.6c-0.6,0.3-1.2,0.4-1.1,1.4c0.1,1.3-1.4,1.3-2.3,1.8
	c0.8,0,1.5-0.3,2.3-0.2s1.5,0.3,1.6,1.1s-0.6,1.2-1.2,1.5c-0.4,0.1-0.8,0.2-1.1,0.3l-0.5,0.2c0.3-0.1,0.6-0.2,0.9-0.3
	c3.3-1.2,6.8-1.3,10.1-2.7c0.4-0.1,0.9-0.2,1.3-0.2c2.8,0,5.6,0.2,8.4,0.6c0.7,0.1,1.3,0.3,1.4,1.1s-0.4,1.3-1.2,1.5
	c-1.1,0.3-2.2,0.6-3.4,0.9c0.7,0.1,1.3,0,2,0.2s1.1,0.4,1.2,1s-0.3,1.1-0.8,1.5c-0.7,0.3-1.4,0.5-2.1,0.7c0.4,0.3,0.9,0.2,1.3,0.4
	c0.5,0.2,0.8,0.6,0.8,1.2c0,0.6-0.4,1.1-1,1.2c-1,0.4-2.1,0.7-3.1,0.8c0.8,0,1.6,0.1,2.3,0.3c0.6,0.1,0.9,0.6,0.9,1.2
	c0,0.5-0.3,1-0.8,1.1c-0.8,0.3-1.7,0.6-2.6,0.7c0.3,0.1,0.5,0.1,0.8,0.1c0.9,0.1,1.7,0.4,1.8,1.4s-0.8,1.4-1.6,1.6
	c-0.8,0.3-1.6,0.5-2.4,0.6c0.8,0.2,1.5,0.1,2.3,0.3c0.5,0.1,0.9,0.5,1,1c0,0.7-0.4,1.3-1.1,1.5c-1.7,0.3-3.3,0.8-3.4,2.9
	c0,0.2-0.4,0.4-0.6,0.5c-1.8,0.4-3.6,0.3-5.4-0.2c-2.9-0.8-6-0.9-9-0.3C42.9,108.6,42.3,108.7,41.8,108.7z"/>
<path class="st14" d="M45.5,87.6c0.5-0.2,1-0.3,1.6-0.6s1-0.5,0.8-1.1s-0.6-0.7-1.2-0.7c-1.2-0.1-2.5,0.6-3.9,0
	c0.8-0.5,1.7-0.9,2.6-1.2c0.6-0.3,1.4-0.6,0.6-1.4s-0.1-0.7,0.3-0.8c5.1-2,10.1-4.4,15.3-6c0.9-0.2,1.8-0.4,2.7-0.6
	c2.5,0.2,4.9,0.8,7.3,1.2c5.9,1.1,11.3,3.5,16.9,5.6c1.5,0.5,3,1.1,4.4,1.8c1.6,3.2,3.4,6.4,4.1,9.9c0.2,1,0.1,2.1,0.8,3
	c-1.7,0.1-3.2,1.1-4,2.5c-0.5,0.2-1,0.5-1.4,0c-1.2-2.7-1.6-3-4.3-2.7c-3.8,0.4-7.6,0.8-11.3,1.2c-1,0-1.9,0.6-2.4,1.5
	c-2.4,2.9-4.2,6.3-5.2,10c-0.1,0.3-0.2,0.5-0.5,0.6c-1.2,0.4-2.3,0-3.4-0.1c-2-0.2-3.9-0.3-5.9-0.6c-0.6-0.1-1.2-0.1-1.6-0.6
	c0.6-0.7,1.1-1.5-0.1-2.3c1.1-0.5,2.3-0.9,3.5-1.1c0.6-0.2,1.4-0.2,1.3-1.2s-0.8-0.7-1.5-0.7c-0.8-0.1-1.6-0.2-2.8-0.3
	c1.3-0.6,2.6-1,4-1.3c0.5-0.2,1.2-0.3,1.1-1s-0.7-0.9-1.2-0.9c-0.9,0-1.9,0-2.8-0.2c0.9-0.9,2.1-0.8,3.2-1.2
	c0.6-0.2,1.6-0.1,1.5-1.1s-1-0.8-1.7-0.9l-2.6-0.3c1.3-0.9,2.5-0.9,3.7-1.2c0.6-0.2,1.5-0.2,1.3-1.1s-0.9-0.9-1.5-0.9l-1.7-0.1
	c0.1-0.8,0.7-0.8,1.2-0.9s1.2-0.3,1.8-0.4s1.3-0.4,1.1-1.2s-0.8-0.7-1.3-0.7c-0.9-0.1-1.9,0.2-2.8-0.5c1.3-0.5,2.6-0.9,4-1.2
	c0.6-0.2,1.6-0.1,1.6-1.1s-1-0.8-1.6-0.9c-1.8-0.2-3.6-0.3-5.4-0.6c-3-0.6-5.5,1.1-8.2,1.5c-2,0.3-4,0.8-6,1.2
	C45.5,88,45.5,87.8,45.5,87.6z"/>
<path class="st16" d="M57.8,108.6l11.2,1c1.4-0.5,2.8,0,4.2,0.1s2.6,0.6,3.8,0.2s0.9-2.1,1.4-3.2c1.1-2.4,2.3-4.7,5.2-5.4
	c1-0.3,2.1-0.4,3.1-0.1c1.3,0.3,2.5,1.1,3.4,2.2c0.7,0.8,1.2,0.9,2.2,0.2c2-1.6,4.1-1.3,5.5,0.5c0.4,0.1,0.6-0.3,0.8-0.5
	c1.5-1.4,3.8-1.4,5.2,0.1c0.1,0.1,0.2,0.3,0.3,0.4c1.3,1.7,2.1,3.7,2.2,5.8c0.5,3,0.1,6.1-1,8.9c-0.4,1.2-1.2,2.3-2.3,2.9
	c-0.3-1.2-0.3-2.4,0-3.6c1.2-3,1.4-6.2,0.6-9.3c-0.1-0.5-0.3-0.9-0.5-1.4c-0.4-0.8-0.8-1.7-1.8-1.6s-1.3,1.1-1.3,2.1
	c0,0.2,0,0.3,0,0.5c0,0.5-0.1,1-0.4,1.4c-0.1,0.1-0.2,0.3-0.3,0.4c-0.4,0.9-0.9,1.2-1.8,0.4s-2.2-1.3-2.3-2.7
	c-0.8,0-0.8,0.6-0.9,0.9c-0.7,2.4-1.2,4.8-1.6,7.2c-0.4,2.3-1.6,4.5-3.3,6.1c-0.5,0.5-1.1,0.8-1.7,0.8c-2.7,1-4.9,0.2-6.9-1.6
	c-1.7-1-2.2-2.7-2.6-4.4c-0.2-1.3-1.3-2.3-2.7-2.3c-1.8-0.2-3.7,0-5.3-0.8c-2.8-0.6-5.7-0.6-8.5-1c-1.5-0.2-3-0.3-4.4-0.4
	c-3.4,0.5-6.8-0.3-10.3-0.4c-0.8,0.1-1.6-0.1-2.4-0.5l-2.7-2.7c0.5-0.5,1.2-0.8,1.9-0.8c3.2-0.4,6.3-0.5,9.4,0.6
	C54.7,109.1,56.3,108.5,57.8,108.6z"/>
<path class="st17" d="M49.1,153.3c-3.7-8.2-4-16.5-0.2-24.9c0.2,1.5,0.3,3,0.5,4.5c0.5,3.3,0.4,6.8,1.2,10.1
	c1.3,4.5,5.2,7.8,9.9,8.4c5.6,0.7,11.2,1.6,16.8,2.2c2.1,0.2,4.1,0.8,6.2,1c0.7,0.1,1.1,0.3,1.1,1.1v0.6c-0.3,1.6-0.5,3.1-2.2,4
	c-0.7,0.5-1.7,0.6-2.5,0.3c-0.7-0.4-1.4-0.5-2.2-0.5c-4-0.6-7.9-1.6-11.8-2.4c-3.7-0.8-7.4-1.6-11.1-2.5c-0.7,0-1.3-0.3-1.8-0.8
	L49.1,153.3z"/>
<path class="st18" d="M75.1,128.5c3.5-2,7.4-2.7,11.1-4.1c0.7-0.2,1.4-0.3,2.1-0.2c0.7-0.4,1.5-0.6,2.2-0.4c1.3,1.1,2,2.6,3,3.8
	c0.8,1,1.6,2,3.1,1.8c1.4,0,2.5-1.1,2.5-2.4c0,0,0,0,0-0.1c-0.1-0.7,0-1.3,0.3-1.9c0.1-0.1,0.3-0.2,0.4-0.1c0.4,2.5,1.4,5,1.3,7.6
	c-0.5,0.2-1.1,0.2-1.6,0.1c-1.1-0.2-2.1,0.2-2.8,1c-1.9-0.7-4-0.9-5.9-0.4c-1.3,0.2-2.7,0.1-3.8,1.2c1.3,0.1,2.6-0.1,3.8,0.1
	c0.5,0.1,1.4-0.2,1.3,0.9c-1.7,0.7-3.5,0.2-5.2,0.3c-1.3-0.1-2.6,0.3-3.7,1.1c-0.1,0.1-0.3,0.2-0.5,0.2c-1.2,0.4-2.3,1-3.3,1.9
	c-2.3,1.9-5.2,1.5-7.9,2c-0.9,0.2-0.9-0.6-0.9-1.2c-0.4-3.2,0.4-6.4,2.4-9C73.4,129.6,74.1,128.9,75.1,128.5z"/>
<path class="st19" d="M85.3,74.2c1.6-1,3.5-1.3,5.1-2.1c0.4-0.2,0.9-0.4,1.3-0.7c0.4-0.1,0.6-0.5,0.5-0.9C92.1,70,91.7,70,91.3,70
	h-4.9c0.7-0.5,1.4-0.9,2.2-1.1c0.5-0.1,1.3-0.3,1.2-1.1S89.1,67,88.4,67c-1,0-2.1,0-3.3,0c0.5-1,1.7-0.4,2.2-1.1
	c0.3-0.4,1.1-0.5,0.9-1.2S87.4,64,86.9,64c-1.1,0.1-2.2,0.2-3.5,0.3c0.6-0.7,1.5-1.2,2.4-1.4c0.6-0.2,1-0.5,0.8-1.2
	s-0.6-0.6-1.1-0.7c-1.2-0.2-2.4,0.6-3.7,0.1c0.3-1.1,1.8-0.2,1.9-1.4c0.4-0.5,0.8-0.2,1.3-0.2c0.3,0,0.7,0,1,0
	c0.4-0.1,0.5-0.4,0.7-0.7s0.2-0.2,0.2-0.4c0.6-0.7,1.1-1.4-0.4-1.8c-1.1-0.3-1.3-1.4-1.6-2.3c-0.2-0.7-0.4-1.4-0.6-2.1
	c-0.6-1-0.4-2.3,0.6-3c0.6-0.7,0.9-1.6,0.7-2.5c0-0.8-0.3-1.5,0.4-2.2c1.8-0.1,3.7-0.6,5.5,0c0.1,1.6-0.2,3.3-0.2,4.9
	c0,0.7-0.4,1-1,1.4c-1.2,0.9-1.2,1.7,0,2.5c0.6,0.4,1,1.1,1,1.8c0,0.8,0,1.7,0,2.5c0,0.7-0.4,1.5,0.9,1.5c0.9,0,1.8,0,1.9-1.3
	c0.1-1,0.3-2.1,0.3-3.1c0-0.9,0.5-1.5,1.4-1.5c0.9-0.1,1.6,0.5,1.7,1.4c0,0,0,0,0,0.1c0.1,0.8,0.1,1.5,0.1,2.3c-0.1,1,0.6,2,1.6,2.2
	c0.9,0.5,1.9,0.2,2.4-0.7c0,0,0,0,0,0c0.2-0.5,0.7-0.8,1.2-0.9c0.7,1,0.4,2.1,0.2,3.1c-0.7,4.2-3.4,7.9-7.2,9.9
	c-3.1,1.7-6.5,2.8-10,3.2C85.5,74.4,85.4,74.4,85.3,74.2z"/>
<path class="st6" d="M70.4,174.8c-1.8-2-3.7-3.9-5.8-5.6c-4.4-4.2-8.7-8.4-13.1-12.6c-0.2-0.2-1.2-0.5-0.1-0.9
	c3.5,0.1,6.8,1.2,10.2,1.8c4.8,0.9,9.6,2,14.4,3c0.7,0,1.4,0.3,1.9,0.9c0.3,0.8,0.4,1.6,0.3,2.4c0.1,2.6-0.1,5.3,0.2,7.9
	c0.5,3.6-1.4,5.1-4.9,4.3c-0.5-0.1-1.1-0.2-1.6-0.4S70.8,175.3,70.4,174.8z"/>
<path class="st16" d="M83,136.7c0.4-1.5,1.7-1.5,2.9-1.6c2.2-0.1,4.3-0.1,6.5-0.1c0.4-0.3,1-0.5,1.5-0.4c1.2-0.1,2.4,0.1,2.5,1.7
	c3.8,0.6,7.4,1.7,10.9,3.2c1.4,0.6,1.8,0.2,2.2-1.1c0.7-2.5,1.6-4.9,2.4-7.3c0.4-0.1,0.6,0.2,0.8,0.5c1.9,2.7,5.1,4.1,8.4,3.7
	c1.2-0.1,1.2,0,1.4,0.8c-1,3.2-2,6.5-3.1,9.7c-0.3,0.8-1.1,1.3-2,1.2c-2.6,0.3-5.2-0.5-7.2-2.3c-1-0.9-2.2-1.6-3.5-2.1
	c-3.3-1.5-6.6-2.7-10.1-3.6c-1,0.1-1.9,1.4-3,0.2c-0.5-0.5-1.2-0.8-1.9-0.8c-2.2-0.4-4.5-0.7-6.7-1.1
	C84.3,137.4,83.6,137.2,83,136.7z"/>
<path class="st20" d="M56.8,59.7h-0.6c-2.5,0.1-5-0.8-7.5-0.8c-1,0-1.5-0.5-0.9-1.5s0.6-2.3,2-2.6c0.5-0.1,0.3-0.6,0.3-1
	c0-2.8,0-5.5,0.1-8.2c0-0.9-0.5-0.9-1-1c-1.1-0.2-1.1-0.7-0.5-1.6c1.4-2.2,1.4-2.3,3.9-1.6c1.4,0.3,2.8,0.4,4.3,0.2
	c0.8-0.1,1.5,0.4,1.8,1.1c0.6,1.4,1.1,2.9,1.3,4.5c0.2,0.8-0.5,1.2-0.9,1.6c-0.2,0.3-0.8,0.6-0.3,0.9c2.1,1.2,1.1,3.2,1.3,4.9
	c-0.2,1.7-1.5,2.6-2.4,3.9C57.5,59,57,59.3,56.8,59.7z"/>
<path class="st20" d="M102.9,58.1c-0.1,0.1-0.2,0.3-0.3,0.4c-1.6,2.2-1.5,2.2-4.2,1.3c-0.9-0.1-1.4-0.9-1.3-1.8c0,0,0-0.1,0-0.1
	c0.1-0.8,0-1.5,0-2.3s-0.1-1.4-1.2-1.5s-1.1,0.5-1.1,1.3c0,0.8,0,1.7-0.1,2.5c-0.1,0.7,0.4,1.8-0.4,2.1c-1,0.2-2.1,0.2-3.1,0
	c-0.6,0-0.3-0.6-0.3-0.9c0-1,0-2,0-3s0.3-2.1-1.4-2.1c-0.8,0-0.4-1.1-0.3-1.7s-0.4-1.6,0.7-1.5s1-0.6,1.1-1.3
	c0.1-1.6-0.4-3.2,0.7-4.6c0.1-0.1,0.1-0.2,0.2-0.3c2.3-3.7,1.6-3,5.3-2.3s4.2,1.5,4.2,5.3c0,1.3,0,2.6,0.1,4
	c0.3,0.8,0.4,1.7,0.4,2.5c-0.1,1.1,0.2,2.1,0.8,3C102.8,57.4,103.2,57.6,102.9,58.1z"/>
<path class="st20" d="M86,44.9c0,0.9,0,1.7,0.1,2.6c0.1,1.1,0,2.1-1.2,2.6c-0.7,0.3-0.8,0.7-0.4,1.4c0.4,1,0.6,2.1,0.8,3.1
	c0,1,0.1,1.8,1.3,2.3s0.5,1.4,0.3,2.2l0,0c-1.3-0.5-0.3,0.7-0.7,0.9c-0.4,0.2-0.9,0.2-1.3,0.1c-0.7-0.6-1.3-1.5-2.4-1.2l-1.7-5.2
	c-0.5,1.6-0.6,3.3-0.4,5c0,1.2-0.2,1.8-1.5,1.5c-0.5-0.1-1-0.1-1.5,0c-0.9,0.1-1.1-0.3-1.1-1.1c0-2.1,0-4.3,0-6.4
	c-0.2-0.2-0.2-0.5,0-0.7c0-1.7,0-3.3,0-5c0-1-0.3-1.6-1.3-1.6c-0.4,0-0.8,0-0.9-0.5c-0.2-0.8,2.1-3.1,3-3c2,0.3,3.9,0.4,5.9,0.5
	c1.6,0,2.5,0.4,2.7,2C85.8,44.4,85.9,44.7,86,44.9z"/>
<path class="st21" d="M90.6,123.8c-0.7,0.4-1.5,0.5-2.3,0.3c0-0.5-0.3-1-0.7-1.3c2.6-1.6,4.3-4.3,4.8-7.4c0.4-2.5,0.9-4.9,1.6-7.4
	c0.2-0.5,0.3-1.2,0.9-1.3s0.8,0.7,0.9,1.2c0.1,0.7,0.6,1.3,1.4,1.5c0.7,0.2,0.9,0.8,1.3,1.2c0.4-0.2,0-1.2,0.9-1
	c0.1,0.1,0.3,0.2,0.3,0.4c-0.2,2.4,1.4,4.2,2.4,6.2c0.5,0.6,0.9,1.3,1.3,2l-0.3,3.3c-0.5,0.8-1.3,1.5-2.2,1.9
	c-0.6,0.2-0.9,0.8-0.9,1.4l-0.2-0.1c-0.7-0.4-1.4-0.6-2.2-0.5c-0.5,0-1.2,0.1-1.4-0.5s0.6-0.7,0.8-1.3c-1.1-0.3-2.3-0.2-3.3,0.2
	C92.6,123.2,91.6,123.6,90.6,123.8z"/>
<path class="st20" d="M67.4,54.7c-0.4,0.6-0.3,1,0.5,1c1.4,0.1,2.7,0.2,4.1,0.3c1,0.1,1.5,0.3,0.9,1.4c-0.3,0.5-0.5,1-0.7,1.5
	c-0.2,0.9-0.8,1.2-1.7,1.1c-1.6-0.2-3.2-0.3-4.8-0.3c-1.4-0.1-1.9-1.2-2.3-2.2c0-3.7,0.1-7.4,0-11.1c-0.1-2,1.4-3.2,2.2-4.7
	c0.2-0.5,0.9-0.2,1.4-0.2c1.8,0.2,3.5,0.6,5.2,0.7c1.5,0.1,1.7,0.5,0.9,1.8c-1.5,2.4-1.5,2.4-4.3,1.9c-0.4-0.1-1.4-0.7-1.4,0.4
	c0,0.9-0.7,2.2,1,2.5c1,0.1,2.3-0.5,2.9,0.4c0.4,0.7,0.1,1.9,0,2.9c-0.1,0.8-0.7,0.6-1.1,0.6C67.9,52.7,67.9,52.7,67.4,54.7z"/>
<path class="st20" d="M33.9,46.8c0.3,2.1-0.4,4.6-0.3,7.2c0,1,0.3,1.5,1.4,1.5c0.5,0,1,0.1,1.5,0.3c3,0.3,3,0.3,1.8,3.2
	c-0.3,0.7-0.8,1-1.4,0.8c-1.2-0.2-2.5-0.3-3.8-0.3c-2.2-0.1-3.4-1.3-3.5-3.5c-0.1-2.9,0.5-5.7,0.3-8.5c-0.1-1.2,0.1-2.4-1.6-2.5
	c-0.5,0-0.6-0.4-0.4-0.8c0.4-0.8,0.9-1.6,1.5-2.3c1.3-1.1,2.6,0.2,3.9,0.4c0.8,0.1,0.5,1,0.5,1.5C33.9,44.4,33.9,45.4,33.9,46.8z"/>
<path class="st20" d="M109.9,49.6c0,1.7,0.1,3.3,0,5c-0.1,1.4,0.6,1.9,1.8,1.9c0.7,0,1.3,0.1,2,0.1c1.6-0.2,1.5,0.7,1.2,1.8
	c-0.5,1.5-1.1,2.5-3.1,2.1c-1.2-0.2-2.4-0.1-3.6-0.3c-1.4-0.2-2.4-1.4-2.4-2.8c0-3.2,0.1-6.5,0.1-9.8c0-0.9,0.1-1.8-1.2-1.9
	c-0.4,0-0.7-0.3-0.7-0.7c0,0,0,0,0,0c0-1.1,2.1-2.9,3.3-2.7c2.7,0.4,2.7,0.4,2.7,3.1C109.9,46.7,109.9,48.2,109.9,49.6z"/>
<path class="st17" d="M93,83.8c-1.6-0.2-3.1-0.7-4.6-1.4c-4.2-1.6-8.3-3.4-12.7-4.6c-3.5-0.9-7.1-1.5-10.6-2.2
	c-0.3-0.1-0.5-0.2-0.7-0.3c6.5-0.6,13.1-0.2,19.6-0.3c1.1,0.9,2.1,1.9,3.3,2.8C89.5,79.5,91.4,81.5,93,83.8z"/>
<path class="st20" d="M41.5,52.1c0-1.9-0.1-3.8,0-5.6c0.1-1-0.2-1.4-1.1-1.6c-1.2-0.3-1.7-0.8-0.7-1.9c0.6-0.6,0.7-1.9,1.8-1.8
	c1.4,0.2,2.7,0.6,4,1c0.3,0.1,0.2,0.4,0.2,0.7c-0.5,5-0.1,10.1-0.2,15.1c0,1-0.2,1.8-1.4,1.5c-1-0.2-2.7,0.6-2.6-1.6
	C41.6,56,41.5,54,41.5,52.1L41.5,52.1z"/>
<path class="st22" d="M77.7,161.3c-6.2-1.1-12.3-2.6-18.5-3.8c-2.6-0.5-5.3-0.7-7.8-1.9l1.7-1.3l23.3,5c0.5,0.1,1.1,0.2,1.6,0.2
	c0.4,0.4,0.5,1,0.2,1.5C78.1,161.3,77.9,161.4,77.7,161.3z"/>
<path class="st18" d="M36.2,127.5c0.1-0.6,0.4-0.7,0.9-0.7c1.5,0,3,0.1,4.4,0.2c0.9,0.1,0.8,0.5,0.7,1.1c-0.9,3.2-1.7,6.3-2.6,9.5
	c0,0.2,0,0.6-0.3,0.4s-0.3-0.4-0.4-0.6L36.2,127.5z"/>
<path class="st15" d="M93.9,99.1c0.8-2.1,2-2.8,4-2.3c1.2,0.4,2.3,0.8,3.4,1.1c1.3,0.3,1.4,1.3,1.4,2.4s-0.7,1.6-1.9,1.5
	c-1.1,0-2.2,0.1-3.3,0.3C95.7,102.7,93.9,101.3,93.9,99.1z"/>
<path class="st23" d="M122.5,136.1c-0.1-0.6-0.5-0.4-0.9-0.3c-2.6,0.3-5.2-0.3-7.3-1.9c-0.9-0.8-1.7-1.7-2.3-2.7
	c0.4-1.7,1.7-2.1,3.1-2.1c2.6,0,5,0.9,6.9,2.7C123.5,133.1,123.6,133.9,122.5,136.1z"/>
<path class="st24" d="M93.9,99.1c0.6,1.7,1.6,3.1,3.7,3c0,0.7,0,1.3,0,2c-2.4-1.6-3.8-1.6-5.9,0.5c-0.6,0.6-0.9,0.5-1.4-0.1
	c-1-1.2-1.9-2.4-3.6-2.7c-0.1-0.6,0.4-0.7,0.7-0.6c1.9,0.1,3.7-0.4,5.2-1.6C93,99.2,93.5,99.1,93.9,99.1z"/>
<path class="st25" d="M88.4,170.1c0.7,0.2,0.8,0.8,0.8,1.4c-0.7,1.6-2.5,1.9-3.1,0.5c-1.6-3.4-2.8-7-3.5-10.8c0-0.2,0-0.4,0.2-0.6
	c0.7-0.9,1.2-0.7,1.6,0.3l0,0c0.2,0.2,0.3,0.4,0.3,0.7c0.5,1.6,0.7,3.4,2.1,4.6c-0.6,0.4-0.2,0.9,0,1.3c0.4,0.5,0.6,1.1,0.7,1.8
	C87.3,170.2,88,170,88.4,170.1z"/>
<path class="st26" d="M104.3,31.9c0,1.7-1.4,3-3.1,3c-1.7,0-3-1.4-2.9-3.1c0-1.6,1.3-2.9,2.9-2.9c0,0,0.1,0,0.1,0
	c1.5-0.1,2.9,1,3,2.5C104.3,31.6,104.3,31.8,104.3,31.9z"/>
<path class="st26" d="M40.9,32c0,2-0.9,2.8-3.2,2.8c-1.4,0-2.5-1.1-2.7-2.5c0-2.2,1.1-3.4,3.1-3.4C39.9,29,40.9,30.1,40.9,32z"/>
<path class="st27" d="M70.4,174.8c0.5,0.1,1-0.1,1.3,0.3c-0.4,0.2-0.8,0.4-0.7,1c-4.2-0.6-8.2-1.7-12.3-2.4c-1-0.2-2.1-1-3.2-0.2
	c-0.3-0.1-0.6-0.4-0.7-0.7c0.3-0.6,0.6-0.9,1.5-0.7c4.3,0.9,8.5,1.8,12.8,2.6C69.5,174.7,69.9,174.8,70.4,174.8z"/>
<path class="st28" d="M67.4,54.7c-0.5-2.1,0.2-2.9,2.2-2.6c0.6,0.2,1.3,0.2,1.9,0c0.5-0.3,0.8-1.1,1.6-0.2c0.3,0.4,1.3,0.7,1.7,0
	c0.6-1.1,1.1-0.5,1.6-0.1c0,0.2,0,0.5,0,0.7c-0.7,0-0.6,0.7-0.9,1c-0.3,0.4-0.6,0.8-0.9,1.2c-0.7-0.1-0.8-0.7-1.1-1.1
	c-0.8-1.2-1.9-1.3-2.5-0.2C70.2,55.1,68.9,55,67.4,54.7z"/>
<path class="st26" d="M94.1,33.1c0,0.2-0.1,0.4-0.1,0.6c-0.1,0.3,0.3,1-0.5,0.9c-0.4,0-0.8-0.3-0.8-0.8c0,0,0-0.1,0-0.1
	c0-1.3,0-2.6,0-3.9c0-0.2,0-0.4,0.1-0.5c1-0.3,2-0.3,3,0c0.7,0.2,1,0.9,0.8,1.6c0,0.1-0.1,0.2-0.2,0.3c-0.7,1-0.7,1.7,0.2,2.5
	c0.3,0.2,0.5,0.6,0.2,0.9s-0.8,0.2-1.2,0C95,34.3,94.9,33.4,94.1,33.1z"/>
<path class="st29" d="M53.8,34.3c-1.7,0.8-2-0.7-2.7-1.2c-0.4,0.4-0.2,0.8-0.3,1.2s-0.3,0.4-0.7,0.4s-0.6,0-0.6-0.5c0-1.5,0-3,0-4.5
	c0-0.1,0.1-0.4,0.1-0.4c1-0.2,2-0.1,3,0.2c0.6,0.2,1,0.9,0.8,1.5c0,0.1-0.1,0.2-0.1,0.3C52.3,32.5,52.8,33.4,53.8,34.3z"/>
<path class="st30" d="M78.5,34.3c-1.7,1.2-1.7-0.9-2.6-1.2c-0.4,0.1-0.2,0.4-0.3,0.7c0,0.4-0.2,0.7-0.7,0.7s-0.6-0.4-0.6-0.8
	c0-1.1,0-2.2,0-3.3c0-0.5-0.1-1.1,0.6-1.2c1,0,2-0.4,2.8,0.3c0.4,0.4,0.8,1.1,0.4,1.6C77,32.5,77.6,33.4,78.5,34.3z"/>
<path class="st31" d="M96.6,133.5c0.7-1.5,2.2-1.8,4.6-1c-0.6,1.2,0.1,3-1.1,3.6s-2.6-0.1-3.9-0.2C95.8,135.1,96,134.1,96.6,133.5z"
	/>
<path class="st29" d="M47.5,31.4c0,0.5,0,1,0,1.5c-0.1,1.4-0.9,1.8-2.2,1.8s-2.3-0.4-2.4-1.8c-0.1-0.9-0.1-1.9,0-2.8
	c0-0.4-0.1-0.9,0.5-0.9c0.4,0,0.8,0.3,0.8,0.8c0,0,0,0,0,0.1c0,0.7,0,1.4,0,2.1c0,0.7,0,1.2,0.9,1.2s1-0.6,1-1.3c0-0.6,0-1.2,0-1.8
	c0-0.7,0.2-1.2,0.9-1.1s0.4,0.7,0.4,1.1S47.5,31,47.5,31.4z"/>
<path class="st32" d="M64.8,32.9c0.5,0.2,1.1,0.4,1.6,0.7c0.3,0.2,0.5,0.6,0.3,1c-0.1,0.1-0.2,0.2-0.3,0.3c-0.8,0.6-2.9-0.6-3-1.6
	c0-0.5,0-1,0-1.5c0-2.5,0-2.5,2.5-2.5c0.3,0,0.7-0.2,0.8,0.3c0.1,0.3-0.1,0.6-0.5,0.7c0,0,0,0-0.1,0c-0.4,0.1-1.2-0.2-1.2,0.5
	s0.7,0.4,1.1,0.5s0.6,0.1,0.6,0.5c0,0.3-0.1,0.6-0.4,0.7C65.9,32.6,65.6,32.6,64.8,32.9z"/>
<path class="st29" d="M110.6,31.8c0-0.2,0-0.3,0-0.5c-0.2-1.1,0.6-2.2,1.7-2.4c0.4-0.1,0.8,0,1.2,0.2c0.2,0.1,0.4,0.3,0.3,0.5
	c0.1,0.3-0.2,0.6-0.5,0.7c0,0,0,0-0.1,0c-0.4,0.1-1-0.1-1,0.5s0.6,0.4,0.9,0.5s0.5,0.2,0.6,0.5c0,0.3-0.3,0.5-0.7,0.6s-1,0-1,0.6
	c0,0.4,0.5,0.4,0.9,0.5s0.9,0.2,0.8,0.8c-0.1,0.8-0.7,0.3-1,0.3C110.2,34.6,110.6,34.9,110.6,31.8z"/>
<path class="st29" d="M59.5,30.5c0.5,0.8,1.2,0.8,1.7,1.2c0.5,0.3,0.8,0.9,0.7,1.5c-0.2,0.7-0.6,1.4-1.5,1.4s-1.6,0.3-2.2-0.4
	c-0.2-0.2-0.2-0.5,0-0.8c0.2-0.4,0.5-0.2,0.8,0c0.5,0.3,1,0.3,1.2-0.3s-0.3-0.7-0.8-0.8c-0.8,0-1.4-0.7-1.4-1.5c0-0.2,0-0.3,0.1-0.5
	c0.3-1.1,1.2-1.3,2.2-1.2c0.5,0,0.9,0.2,1,0.7s-0.5,0.5-1,0.6C60.2,30.3,60,30.4,59.5,30.5z"/>
<path class="st26" d="M80.3,31.7c0-0.2,0-0.3,0-0.5c0-0.6-0.2-1.8,0-1.8c0.8-0.2,1.7-0.3,2.6-0.2c0.3,0,0.6,0.2,0.6,0.5
	c0,0.1,0,0.1,0,0.2c0,0.5-0.3,0.5-0.7,0.5s-1-0.2-1,0.5s0.6,0.5,1,0.5c0.3,0,0.6,0.3,0.5,0.6c0,0,0,0.1,0,0.1c0,0.4-0.3,0.5-0.7,0.5
	s-0.9,0-0.8,0.5c0,0.3,0.5,0.4,0.8,0.4c0.7-0.1,0.9,0.4,0.9,0.9s-0.6,0.4-1.1,0.4C80.3,34.6,80.3,34.6,80.3,31.7z"/>
<path class="st29" d="M71.6,30.3c-1.1-0.1-1.8,0.3-1.9,1.4c0,1.1,0.4,1.6,1.6,1.6c0.5,0,1.4-0.3,1.3,0.7s-0.9,0.5-1.5,0.6
	c-1.1,0.2-2.3-0.4-2.7-1.5c-0.5-1-0.3-2.1,0.3-2.9c0.6-0.9,1.7-1.4,2.7-1.2c0.5,0.1,1.2,0.3,1.1,1C72.6,30.9,71.9,30.3,71.6,30.3z"
	/>
<path class="st33" d="M105.9,31.8c0-0.6,0-1.2,0-1.8c0-0.5,0.4-0.8,0.8-0.9c0,0,0,0,0,0c0.6,0,0.7,0.4,0.8,0.9s0,1,0,1.5
	c0,0.8-0.2,1.8,1.1,2c0.7,0.1,0.8,0.8,0.2,1.2c-0.7,0.4-1.5,0.4-2.2,0.1c-0.6-0.2-0.7-0.8-0.7-1.4S105.9,32.3,105.9,31.8L105.9,31.8
	z"/>
<path class="st26" d="M29.1,29.5c0.2-0.2,0.5-0.3,0.7-0.2c1.1,0.8,2.1,1.2,3.2,0c0.1-0.1,0.5,0,0.6,0.1s0,0.5-0.2,0.7
	c-0.9,1-1.4,2.3-1.3,3.6c0,0.5-0.2,0.8-0.8,0.9c-0.8,0.1-0.5-0.5-0.5-0.9C30.8,32,30.8,32,29.1,29.5z"/>
<path class="st34" d="M86,32.5c-0.2-0.8,0.5-2.1-1-2.4c-0.3,0-0.3-0.4-0.2-0.7s0.3-0.2,0.5-0.2c0.9,0,1.8,0,2.6,0
	c0.6,0,0.9,0.6,0.6,0.8c-2.1,0.9-0.8,2.6-1.2,3.9c-0.1,0.3,0.2,0.9-0.5,0.8c-0.5-0.1-1-0.1-0.9-0.8C85.9,33.4,86,32.9,86,32.5z"/>
<path class="st35" d="M84.3,160.9c-0.4-0.4-0.7-0.8-1.3-0.3c0,0.7-0.6,1.3-1.3,1.3c-0.1,0-0.3,0-0.4-0.1l0,0c-0.7,0-1.4-0.1-2-0.3
	l-0.2-0.2c-0.4-0.9-0.5-1.6,0.9-1.2c1.8,0.4,3.6-0.7,4.1-2.6c0.2-0.4,0.1-1,0.5-1.4c0.2,0.1,0.4,0.4,0.3,0.7
	c-0.3,0.8-0.8,1.6-0.1,2.5C85.2,160,84.3,160.4,84.3,160.9z"/>
<path class="st36" d="M94,139.4c0.4,0,0.9,0.4,1.3-0.2s0.9-0.4,1.3-0.1l0.3,3.6l-0.1,1.3c-1.5-1.2-2.1-2.9-3.2-4.2
	C93.6,139.6,93.8,139.4,94,139.4z"/>
<path class="st37" d="M96.6,133.5l-0.3,2.4l0.1,0.5c-0.4-1-1.4-1.6-2.5-1.3c0-1.2-0.2-2.1-1.8-1.9c-0.4,0.1-0.9-0.1-1.2-0.4
	c1.8-0.7,3.6-0.1,5.3,0C96.8,132.7,96.5,133.2,96.6,133.5z"/>
<path class="st38" d="M102.6,57.1c-0.8,0-1.4-0.7-1.4-1.5c0-0.1,0-0.2,0-0.3c0.1-1.2,0.1-2.5,0.1-3.8c0.9,1.3,1.5,2.8,1.8,4.4
	C103.2,56.4,103.5,57.1,102.6,57.1z"/>
<path class="st32" d="M98.3,85c0.3,0,0.5,0,0.5,0c0.3,0.9,2.2-0.7,2,1s-1.2,2.4-3,2.4c-0.3,0-0.6,0.1-0.7-0.3s0.2-0.6,0.6-0.7
	c0.4-0.1,0.7-0.2,1.1-0.3C100,86.3,98.8,85.8,98.3,85z"/>
<path class="st39" d="M21.9,83.8c0.2-0.4,0.4-0.8,0.6-1.2c0.6-0.9,1.4-0.8,1.8,0.3c0.2,0.5,0.3,0.9,0.3,1.4c0.1,0.4,0.4,0.9-0.2,1.1
	c-0.5,0.1-0.6-0.3-0.8-0.7C22.9,83.8,22.9,83.8,21.9,83.8z"/>
<path class="st40" d="M30.9,84.1c-0.3,0.5-0.3,1.3-1,1.2s-1.7-0.4-1.6-1.5c0-0.5,0.4-0.9,0.8-0.9c0.1,0,0.2,0,0.3,0
	C30.1,83,30.8,83.3,30.9,84.1z"/>
<path class="st29" d="M28.5,75.2c0,0.8-0.2,1.4-1,1.3c-1-0.1-0.9-1-1-1.6s0.1-1.1,0.8-1.1C28.3,73.9,28.5,74.6,28.5,75.2z"/>
<path class="st41" d="M56.8,59.7c-0.2-0.4-0.2-0.7,0.2-1s0.7-0.3,0.8-0.6c0.4-1.4,2.1-2,2.4-3.4c0.1,0.7,0,1.4-0.3,2.1
	C58.9,57.9,58.2,59.2,56.8,59.7z"/>
<path class="st42" d="M88.4,170.1c-0.6,0.2-1.2,0.5-1.4-0.6c-0.2-0.8-0.5-1.7-0.8-2.5c-0.2-0.5-0.2-0.9,0.4-0.9c0,0.1,0,0.2,0,0.3
	L88.4,170.1z"/>
<path class="st43" d="M23,77.6c0.5,0.6,1,1.2,1.4,1.9c0.1,0.4-0.5,0.7-1,0.6c-1-0.2-0.9-1.1-1-1.8C22.3,77.9,22.6,77.7,23,77.6z"/>
<path class="st44" d="M24.8,77.4c0.3,0.8,2,0.2,1.5,1.6c-0.1,0.2-0.2,0.3-0.4,0.4C25.3,78.9,24.9,78.2,24.8,77.4z"/>
<path class="st39" d="M23.9,75.4c0,0.3,0,0.7-0.3,0.7c-0.8,0-0.6-0.8-0.7-1.2s0-0.8,0.3-0.7C23.8,74.2,23.6,75,23.9,75.4z"/>
<path class="st45" d="M104.6,92.7c-0.5-0.1-0.5-0.5-0.6-0.8c-0.1-0.3,0-0.5,0.3-0.6c0.1,0,0.1,0,0.2,0c0.4,0,0.7,0.2,0.7,0.7
	S105.1,92.5,104.6,92.7z"/>
<path class="st46" d="M27.6,69c0.4,0,0.7,0.2,0.6,0.6c-0.1,0.3-0.4,0.6-0.8,0.5c-0.3,0-0.7-0.1-0.7-0.5S27.1,69,27.6,69z"/>
<path class="st33" d="M25.8,94.8c0,0.1,0,0.2,0,0.3c-0.4,0.2-0.7,0.9-1.2,0.2c-0.2-0.3-0.2-0.6,0-0.9C25.3,93.8,25.5,94.5,25.8,94.8
	z"/>
<path class="st47" d="M31.1,72.9c-0.4-0.4-0.4-1.1,0-1.5C31.7,71.9,31.7,72.3,31.1,72.9z"/>
<path class="st48" d="M104.9,86.8c-0.1,0.1-0.3,0.2-0.4,0.2c-0.1-0.1-0.2-0.2-0.2-0.3c0-0.2,0.1-0.4,0.4-0.3S104.8,86.6,104.9,86.8z
	"/>
<path class="st17" d="M85.3,74.2l0.4,0.1L84,74.9C84.1,74,84.8,74.3,85.3,74.2z"/>
<path class="st49" d="M25.1,89.3c0.1,0.2,0.3,0.3,0.3,0.4s-0.1,0.2-0.2,0.3c-0.1-0.1-0.2-0.2-0.3-0.3S25,89.5,25.1,89.3z"/>
<path class="st35" d="M84.6,161.6l-0.3-0.7c0.2,0,0.5-0.3,0.6,0.1S84.8,161.5,84.6,161.6z"/>
<path class="st50" d="M19.8,85c0,0.2-0.1,0.4-0.3,0.3c-0.1-0.1-0.2-0.2-0.2-0.4c0-0.2,0-0.3,0.2-0.3S19.8,85,19.8,85z"/>
<path class="st51" d="M81.3,161.9c0.7-0.2,1.3-0.7,1.7-1.3c-0.1,0.9,0,1.9,0.4,2.7c0.8,2.5,1.7,5,2.5,7.5c0.7,2.1,1.7,2.3,3.3,0.7
	l1.1,2.2c-0.8,1-1.3,2.5-3,2.3l-1.4-1c-1.3-4.1-2.7-8.2-4-12.4C81.9,162.4,81.7,162.1,81.3,161.9z"/>
<path class="st52" d="M71.1,176.1c-0.1-0.6-0.2-1.1,0.7-1c0.8,0.1,1.5,0.2,2.3,0.4c2.8,0.6,4.3-0.5,4-3.4c-0.4-3.6-0.2-7.2-0.2-10.9
	l0.2-0.1c0.7-0.8,1-0.2,1.4,0.4l0,0c0,3.7,0,7.5,0,11.2c0,3.5-1.6,4.9-5.1,4.3l-1.9-0.3L71.1,176.1z"/>
<path class="st15" d="M44.5,111.3c4.2,0,8.4,0.3,12.6,0.9c-1-0.1-1.3,0.3-1.3,1.3c-0.2,3.3-0.4,6.6-0.6,9.9c0,0.7-0.2,1.1-1,1.2
	s-1.5,0.2-2.3,0.3c-2.7,0.3-2.7,0.3-2.7-2.5c0-1.8,0-3.6,0-5.4c0-2.2-0.6-3-2.7-3.7C45.5,112.9,45.1,111.9,44.5,111.3z"/>
<path class="st17" d="M38.2,122.2c-0.8-1.9-1.7-3.7-2.4-5.5c-0.6-1.3-1-2.7-3.1-1.8c-1.1,0.4-2-0.9-1.5-2.1c1.1-2.8,5.7-3.9,8-1.9
	c0.1,0.1,0.2,0.2,0.4,0.3c0.9,0.9,2.4,1.8,2.6,2.9s-1.3,2.1-2.1,3.1c-0.5,0.9-0.7,1.8-0.8,2.8C39,120.8,38.7,121.6,38.2,122.2z"/>
<path class="st53" d="M70,113.7c2.4,0,4.8,0.5,7.2,0.6c0.6,0,0.7,0.3,0.8,0.8c0.4,2.2,1.3,4.3,2.6,6.1c-2.9,0.2-5.6-0.8-8.3-1.8
	c-0.8-0.3-1.1-1.1-1.3-1.8C70.5,116.4,70.1,115,70,113.7z"/>
<path class="st54" d="M75.1,128.5l-2,2c-2.7-1.2-4.8-3.3-7.2-5.1c-0.5-0.3-1.2-0.8-0.4-1.4s1.2-1.8,2.3-0.7c1.6,1.7,3.6,2.8,5.4,4.2
	C73.8,127.9,74.4,128.3,75.1,128.5z"/>
<path class="st55" d="M94,139.4l-0.4,0.4c-3-0.4-5.9-0.9-8.9-1.2c-1.2-0.1-1.8-0.6-1.9-1.8c0.1,0,0.2,0,0.2-0.1
	c3.4,0.3,6.7,0.8,10,1.4c0.6,0,1,0.5,1,1.1C94,139.3,94,139.4,94,139.4z"/>
<path class="st56" d="M91.6,144.8c0-0.6-0.1-1.4,0.9-1.4c0.8,0,1.7-0.3,1.8,1c0.1,1.1,0.4,2.1,0.6,3.2c0.2,0.7-0.3,1.5-1,1.7
	c-0.1,0-0.2,0-0.3,0c-1,0.1-1.3-0.5-1.4-1.4C92,146.9,91.8,145.8,91.6,144.8z"/>
<path class="st57" d="M82.6,58.8l0.7-0.7c0.3,0.9,2,0.5,1.7,1.9l-1.3-0.2C83.1,59.6,82.6,59.5,82.6,58.8z"/>
<path class="st58" d="M30.3,92.1c0.1,0.1,0.3,0.2,0.3,0.3c0,0.2-0.1,0.3-0.2,0.4c-0.2,0.1-0.5,0-0.4-0.2
	C30,92.4,30.2,92.3,30.3,92.1z"/>
<path class="st59" d="M45.5,87.6l0.3,0.3c-0.3,0.3-0.7,0.4-1.1,0.2C44.8,87.6,45.2,87.6,45.5,87.6z"/>
<path class="st53" d="M83.6,101.7c-3.3,1.2-4.6,3.9-5.3,7c-0.3,1.5-0.7,2.1-2.4,1.7c-2.2-0.4-4.6-0.4-6.9-0.8c-0.4-0.6-0.4-1.4,0-2
	c1.2-2.2,2.3-4.5,3.4-6.8c0.3-0.7,0.9-1.2,1.6-1.4c2.3,1.9,5.2,0.9,7.7,1.5C82.4,101.1,83.3,100.6,83.6,101.7z"/>
<path class="st15" d="M83.6,101.7c-2.4-0.5-4.7-0.7-7.1-0.6c-1.1,0.2-2.2-0.6-2.4-1.7c0-1.1,0.8-1.9,1.9-1.9c0,0,0,0,0,0
	c4.3-0.5,8.6-1,13-1.4c2.8-0.2,3.6,0.6,3.8,3.3c-0.7,1.5-2.4,2.3-4,2c-0.6-0.1-1.3-0.3-1.8,0.2C85.7,101.3,84.6,101.3,83.6,101.7z"
	/>
<path class="st60" d="M90.4,111.9c0,3-0.4,5.2-1.8,7.1c-1.7,2.3-4.3,2.3-6.1,0c-2.5-3.2-2.5-9.5,0-12.8c1.8-2.3,4.3-2.4,6.1,0
	C89.8,107.8,90.4,109.8,90.4,111.9z"/>
<path class="st34" d="M101.6,116.5c-0.4-0.7-0.8-1.4-1.2-2.1c-1.1-1.4-1.5-3.1-1.1-4.8l0,0c0.5-0.3,0.7-0.9,0.4-1.4c0,0,0,0,0,0
	c0-0.1,0-0.2,0-0.2c0.1-0.3,0.1-0.6,0.2-1c0.1-0.6,0.6-1,1.2-1c0.5,0,1,0.4,1.1,0.8c0.8,1.9,1.2,3.9,1.1,5.9c0,0.9-0.1,1.7-0.3,2.6
	C102.8,116.1,102.8,117,101.6,116.5z"/>
<path class="st60" d="M101.6,116.5c0.8,0.1,0.8-0.5,0.9-1c0.3-2.6,0.5-5.2-0.5-7.8c-0.2-0.6-0.3-1.3-1-1.4s-0.8,0.8-1.1,1.3
	c-0.1,0.1-0.2,0.3-0.3,0.4c-0.5-1.1,0.1-2.4,1.2-2.9c0.1,0,0.1,0,0.2-0.1c1.4-0.5,2,0.7,2.4,1.7c1.5,3.7,1.4,7.8-0.2,11.4
	C102.3,118.1,102.2,117,101.6,116.5z"/>
<path class="st60" d="M99.7,108.3c0.3,0.6,0.6,1.1-0.4,1.4C99.7,109.3,99.6,108.8,99.7,108.3z"/>
<path class="st61" d="M79.3,161.6c-0.4-0.3-0.8-0.7-1.4-0.4c0-0.5,0-1.1,0-1.6c0.7-0.1,1.5,0.1,2,0.6
	C78.8,160.2,79.4,161.1,79.3,161.6z"/>
<path class="st15" d="M90.6,123.8c1.6-1.4,3.7-2.1,5.8-1.9c0.5,0,1.2-0.2,1.4,0.5s-0.6,0.6-1,0.9l-0.9,0.6c1.2,0,2,0,2.8,0
	s1,0.3,1,1c0,0.6,0,1.2,0,1.8c0.3,1.3-0.5,2.6-1.8,2.9c-1.3,0.4-2.6,0.6-3.6-0.7C92.8,127.4,91.6,125.7,90.6,123.8z"/>
<path class="st62" d="M91,132.7c0.7,0,1.4,0,2.1,0c1.4-0.2,1.7,0.4,1.2,1.6c-0.1,0.2-0.2,0.5-0.4,0.7h-1.6c-2.1-0.5-4.3,0-6.5-0.3
	C87.1,133.3,89.1,132.5,91,132.7z"/>
<path class="st57" d="M87,59.1c0.1-1,0.1-1.8-1.3-2.3c-0.8-0.3-0.7-1.3-0.4-2.2c0.4,1.1,0.9,2,2.2,2.1c0.9,0,0.8,0.5,0.4,1.1
	S87.3,58.7,87,59.1z"/>
<path class="st57" d="M86.3,59.9c-1.4-0.6,0.1-1.2,0-1.7c0.6,0,0.2,0.8,0.7,0.9C86.9,59.5,86.6,59.8,86.3,59.9z"/>
<path class="st63" d="M73.1,171.8l-5.4-1c-0.5-0.1-0.8-0.3-0.6-0.9s0.5-0.8,1.1-0.7c1.7,0.4,3.4,0.8,5.1,1.2c0.5,0.1,1.2,0,1.1,0.9
	S73.4,171.7,73.1,171.8z"/>
<path class="st64" d="M54.1,53.5c0.3-0.4-0.4-1.6,0.5-1.5c1.1,0.2,1.9,1.2,1.8,2.4c0,0.8-0.1,1.4-1.1,1.3
	C53.7,55.7,54.3,54.4,54.1,53.5z"/>
<path class="st65" d="M54.1,47.4c0-0.7,0-1.5,0.8-1.6s0.7,0.8,0.8,1.3c0.1,0.6-0.3,1.2-1,1.2c0,0,0,0,0,0
	C54,48.5,54.2,47.7,54.1,47.4z"/>
<path class="st66" d="M94.9,46c1,0.2,2,0.4,2.2,1.1c0.2,1.2,0.2,2.4,0,3.6c-0.1,0.6-1,0.2-1.5,0.3s-0.7-0.4-0.7-0.8
	c0-0.2,0-0.4,0-0.7C94.9,48.4,94.9,47.3,94.9,46z"/>
<path class="st67" d="M82,46.8c0.8,1.5-0.3,2-1.4,2.6c-0.3-0.6-0.3-1.4,0-2C81,47.1,81.2,46.3,82,46.8z"/>
<path class="st68" d="M82,46.8c-0.6,0-0.9,0.5-1.3,0.7c0.1-0.5-0.3-1.3,0.4-1.5S81.8,46.4,82,46.8z"/>
<path class="st16" d="M116.3,130.5c1.6-0.1,3.2,0.5,4.2,1.7c0.5,0.5,0.9,1,0.5,1.7c-0.3,0.6-1,0.9-1.7,0.7c-1.3-0.1-2.6-0.6-3.7-1.3
	c-0.7-0.5-1.7-1.1-1.4-2.2S115.7,130.7,116.3,130.5z"/>
<path class="st69" d="M101.1,30.2c1.4,0.1,1.9,0.7,1.8,1.8s-0.6,1.6-1.6,1.5c-0.9,0-1.6-0.7-1.6-1.6c0-0.1,0-0.2,0-0.2
	C99.8,30.7,100.4,30.1,101.1,30.2z"/>
<path class="st69" d="M38,30.3c0.9-0.1,1.6,0.6,1.7,1.5c0,0.1,0,0.2,0,0.2c0,0.8-0.6,1.5-1.4,1.5c-0.1,0-0.1,0-0.2,0
	c-0.8,0.1-1.4-0.5-1.5-1.3c0-0.1,0-0.2,0-0.3C36.5,31,36.9,30.3,38,30.3z"/>
<path class="st70" d="M94.5,30.1c0.3,0.2,0.7,0.4,0.6,0.8c-0.1,0.3-0.4,0.6-0.7,0.5c-0.6,0-0.4-0.5-0.4-0.9S94.1,30,94.5,30.1z"/>
<path class="st71" d="M51.3,30.1c0.3,0.2,0.7,0.4,0.6,0.8s-0.2,0.6-0.6,0.6s-0.5-0.4-0.5-0.7S50.7,30.1,51.3,30.1z"/>
<path class="st72" d="M76.7,30.9c0,0.3-0.3,0.6-0.6,0.5c0,0,0,0,0,0c-0.4,0-0.3-0.3-0.3-0.6s0.1-0.5,0.4-0.5S76.7,30.5,76.7,30.9z"
	/>
<path class="st73" d="M82.3,110.3c-0.2-0.1-0.5-0.2-0.5-0.3c0.4-1.8,0.9-3.5,2.4-4.7c0.8-0.6,1.9-0.4,2.4,0.4c0,0,0.1,0.1,0.1,0.1
	c1.9,2.1,2.6,5.1,1.9,7.8C87.9,110.1,85,110.3,82.3,110.3z"/>
<path class="st74" d="M82.3,110.3c1.7-0.6,3.5-0.6,5.1,0.2c1.2,0.5,1.3,1.9,1.2,3.2v0.6c0,0.8-0.6,1.5-1.4,1.5c-0.1,0-0.2,0-0.4,0
	c-1.3-0.2-2.8,0.6-4-0.5c0.2-0.8,1-1.3,1.2-2.1C84.5,111.4,84.3,110.9,82.3,110.3z"/>
<path class="st73" d="M82.9,115.3c1.5,0,3.1,0,4.6,0c0.8,0,0.7-0.7,1.1-1c-0.1,1.7-0.8,3.2-1.9,4.5c-1,1.2-1.8,1-2.8,0.2
	c-0.9-0.8-1.5-1.8-1.8-2.9C81.8,115.3,82.4,115.3,82.9,115.3z"/>
</svg>
